<?xml version="1.0" encoding="UTF-8"?>
<svg id="_레이어_2" data-name="레이어 2" xmlns="http://www.w3.org/2000/svg" viewBox="0 0 847.9 1035.15">
  <defs>
    <style>
      .cls-1 {
        fill: #574943;
      }

      .cls-2 {
        fill: #00fbff;
      }

      .cls-3 {
        fill: #ffc654;
      }

      .cls-4 {
        fill: #f6f6f6;
      }

      .cls-5 {
        fill: #362c29;
      }

      .cls-6 {
        fill: #0a0808;
      }

      .cls-7 {
        fill: #fff;
      }

      .cls-8 {
        fill: #9d9d9c;
      }

      .cls-9 {
        fill: #575756;
      }

      .cls-10 {
        fill: #f4efe9;
      }

      .cls-11 {
        fill: #b2b2b2;
      }

      .cls-12 {
        fill: #706f6f;
      }

      .cls-13 {
        fill: #de822b;
      }

      .cls-14 {
        fill: #997500;
      }

      .cls-15 {
        fill: #878787;
      }

      .cls-16 {
        fill: #ffec7a;
      }

      .cls-17 {
        fill: #c6c6c6;
      }

      .cls-18 {
        fill: #dadada;
      }

      .cls-19 {
        fill: #ededed;
      }

      .cls-20 {
        fill: #d1d1d1;
      }

      .cls-21 {
        fill: #02fbff;
      }
    </style>
  </defs>
  <g id="_게임창_우주" data-name="게임창_우주">
    <g>
      <g>
        <path class="cls-2" d="M819.78,96.43c-5.67-.04-11.04-2.1-15.25-5.81-.48-.42-.5-1.16-.05-1.62h0c.42-.43,1.11-.45,1.56-.05,3.81,3.34,8.65,5.19,13.76,5.23,11.61.09,21.13-9.25,21.22-20.81.03-4.52-1.41-8.93-4.07-12.56-.36-.48-.28-1.16.19-1.54h0c.5-.41,1.24-.31,1.63.21,2.95,4.01,4.55,8.9,4.51,13.9-.1,12.8-10.63,23.13-23.49,23.04Z"/>
        <path class="cls-2" d="M819.91,100.88c-10.34-.08-19.84-5.95-24.53-15.06-.29-.57-.04-1.26.54-1.52h0c.55-.25,1.2-.02,1.47.51,4.31,8.37,13.04,13.76,22.54,13.83,14.08.11,25.61-11.21,25.72-25.22.04-5.57-1.7-10.88-5.03-15.34-3.01-4.03-7.21-7.12-11.93-8.8-.57-.2-.88-.81-.7-1.39h0c.19-.61.85-.94,1.45-.73,5.14,1.83,9.72,5.2,12.99,9.58,3.62,4.86,5.52,10.63,5.47,16.69-.11,15.25-12.67,27.56-27.99,27.45Z"/>
      </g>
      <g>
        <path class="cls-2" d="M95.35,956.09v3.96h-7.81v3.31h-4.66v-3.31h-7.81v-3.96h20.27ZM75.82,948.7c0-1.72.54-3.04,1.62-3.95,1.08-.91,2.64-1.36,4.67-1.36h6.2c2.04,0,3.59.45,4.67,1.36,1.08.91,1.62,2.22,1.62,3.95v.61c0,1.72-.54,3.04-1.61,3.95-1.07.91-2.63,1.36-4.68,1.36h-6.2c-2.05,0-3.61-.45-4.68-1.36-1.07-.91-1.61-2.23-1.61-3.95v-.61ZM83.3,950.66h3.82c1.88,0,2.82-.52,2.82-1.56v-.19c0-1.04-.94-1.56-2.82-1.56h-3.82c-1.88,0-2.82.52-2.82,1.56v.19c0,1.04.94,1.56,2.82,1.56Z"/>
        <path class="cls-2" d="M97.83,955.39h20.27v3.96h-7.81v4.01h-4.66v-4.01h-7.81v-3.96ZM98.39,949.91c2.62-.06,4.49-.29,5.59-.68,1.1-.39,1.65-.94,1.65-1.65v-.35h-6.99v-3.84h18.64v3.84h-6.99v.26c0,.47-.05.91-.14,1.33.61.25,1.64.47,3.1.66,1.46.19,2.97.32,4.52.38l-.61,3.91c-2.21-.14-4.03-.36-5.46-.65-1.44-.29-2.7-.7-3.79-1.21-1.93,1.21-5.1,1.86-9.53,1.96v-3.96Z"/>
        <path class="cls-2" d="M120.58,959.51h20.27v3.96h-20.27v-3.96ZM120.91,951.45c.87-.2,1.58-.7,2.13-1.5.55-.8.83-1.9.83-3.3v-3.45h4.43v2.89c0,.61-.03,1.15-.09,1.63.16.82.46,1.53.92,2.13.46.6.97,1.04,1.53,1.32.65-.25,1.18-.75,1.57-1.51.4-.76.59-1.76.59-3.01v-3.45h4.43v2.89c0,.53-.02,1.04-.07,1.54.2.87.63,1.66,1.28,2.37.65.71,1.34,1.18,2.07,1.41l-.14,4.24c-1.09-.25-2.01-.63-2.76-1.15-.75-.52-1.42-1.21-1.99-2.06-.59.98-1.33,1.75-2.23,2.33-.89.57-1.91.9-3.04.98-.89-.29-1.64-.71-2.26-1.24-.62-.53-1.13-1.22-1.54-2.07-.65.98-1.46,1.75-2.41,2.33-.96.57-2.04.9-3.25.98v-4.29Z"/>
        <path class="cls-2" d="M143.45,950.61h4.68c.2-1.18.3-2.27.3-3.26h-4.99v-3.96h9.02v3.36c0,.57-.04,1.24-.13,2-.09.76-.2,1.38-.34,1.86h.51v3.73h-4.82c-.12.42-.19.95-.19,1.58,0,.87.26,1.57.77,2.1s1.29.79,2.33.79c.82,0,1.66-.09,2.52-.28l.19,3.8c-.85.29-2.04.44-3.54.44-1.91,0-3.42-.48-4.54-1.45-1.12-.96-1.68-2.37-1.68-4.22,0-.89.12-1.81.35-2.77h-.44v-3.73ZM152.88,950.19h1.38v-7.18h3.73v20.25h-3.73v-9.16h-1.38v-3.92ZM158.94,942.92h3.96v20.43h-3.96v-20.43Z"/>
        <path class="cls-2" d="M166.31,943.39h11.91v6.04c0,2.75-.16,5.22-.47,7.41-.31,2.19-.81,4.17-1.49,5.94l-4.66-.98c.62-1.49,1.1-3.19,1.44-5.09.34-1.9.51-3.94.51-6.12v-3.24h-7.25v-3.96ZM180.99,942.92h4.66v20.43h-4.66v-20.43Z"/>
      </g>
      <g>
        <path class="cls-2" d="M75.12,998.42c0-1.49.51-2.61,1.54-3.37,1.03-.75,2.5-1.13,4.43-1.13s3.4.38,4.43,1.13c1.03.75,1.54,1.88,1.54,3.37v3.26c0,1.49-.51,2.61-1.54,3.37-1.03.75-2.5,1.13-4.43,1.13s-3.4-.38-4.43-1.13c-1.03-.75-1.54-1.88-1.54-3.37v-3.26ZM79.95,1013.88c-1.33-.32-2.28-.79-2.87-1.41-.58-.62-.87-1.41-.87-2.38v-3.17h4.66v2.45c0,.28.11.5.33.66s.64.28,1.27.36c.63.08,1.57.12,2.81.12,3.39,0,6.33-.26,8.83-.79v3.84c-1.26.23-2.67.42-4.22.57-1.55.15-3.09.22-4.61.22-2.22,0-4-.16-5.32-.48ZM81.17,1002.33c.45,0,.8-.11,1.04-.33.24-.22.36-.54.36-.96v-2c0-.42-.12-.74-.36-.96-.24-.22-.59-.33-1.04-.33-.93,0-1.4.43-1.4,1.28v2c0,.85.47,1.28,1.4,1.28ZM89.33,993.69h4.66v13.91h-4.66v-13.91Z"/>
        <path class="cls-2" d="M97.17,1001.52h5.71v-2.96h4.66v2.96h9.9v3.68h-20.27v-3.68ZM99.26,1013.45c-.9-.61-1.35-1.62-1.35-3.05s.45-2.45,1.34-3.05c.89-.61,2.23-.91,4.02-.91h8.06c1.79,0,3.13.3,4.02.91.89.61,1.34,1.62,1.34,3.05s-.45,2.45-1.35,3.05c-.9.61-2.24.91-4.01.91h-8.06c-1.77,0-3.11-.3-4.01-.91ZM97.98,993.69h18.43v4.05c0,.47-.03,1.03-.1,1.68s-.16,1.17-.27,1.56l-4.61-.3c.09-.39.17-.92.23-1.61.06-.68.09-1.28.09-1.79h-13.77v-3.59ZM103.02,1010.82c.14.09.35.14.63.14h7.32c.28,0,.49-.05.63-.14.14-.09.21-.24.21-.44s-.07-.35-.21-.44c-.14-.09-.35-.14-.63-.14h-7.32c-.28,0-.49.05-.63.14-.14.09-.21.24-.21.44s.07.35.21.44Z"/>
        <path class="cls-2" d="M124.46,1010.82h-4.78v-3.96h14.21v3.96h-4.78v3.31h-4.66v-3.31ZM121.95,995.39c1.13-1.01,2.67-1.51,4.61-1.51s3.48.51,4.61,1.51c1.13,1.01,1.7,2.48,1.7,4.4s-.57,3.39-1.7,4.4-2.67,1.51-4.61,1.51-3.48-.5-4.61-1.51c-1.13-1.01-1.7-2.48-1.7-4.4s.57-3.39,1.7-4.4ZM125.36,1001.18c.3.32.7.48,1.2.48s.9-.16,1.2-.48.45-.78.45-1.39-.15-1.07-.45-1.39-.7-.48-1.2-.48-.9.16-1.2.48-.45.78-.45,1.39.15,1.07.45,1.39ZM134.83,993.69h4.66v20.43h-4.66v-20.43Z"/>
        <path class="cls-2" d="M145.52,999.72c.75-.7,1.13-1.69,1.13-2.98v-2.77h4.66v2.19c0,.51-.03.96-.09,1.35.19.51.49,1.01.92,1.5.43.49.93.93,1.5,1.32v-3.47h3.94v-3.17h4.66v11.35h-4.66v-4.5h-3.59c.76.48,1.58.82,2.45,1.02l-2.24,3.68c-1.03-.31-1.93-.74-2.7-1.28-.78-.54-1.47-1.23-2.07-2.05-.78,1.01-1.76,1.81-2.96,2.41s-2.56.94-4.1,1.01v-4.4c1.35-.11,2.4-.51,3.16-1.21ZM145.64,1006.75c.91-.74,2.24-1.11,4-1.11h7.36c1.75,0,3.09.37,4,1.11.91.74,1.36,1.82,1.36,3.25s-.46,2.51-1.36,3.25c-.91.74-2.24,1.11-4,1.11h-7.36c-1.76,0-3.09-.37-4-1.11-.91-.74-1.36-1.82-1.36-3.25s.45-2.51,1.36-3.25ZM150.12,1010.72h6.38c.79,0,1.19-.26,1.19-.77s-.4-.77-1.19-.77h-6.38c-.79,0-1.19.26-1.19.77s.4.77,1.19.77Z"/>
      </g>
      <g>
        <path class="cls-2" d="M175.2,2.71c.18-.83.4-1.58.67-2.26h4.72c-.63,1.26-.94,2.58-.94,3.98,0,.7.23,1.19.7,1.47.46.28,1.27.42,2.4.42.79,0,1.52-.05,2.18-.16s1.36-.26,2.09-.47l.7,3.82c-.54.22-1.25.42-2.12.57-.88.16-1.72.24-2.53.24-2.79,0-4.84-.4-6.15-1.2-1.32-.8-1.98-2.14-1.98-4.01,0-.76.09-1.56.27-2.39ZM176.06,11.61h17.29v7.28c-.9.33-2.12.58-3.66.76s-3.23.27-5.08.27-3.47-.09-4.96-.28c-1.5-.19-2.7-.44-3.59-.75v-7.28ZM182.02,16.4c.82.08,1.68.11,2.59.11s1.82-.04,2.68-.11c.86-.08,1.38-.15,1.56-.22v-1.26h-8.31v1.26c.17.08.66.15,1.47.22ZM188.86,0h4.49v3.28h2.02v3.77h-2.02v3.55h-4.49V0Z"/>
        <path class="cls-2" d="M196.89,8.8h19.54v3.77h-19.54v-3.77ZM197.61,4.13v-.36c0-2.52,1.87-3.77,5.62-3.77h6.87c3.74,0,5.62,1.26,5.62,3.77v.36c0,2.52-1.87,3.77-5.62,3.77h-6.87c-3.74,0-5.62-1.26-5.62-3.77ZM197.67,13.43h4.49v1.68c0,.27.11.48.34.64.22.16.67.27,1.33.35s1.63.11,2.92.11c3.4,0,6.35-.25,8.85-.76v3.71c-1.27.22-2.69.41-4.25.55-1.56.14-3.09.21-4.6.21-2.23,0-4.01-.15-5.33-.46-1.33-.31-2.28-.76-2.86-1.36s-.88-1.36-.88-2.29v-2.38ZM202.55,4.47c.15.09.39.13.72.13h6.78c.33,0,.57-.04.72-.13s.22-.24.22-.45-.08-.36-.22-.45-.39-.13-.72-.13h-6.78c-.33,0-.57.04-.72.13s-.22.24-.22.45.08.36.22.45Z"/>
        <path class="cls-2" d="M221.62,12.52c.79-1.19,1.18-2.82,1.18-4.88V.27h4.49v6.83c0,.52-.02,1.03-.07,1.53.24,1.05.65,2.04,1.24,2.96s1.25,1.72,1.99,2.38c.74.66,1.49,1.12,2.24,1.39l-2.16,3.64c-1.05-.43-1.97-1.04-2.75-1.81-.79-.77-1.49-1.74-2.12-2.91-.76,1.41-1.75,2.53-2.95,3.38-1.21.85-2.59,1.32-4.14,1.43v-4.36c1.26-.28,2.28-1.02,3.07-2.21ZM233.22,0h4.49v19.7h-4.49V0Z"/>
        <path class="cls-2" d="M240.79.45h11.48v3.57c0,1.74-.13,3.24-.38,4.5-.25,1.27-.68,2.48-1.28,3.65l-4.49-.94c.55-.93.97-1.89,1.25-2.9.28-1,.42-2.14.42-3.41v-.74h-6.99V.45ZM245.68,19.46c-1.28-.31-2.2-.76-2.76-1.36-.56-.6-.84-1.36-.84-2.29v-3.5h4.49v2.81c0,.27.1.48.31.64.21.16.62.27,1.22.35.61.08,1.51.11,2.71.11,3.26,0,6.1-.25,8.51-.76v3.71c-1.21.22-2.57.41-4.07.55-1.5.14-2.98.21-4.45.21-2.14,0-3.85-.15-5.13-.46ZM254.72,0h4.49v3.73h2.02v3.77h-2.02v5.91h-4.49V0Z"/>
      </g>
      <g>
        <path class="cls-2" d="M751.15,9.19c1.23-.1,2.22-.38,2.98-.82.76-.44,1.13-1.05,1.13-1.83v-.4h-3.71v-3.68h11.9v3.5h2.36v-3.95h4.49v10.89h-4.49v-3.39h-2.58c.43.15.85.25,1.26.31l-2.07,3.55c-.97-.24-1.82-.57-2.54-1-.72-.43-1.36-.96-1.93-1.61-.76.79-1.72,1.43-2.86,1.9-1.14.47-2.46.74-3.94.8v-4.27ZM756.61,21.64c-1.5-.19-2.7-.44-3.59-.75v-7.1h17.29v7.1c-.9.33-2.12.58-3.66.76s-3.23.27-5.08.27-3.47-.09-4.96-.28ZM758.98,18.4c.82.08,1.68.11,2.59.11s1.82-.04,2.68-.11c.86-.08,1.38-.15,1.56-.22v-1.08h-8.31v1.08c.17.08.66.15,1.47.22ZM760.71,8.18c.47.37,1.02.7,1.65.99v-3.03h-2.61v.04c0,.18-.01.45-.04.81.19.42.53.82,1,1.19Z"/>
        <path class="cls-2" d="M773.4,13.57h19.54v3.82h-7.52v4.31h-4.49v-4.31h-7.52v-3.82ZM773.93,7.57c2.31-.12,3.98-.48,5.01-1.07,1.03-.59,1.55-1.42,1.55-2.48v-1.75h4.72v1.44c0,.51-.04,1-.13,1.48.49.54,1.48,1.03,2.95,1.47,1.47.44,3.01.73,4.59.87l-.58,4.04c-2.1-.21-3.83-.54-5.21-1-1.38-.46-2.58-1.08-3.62-1.88-.93.9-2.17,1.6-3.72,2.11-1.55.51-3.4.79-5.56.85v-4.09Z"/>
      </g>
      <g>
        <path class="cls-2" d="M39.79,81.52v7.78h-15.32v6.49h-9.15v-6.49H0v-7.78h39.79ZM1.46,67.02c0-3.38,1.06-5.97,3.18-7.75,2.12-1.78,5.17-2.68,9.17-2.68h12.17c3.99,0,7.05.89,9.17,2.68,2.12,1.78,3.18,4.37,3.18,7.75v1.19c0,3.38-1.05,5.97-3.16,7.75-2.1,1.78-5.17,2.67-9.19,2.67h-12.17c-4.02,0-7.09-.89-9.19-2.67-2.1-1.78-3.16-4.37-3.16-7.75v-1.19ZM16.14,70.86h7.5c3.69,0,5.53-1.02,5.53-3.06v-.37c0-2.04-1.84-3.06-5.53-3.06h-7.5c-3.69,0-5.53,1.02-5.53,3.06v.37c0,2.04,1.84,3.06,5.53,3.06Z"/>
        <path class="cls-2" d="M47.84,80.15h39.79v7.77h-15.32v7.87h-9.15v-7.87h-15.32v-7.77ZM48.93,69.4c5.15-.12,8.81-.56,10.98-1.33,2.17-.76,3.25-1.84,3.25-3.25v-.69h-13.72v-7.55h36.59v7.55h-13.72v.5c0,.92-.09,1.78-.27,2.61,1.19.49,3.22.92,6.08,1.3,2.87.38,5.82.63,8.87.75l-1.19,7.68c-4.33-.27-7.9-.7-10.72-1.28-2.82-.58-5.3-1.37-7.43-2.38-3.78,2.38-10.02,3.66-18.71,3.84v-7.78Z"/>
      </g>
      <path class="cls-21" d="M679.29,59.29H136.07v-10.89l17.37-17.37h543.22v10.89l-17.37,17.37ZM138.06,57.29h540.4l16.2-16.2v-8.06H154.26l-16.2,16.2v8.06Z"/>
      <g>
        <path class="cls-2" d="M37.52,15.79l1.8-13.6h3.73l-2.93,17.62h-4.8l-1.23-8.22-1.31,8.22h-4.8l-2.73-17.62h3.73l1.6,13.6,2.01-13.6h3.12l1.8,13.6Z"/>
        <path class="cls-2" d="M45.32,12.63c0-1.59.5-2.82,1.49-3.71s2.42-1.33,4.3-1.33,3.3.44,4.3,1.33c.99.89,1.49,2.13,1.49,3.71v2.34c0,1.6-.5,2.84-1.49,3.72-.99.88-2.42,1.32-4.3,1.32s-3.31-.44-4.3-1.32c-.99-.88-1.49-2.12-1.49-3.72v-2.34ZM52.52,16.25c.31-.32.46-.75.46-1.28v-2.34c0-.53-.15-.96-.46-1.28-.31-.32-.78-.48-1.43-.48s-1.12.16-1.43.48c-.31.32-.46.75-.46,1.28v2.34c0,.53.15.96.46,1.28.31.32.78.48,1.43.48s1.12-.16,1.43-.48Z"/>
        <path class="cls-2" d="M60.07,19.81V7.79h3.9v1.66c.29-.57.64-1.03,1.05-1.36.41-.33.88-.5,1.42-.5.31,0,.65.04,1,.12s.64.18.84.29l-.41,3.49c-.45-.27-1-.41-1.64-.41-1.05,0-1.8.63-2.26,1.89v6.85h-3.9Z"/>
        <path class="cls-2" d="M74.53,1.98v17.82h-3.9V1.98h3.9Z"/>
        <path class="cls-2" d="M84.89,19.23c-.67.52-1.49.78-2.46.78-1.49,0-2.65-.41-3.48-1.24-.83-.83-1.24-2.01-1.24-3.56v-2.83c0-1.53.45-2.71,1.35-3.55s2.09-1.25,3.57-1.25c.93,0,1.68.19,2.26.57V2.19h3.9v17.62h-3.9v-.57ZM82.05,16.34c.29.26.72.39,1.28.39.71,0,1.23-.26,1.56-.78v-4.66c-.3-.42-.78-.64-1.44-.64-.6,0-1.06.13-1.37.38-.31.25-.47.63-.47,1.14v3.04c0,.49.15.87.44,1.13Z"/>
      </g>
      <g>
        <g>
          <g>
            <polygon class="cls-8" points="42.97 1008.17 43.27 1008.04 43.49 1008.2 43.27 1008.77 41.98 1020.27 41.76 1020.66 41.55 1020.5 42.97 1008.17"/>
            <polygon class="cls-12" points="43.18 1008.33 43.49 1008.2 42.07 1020.53 41.76 1020.66 43.18 1008.33"/>
          </g>
          <g>
            <polygon class="cls-17" points="42.59 1019.31 42.17 1018.64 41.65 1018.25 41.15 1018.24 40.83 1018.61 40.75 1019.26 40.95 1020.02 41.37 1020.68 41.89 1021.07 42.39 1021.09 42.72 1020.72 42.79 1020.07 42.59 1019.31"/>
            <polygon class="cls-11" points="42.1 1019.3 42.59 1019.31 42.79 1020.07 42.68 1021.12 42.09 1019.8 42.1 1019.3"/>
            <polygon class="cls-18" points="41.33 1018 42.17 1018.64 42.59 1019.31 42.25 1019.46 41.5 1018.45 41.33 1018"/>
            <polygon class="cls-19" points="40.19 1017.5 40.18 1017.15 39.1 1017.12 38.93 1017.19 39.21 1017.47 40.19 1017.5"/>
            <polygon class="cls-11" points="41.64 1023.43 41.8 1023.36 42.52 1022.55 42.25 1022.4 41.64 1023.43"/>
            <polygon class="cls-17" points="42.54 1021.08 42.68 1021.12 42.52 1022.55 42.36 1022.62 42.41 1021.12 42.54 1021.08"/>
            <polygon class="cls-18" points="41.99 1019.42 42.25 1019.46 42.68 1021.12 42.52 1021.19 41.99 1019.52 41.99 1019.42"/>
            <polygon class="cls-19" points="41.12 1017.97 41.33 1018 42.25 1019.46 42.09 1019.53 41 1018.05 41.12 1017.97"/>
            <polygon class="cls-4" points="40.02 1017.21 40.18 1017.15 41.33 1018 41.17 1018.07 40.22 1017.87 40.02 1017.21"/>
            <polygon class="cls-7" points="42.09 1019.53 41.17 1018.07 40.02 1017.21 38.93 1017.19 38.22 1018 38.05 1019.42 38.49 1021.09 39.4 1022.54 40.56 1023.4 41.64 1023.43 42.36 1022.62 42.52 1021.19 42.09 1019.53"/>
            <polygon class="cls-4" points="41.84 1019.63 41.17 1018.57 40.32 1017.94 39.53 1017.92 39.01 1018.51 38.89 1019.56 39.2 1020.78 39.88 1021.84 40.72 1022.47 41.51 1022.49 42.03 1021.89 42.15 1020.85 41.84 1019.63"/>
            <polygon class="cls-19" points="41.61 1019.73 41.19 1019.07 40.66 1018.68 40.17 1018.67 39.84 1019.04 39.77 1019.69 39.96 1020.45 40.38 1021.11 40.91 1021.5 41.4 1021.52 41.73 1021.15 41.8 1020.49 41.61 1019.73"/>
            <polygon class="cls-17" points="40.95 1019.81 40.7 1019.62 40.5 1019.71 40.46 1020.02 40.61 1020.37 40.87 1020.56 41.07 1020.47 41.11 1020.16 40.95 1019.81"/>
            <g>
              <g>
                <polygon class="cls-12" points="38.74 1021.01 38.73 1021.09 38.75 1021.11 40.86 1020.2 40.87 1020.11 38.74 1021.01"/>
                <polygon class="cls-15" points="38.74 1020.91 40.83 1020.02 40.87 1020.11 38.76 1021.03 38.7 1020.93 38.74 1020.91"/>
                <polygon class="cls-11" points="40.76 1019.97 38.65 1020.88 38.66 1020.92 38.72 1020.93 40.83 1020.02 40.76 1019.97"/>
                <polygon class="cls-8" points="38.72 1020.93 38.65 1020.88 38.6 1020.91 38.59 1020.99 38.63 1021.08 38.7 1021.13 38.75 1021.11 38.76 1021.03 38.72 1020.93"/>
              </g>
              <g>
                <polygon class="cls-12" points="38.61 1021.13 38.58 1021.39 38.64 1021.45 38.8 1021.38 38.83 1021.12 38.61 1021.13"/>
                <polygon class="cls-15" points="38.59 1020.81 38.7 1020.82 38.83 1021.12 38.67 1021.19 38.48 1020.88 38.59 1020.81"/>
                <polygon class="cls-11" points="38.48 1020.66 38.33 1020.73 38.35 1020.86 38.54 1020.89 38.7 1020.82 38.48 1020.66"/>
                <polygon class="cls-8" points="38.54 1020.89 38.33 1020.73 38.15 1020.8 38.12 1021.07 38.25 1021.37 38.47 1021.52 38.64 1021.45 38.67 1021.19 38.54 1020.89"/>
              </g>
            </g>
          </g>
        </g>
        <g>
          <g>
            <g>
              <polygon class="cls-14" points="13.49 992.09 8.43 988.34 15.15 979.28 20.21 983.04 19.06 984.84 14.48 990.89 13.49 992.09"/>
              <polygon class="cls-7" points="13.69 992.24 13.49 992.09 20.21 983.04 20.41 983.18 13.69 992.24"/>
            </g>
            <g>
              <polygon class="cls-14" points="18.72 995.97 13.66 992.21 20.38 983.16 25.44 986.91 24.29 988.72 19.7 994.77 18.72 995.97"/>
              <polygon class="cls-7" points="18.92 996.11 18.72 995.97 25.44 986.91 25.63 987.06 18.92 996.11"/>
            </g>
            <g>
              <polygon class="cls-14" points="23.95 999.85 18.89 996.09 25.61 987.04 30.66 990.8 29.51 992.6 24.93 998.65 23.95 999.85"/>
              <polygon class="cls-7" points="24.14 999.99 23.95 999.85 30.66 990.8 30.86 990.94 24.14 999.99"/>
            </g>
            <g>
              <polygon class="cls-14" points="29.17 1003.72 24.12 999.97 30.83 990.92 35.89 994.67 34.74 996.48 30.16 1002.53 29.17 1003.72"/>
              <polygon class="cls-7" points="29.37 1003.87 29.17 1003.72 35.89 994.67 36.09 994.82 29.37 1003.87"/>
            </g>
            <g>
              <polygon class="cls-14" points="34.4 1007.6 29.34 1003.85 36.06 994.8 41.12 998.55 39.97 1000.36 35.39 1006.41 34.4 1007.6"/>
              <polygon class="cls-7" points="34.6 1007.75 34.4 1007.6 41.12 998.55 41.31 998.7 34.6 1007.75"/>
            </g>
          </g>
          <g>
            <polygon class="cls-17" points="38.91 1004.64 37.42 1003.54 38.1 1002.62 39.59 1003.72 39.38 1004.26 38.91 1004.64"/>
            <rect class="cls-8" x="38.78" y="1004.13" width="1.14" height=".25" transform="translate(-791.88 439.33) rotate(-53.55)"/>
          </g>
        </g>
        <g>
          <g>
            <polygon class="cls-13" points="51.12 1011.63 42.39 1015.41 43.19 1008.49 51.92 1004.71 51.12 1011.63"/>
            <polygon class="cls-3" points="42.39 1015.41 34.76 1009.74 35.55 1002.82 42.42 1006.75 43.19 1008.49 42.39 1015.41"/>
            <polygon class="cls-16" points="43.19 1008.49 35.55 1002.82 44.28 999.04 51.91 1004.71 43.19 1008.49"/>
          </g>
          <g>
            <g>
              <polygon class="cls-5" points="35.57 1005.54 37.35 1006.86 37.49 1005.65 35.71 1004.33 35.57 1005.54"/>
              <polygon class="cls-1" points="37.52 1005.69 37.49 1005.65 35.71 1004.33 35.84 1004.28 37.62 1005.6 37.52 1005.69"/>
              <polygon class="cls-6" points="37.35 1006.86 37.48 1006.8 37.62 1005.6 37.49 1005.65 37.35 1006.86"/>
            </g>
            <g>
              <polygon class="cls-5" points="35.35 1007.44 37.13 1008.76 37.27 1007.56 35.49 1006.23 35.35 1007.44"/>
              <polygon class="cls-1" points="37.3 1007.6 37.27 1007.56 35.49 1006.23 35.62 1006.18 37.4 1007.5 37.3 1007.6"/>
              <polygon class="cls-6" points="37.13 1008.76 37.26 1008.71 37.4 1007.5 37.27 1007.56 37.13 1008.76"/>
            </g>
            <g>
              <polygon class="cls-5" points="35.13 1009.35 36.91 1010.67 37.05 1009.46 35.27 1008.14 35.13 1009.35"/>
              <polygon class="cls-1" points="37.08 1009.5 37.05 1009.46 35.27 1008.14 35.4 1008.09 37.18 1009.41 37.08 1009.5"/>
              <polygon class="cls-6" points="36.91 1010.67 37.04 1010.61 37.18 1009.41 37.05 1009.46 36.91 1010.67"/>
            </g>
          </g>
          <g>
            <polygon class="cls-6" points="50.5 1011.11 43.6 1014.1 44.15 1009.26 51.06 1006.27 50.5 1011.11"/>
            <polygon class="cls-1" points="44.05 1009.38 44.15 1009.26 51.06 1006.27 50.88 1006.14 43.98 1009.13 44.05 1009.38"/>
            <polygon class="cls-5" points="43.6 1014.1 43.42 1013.97 43.98 1009.13 44.15 1009.26 43.6 1014.1"/>
          </g>
        </g>
        <g>
          <polygon class="cls-9" points="52.87 1004.99 43.11 1009.22 43.04 1005.72 53.24 1001.8 52.87 1004.99"/>
          <polygon class="cls-15" points="43.11 1009.22 34.56 1002.88 34.92 999.69 42.61 1004.1 43.47 1006.04 43.11 1009.22"/>
          <polygon class="cls-8" points="43.47 1006.04 34.92 999.69 44.69 995.46 53.24 1001.8 43.47 1006.04"/>
        </g>
        <g>
          <polygon class="cls-20" points="52.57 1001.74 43.52 1005.66 43.04 998.37 53.31 995.35 52.57 1001.74"/>
          <polygon class="cls-10" points="43.52 1005.66 35.59 999.78 36.33 993.39 43.46 997.47 44.25 999.27 43.52 1005.66"/>
          <polygon class="cls-7" points="44.25 999.27 36.33 993.39 45.38 989.46 53.31 995.35 44.25 999.27"/>
        </g>
        <g>
          <g>
            <rect class="cls-17" x="46.76" y="1010.06" width="1.14" height=".25" transform="translate(-792.28 446.47) rotate(-53.44)"/>
            <rect class="cls-17" x="47.5" y="1009.68" width="1.15" height="2.1" transform="translate(-792.13 446.86) rotate(-53.41)"/>
          </g>
          <g>
            <g>
              <polygon class="cls-14" points="50.42 1019.49 45.36 1015.74 52.08 1006.68 57.14 1010.44 55.99 1012.24 51.4 1018.29 50.42 1019.49"/>
              <rect class="cls-7" x="48.24" y="1014.91" width="11.27" height=".25" transform="translate(-793 452.89) rotate(-53.39)"/>
            </g>
            <g>
              <polygon class="cls-14" points="55.65 1023.37 50.59 1019.62 57.31 1010.56 62.36 1014.32 61.21 1016.12 56.63 1022.17 55.65 1023.37"/>
              <rect class="cls-7" x="53.47" y="1018.79" width="11.27" height=".25" transform="translate(-793.83 458.39) rotate(-53.37)"/>
            </g>
            <g>
              <polygon class="cls-14" points="60.87 1027.25 55.82 1023.5 62.54 1014.44 67.59 1018.19 66.44 1020 61.86 1026.05 60.87 1027.25"/>
              <polygon class="cls-7" points="61.07 1027.39 60.87 1027.25 67.59 1018.19 67.79 1018.34 61.07 1027.39"/>
            </g>
            <g>
              <polygon class="cls-14" points="66.1 1031.13 61.05 1027.37 67.76 1018.32 72.82 1022.07 71.67 1023.88 67.09 1029.93 66.1 1031.13"/>
              <rect class="cls-7" x="63.92" y="1026.55" width="11.27" height=".25" transform="translate(-796.63 471.15) rotate(-53.45)"/>
            </g>
            <g>
              <polygon class="cls-14" points="71.33 1035 66.27 1031.25 72.99 1022.2 78.05 1025.95 76.9 1027.76 72.31 1033.81 71.33 1035"/>
              <polygon class="cls-7" points="71.53 1035.15 71.33 1035 78.05 1025.95 78.24 1026.1 71.53 1035.15"/>
            </g>
          </g>
        </g>
      </g>
      <g>
        <g>
          <polyline class="cls-14" points="20.51 934.34 15.46 946.75 11.13 945.33"/>
          <line class="cls-7" x1="15.46" y1="946.75" x2="15.26" y2="947.23"/>
        </g>
        <g>
          <polygon class="cls-14" points="39.7 949.43 50.54 941.56 64.62 960.98 53.77 968.85 50.85 965.36 41.49 952.19 39.7 949.43"/>
          <polygon class="cls-7" points="39.27 949.73 39.7 949.43 53.77 968.85 53.35 969.15 39.27 949.73"/>
        </g>
        <g>
          <polygon class="cls-14" points="28.48 957.56 39.33 949.69 53.41 969.11 42.56 976.98 39.63 973.49 30.28 960.32 28.48 957.56"/>
          <rect class="cls-7" x="35.05" y="955.43" width=".52" height="23.99" transform="translate(-560.95 204.78) rotate(-35.93)"/>
        </g>
        <polygon class="cls-14" points="43.52 939.57 37 928.38 32.85 939.98 39.49 949.14 50.34 941.28 45.77 934.97 43.52 939.57"/>
        <path class="cls-14" d="M29.27,949.98l-3.12-9.62s-2.98,1.38-7.59,3.5l9.72,13.41,10.85-7.86-6.46-8.92-3.39,9.49Z"/>
      </g>
    </g>
  </g>
</svg>