<?xml version="1.0" encoding="UTF-8"?>
<svg xmlns="http://www.w3.org/2000/svg" viewBox="0 0 846.35 1023.42">
  <defs>
    <style>
      .cls-1 {
        fill: #00fbff;
      }

      .cls-2 {
        fill: #add4e7;
      }

      .cls-3 {
        fill: #fff;
      }

      .cls-4, .cls-5, .cls-6, .cls-7 {
        fill: #edb61a;
      }

      .cls-8 {
        opacity: .16;
      }

      .cls-8, .cls-5, .cls-6, .cls-7 {
        mix-blend-mode: multiply;
      }

      .cls-8, .cls-9 {
        fill: #ed9800;
      }

      .cls-5 {
        opacity: .4;
      }

      .cls-10 {
        fill: #ed780e;
      }

      .cls-11 {
        isolation: isolate;
      }

      .cls-12 {
        fill: #edcd34;
      }

      .cls-13 {
        fill: #e0f3f5;
      }

      .cls-14 {
        fill: #edcb40;
        opacity: .27;
      }

      .cls-6 {
        opacity: .22;
      }

      .cls-15 {
        fill: #c4e6ef;
      }

      .cls-7 {
        opacity: .3;
      }

      .cls-16 {
        fill: #02fbff;
      }

      .cls-17 {
        fill: #202929;
      }
    </style>
  </defs>
  <g class="cls-11">
    <g id="_레이어_2" data-name="레이어 2">
      <g id="_게임창_해양" data-name="게임창_해양">
        <g>
          <g>
            <path class="cls-1" d="M818.24,96.43c-5.67-.04-11.04-2.1-15.25-5.81-.48-.42-.5-1.16-.05-1.62h0c.42-.43,1.11-.45,1.56-.05,3.81,3.34,8.65,5.19,13.76,5.23,11.61.09,21.13-9.25,21.22-20.81.03-4.52-1.41-8.93-4.07-12.56-.36-.48-.28-1.16.19-1.54h0c.5-.41,1.24-.31,1.63.21,2.95,4.01,4.55,8.9,4.51,13.9-.1,12.8-10.63,23.13-23.49,23.04Z"/>
            <path class="cls-1" d="M818.37,100.88c-10.34-.08-19.84-5.95-24.53-15.06-.29-.57-.04-1.26.54-1.52h0c.55-.25,1.2-.02,1.47.51,4.31,8.37,13.04,13.76,22.54,13.83,14.08.11,25.61-11.21,25.72-25.22.04-5.57-1.7-10.88-5.03-15.34-3.01-4.03-7.21-7.12-11.93-8.8-.57-.2-.88-.81-.7-1.39h0c.19-.61.85-.94,1.45-.73,5.14,1.83,9.72,5.2,12.99,9.58,3.62,4.86,5.52,10.63,5.47,16.69-.11,15.25-12.67,27.56-27.99,27.45Z"/>
          </g>
          <g>
            <path class="cls-1" d="M73.3,944.57h2.91v-2h4.66v2h2.91v3.96h-1.65c.43.62.73,1.44.9,2.47s.24,2.35.24,3.96c0,2.63-.35,4.6-1.04,5.92-.69,1.32-1.92,1.98-3.69,1.98s-3-.66-3.69-1.98c-.69-1.32-1.04-3.29-1.04-5.92,0-1.62.08-2.94.25-3.96s.46-1.85.9-2.47h-1.65v-3.96ZM77.83,957.05c.05.66.15,1.12.28,1.38.13.26.31.38.55.38s.42-.13.55-.38c.13-.26.22-.71.28-1.38s.08-1.61.08-2.85-.03-2.19-.08-2.84-.15-1.11-.28-1.36c-.13-.26-.31-.38-.55-.38s-.42.13-.55.38c-.13.26-.22.71-.28,1.36s-.08,1.6-.08,2.84.03,2.19.08,2.85ZM89.15,953.96h-1.19v9.3h-3.73v-20.25h3.73v7.04h1.19v-7.13h3.96v20.43h-3.96v-9.39Z"/>
            <path class="cls-1" d="M98.25,953.25c-1-.75-1.5-1.88-1.5-3.37v-2.24c0-1.49.5-2.61,1.51-3.37,1.01-.75,2.45-1.13,4.33-1.13s3.32.38,4.33,1.13c1.01.75,1.51,1.88,1.51,3.37v2.24c0,1.49-.5,2.61-1.5,3.37-1,.75-2.45,1.13-4.35,1.13s-3.34-.38-4.35-1.13ZM98.79,956.14c.91-.72,2.24-1.08,4-1.08h7.36c1.75,0,3.09.36,4,1.08.91.72,1.36,1.78,1.36,3.18s-.46,2.46-1.36,3.18c-.91.72-2.24,1.08-4,1.08h-7.36c-1.76,0-3.09-.36-4-1.08-.91-.72-1.36-1.78-1.36-3.18s.45-2.46,1.36-3.18ZM102.69,950.63c.85,0,1.28-.43,1.28-1.28v-1.17c0-.85-.43-1.28-1.28-1.28s-1.28.43-1.28,1.28v1.17c0,.85.43,1.28,1.28,1.28ZM103.28,959.95h6.38c.79,0,1.19-.22,1.19-.67s-.4-.68-1.19-.68h-6.38c-.79,0-1.19.22-1.19.68s.4.67,1.19.67ZM110.5,942.92h4.66v1.54h2.1v3.57h-2.1v1.33h2.1v3.57h-2.1v1.54h-4.66v-11.53Z"/>
            <path class="cls-1" d="M119.04,959.51h20.27v3.96h-20.27v-3.96ZM119.36,951.45c.87-.2,1.58-.7,2.13-1.5.55-.8.83-1.9.83-3.3v-3.45h4.43v2.89c0,.61-.03,1.15-.09,1.63.16.82.46,1.53.92,2.13.46.6.97,1.04,1.53,1.32.65-.25,1.18-.75,1.57-1.51.4-.76.59-1.76.59-3.01v-3.45h4.43v2.89c0,.53-.02,1.04-.07,1.54.2.87.63,1.66,1.28,2.37.65.71,1.34,1.18,2.07,1.41l-.14,4.24c-1.09-.25-2.01-.63-2.76-1.15-.75-.52-1.42-1.21-1.99-2.06-.59.98-1.33,1.75-2.23,2.33-.89.57-1.91.9-3.04.98-.89-.29-1.64-.71-2.26-1.24-.62-.53-1.13-1.22-1.54-2.07-.65.98-1.46,1.75-2.41,2.33-.96.57-2.04.9-3.25.98v-4.29Z"/>
            <path class="cls-1" d="M141.9,950.61h4.68c.2-1.18.3-2.27.3-3.26h-4.99v-3.96h9.02v3.36c0,.57-.04,1.24-.13,2-.09.76-.2,1.38-.34,1.86h.51v3.73h-4.82c-.12.42-.19.95-.19,1.58,0,.87.26,1.57.77,2.1s1.29.79,2.33.79c.82,0,1.66-.09,2.52-.28l.19,3.8c-.85.29-2.04.44-3.54.44-1.91,0-3.42-.48-4.54-1.45-1.12-.96-1.68-2.37-1.68-4.22,0-.89.12-1.81.35-2.77h-.44v-3.73ZM151.34,950.19h1.38v-7.18h3.73v20.25h-3.73v-9.16h-1.38v-3.92ZM157.4,942.92h3.96v20.43h-3.96v-20.43Z"/>
            <path class="cls-1" d="M164.77,943.39h11.91v6.04c0,2.75-.16,5.22-.47,7.41-.31,2.19-.81,4.17-1.49,5.94l-4.66-.98c.62-1.49,1.1-3.19,1.44-5.09.34-1.9.51-3.94.51-6.12v-3.24h-7.25v-3.96ZM179.45,942.92h4.66v20.43h-4.66v-20.43Z"/>
          </g>
          <g>
            <path class="cls-1" d="M72.64,995.34h2.91v-2h4.66v2h2.91v3.96h-1.65c.43.62.73,1.44.9,2.47s.24,2.35.24,3.96c0,2.63-.35,4.6-1.04,5.92-.69,1.32-1.92,1.98-3.69,1.98s-3-.66-3.69-1.98c-.69-1.32-1.04-3.29-1.04-5.92,0-1.62.08-2.94.25-3.96s.46-1.85.9-2.47h-1.65v-3.96ZM77.17,1007.82c.05.66.15,1.12.28,1.38.13.26.31.38.55.38s.42-.13.55-.38c.13-.26.22-.71.28-1.38s.08-1.61.08-2.85-.03-2.19-.08-2.84-.15-1.11-.28-1.36c-.13-.26-.31-.38-.55-.38s-.42.13-.55.38c-.13.26-.22.71-.28,1.36s-.08,1.6-.08,2.84.03,2.19.08,2.85ZM88.48,1004.73h-1.19v9.3h-3.73v-20.25h3.73v7.04h1.19v-7.13h3.96v20.43h-3.96v-9.39Z"/>
            <path class="cls-1" d="M97.59,1004.02c-1-.75-1.5-1.88-1.5-3.37v-2.24c0-1.49.5-2.61,1.51-3.37,1.01-.75,2.45-1.13,4.33-1.13s3.32.38,4.33,1.13c1.01.75,1.51,1.88,1.51,3.37v2.24c0,1.49-.5,2.61-1.5,3.37-1,.75-2.45,1.13-4.35,1.13s-3.34-.38-4.35-1.13ZM98.13,1006.91c.91-.72,2.24-1.08,4-1.08h7.36c1.75,0,3.09.36,4,1.08.91.72,1.36,1.78,1.36,3.18s-.46,2.46-1.36,3.18c-.91.72-2.24,1.08-4,1.08h-7.36c-1.76,0-3.09-.36-4-1.08-.91-.72-1.36-1.78-1.36-3.18s.45-2.46,1.36-3.18ZM102.03,1001.4c.85,0,1.28-.43,1.28-1.28v-1.17c0-.85-.43-1.28-1.28-1.28s-1.28.43-1.28,1.28v1.17c0,.85.43,1.28,1.28,1.28ZM102.61,1010.72h6.38c.79,0,1.19-.22,1.19-.67s-.4-.68-1.19-.68h-6.38c-.79,0-1.19.22-1.19.68s.4.67,1.19.67ZM109.84,993.69h4.66v1.54h2.1v3.57h-2.1v1.33h2.1v3.57h-2.1v1.54h-4.66v-11.53Z"/>
            <path class="cls-1" d="M117.84,1001.05c.96-.03,1.72-.37,2.28-1.01.56-.64.84-1.74.84-3.27v-2.8h4.19v2.24c0,.51-.02,1-.07,1.47.23.99.66,1.79,1.28,2.4.62.61,1.34.96,2.14,1.05l-.93,4.15c-1.88-.14-3.3-1.05-4.26-2.73-1.3,1.72-3.13,2.67-5.48,2.82v-4.31ZM121.05,1013.31c-.87-.7-1.31-1.72-1.31-3.08s.44-2.38,1.31-3.08c.87-.7,2.14-1.05,3.82-1.05h8.06c1.68,0,2.95.35,3.82,1.05.87.7,1.3,1.72,1.3,3.08s-.44,2.38-1.3,3.08c-.87.7-2.14,1.05-3.82,1.05h-8.06c-1.68,0-2.95-.35-3.82-1.05ZM125.6,1010.91h6.62c.79,0,1.19-.24,1.19-.72s-.4-.72-1.19-.72h-6.62c-.79,0-1.19.24-1.19.72s.4.72,1.19.72ZM128.6,993.78h3.73v3.26h1.42v-3.35h4.19v11.63h-4.19v-4.59h-1.42v4.59h-3.73v-11.53Z"/>
            <path class="cls-1" d="M141.13,1001.31h20.27v3.08h-7.81v.96h6.83v5.5h-13.82v.14c0,.23.38.41,1.13.54.75.12,2.08.19,3.97.19,3.65,0,6.59-.09,8.83-.28v2.82c-2.08.23-5.14.35-9.18.35-2.5,0-4.43-.16-5.8-.47s-2.31-.76-2.83-1.35-.78-1.37-.78-2.33v-1.96h13.82v-.75h-13.77v-2.4h6.94v-.96h-7.81v-3.08ZM142.06,993.69h18.41v6.17c-.95.23-2.24.41-3.88.54-1.64.12-3.45.19-5.42.19s-3.69-.07-5.28-.2c-1.59-.13-2.87-.31-3.83-.52v-6.17ZM148.33,997.71c.88.04,1.83.06,2.84.06s2.03-.02,2.96-.06c.93-.04,1.49-.08,1.68-.13v-.86h-9.09v.86c.19.05.72.09,1.61.13Z"/>
          </g>
          <g>
            <path class="cls-1" d="M173.66,2.71c.18-.83.4-1.58.67-2.26h4.72c-.63,1.26-.94,2.58-.94,3.98,0,.7.23,1.19.7,1.47.46.28,1.27.42,2.4.42.79,0,1.52-.05,2.18-.16s1.36-.26,2.09-.47l.7,3.82c-.54.22-1.25.42-2.12.57-.88.16-1.72.24-2.53.24-2.79,0-4.84-.4-6.15-1.2-1.32-.8-1.98-2.14-1.98-4.01,0-.76.09-1.56.27-2.39ZM174.51,11.61h17.29v7.28c-.9.33-2.12.58-3.66.76s-3.23.27-5.08.27-3.47-.09-4.96-.28c-1.5-.19-2.7-.44-3.59-.75v-7.28ZM180.48,16.4c.82.08,1.68.11,2.59.11s1.82-.04,2.68-.11c.86-.08,1.38-.15,1.56-.22v-1.26h-8.31v1.26c.17.08.66.15,1.47.22ZM187.32,0h4.49v3.28h2.02v3.77h-2.02v3.55h-4.49V0Z"/>
            <path class="cls-1" d="M195.34,8.8h19.54v3.77h-19.54v-3.77ZM196.06,4.13v-.36c0-2.52,1.87-3.77,5.62-3.77h6.87c3.74,0,5.62,1.26,5.62,3.77v.36c0,2.52-1.87,3.77-5.62,3.77h-6.87c-3.74,0-5.62-1.26-5.62-3.77ZM196.13,13.43h4.49v1.68c0,.27.11.48.34.64.22.16.67.27,1.33.35s1.63.11,2.92.11c3.4,0,6.35-.25,8.85-.76v3.71c-1.27.22-2.69.41-4.25.55-1.56.14-3.09.21-4.6.21-2.23,0-4.01-.15-5.33-.46-1.33-.31-2.28-.76-2.86-1.36s-.88-1.36-.88-2.29v-2.38ZM201,4.47c.15.09.39.13.72.13h6.78c.33,0,.57-.04.72-.13s.22-.24.22-.45-.08-.36-.22-.45-.39-.13-.72-.13h-6.78c-.33,0-.57.04-.72.13s-.22.24-.22.45.08.36.22.45Z"/>
            <path class="cls-1" d="M220.07,12.52c.79-1.19,1.18-2.82,1.18-4.88V.27h4.49v6.83c0,.52-.02,1.03-.07,1.53.24,1.05.65,2.04,1.24,2.96s1.25,1.72,1.99,2.38c.74.66,1.49,1.12,2.24,1.39l-2.16,3.64c-1.05-.43-1.97-1.04-2.75-1.81-.79-.77-1.49-1.74-2.12-2.91-.76,1.41-1.75,2.53-2.95,3.38-1.21.85-2.59,1.32-4.14,1.43v-4.36c1.26-.28,2.28-1.02,3.07-2.21ZM231.67,0h4.49v19.7h-4.49V0Z"/>
            <path class="cls-1" d="M239.25.45h11.48v3.57c0,1.74-.13,3.24-.38,4.5-.25,1.27-.68,2.48-1.28,3.65l-4.49-.94c.55-.93.97-1.89,1.25-2.9.28-1,.42-2.14.42-3.41v-.74h-6.99V.45ZM244.14,19.46c-1.28-.31-2.2-.76-2.76-1.36-.56-.6-.84-1.36-.84-2.29v-3.5h4.49v2.81c0,.27.1.48.31.64.21.16.62.27,1.22.35.61.08,1.51.11,2.71.11,3.26,0,6.1-.25,8.51-.76v3.71c-1.21.22-2.57.41-4.07.55-1.5.14-2.98.21-4.45.21-2.14,0-3.85-.15-5.13-.46ZM253.18,0h4.49v3.73h2.02v3.77h-2.02v5.91h-4.49V0Z"/>
          </g>
          <g>
            <path class="cls-1" d="M749.61,9.19c1.23-.1,2.22-.38,2.98-.82.76-.44,1.13-1.05,1.13-1.83v-.4h-3.71v-3.68h11.9v3.5h2.36v-3.95h4.49v10.89h-4.49v-3.39h-2.58c.43.15.85.25,1.26.31l-2.07,3.55c-.97-.24-1.82-.57-2.54-1-.72-.43-1.36-.96-1.93-1.61-.76.79-1.72,1.43-2.86,1.9-1.14.47-2.46.74-3.94.8v-4.27ZM755.06,21.64c-1.5-.19-2.7-.44-3.59-.75v-7.1h17.29v7.1c-.9.33-2.12.58-3.66.76s-3.23.27-5.08.27-3.47-.09-4.96-.28ZM757.44,18.4c.82.08,1.68.11,2.59.11s1.82-.04,2.68-.11c.86-.08,1.38-.15,1.56-.22v-1.08h-8.31v1.08c.17.08.66.15,1.47.22ZM759.16,8.18c.47.37,1.02.7,1.65.99v-3.03h-2.61v.04c0,.18-.01.45-.04.81.19.42.53.82,1,1.19Z"/>
            <path class="cls-1" d="M771.85,13.57h19.54v3.82h-7.52v4.31h-4.49v-4.31h-7.52v-3.82ZM772.39,7.57c2.31-.12,3.98-.48,5.01-1.07,1.03-.59,1.55-1.42,1.55-2.48v-1.75h4.72v1.44c0,.51-.04,1-.13,1.48.49.54,1.48,1.03,2.95,1.47,1.47.44,3.01.73,4.59.87l-.58,4.04c-2.1-.21-3.83-.54-5.21-1-1.38-.46-2.58-1.08-3.62-1.88-.93.9-2.17,1.6-3.72,2.11-1.55.51-3.4.79-5.56.85v-4.09Z"/>
          </g>
          <g>
            <path class="cls-1" d="M0,58.93h5.72v-3.93h9.15v3.93h5.72v7.78h-3.25c.85,1.22,1.44,2.83,1.76,4.85.32,2.01.48,4.6.48,7.77,0,5.15-.68,9.02-2.04,11.62-1.36,2.59-3.77,3.89-7.25,3.89s-5.89-1.3-7.25-3.89c-1.36-2.59-2.04-6.46-2.04-11.62,0-3.17.16-5.76.48-7.77.32-2.01.91-3.63,1.76-4.85H0v-7.78ZM8.89,83.42c.11,1.3.29,2.2.55,2.7s.62.75,1.08.75.82-.25,1.07-.75.44-1.4.55-2.7.16-3.16.16-5.6-.05-4.3-.16-5.58-.29-2.17-.55-2.68c-.26-.5-.62-.75-1.07-.75s-.82.25-1.08.75c-.26.5-.44,1.4-.55,2.68-.11,1.28-.16,3.14-.16,5.58s.05,4.31.16,5.6ZM31.1,77.36h-2.33v18.25h-7.32v-39.74h7.32v13.81h2.33v-13.99h7.78v40.11h-7.78v-18.43Z"/>
            <path class="cls-1" d="M52.16,75.96c-1.97-1.48-2.95-3.68-2.95-6.61v-4.39c0-2.93.99-5.13,2.97-6.61,1.98-1.48,4.82-2.22,8.51-2.22s6.52.74,8.51,2.22c1.98,1.48,2.97,3.68,2.97,6.61v4.39c0,2.93-.98,5.13-2.95,6.61s-4.81,2.22-8.53,2.22-6.56-.74-8.53-2.22ZM53.21,81.63c1.78-1.42,4.4-2.13,7.84-2.13h14.45c3.45,0,6.06.71,7.84,2.13,1.78,1.42,2.67,3.5,2.67,6.24s-.89,4.82-2.67,6.24c-1.78,1.42-4.4,2.13-7.84,2.13h-14.45c-3.45,0-6.06-.71-7.84-2.13-1.78-1.42-2.68-3.5-2.68-6.24s.89-4.83,2.68-6.24ZM60.87,70.82c1.68,0,2.51-.84,2.51-2.51v-2.29c0-1.68-.84-2.52-2.51-2.52s-2.52.84-2.52,2.52v2.29c0,1.68.84,2.51,2.52,2.51ZM62.01,89.11h12.53c1.55,0,2.33-.44,2.33-1.33s-.78-1.33-2.33-1.33h-12.53c-1.55,0-2.33.44-2.33,1.33s.78,1.33,2.33,1.33ZM76.19,55.68h9.15v3.02h4.12v7h-4.12v2.61h4.12v7h-4.12v3.02h-9.15v-22.64Z"/>
          </g>
          <path class="cls-16" d="M677.74,59.29H134.52v-10.89l17.37-17.37h543.22v10.89l-17.37,17.37ZM136.52,57.29h540.4l16.2-16.2v-8.06H152.72l-16.2,16.2v8.06Z"/>
          <g>
            <path class="cls-1" d="M35.97,15.79l1.8-13.6h3.73l-2.93,17.62h-4.8l-1.23-8.22-1.31,8.22h-4.8l-2.73-17.62h3.73l1.6,13.6,2.01-13.6h3.12l1.8,13.6Z"/>
            <path class="cls-1" d="M43.77,12.63c0-1.59.5-2.82,1.49-3.71s2.42-1.33,4.3-1.33,3.3.44,4.3,1.33c.99.89,1.49,2.13,1.49,3.71v2.34c0,1.6-.5,2.84-1.49,3.72-.99.88-2.42,1.32-4.3,1.32s-3.31-.44-4.3-1.32c-.99-.88-1.49-2.12-1.49-3.72v-2.34ZM50.98,16.25c.31-.32.46-.75.46-1.28v-2.34c0-.53-.15-.96-.46-1.28-.31-.32-.78-.48-1.43-.48s-1.12.16-1.43.48c-.31.32-.46.75-.46,1.28v2.34c0,.53.15.96.46,1.28.31.32.78.48,1.43.48s1.12-.16,1.43-.48Z"/>
            <path class="cls-1" d="M58.52,19.8V7.79h3.9v1.66c.29-.57.64-1.03,1.05-1.36.41-.33.88-.5,1.42-.5.31,0,.65.04,1,.12s.64.18.84.29l-.41,3.49c-.45-.27-1-.41-1.64-.41-1.05,0-1.8.63-2.26,1.89v6.85h-3.9Z"/>
            <path class="cls-1" d="M72.99,1.98v17.82h-3.9V1.98h3.9Z"/>
            <path class="cls-1" d="M83.35,19.23c-.67.52-1.49.78-2.46.78-1.49,0-2.65-.41-3.48-1.24-.83-.83-1.24-2.01-1.24-3.56v-2.83c0-1.53.45-2.71,1.35-3.55s2.09-1.25,3.57-1.25c.93,0,1.68.19,2.26.57V2.19h3.9v17.62h-3.9v-.57ZM80.51,16.34c.29.26.72.39,1.28.39.71,0,1.23-.26,1.56-.78v-4.66c-.3-.42-.78-.64-1.44-.64-.6,0-1.06.13-1.37.38-.31.25-.47.63-.47,1.14v3.04c0,.49.15.87.44,1.13Z"/>
          </g>
          <g>
            <polygon class="cls-13" points="14.6 939.32 16.28 946.02 27.48 954.36 31.71 955 32.19 958.91 39.4 961.22 45.12 970.94 55.01 964.81 60.98 955.86 49.93 947.49 49.77 944.14 41.71 943.03 43.04 939.32 25.03 928.39 17.57 932.86 14.6 939.32"/>
            <path class="cls-15" d="M37.78,943.64l-5.1,2.52-3.79-3.11-3.64-8.31.14,5.9-3.37-.54-2.13-6.95-4.14,5.48s2.42,8.12,2.65,8.29c.23.17,11.88,6.63,11.88,6.63l7.07-5.28.43-4.63Z"/>
            <polygon class="cls-2" points="55.01 964.81 60.98 955.86 58.04 953.63 56.53 955.32 46.14 952.31 48.79 944 41.71 943.03 43.04 939.32 39.25 937.02 35.72 946.85 30.74 951.84 25.48 944.9 26.74 942.88 25.32 932.65 24.31 942.53 19.39 942.98 18.41 935.37 16.16 935.92 14.6 939.32 16.28 946.02 27.48 954.36 31.71 955 32.19 958.91 39.4 961.22 45.12 970.94 55.01 964.81"/>
            <g>
              <rect class="cls-13" x="12.43" y="931.6" width="6.85" height="6.5" rx=".51" ry=".51" transform="translate(-812.34 500.93) rotate(-61.38)"/>
              <path class="cls-2" d="M11.61,935.84l.81-1.48s.07.06.11.08l5.47,2.98s.08.04.13.05l-.81,1.48c-.13.25-.45.34-.69.2l-4.81-2.62c-.25-.13-.34-.45-.2-.69Z"/>
              <path class="cls-13" d="M15.29,939.08l.06.03c-.21-.11-.29-.38-.17-.59l3.4-6.24c.11-.21.38-.29.59-.17l-.06-.03c.21.11.29.38.17.59l-3.4,6.24c-.11.21-.38.29-.59.17ZM14.84,938.34l3.4-6.24c.11-.21.04-.47-.17-.59l.06.03c-.21-.11-.47-.04-.59.17l-3.4,6.24c-.11.21-.04.47.17.59l-.06-.03c.21.11.47.04.59-.17Z"/>
              <g>
                <path class="cls-2" d="M15.12,938.76s.05.04.07.06c0,0-.02,0-.03-.01l.06.03s-.02-.01-.03-.02c.2.09.45.01.56-.19l3.4-6.24c.04-.08.06-.16.05-.24.13.13.17.34.07.51l-3.4,6.24c-.11.2-.36.28-.56.19-.12-.08-.19-.2-.2-.33Z"/>
                <path class="cls-2" d="M15.35,939.11l-.06-.03s.02,0,.03.01c0,0,.02.01.03.02Z"/>
                <path class="cls-2" d="M14.28,938.52s.02.01.03.02l-.06-.03s.02,0,.03.01Z"/>
                <path class="cls-2" d="M14.08,938.19s.05.04.07.06c0,0-.02,0-.03-.01l.06.03s-.02-.01-.03-.02c.2.09.45.01.56-.19l3.4-6.24c.04-.08.06-.16.05-.24.13.13.17.34.07.51l-3.4,6.24c-.11.2-.36.28-.56.19-.12-.08-.19-.2-.2-.33Z"/>
              </g>
            </g>
            <polygon class="cls-15" points="40.69 945.72 38.7 950.24 34.2 953.21 34.51 955.93 41.77 954.92 43.17 948.07 40.69 945.72"/>
            <polygon class="cls-15" points="46.04 954.73 54.74 957.29 52.14 960.41 45.2 957.88 46.04 954.73"/>
            <polygon class="cls-3" points="27.27 933.33 29.76 938.16 34.26 938.14 35.48 940.13 36.52 938.43 27.27 933.33"/>
            <polygon class="cls-3" points="21.72 932.55 22.82 934.21 23.4 931.58 21.72 932.55"/>
            <polygon class="cls-3" points="48.52 949.28 48.05 951.77 54.15 953.07 48.52 949.28"/>
          </g>
          <g>
            <path class="cls-9" d="M47.18,1004.37s6.33-5.02,8.44-2.65c2.12,2.38-3.39,4.41-3.39,4.41,0,0,6.07.2,3.97,4.26-1.99,3.86-9.02-1.86-9.02-1.86v-4.16Z"/>
            <path class="cls-8" d="M51.42,1001.76c-.02,1.17.22,2.37.69,3.52.1.25.22.5.35.75-.15.06-.23.09-.23.09,0,0,.11,0,.29.02.87,1.62,2.26,3.05,3.93,3.66-.07.19-.15.38-.25.59-1.99,3.86-9.02-1.86-9.02-1.86v-4.16s2.07-1.65,4.24-2.61Z"/>
            <path class="cls-4" d="M49.34,1022.78c.13.89-12.08.62-14.89.55-2.81-.07-12.26-3.33-12.51-20.18-.25-16.85,8.89-22.46,16.3-22.45,7.41.02,11.13,4.07,11.91,4.99.78.91-1.18,34.58-.81,37.09Z"/>
            <path class="cls-6" d="M33.5,1005.29c6.81-6.1,9.54-15.33,8.5-24.21,4.93,1.04,7.52,3.86,8.15,4.61.78.91-1.18,34.58-.81,37.09.13.89-12.08.62-14.89.55-2.42-.06-9.73-2.49-11.9-13.87,4.04.08,7.89-1.43,10.95-4.17Z"/>
            <path class="cls-7" d="M27.29,1011.17c.18.9.68,1.79,1.76,1.59,1.07-.2,1.86-1.06,2.28-2.04.45,1.13,1.43,1.82,2.76,1.65.77-.1,1.75-.66,2.26-1.42.57,2.4,4.32.73,5.67-1.14.15,1.19.73,2.46,2.1,2.44,1.38-.02,2.34-1.06,2.82-2.26.51,1.1,1.48,2.03,2.64,2.38-.2,5.34-.34,9.59-.21,10.41.13.89-12.08.62-14.89.55-2.1-.06-7.89-1.88-10.8-9.81,1.43-.18,2.76-1.1,3.63-2.35Z"/>
            <path class="cls-12" d="M29.11,983.84c1.45,2.45,2.06,5.41,2.37,8.2.4,3.62.5,7.32.16,10.95-.53,5.63-2.12,11.13-4.9,15.98-2.53-2.99-4.68-7.91-4.79-15.82-.15-10.01,3.02-16.05,7.16-19.31Z"/>
            <path class="cls-5" d="M43.22,1005.73c-1.45-1.67-4.66,7.76-3.81,10.44.85,2.68,4.85,3.5,5.94,0,1.09-3.5-.35-8.38-2.14-10.44Z"/>
            <path class="cls-10" d="M42.04,1004.91c-1.42-1.64-4.59,7.65-3.75,10.29.84,2.64,4.78,3.45,5.86,0,1.07-3.45-.34-8.26-2.11-10.29Z"/>
            <path class="cls-17" d="M25.95,997.48c0,.51.32.92.72.92s.72-.41.72-.92-.32-.92-.72-.92-.72.41-.72.92Z"/>
            <path class="cls-14" d="M44.33,984.4c1.26,4.22-12.05,4.45-13.17,1.53-1.12-2.92,11.63-6.7,13.17-1.53Z"/>
          </g>
        </g>
      </g>
    </g>
  </g>
</svg>