<?xml version="1.0" encoding="UTF-8"?>
<svg id="_레이어_2" data-name="레이어 2" xmlns="http://www.w3.org/2000/svg" viewBox="0 0 846.52 1024.77">
  <defs>
    <style>
      .cls-1 {
        fill: #00fbff;
      }

      .cls-2 {
        fill: #ffe8be;
      }

      .cls-3 {
        fill: #79ffaf;
      }

      .cls-4 {
        fill: #fff;
      }

      .cls-5 {
        fill: #29b127;
      }

      .cls-6 {
        fill: #00ff67;
      }

      .cls-7 {
        fill: #fcdb83;
      }

      .cls-8 {
        fill: #126714;
      }

      .cls-9 {
        fill: #02fbff;
      }
    </style>
  </defs>
  <g id="_게임창_인체" data-name="게임창_인체">
    <g>
      <g>
        <path class="cls-1" d="M818.41,96.43c-5.67-.04-11.04-2.1-15.25-5.81-.48-.42-.5-1.16-.05-1.62h0c.42-.43,1.11-.45,1.56-.05,3.81,3.34,8.65,5.19,13.76,5.23,11.61.09,21.13-9.25,21.22-20.81.03-4.52-1.41-8.93-4.07-12.56-.36-.48-.28-1.16.19-1.54h0c.5-.41,1.24-.31,1.63.21,2.95,4.01,4.55,8.9,4.51,13.9-.1,12.8-10.63,23.13-23.49,23.04Z"/>
        <path class="cls-1" d="M818.54,100.88c-10.34-.08-19.84-5.95-24.53-15.06-.29-.57-.04-1.26.54-1.52h0c.55-.25,1.2-.02,1.47.51,4.31,8.37,13.04,13.76,22.54,13.83,14.08.11,25.61-11.21,25.72-25.22.04-5.57-1.7-10.88-5.03-15.34-3.01-4.03-7.21-7.12-11.93-8.8-.57-.2-.88-.81-.7-1.39h0c.19-.61.85-.94,1.45-.73,5.14,1.83,9.72,5.2,12.99,9.58,3.62,4.86,5.52,10.63,5.47,16.69-.11,15.25-12.67,27.56-27.99,27.45Z"/>
      </g>
      <g>
        <path class="cls-1" d="M80.37,954.87c-1.91,0-3.85-.33-5.83-1v-10.49h4.66v1.93h2.56v-1.93h4.43v10.49c-1.97.67-3.91,1-5.83,1ZM75.46,956.44h17.73v3.26c0,1.58-.12,2.88-.37,3.89l-4.57-.23c.19-.9.28-1.89.28-2.96h-13.07v-3.96ZM80.49,951.12c.43,0,.86-.08,1.28-.23v-2.07h-2.56v2.07c.42.16.85.23,1.28.23ZM88.53,942.92h4.66v3.4h2.1v3.92h-2.1v4.99h-4.66v-12.3Z"/>
        <path class="cls-1" d="M96.95,943.39h9.55v3.96h-4.85c-.14.95-.26,2.07-.37,3.36h3.59v3.73h-3.73v.42c0,.96.1,1.72.31,2.27.21.55.55.95,1.01,1.19.47.24,1.1.36,1.91.36.73,0,1.45-.08,2.14-.23l.21,3.82c-.34.11-.79.2-1.35.27-.56.07-1.09.1-1.61.1-1.54,0-2.8-.24-3.79-.73-.99-.49-1.72-1.28-2.21-2.37s-.73-2.53-.73-4.33c0-1.27.06-2.61.17-4,.12-1.39.27-2.68.46-3.86h-.72v-3.96ZM105.69,950.61h2.07v-7.6h3.73v20.25h-3.73v-8.74h-2.07v-3.92ZM112.44,942.92h3.96v20.43h-3.96v-20.43Z"/>
        <path class="cls-1" d="M119.93,950.61h7.01c.36-1.12.54-2.21.54-3.26h-7.55v-3.96h12.28v3.36c0,.57-.07,1.24-.2,2-.13.76-.29,1.38-.48,1.86h.72v3.73h-7.11c-.31.58-.47,1.26-.47,2.05,0,.73.29,1.32.89,1.76.59.44,1.48.66,2.68.66,1.38,0,2.8-.29,4.26-.88l.77,3.8c-.59.29-1.34.54-2.26.75s-1.96.3-3.15.3c-1.57,0-2.94-.2-4.12-.61-1.18-.4-2.1-1-2.75-1.78s-.98-1.72-.98-2.81c0-.68.07-1.3.22-1.85.15-.55.33-1.01.55-1.39h-.86v-3.73ZM134.5,942.92h4.66v20.43h-4.66v-20.43Z"/>
        <path class="cls-1" d="M144.3,961.62c-1-.83-1.5-2.07-1.5-3.72v-9.79c0-1.63.5-2.87,1.51-3.7s2.45-1.26,4.33-1.26,3.32.42,4.33,1.26,1.51,2.07,1.51,3.7v9.79c0,1.65-.5,2.88-1.5,3.72-1,.83-2.45,1.25-4.35,1.25s-3.34-.42-4.35-1.25ZM148.74,958.79c.42,0,.74-.15.96-.44.22-.29.33-.73.33-1.3v-8.06c0-.57-.11-1.01-.33-1.3-.22-.29-.54-.44-.96-.44-.85,0-1.28.58-1.28,1.75v8.06c0,1.17.43,1.75,1.28,1.75ZM156.78,942.92h4.66v7.13h2.1v3.91h-2.1v9.39h-4.66v-20.43Z"/>
      </g>
      <g>
        <path class="cls-1" d="M73.88,994.15h3.96v2.05h1.4v-2.05h3.73v11.39c-1.57.44-3.08.65-4.54.65s-2.98-.22-4.54-.65v-11.39ZM75.26,1007.53h17.73v3.26c0,1.44-.12,2.63-.37,3.57l-4.57-.23c.19-.89.28-1.84.28-2.87h-13.07v-3.73ZM78.54,1002.59c.23,0,.47-.05.7-.14v-2.63h-1.4v2.63c.23.09.47.14.7.14ZM89.03,1000.77h-1.19v5.78h-3.73v-12.77h3.73v3.31h1.19v-3.4h3.96v12.86h-3.96v-5.78Z"/>
        <path class="cls-1" d="M111.08,1003.52h-1.72v-3.31h1.72v-1.12h-1.72v-1.17h-.93c.34.64.51,1.36.51,2.17,0,.87-.23,1.64-.68,2.32s-1.12,1.21-2,1.6c-.88.39-1.96.58-3.21.58s-2.33-.19-3.22-.58c-.89-.39-1.55-.92-2-1.6-.45-.68-.68-1.45-.68-2.32,0-.81.17-1.53.51-2.17h-1.26v-3.52h4.31v-1.3h4.66v1.3h4.29v1.38h1.42v-2.1h4.66v10.88h-4.66v-1.05ZM97.73,1008.65h13.35v-.77h-13.3v-2.56h17.96v5.75h-13.35v.19c0,.16.12.28.35.37.23.09.7.17,1.41.22.71.05,1.74.08,3.11.08,3.51,0,6.38-.16,8.6-.47v2.66c-2.13.31-5.11.47-8.95.47-2.8,0-4.82-.11-6.07-.33-1.25-.22-2.08-.6-2.49-1.14-.41-.54-.62-1.42-.62-2.63v-1.84ZM102.13,1000.4c.23.25.54.37.91.37s.67-.12.91-.37c.23-.25.35-.6.35-1.05s-.12-.8-.35-1.05c-.23-.25-.54-.37-.91-.37s-.68.12-.91.37c-.23.25-.35.6-.35,1.05s.12.8.35,1.05Z"/>
        <path class="cls-1" d="M126.73,1008.74h-7.81v-3.96h13.63c.26-.79.49-1.85.68-3.17s.28-2.49.28-3.5h-13.77v-3.96h18.43v4.99c0,.81-.08,1.76-.24,2.87-.16,1.1-.38,2.03-.64,2.77h1.91v3.96h-7.81v5.36h-4.66v-5.36Z"/>
      </g>
      <g>
        <path class="cls-1" d="M173.83,2.71c.18-.83.4-1.58.67-2.26h4.72c-.63,1.26-.94,2.58-.94,3.98,0,.7.23,1.19.7,1.47.46.28,1.27.42,2.4.42.79,0,1.52-.05,2.18-.16s1.36-.26,2.09-.47l.7,3.82c-.54.22-1.25.42-2.12.57-.88.16-1.72.24-2.53.24-2.79,0-4.84-.4-6.15-1.2-1.32-.8-1.98-2.14-1.98-4.01,0-.76.09-1.56.27-2.39ZM174.69,11.61h17.29v7.28c-.9.33-2.12.58-3.66.76s-3.23.27-5.08.27-3.47-.09-4.96-.28c-1.5-.19-2.7-.44-3.59-.75v-7.28ZM180.65,16.4c.82.08,1.68.11,2.59.11s1.82-.04,2.68-.11c.86-.08,1.38-.15,1.56-.22v-1.26h-8.31v1.26c.17.08.66.15,1.47.22ZM187.49,0h4.49v3.28h2.02v3.77h-2.02v3.55h-4.49V0Z"/>
        <path class="cls-1" d="M195.52,8.8h19.54v3.77h-19.54v-3.77ZM196.23,4.13v-.36c0-2.52,1.87-3.77,5.62-3.77h6.87c3.74,0,5.62,1.26,5.62,3.77v.36c0,2.52-1.87,3.77-5.62,3.77h-6.87c-3.74,0-5.62-1.26-5.62-3.77ZM196.3,13.43h4.49v1.68c0,.27.11.48.34.64.22.16.67.27,1.33.35s1.63.11,2.92.11c3.4,0,6.35-.25,8.85-.76v3.71c-1.27.22-2.69.41-4.25.55-1.56.14-3.09.21-4.6.21-2.23,0-4.01-.15-5.33-.46-1.33-.31-2.28-.76-2.86-1.36s-.88-1.36-.88-2.29v-2.38ZM201.18,4.47c.15.09.39.13.72.13h6.78c.33,0,.57-.04.72-.13s.22-.24.22-.45-.08-.36-.22-.45-.39-.13-.72-.13h-6.78c-.33,0-.57.04-.72.13s-.22.24-.22.45.08.36.22.45Z"/>
        <path class="cls-1" d="M220.24,12.52c.79-1.19,1.18-2.82,1.18-4.88V.27h4.49v6.83c0,.52-.02,1.03-.07,1.53.24,1.05.65,2.04,1.24,2.96s1.25,1.72,1.99,2.38c.74.66,1.49,1.12,2.24,1.39l-2.16,3.64c-1.05-.43-1.97-1.04-2.75-1.81-.79-.77-1.49-1.74-2.12-2.91-.76,1.41-1.75,2.53-2.95,3.38-1.21.85-2.59,1.32-4.14,1.43v-4.36c1.26-.28,2.28-1.02,3.07-2.21ZM231.84,0h4.49v19.7h-4.49V0Z"/>
        <path class="cls-1" d="M239.42.45h11.48v3.57c0,1.74-.13,3.24-.38,4.5-.25,1.27-.68,2.48-1.28,3.65l-4.49-.94c.55-.93.97-1.89,1.25-2.9.28-1,.42-2.14.42-3.41v-.74h-6.99V.45ZM244.31,19.46c-1.28-.31-2.2-.76-2.76-1.36-.56-.6-.84-1.36-.84-2.29v-3.5h4.49v2.81c0,.27.1.48.31.64.21.16.62.27,1.22.35.61.08,1.51.11,2.71.11,3.26,0,6.1-.25,8.51-.76v3.71c-1.21.22-2.57.41-4.07.55-1.5.14-2.98.21-4.45.21-2.14,0-3.85-.15-5.13-.46ZM253.35,0h4.49v3.73h2.02v3.77h-2.02v5.91h-4.49V0Z"/>
      </g>
      <g>
        <path class="cls-1" d="M749.78,9.19c1.23-.1,2.22-.38,2.98-.82.76-.44,1.13-1.05,1.13-1.83v-.4h-3.71v-3.68h11.9v3.5h2.36v-3.95h4.49v10.89h-4.49v-3.39h-2.58c.43.15.85.25,1.26.31l-2.07,3.55c-.97-.24-1.82-.57-2.54-1-.72-.43-1.36-.96-1.93-1.61-.76.79-1.72,1.43-2.86,1.9-1.14.47-2.46.74-3.94.8v-4.27ZM755.24,21.64c-1.5-.19-2.7-.44-3.59-.75v-7.1h17.29v7.1c-.9.33-2.12.58-3.66.76-1.54.18-3.23.27-5.08.27s-3.47-.09-4.96-.28ZM757.61,18.4c.81.08,1.68.11,2.59.11s1.82-.04,2.68-.11,1.38-.15,1.56-.22v-1.08h-8.31v1.08c.17.08.66.15,1.47.22ZM759.33,8.18c.47.37,1.02.7,1.65.99v-3.03h-2.61v.04c0,.18-.01.45-.04.81.2.42.53.82,1,1.19Z"/>
        <path class="cls-1" d="M772.02,13.57h19.54v3.82h-7.52v4.31h-4.49v-4.31h-7.53v-3.82ZM772.56,7.57c2.31-.12,3.98-.48,5.01-1.07,1.03-.59,1.55-1.42,1.55-2.48v-1.75h4.72v1.44c0,.51-.04,1-.13,1.48.49.54,1.48,1.03,2.96,1.47,1.47.44,3.01.73,4.59.87l-.58,4.04c-2.1-.21-3.83-.54-5.21-1-1.38-.46-2.58-1.08-3.62-1.88-.93.9-2.17,1.6-3.72,2.11-1.55.51-3.4.79-5.56.85v-4.09Z"/>
      </g>
      <g>
        <path class="cls-1" d="M0,64.96c0-2.93,1.01-5.13,3.02-6.61,2.01-1.48,4.91-2.22,8.69-2.22s6.68.74,8.69,2.22c2.01,1.48,3.02,3.68,3.02,6.61v6.4c0,2.93-1.01,5.13-3.02,6.61-2.01,1.48-4.91,2.22-8.69,2.22s-6.68-.74-8.69-2.22c-2.01-1.48-3.02-3.68-3.02-6.61v-6.4ZM9.49,95.31c-2.61-.63-4.48-1.55-5.62-2.77-1.14-1.22-1.71-2.77-1.71-4.67v-6.22h9.15v4.8c0,.55.21.98.64,1.3.43.32,1.26.56,2.49.71,1.24.15,3.07.23,5.51.23,6.65,0,12.42-.52,17.33-1.55v7.55c-2.47.46-5.23.83-8.28,1.12-3.05.29-6.07.43-9.06.43-4.36,0-7.84-.31-10.45-.94ZM11.89,72.65c.88,0,1.56-.21,2.04-.64s.71-1.05.71-1.88v-3.93c0-.82-.24-1.45-.71-1.88-.47-.43-1.15-.64-2.04-.64-1.83,0-2.74.84-2.74,2.51v3.93c0,1.68.92,2.51,2.74,2.51ZM27.9,55.68h9.15v27.3h-9.15v-27.3Z"/>
        <path class="cls-1" d="M45.41,85.68c1.89-.09,3.38-1.23,4.48-3.41,1.1-2.18,1.65-5.86,1.65-11.04v-4.53h-5.3v-7.78h5.3v-3.93h8.23v3.93h5.3v7.78h-5.3v3.43c0,1.31-.05,2.59-.14,3.84.46,3.45,1.3,6.19,2.52,8.23,1.22,2.04,2.62,3.25,4.21,3.61l-1.83,8.55c-1.83-.21-3.42-.94-4.78-2.17-1.36-1.23-2.52-3.03-3.5-5.37-1.22,2.29-2.75,4.09-4.6,5.42-1.85,1.33-3.93,2.1-6.24,2.31v-8.87ZM63.11,70.59h4.34v-14.73h7.32v39.74h-7.32v-17.33h-4.34v-7.68ZM76.65,55.68h8.23v40.11h-8.23v-40.11Z"/>
      </g>
      <g>
        <path class="cls-1" d="M36.15,15.79l1.8-13.6h3.73l-2.93,17.62h-4.8l-1.23-8.22-1.31,8.22h-4.8l-2.73-17.62h3.73l1.6,13.6,2.01-13.6h3.12l1.8,13.6Z"/>
        <path class="cls-1" d="M43.94,12.63c0-1.59.5-2.82,1.49-3.71s2.42-1.33,4.3-1.33,3.3.44,4.3,1.33c.99.89,1.49,2.13,1.49,3.71v2.34c0,1.6-.5,2.84-1.49,3.72-.99.88-2.42,1.32-4.3,1.32s-3.31-.44-4.3-1.32c-.99-.88-1.49-2.12-1.49-3.72v-2.34ZM51.15,16.25c.31-.32.46-.75.46-1.28v-2.34c0-.53-.15-.96-.46-1.28-.31-.32-.78-.48-1.43-.48s-1.12.16-1.43.48c-.31.32-.46.75-.46,1.28v2.34c0,.53.15.96.46,1.28.31.32.78.48,1.43.48s1.12-.16,1.43-.48Z"/>
        <path class="cls-1" d="M58.69,19.8V7.79h3.9v1.66c.29-.57.64-1.03,1.05-1.36.41-.33.88-.5,1.42-.5.31,0,.65.04,1,.12s.64.18.84.29l-.41,3.49c-.45-.27-1-.41-1.64-.41-1.05,0-1.8.63-2.26,1.89v6.85h-3.9Z"/>
        <path class="cls-1" d="M73.16,1.98v17.82h-3.9V1.98h3.9Z"/>
        <path class="cls-1" d="M83.52,19.23c-.67.52-1.49.78-2.46.78-1.49,0-2.65-.41-3.48-1.24-.83-.83-1.24-2.01-1.24-3.56v-2.83c0-1.53.45-2.71,1.35-3.55s2.09-1.25,3.57-1.25c.93,0,1.68.19,2.26.57V2.19h3.9v17.62h-3.9v-.57ZM80.68,16.34c.29.26.72.39,1.28.39.71,0,1.23-.26,1.56-.78v-4.66c-.3-.42-.78-.64-1.44-.64-.6,0-1.06.13-1.37.38-.31.25-.47.63-.47,1.14v3.04c0,.49.15.87.44,1.13Z"/>
      </g>
      <g>
        <path class="cls-4" d="M61.29,1012.39c.15-.69.11-1.4.08-2.09-.03-.57-.06-1.11.04-1.52,0-.01,0-.03,0-.04.09-.5.33-1,.58-1.53.27-.56.55-1.13.69-1.8.21-1.14-.3-2.12-.74-2.98-.22-.42-.42-.81-.53-1.19,0-.01,0-.03-.01-.04-.2-.56-.18-1.19-.17-1.87.02-.76.04-1.55-.24-2.34,0-.01,0-.02-.01-.03-.35-.87-1.05-1.44-1.67-1.94-.15-.12-.3-.24-.46-.38-.63-.52-1.04-1.07-1.37-1.84-.55-1.59-1.15-2.44-2.05-2.95-.46-.26-.96-.4-1.48-.54-.52-.14-1.1-.31-1.78-.62-.71-.5-1.17-.92-1.58-1.3-.39-.36-.73-.67-1.14-.9-.88-.49-1.9-.53-3.91-.15-.72.15-1.47-.11-2.26-.38-.97-.33-2.06-.71-3.24-.35-.02,0-.03.01-.05.02-.59.23-1.11.56-1.61.87-.61.39-1.19.76-1.82.88-.31.04-.6.07-.86.1-2.86.32-3.03.42-4.57,2.62-.19.27-.4.57-.65.92-.4.48-1,.8-1.63,1.15-.44.24-.89.48-1.29.79-1.11.8-1.29,2.03-1.45,3.12-.07.5-.14.98-.31,1.4-.2.56-.58,1.06-.99,1.58-.21.27-.42.54-.62.84-1.03,1.34-.57,2.88-.2,4.12l.05.16c.22.79.23,1.46.03,2.27-.04.19-.09.38-.14.57-.18.71-.39,1.52-.23,2.4.21.9.83,1.62,1.38,2.25.36.42.7.82.86,1.18,0,.02.02.03.02.05.23.45.31,1,.4,1.59.12.82.26,1.75.86,2.53.01.02.02.03.04.04.3.33.68.62,1.19.91.28.16.56.29.84.43.26.13.51.25.74.37.34.19.57.36.73.54.02.02.03.03.05.05.27.25.53.64.8,1.06.45.69.95,1.47,1.74,1.93h.01s.02.01.02.02c.79.4,1.7.43,2.5.45.5.01.97.03,1.32.12.02,0,.05.01.07.02.24.04.5.15.84.34.23.13.46.28.7.43.26.17.52.34.8.49h0c.52.29.96.46,1.4.54.02,0,.04,0,.06,0,.98.1,1.84-.27,2.6-.59.55-.23,1.06-.45,1.56-.49.02,0,.04,0,.06,0,.39-.06.91.02,1.46.11.83.13,1.76.29,2.67-.02.8-.31,1.38-.91,1.89-1.44.14-.14.27-.28.43-.43.57-.58,1.15-.92,1.94-1.14.13-.04.26-.07.39-.11,1.08-.3,2.43-.67,3.04-1.98.18-.37.33-.75.47-1.11.39-.97.75-1.89,1.54-2.47.02-.01.03-.03.05-.04.13-.12.27-.23.41-.35.69-.58,1.48-1.23,1.74-2.3Z"/>
        <g>
          <path class="cls-7" d="M51.79,989.3c-2.81-1.95-2.15-3.02-6.13-2.26-1.88.39-3.59-1.31-5.44-.75-1.25.48-2.23,1.55-3.58,1.79-3.99.47-3.3.12-5.62,3.37-.79.96-2.08,1.34-3.07,2.08-1.33.96-.97,2.82-1.5,4.18-.35.99-1.13,1.73-1.71,2.6-.87,1.1-.4,2.47-.05,3.67.25.9.27,1.7.04,2.61-.19.86-.54,1.76-.37,2.65.3,1.29,1.74,2.24,2.2,3.32.64,1.24.31,2.86,1.19,4.01.92,1.03,2.66,1.31,3.5,2.26.82.75,1.32,2.26,2.41,2.9,1.1.57,2.63.22,3.69.52,1.25.22,2.4,1.55,3.75,1.81,1.43.15,2.65-.98,4.04-1.08,1.16-.18,2.72.55,3.98.14.84-.32,1.43-1.09,2.06-1.7.66-.67,1.35-1.07,2.25-1.33,1.11-.32,2.45-.55,2.98-1.72.65-1.36.95-2.9,2.23-3.85.73-.65,1.68-1.26,1.93-2.27.26-1.18-.12-2.57.12-3.61.2-1.17,1.03-2.18,1.27-3.35.26-1.39-.89-2.57-1.26-3.84-.48-1.35.06-2.86-.41-4.22-.36-.88-1.23-1.43-1.92-2.04-.73-.6-1.21-1.26-1.58-2.13-1.18-3.41-2.35-2.52-4.99-3.74l-.03-.02Z"/>
          <path class="cls-2" d="M50.42,989.3c-2.14-1.49-1.64-2.31-4.68-1.73-1.44.29-2.74-1-4.15-.57-.96.36-1.7,1.18-2.73,1.37-3.05.36-2.52.1-4.29,2.58-.6.73-1.59,1.02-2.35,1.59-1.01.73-.74,2.15-1.15,3.19-.27.76-.86,1.32-1.3,1.99-.66.84-.31,1.89-.04,2.8.19.69.21,1.3.03,1.99-.14.66-.41,1.35-.29,2.02.23.99,1.33,1.71,1.68,2.54.49.95.24,2.19.91,3.06.71.78,2.03,1,2.68,1.72.62.58,1.01,1.73,1.84,2.21.84.43,2.01.17,2.82.4.95.17,1.83,1.19,2.87,1.38,1.09.11,2.03-.75,3.09-.83.88-.14,2.08.42,3.04.1.64-.25,1.09-.84,1.58-1.3.5-.51,1.03-.82,1.72-1.01.85-.25,1.87-.42,2.28-1.31.5-1.04.73-2.21,1.7-2.94.56-.5,1.29-.96,1.47-1.74.2-.9-.09-1.97.09-2.76.15-.89.79-1.66.97-2.56.2-1.06-.68-1.96-.96-2.93-.37-1.03.05-2.19-.31-3.22-.27-.68-.94-1.09-1.47-1.56-.56-.46-.93-.96-1.21-1.63-.9-2.61-1.8-1.93-3.81-2.86h-.03Z"/>
          <path class="cls-7" d="M55.93,1005.46c.18-.82-.09-1.8.08-2.52.14-.82.72-1.52.89-2.34.18-.97-.62-1.8-.88-2.68-.34-.94.04-2-.28-2.95-.25-.62-.86-1-1.34-1.43-.51-.42-.85-.88-1.1-1.49-.82-2.39-1.65-1.76-3.49-2.62h-.02c-1.96-1.37-1.5-2.12-4.28-1.59-1.32.27-2.51-.91-3.8-.52-.88.33-1.56,1.08-2.5,1.25-2.79.33-2.31.09-3.93,2.36-.55.67-1.46.94-2.15,1.45-.93.67-.68,1.97-1.05,2.92-.24.7-.79,1.21-1.19,1.82-.61.77-.28,1.73-.03,2.57.18.63.19,1.19.03,1.82-.13.6-.38,1.23-.26,1.85.21.9,1.22,1.57,1.54,2.32.45.87.22,2,.83,2.8.65.72,1.86.92,2.45,1.58.57.53.93,1.58,1.69,2.03.77.4,1.84.16,2.58.36.87.15,1.67,1.09,2.62,1.26,1,.1,1.85-.68,2.82-.76.81-.12,1.9.39,2.78.1.59-.23,1-.77,1.44-1.19.46-.47.94-.75,1.57-.93.77-.23,1.71-.39,2.09-1.2.45-.95.66-2.03,1.56-2.69.51-.46,1.18-.88,1.35-1.59ZM53.52,1005.51c-.8.6-.99,1.56-1.39,2.41-.34.73-1.17.87-1.87,1.07-.56.16-1,.41-1.41.83-.4.38-.76.86-1.29,1.07-.79.26-1.77-.2-2.49-.09-.87.06-1.63.77-2.53.68-.85-.16-1.57-.99-2.35-1.13-.66-.19-1.62.03-2.31-.33-.68-.4-1-1.34-1.51-1.81-.53-.59-1.61-.77-2.19-1.41-.55-.72-.34-1.73-.74-2.51-.28-.68-1.19-1.27-1.37-2.08-.1-.55.12-1.12.23-1.66.14-.57.13-1.07-.03-1.63-.22-.75-.51-1.61.03-2.3.36-.55.85-1,1.07-1.63.33-.85.11-2.01.94-2.61.62-.46,1.43-.7,1.92-1.3,1.45-2.03,1.02-1.82,3.52-2.11.84-.15,1.45-.82,2.24-1.12,1.16-.35,2.22.71,3.4.47,2.49-.47,2.08.2,3.83,1.42h.02c1.65.78,2.39.22,3.12,2.35.23.54.53.96.99,1.33.43.38.98.72,1.2,1.28.29.85-.05,1.79.25,2.64.23.79.95,1.53.79,2.4-.15.73-.67,1.36-.8,2.09-.15.65.09,1.52-.07,2.26-.15.63-.75,1.01-1.21,1.42Z"/>
        </g>
      </g>
      <g>
        <path class="cls-4" d="M42.85,971.5c-.39,0-.59-.29-.71-.47-.18-.29-.32-.58-.47-.89-.11-.22-.22-.46-.35-.68,0,0,0-.02-.01-.03-.04-.08-.08-.15-.12-.23-.36.36-.69.77-.96,1.12l-.15.18s-.06.07-.06.07c-.16.18-.36.41-.67.5-.03,0-.07.02-.1.02-.01,0-.04,0-.06,0-.49,0-.67-.41-.75-.61-.12-.32-.2-.63-.29-.96-.06-.24-.13-.49-.21-.74,0,0,0-.02,0-.03-.05-.21-.13-.41-.22-.6-.41.23-.8.54-1.16.83-.28.22-.54.43-.79.59-.18.13-.37.19-.55.19-.46,0-.72-.34-.78-1.01-.02-.18-.03-.4-.04-.65-.01-.36-.03-.77-.08-1.17-.33.13-.65.3-.96.46-.31.16-.61.31-.88.42-.15.06-.29.1-.43.1-.21,0-.39-.08-.53-.23-.23-.25-.23-.61-.19-.93.02-.18.05-.4.09-.64.07-.47.16-1.03.16-1.54-.69.06-1.44.25-2.11.43l-.08.02c-.14.03-.26.05-.36.05-.37,0-.56-.19-.64-.3-.26-.36-.09-.82.03-1.16,0-.01,0-.02.01-.03.19-.42.4-.95.55-1.5-.15,0-.3-.01-.47-.01-.44,0-.9.03-1.33.06h-.09s-.08,0-.08,0c-.4,0-.68-.13-.83-.39-.24-.42.04-.88.22-1.19,0,0,.01-.02.02-.03.34-.49.75-1.12,1-1.76-.47-.16-1.01-.25-1.47-.32-.15-.03-.3-.05-.42-.07h-.07c-.24-.06-.54-.12-.78-.32-.03-.03-.06-.06-.09-.09-.44-.59.15-1.15.46-1.45.08-.07.15-.14.21-.21.01-.02.03-.03.05-.05.29-.25.55-.52.77-.79-.37-.18-.76-.33-1.1-.46-.14-.05-.28-.11-.4-.15l-.06-.03c-.22-.09-.5-.21-.71-.45-.03-.03-.05-.07-.07-.1-.32-.66.36-1.1.73-1.34.09-.06.17-.11.25-.17.02-.01.04-.03.06-.04.49-.28.91-.6,1.25-.94-.08-.07-.16-.14-.24-.2-.28-.23-.64-.47-.97-.69-.15-.1-.29-.19-.4-.27-.35-.24-.72-.54-.68-.98.05-.47.54-.68.75-.77.2-.09.42-.17.65-.26.33-.13.67-.26.97-.4-.23-.27-.52-.56-.78-.83-.12-.12-.24-.24-.34-.34-.3-.31-.6-.67-.47-1.1.14-.45.66-.56.89-.61.21-.05.45-.09.69-.13.4-.07.81-.14,1.16-.24.11-.03.21-.06.31-.1-.19-.51-.5-1.05-.91-1.63-.25-.36-.49-.82-.27-1.24.24-.45.82-.45,1.11-.45.18,0,.38,0,.61.02.26.01.52.02.8.02.07,0,.14,0,.21,0-.11-.43-.27-.89-.49-1.37-.16-.38-.31-.85-.07-1.21.1-.15.31-.34.72-.34.29,0,.66.09,1.08.19.45.11.96.24,1.47.28.01-.45-.05-.93-.11-1.36-.05-.41-.11-.79-.09-1.13,0-.46.31-.78.76-.78.4,0,.88.26,1.35.52.19.1.4.22.49.25.03,0,.06.02.09.04.08.04.15.08.23.11.04-.32.06-.64.08-.96.02-.41.05-.8.12-1.12.1-.46.44-.63.73-.63.45,0,.93.4,1.39.79.16.14.35.3.44.34.03.02.05.03.08.05.19.16.4.29.62.41.23-.46.39-1.02.52-1.49.06-.21.12-.4.17-.55l.04-.1c.08-.23.21-.58.58-.73.03-.01.06-.02.08-.02,0,0,.02,0,.03,0,.04,0,.07,0,.11,0,.38,0,.67.31.93.63.09.1.18.22.28.35.23.28.48.61.72.86.2-.33.38-.67.54-.97.1-.19.19-.37.27-.51l.05-.09c.13-.21.32-.53.71-.6.03,0,.06,0,.09,0,0,0,.02,0,.03,0,.43.01.68.41.9.81.06.12.13.25.21.4.18.34.38.73.57,1.03.07.12.15.23.23.33.08-.06.16-.13.23-.21.27-.26.55-.57.81-.88.16-.18.31-.36.45-.51.22-.23.49-.47.82-.47.05,0,.1,0,.15.02.05.01.09.03.13.05.46.27.6.88.73,1.46.05.24.11.47.17.64,0,.02.01.04.02.06.02.09.05.18.08.27.27-.18.56-.4.83-.62.19-.15.37-.29.54-.41.22-.16.48-.31.76-.31.1,0,.2.02.28.06.04.02.09.05.12.08.4.36.42.98.43,1.58,0,.25.01.48.05.66,0,.02,0,.04,0,.06,0,.23.04.47.1.7.5-.14,1.04-.39,1.48-.6.15-.07.29-.14.42-.19.01,0,.03-.01.04-.02.04-.01.08-.03.12-.05.16-.07.36-.15.59-.15.26,0,.48.11.62.32.02.02.03.05.04.07.1.2.12.47.07.82-.02.15-.05.36-.09.58-.06.33-.12.72-.16,1.1.37-.06.75-.16,1.07-.24.17-.04.32-.08.45-.11.01,0,.03,0,.04,0,.04,0,.08-.02.13-.02.12-.02.27-.06.42-.06.34,0,.61.16.74.45.01.03.02.05.03.08.05.22.02.49-.09.82-.05.15-.12.34-.2.55-.16.43-.36.94-.46,1.43.36.05.72.06,1.01.06.18,0,.34,0,.5,0,.15,0,.29,0,.42,0,.41,0,1.03,0,1.27.47.21.41-.04.85-.29,1.19-.36.49-.63.91-.83,1.3.35.09.69.15,1.01.21.82.14,1.41.25,1.57.77.13.45-.2.83-.51,1.12-.58.52-1,.98-1.3,1.42.44.27.98.5,1.43.68.16.07.31.13.44.19.01,0,.03.01.04.02.03.02.08.04.12.06.23.1.83.38.69,1.01,0,.03-.02.07-.04.1-.14.29-.4.46-.6.6l-.04.03-.2.12c-.36.22-.78.48-1.17.78.31.24.64.46.92.65.15.1.28.19.4.27.01,0,.02.02.03.03.03.03.07.05.11.08.2.15.74.54.48,1.12-.01.03-.03.06-.05.09-.2.26-.48.38-.71.47l-.05.02-.22.08c-.49.18-1.08.4-1.6.7.41.62.97,1.18,1.3,1.5,0,0,.02.02.02.03.25.27.62.68.47,1.14-.06.19-.24.45-.73.54-.28.06-.6.11-.94.15-.35.05-.71.1-1.01.17.23.47.52.92.81,1.35,0,0,.02.02.02.03.19.31.48.78.24,1.21-.1.18-.32.39-.82.39-.03,0-.13,0-.13,0-.26,0-.54-.02-.82-.03-.28-.02-.57-.03-.84-.03-.07,0-.13,0-.2,0-.12,0-.23,0-.34.02.02.12.05.24.08.36.09.36.25.78.38,1.15.06.17.12.32.16.46.11.34.31.91-.08,1.25-.13.12-.31.18-.53.18-.13,0-.28-.02-.47-.07-.22-.05-.45-.12-.69-.19-.37-.11-.75-.22-1.09-.28.02.36.09.78.15,1.16.03.18.05.34.07.49.05.36.12.95-.32,1.22-.1.06-.23.1-.37.1-.18,0-.37-.05-.64-.18-.2-.09-.42-.2-.64-.32-.36-.18-.73-.37-1.06-.51-.09-.04-.18-.07-.27-.1-.03.11-.05.23-.07.35-.06.37-.09.82-.12,1.22,0,.14-.02.27-.03.39-.04.48-.1.92-.44,1.13-.09.06-.22.1-.35.1-.31,0-.6-.19-1.02-.54-.37-.33-.77-.66-1.18-.94-.13.35-.24.77-.34,1.14-.04.14-.07.27-.1.38-.13.46-.28.88-.65,1.02-.06.03-.15.04-.24.04-.39,0-.7-.33-1.03-.74-.38-.5-.78-.99-1.23-1.39-.37.5-.67,1.07-.92,1.56l-.11.21s-.05.08-.05.08c-.12.21-.27.47-.56.62-.03.02-.06.03-.1.04-.07.02-.13.03-.2.03Z"/>
        <path class="cls-3" d="M62.13,950.35c.07-.3-.35-.41-.57-.53-.59-.27-1.65-.63-2.32-1.18.39-.71,1.02-1.36,1.61-1.9,1.23-1.15-.73-.84-2.41-1.45.27-.67.69-1.31,1.11-1.88,1.06-1.47-1.2-.56-3.07-1.04.08-.9.57-1.94.76-2.52.06-.18.12-.39.08-.54-.13-.28-.53-.12-.78-.09-.53.12-1.37.37-2.13.43-.01-.83.21-1.76.27-2.3.03-.19.04-.41-.03-.55-.18-.25-.54-.02-.79.06-.59.26-1.56.79-2.42.91-.15-.39-.24-.82-.26-1.24-.11-.64.04-1.63-.33-1.96-.12-.05-.3.03-.56.2-.46.33-1.02.81-1.53,1.13-.12.08-.24.14-.35.21-.14-.27-.24-.56-.32-.86-.23-.6-.27-1.61-.7-1.86-.13-.03-.29.08-.51.31-.39.41-.84.99-1.29,1.41-.21.2-.42.37-.64.51-.2-.21-.39-.44-.56-.72-.29-.45-.58-1.06-.8-1.46-.19-.35-.34-.55-.49-.56h-.01c-.21.04-.32.27-.44.46-.27.47-.65,1.34-1.15,1.98-.13-.11-.26-.23-.38-.36-.37-.38-.77-.93-1.06-1.28-.26-.31-.44-.48-.59-.45h-.01c-.2.08-.26.33-.34.54-.2.6-.45,1.74-.94,2.5-.41-.15-.79-.37-1.14-.65-.47-.25-1.68-1.64-1.86-.81-.15.64-.07,1.69-.31,2.61-.29-.08-.57-.19-.83-.33-.51-.15-1.96-1.28-1.98-.43-.03.74.33,1.92.17,2.96-1.93.05-3.93-1.34-3.2.38.31.68.54,1.37.63,2.02-1.77.21-3.6-.52-2.63.92.51.71.92,1.46,1.11,2.19-.23.11-.48.21-.77.29-.59.17-1.33.26-1.88.38-.69.15-.68.37-.17.9.32.33.83.81,1.17,1.23.13.14.23.29.33.43-.12.07-.25.15-.38.21-.55.28-1.25.51-1.77.73-.65.28-.6.5,0,.92.38.26.97.64,1.39.98.24.18.43.37.6.57-.42.53-1,.99-1.67,1.37-.35.27-1.01.55-.84.91.14.17.37.25.59.34.52.21,1.37.49,2.03.9-.3.47-.7.91-1.17,1.31-.29.33-.88.74-.65,1.05.17.14.41.17.64.22.62.12,1.66.24,2.41.59-.24.83-.74,1.63-1.21,2.31-.23.39-.5.87.24.85.81-.05,1.7-.11,2.5,0-.13.73-.41,1.47-.69,2.12-.15.43-.32.95.4.79.88-.23,1.86-.5,2.76-.48.12.92-.16,2.11-.22,2.73-.04.37-.03.79.5.56.66-.25,1.51-.83,2.4-1.08.2.84.17,1.86.22,2.41.04.37.12.78.6.45.65-.42,1.47-1.26,2.4-1.64.22.34.39.72.49,1.12.19.58.3,1.16.48,1.66.08.19.15.33.33.32.2-.06.34-.24.49-.41.39-.49.93-1.2,1.57-1.73.18.23.34.48.47.75.3.54.52,1.08.8,1.53.12.17.21.3.38.25.18-.1.29-.3.4-.49.32-.62.77-1.54,1.39-2.21.66.47,1.22,1.16,1.67,1.75.33.4.55.62.72.55.14-.05.24-.3.36-.7.12-.44.28-1.08.46-1.57.06-.18.14-.35.22-.51.64.34,1.23.84,1.71,1.27.4.33.66.5.81.4.13-.08.18-.35.22-.76.04-.45.06-1.12.15-1.63.04-.31.12-.6.22-.86.25.05.51.12.78.23.57.22,1.21.59,1.72.83.27.12.46.17.57.1.13-.08.14-.33.09-.74-.06-.46-.19-1.16-.22-1.7-.02-.19-.02-.38,0-.56.17.01.34.03.53.07.6.11,1.3.35,1.85.48.29.07.49.08.58,0,.12-.1.07-.35-.06-.74-.15-.44-.41-1.1-.55-1.63-.09-.31-.13-.61-.15-.89.27-.06.55-.1.85-.1.64-.02,1.42.07,2.01.06.7,0,.37-.54.16-.88-.35-.52-.8-1.2-1.08-1.93.17-.06.35-.11.54-.15.62-.15,1.41-.2,1.98-.33.69-.14.26-.6-.01-.9-.52-.51-1.2-1.21-1.61-2,.72-.52,1.64-.83,2.28-1.07.21-.09.43-.17.56-.34.13-.28-.27-.47-.46-.63-.45-.32-1.22-.78-1.78-1.32.58-.55,1.32-.98,1.84-1.3.19-.13.39-.25.48-.44Z"/>
        <g>
          <path class="cls-8" d="M39.46,933.25c-.2.08-.26.33-.34.54-.22.64-.48,1.9-1.04,2.65-.89,1.33-2.67,1.4-4.02.67-.51-.15-1.96-1.28-1.98-.43-.03.8.39,2.1.12,3.21-1.01,4.06-6.71.76-5.15,3.07,1.44,2.02,2.06,4.29-.58,5.62-.55.28-1.25.51-1.77.73-.65.28-.59.5,0,.92.38.26.97.64,1.39.98,2.14,1.66,1.36,3.85-.46,5.4-.29.33-.88.74-.65,1.05.17.14.41.17.64.22.69.13,1.89.26,2.64.71,2.1,1.19,1.34,3.49.6,5.17-.15.43-.32.95.4.79,1.92-.51,4.3-1.17,5.29,1.28.36.89.3,2.21.36,2.87.04.37.12.78.6.45.7-.45,1.59-1.38,2.61-1.71,1.49-.57,2.96.4,3.62,1.78.3.54.52,1.08.8,1.53.12.17.21.3.38.25.18-.1.29-.3.4-.49.51-.97,1.3-2.68,2.63-3.01,1.46-.48,2.88.68,3.89,1.57.4.33.66.5.81.4.13-.08.18-.35.22-.76.04-.45.06-1.12.15-1.63.28-1.99,1.71-3.02,3.66-2.62.6.11,1.3.35,1.85.48.29.07.49.08.58,0,.12-.1.07-.35-.06-.74-.15-.44-.41-1.1-.55-1.63-.56-1.95.36-3.48,2.33-3.9.62-.15,1.41-.2,1.98-.33.69-.14.26-.6-.01-.9-.91-.91-2.35-2.4-1.89-3.93.25-1.29,1.82-2.17,2.73-2.73.19-.13.39-.25.48-.44.07-.3-.35-.41-.57-.53-.63-.28-1.78-.67-2.44-1.27-1.82-1.59-.68-3.64.43-5.14,1.58-2.19-4.18.89-5.09-3.15-.21-.93.13-2.23.21-2.91.03-.19.04-.41-.03-.55-.18-.25-.54-.02-.79.06-.65.29-1.77.9-2.68.95-1.57.18-2.74-1.1-3.09-2.54-.23-.6-.27-1.61-.7-1.86-.13-.03-.29.08-.51.31-.39.41-.84.99-1.29,1.41-1.4,1.36-3.14,1.31-4.47-.15-.37-.38-.77-.93-1.06-1.28-.25-.31-.44-.48-.59-.45h-.01Z"/>
          <path class="cls-5" d="M43.1,932.9c-.21.04-.32.27-.44.46-.34.59-.84,1.78-1.54,2.4-1.13,1.14-2.89.86-4.08-.11-.47-.25-1.68-1.64-1.86-.81-.18.78-.03,2.14-.5,3.17-1.77,3.79-6.74-.55-5.65,2.02,1.03,2.26,1.2,4.61-1.66,5.41-.59.17-1.33.26-1.88.38-.69.15-.68.37-.17.9.32.33.83.81,1.17,1.23,1.78,2.04.59,4.04-1.49,5.21-.35.27-1.01.55-.84.91.14.17.37.25.59.34.65.26,1.8.62,2.45,1.21,1.83,1.57.64,3.68-.4,5.19-.23.39-.5.87.24.85,1.98-.13,4.44-.32,4.94,2.27.18.94-.14,2.23-.2,2.89-.04.37-.03.79.5.56.78-.3,1.83-1.05,2.89-1.18,1.57-.27,2.83.96,3.21,2.45.19.58.3,1.16.48,1.66.08.19.15.33.33.32.2-.06.34-.24.49-.41.69-.86,1.79-2.38,3.16-2.44,1.52-.2,2.7,1.22,3.51,2.29.33.4.55.62.72.55.14-.05.24-.3.36-.7.12-.44.28-1.08.46-1.57.66-1.9,2.26-2.63,4.1-1.87.57.22,1.21.59,1.72.83.27.12.46.17.57.1.13-.08.14-.33.09-.74-.06-.46-.19-1.16-.22-1.7-.17-2.02,1.02-3.35,3.04-3.37.64-.02,1.42.07,2.01.06.7,0,.37-.54.16-.88-.72-1.07-1.84-2.81-1.1-4.22.5-1.22,2.2-1.78,3.2-2.16.21-.09.43-.17.56-.34.13-.28-.27-.47-.46-.63-.56-.4-1.61-1-2.14-1.72-1.48-1.91.03-3.7,1.41-4.96,1.97-1.84-4.28.07-4.38-4.07-.03-.95.55-2.17.77-2.82.06-.18.12-.39.08-.54-.13-.28-.53-.12-.78-.09-.7.16-1.91.54-2.81.41-1.57-.13-2.48-1.6-2.54-3.09-.11-.64.04-1.63-.33-1.96-.12-.05-.3.03-.56.2-.46.33-1.02.81-1.53,1.13-1.63,1.07-3.33.68-4.36-1.01-.29-.45-.58-1.06-.8-1.46-.19-.35-.34-.55-.49-.56h-.01Z"/>
          <path class="cls-6" d="M42.41,935.48c-.16.03-.24.21-.33.35-.25.44-.63,1.33-1.15,1.8-.85.85-2.17.65-3.06-.09-.35-.19-1.26-1.23-1.39-.61-.14.58-.02,1.6-.38,2.38-1.33,2.84-5.05-.41-4.23,1.51.77,1.69.9,3.45-1.24,4.05-.44.12-.99.19-1.41.28-.52.11-.51.28-.13.68.24.25.62.61.88.92,1.33,1.53.44,3.03-1.12,3.91-.26.2-.76.41-.63.68.11.12.28.19.44.26.49.2,1.35.46,1.84.91,1.37,1.18.48,2.76-.3,3.89-.17.29-.38.65.18.64,1.48-.09,3.33-.24,3.71,1.7.14.71-.1,1.67-.15,2.16-.03.28-.02.59.37.42.58-.23,1.37-.79,2.17-.88,1.18-.2,2.12.72,2.41,1.84.14.44.22.87.36,1.24.06.14.11.25.25.24.15-.04.26-.18.37-.3.51-.64,1.34-1.79,2.37-1.83,1.14-.15,2.02.92,2.63,1.72.24.3.41.46.54.41.11-.04.18-.23.27-.53.09-.33.21-.81.35-1.18.49-1.42,1.69-1.97,3.07-1.4.43.17.91.44,1.29.62.2.09.35.13.43.08.1-.06.11-.25.07-.55-.05-.35-.14-.87-.17-1.28-.13-1.52.77-2.51,2.28-2.53.48-.02,1.07.06,1.51.04.53,0,.28-.4.12-.66-.54-.8-1.38-2.1-.83-3.16.37-.92,1.65-1.33,2.4-1.62.16-.07.32-.13.42-.26.1-.21-.2-.35-.34-.48-.42-.3-1.21-.75-1.61-1.29-1.11-1.43.03-2.77,1.06-3.72,1.48-1.38-3.21.05-3.29-3.05-.02-.71.42-1.62.57-2.11.05-.13.09-.29.06-.41-.1-.21-.4-.09-.59-.07-.52.12-1.43.41-2.1.31-1.18-.1-1.86-1.2-1.9-2.32-.08-.48.03-1.22-.24-1.47-.09-.04-.23.02-.42.15-.34.25-.76.61-1.15.85-1.22.8-2.5.51-3.27-.75-.21-.33-.44-.79-.6-1.09-.14-.26-.26-.41-.37-.42h-.01Z"/>
          <path class="cls-3" d="M40.59,940.52c-.07.01-.1.09-.14.15-.11.18-.26.56-.49.76-.36.36-.91.27-1.29-.04-.15-.08-.53-.52-.59-.25-.06.25,0,.68-.16,1-.56,1.2-2.13-.17-1.78.64.32.71.38,1.46-.52,1.71-.19.05-.42.08-.59.12-.22.05-.21.12-.05.29.1.1.26.26.37.39.56.64.19,1.28-.47,1.65-.11.08-.32.17-.26.29.04.05.12.08.19.11.2.08.57.2.77.38.58.5.2,1.16-.13,1.64-.07.12-.16.28.08.27.62-.04,1.4-.1,1.56.72.06.3-.04.7-.06.91-.01.12,0,.25.16.18.24-.1.58-.33.91-.37.5-.08.89.3,1.01.77.06.18.09.37.15.52.03.06.05.1.1.1.06-.02.11-.08.15-.13.22-.27.57-.75,1-.77.48-.06.85.39,1.11.72.1.13.17.19.23.17.04-.02.08-.1.11-.22.04-.14.09-.34.15-.5.21-.6.71-.83,1.3-.59.18.07.38.19.54.26.09.04.15.05.18.03.04-.02.04-.1.03-.23-.02-.15-.06-.37-.07-.54-.05-.64.32-1.06.96-1.07.2,0,.45.02.63.02.22,0,.12-.17.05-.28-.23-.34-.58-.89-.35-1.33.16-.39.7-.56,1.01-.68.07-.03.14-.05.18-.11.04-.09-.08-.15-.14-.2-.18-.13-.51-.32-.68-.54-.47-.6.01-1.17.45-1.57.62-.58-1.35.02-1.38-1.29,0-.3.18-.68.24-.89.02-.06.04-.12.02-.17-.04-.09-.17-.04-.25-.03-.22.05-.6.17-.89.13-.5-.04-.78-.51-.8-.98-.04-.2.01-.52-.1-.62-.04-.02-.1,0-.18.06-.14.1-.32.26-.48.36-.52.34-1.05.21-1.38-.32-.09-.14-.18-.33-.25-.46-.06-.11-.11-.17-.16-.18h0Z"/>
        </g>
      </g>
      <path class="cls-9" d="M677.91,59.29H134.7v-10.89l17.37-17.37h543.22v10.89l-17.37,17.37ZM136.69,57.29h540.4l16.2-16.2v-8.06H152.89l-16.2,16.2v8.06Z"/>
    </g>
  </g>
</svg>