<?xml version="1.0" encoding="UTF-8"?>
<svg xmlns="http://www.w3.org/2000/svg" viewBox="0 0 109.74 50.18">
  <defs>
    <style>
      .cls-1, .cls-2, .cls-3 {
        fill: #c196ed;
      }

      .cls-1, .cls-4 {
        opacity: .3;
      }

      .cls-1, .cls-4, .cls-3, .cls-5 {
        mix-blend-mode: multiply;
      }

      .cls-6 {
        fill: #2f3b3b;
      }

      .cls-7 {
        fill: #d0beed;
        opacity: .5;
      }

      .cls-8 {
        fill: #cab2ed;
      }

      .cls-9 {
        isolation: isolate;
      }

      .cls-4 {
        fill: #b189dd;
      }

      .cls-3 {
        opacity: .4;
      }

      .cls-10 {
        fill: #cdb7ed;
        opacity: .38;
      }

      .cls-11, .cls-5 {
        fill: #c7a6ed;
      }

      .cls-5 {
        opacity: .24;
      }
    </style>
  </defs>
  <g class="cls-9">
    <g id="_레이어_2" data-name="레이어 2">
      <g id="_물고기4" data-name="물고기4">
        <g>
          <path class="cls-2" d="M95.26,15.07c-1.4-4.56.81-9.83,5.32-13.88,1.9-1.7,6.46,6.06-1.52,12.53,0,0,6.74-.42,10.65,7.61.56,1.15-11.13,4.58-14.45-6.26Z"/>
          <path class="cls-1" d="M95.82,7.68c1.1,4.19,3.52,7.5,7.17,9.91,1.79,1.18,3.94,2.27,6.11,2.6.21.37.42.74.62,1.15.56,1.15-11.13,4.58-14.45-6.26-.72-2.36-.47-4.91.56-7.38Z"/>
          <path class="cls-2" d="M96.48,14.98c1.57-3.52-25.3-9.08-52.92-13.53C10.17-3.93.02,6.23.02,22.38.02,43.15,17.92,50.11,32.56,50.18c28.18.14,54.46-13.96,63.92-35.21Z"/>
          <path class="cls-3" d="M66.81,9c-10.68-1.35-21.43-2.08-32.19-2.47-9.64-.35-19.29-.38-28.92-.01C11.82.6,23.49-1.78,43.56,1.45c23.24,3.74,45.94,8.27,51.63,11.71-9.46-1.36-18.89-2.96-28.37-4.16Z"/>
          <path class="cls-3" d="M95.75,16.52c-31.44-2.62-63.15-4.23-94.64-2.31.77-2.54,1.97-4.81,3.69-6.75,10.53-.43,21.08-.37,31.6.07,11.02.47,22.03,1.24,32.96,2.73,9.03,1.24,18.03,2.73,27.06,4,.13.24.15.48.05.71-.23.52-.48,1.03-.73,1.54Z"/>
          <path class="cls-3" d="M21.6,22.95c-7.2-.16-14.39-.44-21.58-.8.02-2.5.29-4.84.85-7.01,31.42-1.94,63.06-.34,94.43,2.27-.38.73-.78,1.44-1.2,2.15-23.62,5.15-48.52,3.93-72.5,3.4Z"/>
          <path class="cls-3" d="M65.61,31.19c-12.94,2.31-26.09,3.62-39.22,4.24-7.74.36-15.49.45-23.24.21C1.28,32.2.14,28.05.03,23.09c7.79.39,15.59.69,23.39.83,23.22.41,47.15,1.52,70.03-3.29-.78,1.24-1.62,2.45-2.51,3.63-8.14,3.24-16.71,5.4-25.33,6.94Z"/>
          <path class="cls-4" d="M39.45,25.1c.15-3.69,14.07-15.53,19.74-9.86,2.01,2.01-2.01,7.13-9.14,7.31,0,0,7.49-.18,6.95,4.57-.55,4.75-9.14,2.19-9.14,2.19,0,0,12.37,3.33,8.41,8.45-5.36,6.91-17-8.28-16.82-12.66Z"/>
          <path class="cls-3" d="M80.97,34.35c-.83.25-1.65.5-2.48.74-11.82,3.32-24.02,4.95-36.19,6.31-10.51,1.18-21.06,2.15-31.63,2.52-2.74-1.92-5.14-4.33-6.95-7.31,7.85.22,15.71.11,23.54-.3,13.18-.69,26.41-1.95,39.39-4.37,7.89-1.48,15.71-3.44,23.2-6.28-2.57,3.16-5.55,6.07-8.87,8.7Z"/>
          <path class="cls-3" d="M35.53,43.06c11.6-1.16,23.28-2.47,34.69-4.96,2.91-.64,5.82-1.35,8.71-2.17-12.42,9.04-29.02,14.35-46.36,14.26-6.86-.03-14.42-1.6-20.53-5.38,7.86-.33,15.72-.97,23.49-1.75Z"/>
          <path class="cls-1" d="M8.55,26.07c12.04,8.72,43.99,17.85,68.36-18.44,12.27,2.72,20.46,5.36,19.57,7.35-9.46,21.25-35.74,35.35-63.92,35.21C17.92,50.11.02,43.15.02,22.38c0-1.83.14-3.57.42-5.24,2.22,3.45,4.99,6.66,8.11,8.92Z"/>
          <path class="cls-11" d="M28.85.02c6.26,9.02,7.33,22.69,3.4,32.26-2.7,6.57-7.86,12.09-14.69,14.39-.4.14-.81.26-1.22.38C7.29,43.23.02,35.61.02,22.38S7.1-.4,28.85.02Z"/>
          <path class="cls-5" d="M.03,20.94c.02-.51.06-1.01.12-1.52.06-.55.2-1.78.29-2.28,2.22,3.45,4.99,6.66,8.11,8.92,4.94,3.58,13.25,7.23,23,7.77-2.84,5.87-7.7,10.71-13.98,12.83-.4.14-.81.26-1.22.38-.36.1-1.12-.48-1.42-.64-.61-.33-1.23-.66-1.84-1-3.36-1.89-6.3-4.5-8.54-7.65C1.66,33.67.3,28.77.04,23.82c-.05-.95-.06-1.92-.02-2.87Z"/>
          <path class="cls-6" d="M14.99,18.56c0,1.07.68,1.94,1.52,1.94s1.52-.87,1.52-1.94-.68-1.94-1.52-1.94-1.52.87-1.52,1.94Z"/>
          <path class="cls-8" d="M40.48,23.59c.14-3.5,13.35-14.74,18.73-9.36,1.91,1.91-1.91,6.77-8.67,6.94,0,0,7.11-.17,6.59,4.34-.52,4.51-8.67,2.08-8.67,2.08,0,0,11.74,3.16,7.98,8.02-5.08,6.56-16.13-7.86-15.96-12.01Z"/>
          <path class="cls-10" d="M21.94,4.96c3.07,4.1-14.08,13.49-16.96,8.76C2.1,9,16.75-1.97,21.94,4.96Z"/>
          <path class="cls-7" d="M57.52,14.69c1.8,2.1-7.91,6.47-9.9,3.94-2-2.54,6.81-7.56,9.9-3.94Z"/>
        </g>
      </g>
    </g>
  </g>
</svg>