<?xml version="1.0" encoding="UTF-8"?>
<svg xmlns="http://www.w3.org/2000/svg" viewBox="0 0 106.43 80.83">
  <defs>
    <style>
      .cls-1, .cls-2, .cls-3 {
        fill: #ed435c;
      }

      .cls-2 {
        opacity: .15;
      }

      .cls-2, .cls-4, .cls-5, .cls-6, .cls-3 {
        mix-blend-mode: multiply;
      }

      .cls-7 {
        opacity: .3;
      }

      .cls-7, .cls-4, .cls-8 {
        fill: #ed91a8;
      }

      .cls-4 {
        opacity: .29;
      }

      .cls-5 {
        opacity: .2;
      }

      .cls-5, .cls-6, .cls-9 {
        fill: #ed9db3;
      }

      .cls-6 {
        opacity: .23;
      }

      .cls-10 {
        isolation: isolate;
      }

      .cls-11 {
        fill: #1a2222;
      }

      .cls-3 {
        opacity: .12;
      }
    </style>
  </defs>
  <g class="cls-10">
    <g id="_레이어_2" data-name="레이어 2">
      <g id="_물고기3" data-name="물고기3">
        <g>
          <path class="cls-8" d="M71.25,65.2s5.22,7.84-.17,10.69c-3.94,2.09-5.16-2.06-5.16-2.06,0,0,.29,3.72-3.77,4.77-4.06,1.05-5.39-3.14-5.39-3.14,0,0-1.21,5.37-7.25,5.37-6.03,0-7.02-6.81-7.02-6.81l28.75-8.82Z"/>
          <path class="cls-4" d="M71.74,75.48c-1.73-.48-3.55-.72-5.42-.75-.28-.49-.4-.89-.4-.89,0,0,.03.36-.06.88-2.95-.01-6,.44-8.95,1.13-.1-.23-.15-.38-.15-.38,0,0-.04.17-.13.44-3.51.84-6.87,2-9.77,3.11-.43.16-.86.33-1.29.51-2.55-1.98-3.07-5.51-3.07-5.51l28.75-8.82s4.75,7.15.49,10.27Z"/>
          <path class="cls-9" d="M83.38,38.75s11.5-15.86,18.3-12.83c6.38,2.85,6.6,34.93-1,36.83-9.79,2.45-17-14.39-17-14.39l-.3-9.62Z"/>
          <path class="cls-5" d="M102.3,28.68c-1.4.54-2.4,1.61-3.29,2.76-1.42,1.83-2.62,2.69-5.1,2.17-3.79-.8-4.28,2.32-6.66,4.44-1.24,1.1-2.53,1.58-3.84,1.65l-.03-.96s11.5-15.86,18.3-12.83c.79.35,1.49,1.16,2.09,2.31-.51.12-1.01.27-1.47.45Z"/>
          <path class="cls-5" d="M104.15,33.7c-1.62,1.93-3.57,3.9-6.16,4.48-1.74.39-3.49-.15-5.18.22-1.3.28-2.34,1.03-3.36,1.86-1.49,1.21-2.91,2.32-4.39,3.25-.51.13-1.02.25-1.53.35l-.1-3.25c1.44-.15,2.99-.58,4.09-1.56,1.29-1.15,1.97-2.86,3.27-3.96,1.85-1.57,4.08.2,6.18-.58.96-.36,1.6-.91,2.2-1.74,1.17-1.58,2.35-3.03,4.34-3.53.21-.05.43-.1.65-.14.44,1.03.81,2.25,1.12,3.61-.4.23-.77.56-1.14,1Z"/>
          <path class="cls-5" d="M102.14,42.35c-1.71.5-3.31,1.29-5.01,1.82-2.22.68-3.61.46-5.65-.64-1.26-.68-2.51-.84-3.83-.65,1.49-1.32,3.18-3.11,4.96-3.49,1.61-.35,3.26.22,4.88-.15,1.87-.42,3.54-1.27,5.03-2.48,1.03-.84,1.88-2.22,2.99-2.99.51,2.61.81,5.64.88,8.73-1.26-.55-2.68-.62-4.26-.15Z"/>
          <path class="cls-5" d="M101.64,47.68c-3.15.16-6.26,1.14-9.43.98-3-.16-5.84-.98-8.59-2.13l-.03-1.06c.84-.37,1.65-.81,2.44-1.33.45-.11.89-.2,1.35-.28,2.03-.35,3.01.29,4.72,1.1.59.28,1.17.54,1.83.59,1.36.1,2.67-.2,3.94-.67,2.82-1.03,5.96-2.71,8.54-1.36.01,1.71-.04,3.42-.17,5.09-1.42-.67-2.95-1.02-4.61-.94Z"/>
          <path class="cls-5" d="M95.53,53.19c-3.31-.05-7.16-.88-10.68-2.44-.76-1.42-1.17-2.38-1.17-2.38l-.02-.76c2.03.82,4.11,1.46,6.26,1.75,5.47.74,11.23-2,16.24.3-.15,1.54-.36,3.02-.63,4.41-2.8-1.38-7.64-.84-10-.87Z"/>
          <path class="cls-5" d="M96.85,59.21c2.12.23,4.52.67,5.85,2.16-.59.71-1.26,1.2-2.01,1.38-4.16,1.04-7.85-1.4-10.72-4.55,2.27.58,4.52.75,6.88,1.01Z"/>
          <path class="cls-5" d="M94.12,58.07c-1.77-.18-3.54-.58-5.26-1.15-1.35-1.68-2.48-3.45-3.33-4.94,1.71.69,3.44,1.21,5.09,1.55,2.95.62,5.73.47,8.71.49,1.69.01,4.36.05,5.99,1.05-.51,2.25-1.2,4.17-2.07,5.54-2.09-2.13-6.11-2.24-9.13-2.55Z"/>
          <path class="cls-6" d="M91.74,29.6c.18,3.96,1.14,7.89,2.99,11.49,2.06,4.01,6.55,9.08,11.15,10.93-.8,5.6-2.51,10.06-5.19,10.73-9.79,2.45-17-14.39-17-14.39l-.3-9.62s3.82-5.26,8.36-9.14Z"/>
          <path class="cls-8" d="M73.33,17.82s4.13-7.14-1.17-9.05c-5.3-1.91-5.85,1.43-5.85,1.43,0,0,.72-6.82-6.67-8.15-7.39-1.33-9.41,4.85-9.41,4.85,0,0-.18-6.76-9.06-6.89-8.88-.13-7.28,12.01-7.28,12.01l39.43,5.81Z"/>
          <path class="cls-4" d="M48.73,6.31c.49.1.98.19,1.48.28.02.19.03.3.03.3,0,0,.03-.1.11-.27,4.96.87,10.43,1.2,15.45.13.69,1.82.52,3.45.52,3.45,0,0,.55-3.34,5.85-1.43,5.3,1.91,1.17,9.05,1.17,9.05l-39.43-5.81s-.88-6.67,2.28-10.06c3.98,1.96,8.2,3.49,12.55,4.37Z"/>
          <path class="cls-1" d="M88.1,43.91c0,24.14-23.12,30.63-46.69,30.63S0,66.08,0,40.26,21.95,7.56,45.62,8.68c25.26,1.2,42.48,12.77,42.48,35.23Z"/>
          <path class="cls-3" d="M45.62,8.68c11.26.54,20.92,3.14,28.18,7.84.3,3.19-1.42,6.41-4.48,8.29-.41.25-.22.83.23.86,3.1.21,5.08,4.44,3.92,7.24-.76,1.83-2.32,3.19-3.17,4.98-.62,1.32-.37,3.03-.17,4.42.45,3.08-.02,5.05-2.9,6.73-.32.19-.27.6,0,.8,3.25,2.38,3.91,7.53.23,9.82-.3.19-.29.61,0,.8,4.3,2.78,3.35,6.91.53,10.25-7.83,2.78-17.17,3.82-26.59,3.82C17.83,74.54,0,66.08,0,40.26S21.95,7.56,45.62,8.68Z"/>
          <path class="cls-3" d="M45.62,8.68c4.86.23,9.41.85,13.61,1.85.41,3.25-.26,6.55-3.19,7.78-.55.23-.35.98.25.89,4.98-.74.39,9.95-.52,12.01-.09.21-.08.52.17.63,5.14,2.42,1.85,8.82-.63,12.06-.13.17-.05.41.07.56,4.29,5.07,2.12,12.28-2.08,16.65-.24.25-.14.68.2.77,4.33,1.17,3.38,7.31.76,11.91-4.18.51-8.51.73-12.86.73C17.83,74.54,0,66.08,0,40.26S21.95,7.56,45.62,8.68Z"/>
          <path class="cls-3" d="M38.63,8.6c2.17,3.61,2.37,8.75-1.39,10.91-.37.21-.24.92.23.86,7.43-.87,7.75,10.43,3.6,14.21-.18.17-.17.48,0,.65,2.81,2.7,1.08,5.35-1.15,7.65-.21.22-.16.56.09.72,2.77,1.77,4.79,4.58,3.76,7.99-.76,2.53-2.37,4.55-4.32,6.28-.2.17-.16.47,0,.65,1.41,1.58,1.55,4.15,1.08,6.13-.27,1.14-.82,2.63-1.8,3.07-.45-.41-1.12-.57-2.08-.28-.39.12-.45.63-.11.84.68.43,1.29.59,1.83.57.44.87.21,2.47-.04,3.25-.29.9-.81,1.69-1.51,2.3C15.56,73.35,0,64.38,0,40.26S17.8,9.12,38.63,8.6Z"/>
          <path class="cls-2" d="M4.31,53.67c11.5,1.83,23.9.3,33.98-5.81,8.34-5.06,15.06-13.13,19.46-21.77,2.31-4.54,4.16-9.58,4.72-14.68,15.76,4.75,25.64,15.5,25.64,32.5,0,24.14-23.12,30.63-46.69,30.63-19.07,0-34.39-5.54-39.54-21.33.8.17,1.61.33,2.43.46Z"/>
          <path class="cls-7" d="M16.83,69.98C6.5,65.09,0,55.84,0,40.26,0,23.07,9.73,14.28,23.22,10.65c14.33,25.12,4.22,59.33-6.39,59.33Z"/>
          <path class="cls-11" d="M15.93,33.49c0,1.12.71,2.02,1.58,2.02s1.58-.9,1.58-2.02-.71-2.02-1.58-2.02-1.58.9-1.58,2.02Z"/>
        </g>
      </g>
    </g>
  </g>
</svg>