<?xml version="1.0" encoding="UTF-8"?>
<svg xmlns="http://www.w3.org/2000/svg" viewBox="0 0 78.86 97.11">
  <defs>
    <style>
      .cls-1, .cls-2, .cls-3, .cls-4 {
        fill: #edb61a;
      }

      .cls-5 {
        opacity: .16;
      }

      .cls-5, .cls-2, .cls-3, .cls-4 {
        mix-blend-mode: multiply;
      }

      .cls-5, .cls-6 {
        fill: #ed9800;
      }

      .cls-2 {
        opacity: .4;
      }

      .cls-7 {
        fill: #ed780e;
      }

      .cls-8 {
        isolation: isolate;
      }

      .cls-9 {
        fill: #edcd34;
      }

      .cls-10 {
        fill: #edcb40;
        opacity: .27;
      }

      .cls-3 {
        opacity: .22;
      }

      .cls-4 {
        opacity: .3;
      }

      .cls-11 {
        fill: #202929;
      }
    </style>
  </defs>
  <g class="cls-8">
    <g id="_레이어_2" data-name="레이어 2">
      <g id="_물고기2" data-name="물고기2">
        <g>
          <path class="cls-6" d="M21.5,53.8s-14.38-11.42-19.19-6.02c-4.81,5.4,7.72,10.02,7.72,10.02,0,0-13.8.45-9.02,9.69,4.53,8.77,20.49-4.23,20.49-4.23v-9.46Z"/>
          <path class="cls-5" d="M11.86,47.88c.04,2.65-.5,5.38-1.57,8-.23.58-.51,1.15-.8,1.71.34.14.53.21.53.21,0,0-.25,0-.67.05-1.97,3.68-5.13,6.93-8.93,8.31.15.43.33.87.58,1.34,4.53,8.77,20.49-4.23,20.49-4.23v-9.46s-4.71-3.74-9.64-5.93Z"/>
          <path class="cls-1" d="M16.57,95.65c-.3,2.01,27.46,1.42,33.84,1.25,6.39-.17,27.87-7.56,28.44-45.86C79.42,12.73,58.64-.03,41.8,0,24.96.03,16.49,9.26,14.72,11.34c-1.76,2.08,2.69,78.61,1.85,84.31Z"/>
          <path class="cls-3" d="M52.58,55.9C37.1,42.04,30.9,21.05,33.25.87c-11.21,2.35-17.09,8.78-18.53,10.47-1.76,2.08,2.69,78.61,1.85,84.31-.3,2.01,27.46,1.42,33.84,1.25,5.49-.15,22.13-5.65,27.05-31.52-9.19.17-17.94-3.26-24.89-9.48Z"/>
          <path class="cls-4" d="M66.71,69.25c-.42,2.04-1.55,4.07-4,3.6-2.43-.46-4.23-2.42-5.17-4.64-1.02,2.56-3.26,4.14-6.26,3.75-1.76-.23-3.97-1.51-5.13-3.22-1.29,5.45-9.82,1.65-12.88-2.6-.34,2.7-1.65,5.59-4.77,5.54-3.14-.05-5.32-2.4-6.4-5.14-1.15,2.51-3.36,4.62-6,5.42.46,12.14.77,21.79.49,23.67-.3,2.01,27.46,1.42,33.84,1.25,4.77-.13,17.94-4.28,24.55-22.3-3.24-.4-6.26-2.49-8.26-5.34Z"/>
          <path class="cls-9" d="M62.57,7.14c-3.3,5.56-4.69,12.29-5.39,18.63-.9,8.22-1.14,16.65-.37,24.88,1.2,12.79,4.81,25.3,11.14,36.33,5.76-6.81,10.63-17.98,10.9-35.95.34-22.75-6.86-36.49-16.28-43.89Z"/>
          <path class="cls-2" d="M30.5,56.88c3.29-3.79,10.59,17.65,8.65,23.74-1.93,6.09-11.04,7.96-13.51,0-2.48-7.96.79-19.06,4.86-23.74Z"/>
          <path class="cls-7" d="M33.19,55.03c3.24-3.73,10.43,17.38,8.52,23.38-1.91,6-10.87,7.84-13.31,0-2.44-7.84.78-18.77,4.79-23.38Z"/>
          <path class="cls-11" d="M69.75,38.13c0,1.15-.73,2.08-1.63,2.08s-1.63-.93-1.63-2.08.73-2.08,1.63-2.08,1.63.93,1.63,2.08Z"/>
          <path class="cls-10" d="M27.98,8.41c-2.86,9.58,27.39,10.12,29.95,3.48,2.56-6.64-26.44-15.23-29.95-3.48Z"/>
        </g>
      </g>
    </g>
  </g>
</svg>