<?xml version="1.0" encoding="UTF-8"?>
<svg xmlns="http://www.w3.org/2000/svg" viewBox="0 0 123.16 85.55">
  <defs>
    <style>
      .cls-1 {
        isolation: isolate;
      }

      .cls-2, .cls-3 {
        opacity: .7;
      }

      .cls-2, .cls-4 {
        fill: #baed98;
      }

      .cls-5 {
        fill: #aeed85;
      }

      .cls-6 {
        fill: #73bc43;
        opacity: .2;
      }

      .cls-7 {
        opacity: .8;
      }

      .cls-7, .cls-8 {
        fill: #6dbf37;
      }

      .cls-3, .cls-9 {
        fill: #7fda49;
      }

      .cls-10 {
        fill: #1f2828;
      }

      .cls-11 {
        fill: #539329;
      }

      .cls-8 {
        opacity: .5;
      }

      .cls-12 {
        fill: #a6ed77;
        mix-blend-mode: multiply;
        opacity: .38;
      }

      .cls-4 {
        mix-blend-mode: lighten;
        opacity: .26;
      }
    </style>
  </defs>
  <g class="cls-1">
    <g id="_레이어_2" data-name="레이어 2">
      <g id="_물고기1" data-name="물고기1">
        <g>
          <path class="cls-5" d="M25.54,48.38s-.33,21.75,25.26,32.99c31.73,13.94,63.12-9.6,70.31-32.99C128.29,24.99,116.59.99,87.16.07c-29.43-.92-50.57,7.5-59.18,28.49,0,0-18.37-27.38-27.25-10.41-5.04,9.63,20.09,18.23,20.09,18.23,0,0-24.86,5-20.26,16.29,5.43,13.33,24.97-4.28,24.97-4.28Z"/>
          <path class="cls-2" d="M50.26,13.05c-.04,3.78,31.9-1.27,32.78-7.04.88-5.77-32.65-4.56-32.78,7.04Z"/>
          <path class="cls-3" d="M27.98,28.56C24.48,23.65,8.75,2.81.73,18.15c-5.04,9.63,20.09,18.23,20.09,18.23,0,0-24.86,5-20.26,16.29,5.15,12.67,22.76-2.29,24.97-4.28,0-6.87,1.1-12.92,2.44-19.83Z"/>
          <path class="cls-7" d="M11.58,54.59c-2.06.59-5.27,1.52-8.35,1.75,6.91,5.23,20.4-6.22,22.32-7.95,0-.23.01-.45.01-.67-4.02,3.21-8.78,5.39-13.98,6.87Z"/>
          <path class="cls-7" d="M23.01,23.88c1.26.91,2.46,1.88,3.64,2.87C21.59,20.06,8.32,4.7,1.01,17.67c7.91.1,15.29,1.38,22,6.21Z"/>
          <path class="cls-7" d="M20.99,28.99c-6.17-3.63-12.92-5.32-19.99-5.07.54.94,1.27,1.84,2.16,2.71,8.15.89,15.94,3.43,23.59,6.45-1.81-1.5-3.72-2.9-5.75-4.09Z"/>
          <path class="cls-7" d="M14.91,33.98c1.98.9,3.69,1.57,4.75,1.97,2.24.61,4.54.88,6.87.96.05-.31.1-.63.15-.94-3.89-.86-7.81-1.53-11.77-1.99Z"/>
          <path class="cls-7" d="M13.99,38.29c-1.75.6-3.66,1.34-5.49,2.24,3.59,2.15,8.24,2.25,12.3,1.98,1.71-.12,3.4-.32,5.09-.55.03-.34.08-.69.12-1.03-4.22.03-8.41-.66-12.02-2.64Z"/>
          <path class="cls-7" d="M14.44,46.28c-4.27.31-9.04.99-13.38.16C.4,47.52,0,48.69.02,49.97c2.18.02,4.38-.3,6.51-.65,3.34-.55,6.69-1,10.02-1.59,3.06-.54,6.11-1.19,9.07-2.06.01-.29.03-.58.05-.88-3.7.75-7.46,1.21-11.23,1.49Z"/>
          <path class="cls-8" d="M47.74,41.27c-1.16-.55-16.7,10.53-13.54,15.36,3.15,4.83,12.35-5.69,12.35-5.69,0,0-4.81,15.09,3.39,15.82,8.2.73,2.96-23.07-2.19-25.49Z"/>
          <path class="cls-12" d="M65.77,53.82c-13.48-11.24-21.66-29.6-18.4-46.54-8.83,4.65-15.44,11.63-19.4,21.27,0,0-1.25-1.86-3.25-4.31-2.1,1.97-4.66,3.34-7.67,3.72-5.71.72-13-2.21-16.98-7.09.2,8.47,20.76,15.5,20.76,15.5,0,0-24.86,5-20.26,16.29,5.43,13.33,24.97-4.28,24.97-4.28,0,0-.33,21.75,25.26,32.99,23.72,10.42,47.25-.11,60.62-15.86-16.11,2.26-33.2-1.31-45.65-11.69Z"/>
          <path class="cls-3" d="M101.68,74.64c9.45-7.05,16.47-16.66,19.42-26.26C128.29,24.99,116.59.99,87.16.07c-.84-.03-13.17,53.95,14.52,74.57Z"/>
          <path class="cls-10" d="M105.04,26.73c0,1.15-.73,2.08-1.63,2.08s-1.63-.93-1.63-2.08.73-2.08,1.63-2.08,1.63.93,1.63,2.08Z"/>
          <path class="cls-11" d="M46.9,41.66c-1.11-.64-17.54,9.06-14.81,14.15,2.73,5.09,12.79-4.61,12.79-4.61,0,0-6.09,14.62,2.02,16.05,8.11,1.43,4.93-22.73,0-25.59Z"/>
          <path class="cls-9" d="M55.07,25.96c-1.43,4.33,7.16,4.91,9,1.34,2.65-5.15-6.56-8.72-9-1.34Z"/>
          <path class="cls-9" d="M68.24,16.96c-2.86.56-1.5,5.59,1.4,4.49,2.9-1.1,1.61-5.07-1.4-4.49Z"/>
          <path class="cls-9" d="M57.84,38.98c-2.9-1.36-5.19,4.83-2.14,5.77,3.05.94,5.26-4.31,2.14-5.77Z"/>
          <path class="cls-9" d="M57.83,53.22c-1.75.94-.06,4.51,1.65,2.39,1.71-2.12,0-3.27-1.65-2.39Z"/>
          <path class="cls-9" d="M65.93,58.61c-2.79-.45-3.43,6.83,0,6.46,3.43-.37,3.76-5.85,0-6.46Z"/>
          <path class="cls-9" d="M66.9,48.87c4.16,2.42,10.14-6.36,5.26-8.92-4.88-2.56-9.42,6.5-5.26,8.92Z"/>
          <path class="cls-6" d="M33.02,55.72c.45,1.9,7.81-.86,6.31-3.4-1.5-2.54-7.28-.7-6.31,3.4Z"/>
          <path class="cls-4" d="M4.79,15.56c-5.02,4.7,10.92,11.94,14,9.08,3.08-2.86-9.34-13.45-14-9.08Z"/>
        </g>
      </g>
    </g>
  </g>
</svg>