<?xml version="1.0" encoding="UTF-8"?>
<svg id="_레이어_2" data-name="레이어 2" xmlns="http://www.w3.org/2000/svg" viewBox="0 0 74.74 75.01">
  <defs>
    <style>
      .cls-1 {
        fill: #fff;
      }

      .cls-2 {
        fill: #07670a;
      }

      .cls-3 {
        fill: #33ff85;
      }

      .cls-4 {
        fill: #00ff67;
      }

      .cls-5 {
        fill: #13b110;
      }
    </style>
  </defs>
  <g id="_박테리아" data-name="박테리아">
    <g>
      <path class="cls-1" d="M36.81,75.01c-.75,0-1.13-.56-1.36-.9-.35-.56-.62-1.12-.9-1.71-.21-.43-.43-.88-.67-1.31,0-.02-.02-.03-.03-.05-.07-.15-.15-.3-.23-.44-.7.7-1.32,1.48-1.84,2.14l-.28.35s-.11.13-.11.13c-.31.35-.69.78-1.29.96-.06.02-.13.03-.2.04-.02,0-.09,0-.11,0-.94,0-1.28-.79-1.44-1.17-.23-.62-.39-1.21-.56-1.85-.12-.46-.25-.94-.4-1.42,0-.02-.01-.04-.02-.05-.1-.4-.24-.79-.42-1.16-.78.44-1.54,1.04-2.22,1.58-.53.42-1.03.82-1.51,1.12-.35.24-.71.37-1.06.37-.87,0-1.38-.65-1.5-1.94-.03-.35-.05-.76-.07-1.24-.03-.68-.06-1.48-.15-2.25-.63.26-1.24.58-1.85.89-.6.31-1.17.6-1.7.81-.28.12-.56.19-.83.19-.4,0-.76-.15-1.01-.43-.44-.49-.43-1.17-.37-1.78.03-.35.1-.76.17-1.24.14-.91.31-1.98.31-2.96-1.32.11-2.76.48-4.04.82l-.15.04c-.27.06-.49.09-.69.09-.72,0-1.08-.37-1.24-.58-.49-.7-.18-1.58.05-2.22,0-.02.01-.04.02-.06.36-.81.77-1.83,1.05-2.88-.28-.02-.58-.02-.89-.02-.85,0-1.72.06-2.56.11h-.17s-.15.01-.15.01c-.77,0-1.31-.25-1.59-.74-.46-.8.07-1.69.42-2.28.01-.02.02-.04.03-.05.66-.95,1.43-2.14,1.93-3.38-.91-.3-1.94-.47-2.82-.62-.3-.05-.57-.1-.81-.14l-.13-.03c-.46-.09-1.03-.21-1.5-.58-.06-.05-.12-.11-.17-.17-.85-1.12.28-2.21.88-2.79.15-.14.29-.27.4-.4.03-.03.06-.06.09-.09.57-.48,1.06-.99,1.48-1.51-.71-.34-1.46-.63-2.11-.88-.28-.11-.53-.2-.76-.29l-.12-.05c-.43-.18-.97-.4-1.36-.86-.05-.06-.09-.13-.13-.2-.61-1.26.7-2.11,1.4-2.56.17-.11.33-.21.47-.32.03-.03.07-.05.11-.07.94-.53,1.75-1.14,2.4-1.8-.15-.13-.3-.26-.46-.39-.54-.44-1.24-.91-1.85-1.32-.28-.19-.55-.37-.77-.53-.67-.47-1.38-1.04-1.3-1.89.09-.89,1.04-1.3,1.44-1.48.38-.16.81-.33,1.25-.5.63-.24,1.29-.5,1.86-.77-.44-.52-1-1.08-1.51-1.58-.24-.24-.46-.46-.65-.66-.57-.59-1.16-1.29-.91-2.1.26-.86,1.27-1.08,1.7-1.18.41-.09.86-.17,1.32-.25.77-.14,1.56-.28,2.24-.46.2-.06.4-.12.59-.19-.37-.97-.95-2.02-1.74-3.13-.47-.7-.95-1.58-.53-2.37.45-.86,1.58-.86,2.12-.86.34,0,.74.02,1.17.04.49.02,1,.05,1.53.05.14,0,.27,0,.4,0-.2-.82-.52-1.7-.94-2.64-.31-.73-.6-1.63-.14-2.32.2-.29.59-.65,1.38-.65.57,0,1.27.17,2.08.37.87.21,1.84.45,2.81.53.02-.87-.1-1.78-.22-2.61-.11-.78-.2-1.52-.18-2.16.01-.88.6-1.49,1.46-1.49.78,0,1.69.51,2.58,1,.36.2.77.43.95.48.06.02.12.04.17.07.15.08.3.15.45.22.08-.61.12-1.23.16-1.84.05-.79.09-1.53.24-2.15.19-.89.85-1.21,1.39-1.21.87,0,1.78.77,2.66,1.51.32.27.68.57.84.65.05.03.1.06.15.1.36.3.77.56,1.19.78.43-.89.74-1.96,1-2.86.12-.4.22-.76.32-1.06l.07-.19c.16-.45.4-1.12,1.12-1.4.05-.02.11-.04.16-.05,0,0,.04,0,.05-.01.07-.01.14-.02.21-.02.72,0,1.28.6,1.79,1.21.16.2.34.43.54.67.44.55.93,1.16,1.38,1.64.39-.62.73-1.29,1.03-1.87.19-.37.37-.71.52-.98l.1-.17c.24-.41.61-1.02,1.37-1.16.06-.01.11-.02.17-.02,0,0,.05,0,.05,0,.83.02,1.31.78,1.73,1.55.12.23.26.49.4.76.34.66.73,1.41,1.1,1.98.14.23.28.44.44.64.15-.12.3-.26.44-.39.52-.49,1.05-1.1,1.56-1.69.3-.35.6-.69.87-.98.43-.45.94-.89,1.57-.89.1,0,.2.01.29.03.09.02.18.06.26.1.88.52,1.14,1.68,1.4,2.81.1.46.2.9.33,1.22.01.04.03.08.04.12.04.17.09.34.15.51.53-.35,1.07-.77,1.59-1.18.36-.28.72-.56,1.04-.79.43-.3.93-.6,1.45-.6.19,0,.38.04.54.12.09.04.16.09.23.15.76.68.8,1.87.83,3.03.01.47.03.92.09,1.27,0,.04.01.08.01.12.02.45.09.9.2,1.34.97-.27,1.99-.75,2.84-1.15.29-.14.56-.26.8-.37.02-.01.05-.02.07-.03.07-.02.15-.06.24-.09.31-.13.7-.3,1.13-.3.49,0,.91.22,1.19.61.03.05.06.09.08.14.18.39.23.91.13,1.57-.04.3-.1.68-.17,1.11-.11.64-.24,1.38-.3,2.11.72-.12,1.44-.3,2.06-.46.32-.08.61-.15.87-.21.03,0,.05-.01.08-.01.08-.01.16-.03.25-.05.23-.05.51-.11.8-.11.65,0,1.17.31,1.41.86.02.05.04.1.05.16.11.42.05.93-.18,1.57-.09.28-.23.65-.39,1.06-.31.83-.69,1.81-.89,2.74.69.1,1.37.11,1.93.11.34,0,.66,0,.97-.01.29,0,.56-.01.81-.01.79,0,1.98,0,2.44.9.4.79-.08,1.64-.55,2.29-.69.93-1.21,1.74-1.6,2.49.66.17,1.33.29,1.94.39,1.57.28,2.71.47,3.01,1.48.26.86-.39,1.6-.97,2.15-1.11,1.01-1.91,1.89-2.49,2.72.84.52,1.87.95,2.74,1.31.31.13.6.25.85.36.02.01.05.02.07.04.07.04.15.07.23.11.44.2,1.6.73,1.32,1.93-.02.07-.04.13-.07.19-.27.56-.76.89-1.16,1.15l-.09.06-.39.24c-.69.42-1.5.92-2.25,1.49.59.46,1.23.89,1.77,1.25.28.19.54.36.76.52.02.02.04.03.06.05.06.05.13.1.2.15.39.28,1.43,1.03.92,2.15-.03.06-.06.12-.11.18-.38.5-.92.72-1.36.91l-.09.04-.42.16c-.94.35-2.07.77-3.07,1.34.79,1.19,1.87,2.26,2.49,2.88.01.01.04.04.05.05.47.52,1.19,1.3.9,2.19-.12.37-.46.86-1.39,1.04-.53.12-1.15.2-1.8.29-.67.09-1.36.19-1.95.32.44.9,1,1.76,1.56,2.58,0,.01.03.05.04.06.37.6.92,1.5.46,2.32-.19.34-.62.75-1.57.75-.07,0-.25,0-.25,0-.5,0-1.05-.03-1.58-.06-.54-.03-1.1-.06-1.61-.06-.13,0-.26,0-.38,0-.22,0-.44.02-.65.04.04.23.09.46.16.69.18.69.47,1.49.73,2.2.12.32.22.62.31.88.22.66.59,1.75-.15,2.41-.25.23-.6.35-1.02.35-.25,0-.54-.04-.91-.13-.41-.1-.86-.23-1.31-.36-.71-.2-1.43-.41-2.09-.54.05.69.17,1.5.28,2.23.05.34.1.66.14.93.09.69.24,1.83-.62,2.33-.19.12-.43.18-.7.18-.34,0-.72-.1-1.24-.34-.39-.18-.8-.39-1.22-.61-.69-.35-1.39-.72-2.04-.97-.18-.07-.35-.14-.53-.2-.05.22-.1.44-.13.67-.12.71-.17,1.57-.22,2.33-.02.27-.04.52-.05.75-.08.91-.2,1.76-.85,2.17-.18.12-.42.19-.68.19-.59,0-1.15-.36-1.95-1.03-.72-.64-1.47-1.27-2.26-1.8-.24.67-.46,1.47-.65,2.18-.07.26-.14.51-.2.73-.25.88-.53,1.69-1.25,1.96-.12.05-.29.08-.45.08-.75,0-1.34-.64-1.97-1.41-.73-.95-1.5-1.9-2.35-2.66-.72.95-1.29,2.06-1.77,2.99l-.21.4s-.09.15-.09.15c-.23.4-.53.9-1.08,1.18-.06.03-.12.06-.19.07-.13.03-.25.05-.38.05Z"/>
      <path class="cls-3" d="M73.8,34.42c.14-.58-.68-.79-1.1-1.02-1.14-.51-3.16-1.21-4.45-2.26.75-1.37,1.95-2.61,3.1-3.65,2.35-2.2-1.4-1.61-4.63-2.77.51-1.28,1.32-2.52,2.13-3.61,2.04-2.83-2.31-1.08-5.89-2,.15-1.72,1.08-3.71,1.45-4.84.12-.34.22-.75.15-1.04-.25-.54-1.02-.23-1.5-.17-1.02.23-2.62.71-4.09.82-.03-1.59.4-3.37.53-4.41.05-.36.07-.78-.05-1.05-.35-.49-1.05-.03-1.51.12-1.14.5-3,1.51-4.64,1.75-.29-.75-.46-1.57-.5-2.38-.21-1.22.08-3.13-.63-3.76-.23-.11-.58.05-1.07.39-.88.64-1.95,1.55-2.94,2.18-.23.15-.45.28-.68.4-.26-.52-.47-1.07-.6-1.64-.45-1.16-.53-3.09-1.34-3.57-.25-.06-.56.16-.98.59-.74.79-1.61,1.9-2.47,2.7-.4.39-.81.71-1.23.98-.39-.4-.75-.85-1.07-1.38-.55-.86-1.12-2.03-1.53-2.8-.37-.67-.66-1.06-.94-1.07h-.03c-.41.08-.62.53-.84.88-.52.91-1.25,2.56-2.21,3.8-.25-.21-.49-.44-.72-.69-.7-.73-1.49-1.78-2.04-2.45-.49-.59-.85-.92-1.13-.87h-.03c-.39.16-.5.64-.65,1.03-.39,1.15-.86,3.35-1.8,4.8-.78-.28-1.52-.71-2.18-1.24-.9-.48-3.22-3.14-3.56-1.55-.29,1.23-.14,3.23-.59,5.01-.55-.15-1.09-.36-1.59-.64-.97-.3-3.76-2.46-3.79-.83-.05,1.42.63,3.67.32,5.68-3.7.1-7.54-2.58-6.14.73.59,1.3,1.03,2.62,1.21,3.87-3.4.41-6.91-.99-5.05,1.76.98,1.37,1.76,2.8,2.13,4.19-.44.21-.93.4-1.48.55-1.14.32-2.54.5-3.61.72-1.32.29-1.3.72-.32,1.73.61.63,1.59,1.56,2.25,2.35.24.28.45.55.63.83-.23.14-.47.28-.73.41-1.05.53-2.4.98-3.4,1.41-1.24.54-1.14.95.02,1.76.72.51,1.86,1.22,2.66,1.87.45.35.83.72,1.15,1.09-.8,1.01-1.91,1.91-3.2,2.63-.67.51-1.94,1.06-1.61,1.75.27.32.71.48,1.13.66,1,.41,2.64.94,3.89,1.72-.57.9-1.34,1.75-2.24,2.52-.56.63-1.7,1.41-1.24,2.02.33.26.79.34,1.23.43,1.19.23,3.18.46,4.62,1.14-.46,1.58-1.42,3.13-2.33,4.44-.45.75-.96,1.67.46,1.63,1.55-.1,3.26-.22,4.8.01-.24,1.4-.79,2.82-1.33,4.06-.29.82-.62,1.83.77,1.51,1.69-.45,3.57-.96,5.3-.92.24,1.77-.31,4.04-.43,5.24-.07.72-.06,1.52.95,1.08,1.26-.49,2.89-1.59,4.6-2.07.38,1.61.32,3.57.42,4.63.07.72.24,1.5,1.14.87,1.26-.8,2.82-2.41,4.61-3.14.42.65.74,1.38.93,2.14.36,1.12.57,2.22.93,3.18.15.36.28.63.63.61.38-.11.66-.46.94-.78.76-.94,1.78-2.31,3.01-3.32.35.44.66.93.91,1.44.57,1.03.99,2.07,1.53,2.94.22.32.4.57.74.48.35-.18.56-.58.77-.94.62-1.19,1.47-2.96,2.67-4.24,1.27.91,2.34,2.23,3.2,3.36.63.77,1.06,1.18,1.38,1.05.27-.1.47-.58.69-1.35.24-.84.53-2.08.88-3.02.12-.35.27-.68.42-.99,1.23.65,2.35,1.6,3.29,2.43.76.63,1.27.96,1.55.76.25-.15.35-.66.41-1.45.07-.86.12-2.14.28-3.13.08-.6.23-1.15.42-1.66.49.09.98.24,1.49.45,1.09.43,2.32,1.14,3.3,1.6.52.24.89.33,1.09.2.26-.15.27-.63.17-1.41-.12-.88-.37-2.22-.43-3.27-.03-.37-.03-.73-.01-1.07.33.02.66.06,1.01.13,1.15.21,2.5.67,3.55.93.56.13.93.15,1.11-.02.22-.2.14-.67-.11-1.42-.29-.84-.79-2.11-1.05-3.12-.17-.59-.26-1.16-.29-1.71.51-.12,1.05-.19,1.64-.2,1.23-.05,2.73.14,3.85.11,1.35,0,.71-1.03.3-1.69-.68-1-1.53-2.31-2.07-3.7.33-.12.67-.22,1.04-.3,1.2-.28,2.71-.39,3.8-.63,1.32-.26.49-1.15-.03-1.72-.99-.98-2.3-2.32-3.09-3.83,1.37-.99,3.16-1.6,4.38-2.06.4-.17.83-.33,1.07-.65.24-.54-.51-.9-.88-1.22-.87-.61-2.35-1.49-3.42-2.53,1.12-1.06,2.53-1.88,3.54-2.49.36-.24.75-.48.93-.85Z"/>
      <g>
        <path class="cls-2" d="M30.31,1.61c-.39.15-.5.64-.65,1.03-.42,1.23-.92,3.65-2,5.09-1.71,2.56-5.12,2.69-7.72,1.29-.97-.3-3.76-2.46-3.79-.83-.06,1.53.74,4.04.23,6.16-1.93,7.8-12.88,1.45-9.89,5.89,2.77,3.88,3.96,8.23-1.12,10.79-1.05.53-2.4.98-3.4,1.41-1.24.54-1.14.95.02,1.76.72.51,1.86,1.22,2.66,1.87,4.1,3.19,2.6,7.39-.88,10.37-.56.63-1.7,1.41-1.24,2.02.33.26.79.34,1.23.43,1.32.25,3.62.5,5.06,1.37,4.02,2.29,2.56,6.7,1.16,9.92-.29.82-.62,1.83.77,1.51,3.68-.97,8.25-2.25,10.15,2.45.69,1.71.57,4.25.69,5.51.07.72.24,1.5,1.14.87,1.35-.85,3.05-2.66,5-3.28,2.86-1.09,5.69.76,6.96,3.42.57,1.03.99,2.07,1.53,2.94.22.32.4.57.74.48.35-.18.56-.58.77-.94.97-1.87,2.5-5.15,5.05-5.77,2.79-.93,5.53,1.3,7.47,3.02.76.63,1.27.96,1.55.76.25-.15.35-.66.41-1.45.07-.86.12-2.14.28-3.13.54-3.82,3.28-5.79,7.03-5.03,1.15.21,2.5.67,3.55.93.56.13.93.15,1.11-.02.22-.2.14-.67-.11-1.42-.29-.84-.79-2.11-1.05-3.12-1.07-3.75.69-6.68,4.48-7.48,1.2-.28,2.71-.39,3.8-.63,1.32-.26.49-1.15-.03-1.72-1.76-1.74-4.5-4.6-3.63-7.54.48-2.48,3.49-4.17,5.23-5.24.36-.24.75-.48.93-.85.14-.58-.68-.79-1.1-1.02-1.2-.54-3.41-1.29-4.67-2.44-3.49-3.05-1.31-6.98.83-9.86,3.03-4.2-8.03,1.71-9.76-6.05-.4-1.78.24-4.28.4-5.59.05-.36.07-.78-.05-1.05-.35-.49-1.05-.03-1.51.12-1.25.55-3.39,1.73-5.13,1.81-3.01.34-5.26-2.1-5.93-4.88-.45-1.16-.53-3.09-1.34-3.57-.25-.06-.56.16-.98.59-.74.79-1.61,1.9-2.47,2.7-2.68,2.62-6.03,2.51-8.58-.28-.7-.73-1.49-1.78-2.04-2.45-.49-.59-.85-.92-1.13-.87h-.03Z"/>
        <path class="cls-5" d="M37.29.92c-.41.08-.62.53-.84.88-.65,1.12-1.61,3.41-2.95,4.61-2.17,2.18-5.55,1.66-7.83-.22-.9-.48-3.22-3.14-3.56-1.55-.35,1.49-.05,4.11-.96,6.08-3.4,7.28-12.92-1.06-10.84,3.87,1.97,4.34,2.3,8.84-3.18,10.37-1.14.32-2.54.5-3.61.72-1.32.29-1.3.72-.32,1.73.61.63,1.59,1.56,2.25,2.35,3.41,3.92,1.13,7.75-2.86,10-.67.51-1.94,1.06-1.61,1.75.27.32.71.48,1.13.66,1.24.5,3.45,1.19,4.7,2.32,3.51,3.02,1.22,7.07-.78,9.95-.45.75-.96,1.67.46,1.63,3.8-.24,8.53-.62,9.49,4.36.35,1.81-.26,4.28-.38,5.54-.07.72-.06,1.52.95,1.08,1.49-.58,3.5-2.02,5.54-2.26,3.01-.52,5.44,1.84,6.17,4.7.36,1.12.57,2.22.93,3.18.15.36.28.63.63.61.38-.11.66-.46.94-.78,1.32-1.65,3.44-4.57,6.07-4.69,2.92-.37,5.18,2.34,6.74,4.4.63.77,1.06,1.18,1.38,1.05.27-.1.47-.58.69-1.35.24-.84.53-2.08.88-3.02,1.26-3.65,4.34-5.05,7.87-3.58,1.09.43,2.32,1.14,3.3,1.6.52.24.89.33,1.09.2.26-.15.27-.63.17-1.41-.12-.88-.37-2.22-.43-3.27-.32-3.88,1.96-6.42,5.83-6.47,1.23-.05,2.73.14,3.85.11,1.35,0,.71-1.03.3-1.69-1.39-2.05-3.53-5.38-2.11-8.1.95-2.34,4.23-3.41,6.15-4.14.4-.17.83-.33,1.07-.65.24-.54-.51-.91-.88-1.22-1.08-.76-3.1-1.92-4.12-3.29-2.83-3.67.06-7.1,2.71-9.51,3.78-3.54-8.21.13-8.41-7.82-.05-1.83,1.06-4.15,1.47-5.4.12-.34.22-.75.15-1.04-.25-.54-1.02-.23-1.5-.17-1.34.3-3.66,1.04-5.39.79-3.01-.25-4.76-3.08-4.87-5.93-.21-1.22.08-3.13-.63-3.76-.23-.11-.58.05-1.07.39-.88.64-1.95,1.55-2.94,2.18-3.13,2.05-6.4,1.3-8.37-1.93-.55-.86-1.12-2.03-1.53-2.8-.37-.67-.66-1.06-.94-1.07h-.03Z"/>
        <path class="cls-4" d="M35.98,5.88c-.31.06-.46.4-.63.66-.48.84-1.2,2.55-2.21,3.45-1.63,1.64-4.16,1.24-5.87-.16-.67-.36-2.41-2.36-2.67-1.16-.26,1.12-.04,3.08-.72,4.56-2.55,5.46-9.69-.79-8.12,2.9,1.47,3.25,1.72,6.63-2.38,7.78-.85.24-1.91.37-2.7.54-.99.22-.98.54-.24,1.3.46.48,1.19,1.17,1.69,1.76,2.56,2.94.85,5.81-2.15,7.5-.5.38-1.45.79-1.2,1.31.2.24.54.36.84.49.93.38,2.59.89,3.53,1.74,2.63,2.26.92,5.3-.58,7.46-.34.56-.72,1.25.35,1.22,2.85-.18,6.39-.47,7.11,3.27.26,1.36-.19,3.21-.29,4.15-.05.54-.04,1.14.72.81,1.12-.43,2.63-1.51,4.15-1.69,2.26-.39,4.07,1.38,4.62,3.52.27.84.43,1.67.7,2.38.12.27.21.48.47.46.29-.08.5-.35.71-.58.99-1.23,2.58-3.43,4.55-3.52,2.19-.28,3.88,1.76,5.06,3.3.47.57.79.89,1.03.79.2-.08.35-.44.51-1.01.18-.63.4-1.56.66-2.26.95-2.73,3.25-3.79,5.9-2.69.82.32,1.74.85,2.47,1.2.39.18.66.24.82.15.19-.11.2-.48.13-1.06-.09-.66-.28-1.67-.32-2.45-.24-2.91,1.47-4.82,4.37-4.85.92-.04,2.05.11,2.89.09,1.01,0,.53-.77.23-1.27-1.04-1.53-2.65-4.04-1.58-6.07.71-1.76,3.17-2.56,4.61-3.1.3-.13.62-.25.81-.49.18-.41-.38-.68-.66-.91-.81-.57-2.32-1.44-3.08-2.47-2.12-2.75.05-5.32,2.03-7.13,2.83-2.65-6.15.09-6.31-5.86-.04-1.37.8-3.11,1.1-4.05.09-.26.17-.56.11-.78-.18-.41-.76-.17-1.13-.13-1,.22-2.74.78-4.04.59-2.26-.19-3.57-2.31-3.65-4.45-.16-.91.06-2.35-.47-2.82-.17-.08-.44.04-.8.29-.66.48-1.46,1.16-2.2,1.63-2.35,1.54-4.8.97-6.27-1.45-.41-.64-.84-1.52-1.15-2.1-.27-.5-.49-.8-.71-.8h-.02Z"/>
        <path class="cls-3" d="M32.48,15.56c-.13.02-.19.17-.27.28-.2.35-.51,1.08-.93,1.45-.69.69-1.75.52-2.47-.07-.28-.15-1.02-.99-1.12-.49-.11.47-.02,1.3-.3,1.92-1.07,2.3-4.08-.33-3.42,1.22.62,1.37.73,2.79-1,3.28-.36.1-.8.16-1.14.23-.42.09-.41.23-.1.55.19.2.5.49.71.74,1.08,1.24.36,2.45-.9,3.16-.21.16-.61.33-.51.55.09.1.23.15.36.21.39.16,1.09.38,1.49.73,1.11.95.39,2.23-.25,3.14-.14.24-.3.53.15.52,1.2-.08,2.69-.2,3,1.38.11.57-.08,1.35-.12,1.75-.02.23-.02.48.3.34.47-.18,1.11-.64,1.75-.71.95-.16,1.72.58,1.95,1.48.11.35.18.7.29,1,.05.11.09.2.2.19.12-.04.21-.15.3-.25.42-.52,1.09-1.44,1.92-1.48.92-.12,1.63.74,2.13,1.39.2.24.33.37.44.33.09-.03.15-.18.22-.43.07-.26.17-.66.28-.95.4-1.15,1.37-1.6,2.49-1.13.34.14.73.36,1.04.5.17.07.28.1.34.06.08-.05.09-.2.05-.45-.04-.28-.12-.7-.14-1.03-.1-1.23.62-2.03,1.84-2.04.39-.01.86.05,1.22.04.43,0,.22-.33.1-.53-.44-.65-1.12-1.7-.67-2.56.3-.74,1.34-1.08,1.94-1.31.13-.05.26-.1.34-.21.08-.17-.16-.29-.28-.38-.34-.24-.98-.61-1.3-1.04-.89-1.16.02-2.24.86-3,1.19-1.12-2.59.04-2.66-2.47-.02-.58.34-1.31.46-1.71.04-.11.07-.24.05-.33-.08-.17-.32-.07-.47-.05-.42.09-1.15.33-1.7.25-.95-.08-1.5-.97-1.54-1.87-.07-.39.03-.99-.2-1.19-.07-.03-.18.02-.34.12-.28.2-.62.49-.93.69-.99.65-2.02.41-2.64-.61-.17-.27-.35-.64-.48-.88-.12-.21-.21-.34-.3-.34h0Z"/>
      </g>
    </g>
  </g>
</svg>