<?xml version="1.0" encoding="UTF-8"?>
<svg id="_레이어_2" data-name="레이어 2" xmlns="http://www.w3.org/2000/svg" viewBox="0 0 89.77 89.88">
  <defs>
    <style>
      .cls-1 {
        fill: #fff;
      }

      .cls-2 {
        fill: #ffcf78;
      }

      .cls-3 {
        fill: #fcc83e;
      }
    </style>
  </defs>
  <g id="_백혈구" data-name="백혈구">
    <g>
      <path class="cls-1" d="M57.66,88.31c1.46-.72,2.67-1.79,3.84-2.83.98-.86,1.9-1.68,2.77-2.1.03-.01.06-.03.08-.04,1.02-.56,2.26-.84,3.58-1.14,1.38-.31,2.81-.63,4.2-1.34,2.34-1.25,3.37-3.54,4.27-5.56.44-.98.85-1.91,1.38-2.65.02-.03.04-.05.06-.08.71-1.15,1.87-2.03,3.1-2.96,1.39-1.05,2.83-2.14,3.85-3.75.01-.02.03-.05.04-.07,1.05-1.86,1.08-3.93,1.09-5.76,0-.44,0-.88.03-1.35.04-1.88.44-3.39,1.34-5.06,2.06-3.24,2.74-5.53,2.36-7.88-.19-1.2-.65-2.28-1.14-3.43-.48-1.13-1.01-2.41-1.43-4.07-.12-1.98-.02-3.42.08-4.69.09-1.21.16-2.25,0-3.32-.37-2.27-1.75-4.15-5.31-7.21-1.28-1.08-1.89-2.78-2.53-4.59-.78-2.2-1.67-4.7-3.98-6.3-.03-.02-.06-.04-.09-.06-1.25-.74-2.57-1.2-3.85-1.64-1.56-.54-3.04-1.05-4.16-2.01-.51-.51-.97-.97-1.39-1.4-4.64-4.67-5.06-4.84-11.2-4.45-.75.05-1.6.1-2.57.15-1.43-.04-2.86-.65-4.38-1.29-1.04-.44-2.12-.9-3.25-1.19-3.02-.85-5.48.58-7.65,1.84-1.01.58-1.96,1.14-2.93,1.44-1.29.45-2.72.46-4.24.47-.77,0-1.57.01-2.39.08-3.86.05-5.97,3.07-7.66,5.49l-.22.32c-1.1,1.52-2.28,2.49-4.01,3.28-.39.19-.8.37-1.21.56-1.54.69-3.29,1.46-4.62,2.99-1.31,1.66-1.72,3.79-2.08,5.67-.24,1.25-.46,2.42-.9,3.22-.02.04-.04.07-.06.11-.48,1.05-1.35,1.99-2.28,2.98-1.29,1.38-2.76,2.95-3.31,5.13-.01.04-.02.09-.03.13-.17,1.01-.15,2.1.07,3.43.12.72.28,1.43.43,2.11.15.65.28,1.26.38,1.85.14.87.16,1.53.07,2.07,0,.05-.02.11-.02.16-.06.84-.4,1.86-.77,2.93-.6,1.78-1.28,3.8-.98,5.86v.03s.01.04.01.06c.4,1.99,1.65,3.65,2.75,5.11.69.91,1.33,1.77,1.66,2.55.02.05.04.1.07.14.26.48.45,1.12.59,1.98.1.59.16,1.22.23,1.88.07.7.14,1.42.26,2.14h0c.22,1.34.54,2.38,1.02,3.28.02.04.04.08.07.11,1.21,1.89,3.1,2.92,4.76,3.82,1.19.65,2.32,1.26,3.1,2.1.03.03.06.06.09.09.66.61,1.25,1.66,1.87,2.77.93,1.67,1.99,3.56,3.83,4.76,1.68.99,3.58,1.17,5.26,1.34.45.04.9.09,1.38.15,1.84.2,3.28.75,4.81,1.85.25.18.5.36.75.55,2.07,1.51,4.64,3.39,7.87,2.61.91-.21,1.8-.48,2.66-.74,2.28-.69,4.44-1.34,6.61-.76.05.01.09.02.14.03.4.07.8.15,1.21.24,2.02.42,4.32.9,6.6-.16Z"/>
      <g>
        <path class="cls-3" d="M85.49,38.45c-.5-7.79,2.35-8.14-4.67-14.18-3.37-2.82-2.76-8.28-6.4-10.79-2.64-1.57-5.95-1.79-8.29-3.86-6.51-6.48-4.91-5.73-14.03-5.26-2.84-.05-5.36-1.82-8.09-2.54-3.6-1.01-6.43,2.26-9.61,3.25-2.28.79-4.69.44-7.08.64-3.21.02-4.99,2.79-6.64,5.14-1.25,1.73-2.66,2.9-4.61,3.79-1.8.88-3.92,1.54-5.27,3.1-1.88,2.38-1.53,6.31-2.82,8.66-1.32,2.92-4.68,4.64-5.49,7.83-.52,3.11,1.44,6.63.94,9.48-.19,2.53-2.17,5.59-1.76,8.44.56,2.78,3.34,5.03,4.32,7.35,1.38,2.54.62,6.5,2.11,9.29,1.77,2.78,5.52,3.35,7.68,5.69,1.96,1.82,2.88,5.66,5.42,7.32,1.78,1.05,3.99,1,5.98,1.27,2.13.23,3.84.89,5.57,2.14,2.15,1.52,4.47,3.59,7.31,2.9,3.36-.78,6.54-2.42,10.06-1.49,2.22.38,4.65,1.22,6.81.22,2.47-1.21,4.43-3.88,6.63-4.93,2.38-1.31,5.36-1.25,7.8-2.48,2.86-1.52,3.34-5.25,5.08-7.72,1.73-2.79,5.21-3.97,6.97-6.73,1.08-1.9.81-4.24.91-6.34.04-2.16.53-3.96,1.57-5.85,4.44-6.96,1.16-7.8-.4-14.25v-.09Z"/>
        <path class="cls-2" d="M83.52,35.99c-.39-5.95,1.79-6.22-3.57-10.84-2.57-2.16-2.11-6.33-4.89-8.24-2.01-1.2-4.54-1.37-6.33-2.95-4.97-4.95-3.75-4.37-10.72-4.02-2.17-.04-4.1-1.39-6.18-1.94-2.75-.77-4.91,1.73-7.34,2.48-1.74.6-3.59.34-5.41.49-2.45.01-3.81,2.13-5.07,3.93-.96,1.32-2.03,2.21-3.52,2.9-1.38.68-2.99,1.18-4.03,2.37-1.44,1.82-1.17,4.82-2.16,6.61-1.01,2.23-3.58,3.54-4.19,5.98-.4,2.38,1.1,5.07.72,7.24-.14,1.93-1.66,4.27-1.34,6.45.43,2.13,2.55,3.84,3.3,5.62,1.05,1.94.48,4.97,1.61,7.1,1.35,2.12,4.22,2.56,5.87,4.35,1.5,1.39,2.2,4.32,4.14,5.59,1.36.8,3.05.77,4.57.97,1.63.18,2.93.68,4.26,1.63,1.64,1.16,3.42,2.74,5.59,2.22,2.57-.59,5-1.85,7.68-1.14,1.69.29,3.55.94,5.2.17,1.89-.93,3.38-2.97,5.06-3.77,1.82-1,4.09-.96,5.96-1.9,2.18-1.16,2.55-4.01,3.88-5.89,1.32-2.13,3.98-3.03,5.32-5.14.82-1.45.62-3.24.7-4.85.03-1.65.4-3.03,1.2-4.47,3.39-5.32.89-5.96-.31-10.89v-.07Z"/>
        <path class="cls-3" d="M62.44,68.84c1.73-.85,3.1-2.71,4.63-3.45,1.66-.92,3.75-.87,5.45-1.74,2-1.06,2.33-3.67,3.55-5.39,1.21-1.95,3.64-2.77,4.87-4.7.75-1.33.57-2.96.64-4.43.03-1.51.37-2.77,1.1-4.09,3.1-4.87.81-5.45-.28-9.96v-.06c-.36-5.45,1.63-5.69-3.27-9.91-2.36-1.97-1.93-5.79-4.47-7.54-1.84-1.1-4.16-1.25-5.8-2.7-4.55-4.53-3.43-4-9.81-3.68-1.99-.04-3.75-1.28-5.65-1.78-2.52-.71-4.49,1.58-6.72,2.27-1.59.55-3.28.31-4.95.45-2.25.01-3.49,1.95-4.64,3.59-.87,1.21-1.86,2.03-3.22,2.65-1.26.62-2.74,1.08-3.69,2.17-1.32,1.66-1.07,4.41-1.97,6.05-.92,2.04-3.27,3.24-3.84,5.47-.37,2.18,1.01,4.63.66,6.63-.13,1.77-1.52,3.91-1.23,5.9.39,1.94,2.34,3.52,3.02,5.14.96,1.78.44,4.54,1.47,6.49,1.24,1.94,3.86,2.34,5.37,3.98,1.37,1.27,2.01,3.95,3.79,5.12,1.24.73,2.79.7,4.18.89,1.49.16,2.68.62,3.89,1.5,1.5,1.06,3.13,2.51,5.11,2.03,2.35-.54,4.57-1.69,7.03-1.04,1.55.27,3.25.86,4.76.15ZM58.93,64.61c-2.2-.58-4.19.45-6.3.93-1.78.43-3.23-.86-4.58-1.82-1.09-.78-2.15-1.19-3.49-1.34-1.25-.17-2.63-.14-3.74-.8-1.59-1.04-2.16-3.44-3.39-4.58-1.35-1.47-3.7-1.83-4.81-3.56-.93-1.75-.46-4.22-1.32-5.81-.61-1.45-2.35-2.86-2.7-4.6-.26-1.78.98-3.7,1.1-5.28.31-1.78-.92-3.98-.59-5.93.5-2,2.61-3.08,3.43-4.9.81-1.47.59-3.93,1.77-5.42.85-.97,2.17-1.39,3.3-1.94,1.22-.56,2.1-1.29,2.88-2.37,1.03-1.47,2.14-3.21,4.15-3.22,1.49-.12,3.01.09,4.43-.4,1.99-.62,3.76-2.67,6.02-2.03,1.7.45,3.28,1.56,5.06,1.59,5.7-.29,4.71-.76,8.78,3.29,1.47,1.3,3.54,1.44,5.19,2.42,2.27,1.57,1.89,4.99,4,6.75,4.39,3.78,2.61,4,2.92,8.88v.05c.99,4.04,3.04,4.56.26,8.92-.65,1.19-.96,2.31-.98,3.66-.06,1.31.1,2.78-.57,3.97-1.1,1.73-3.28,2.46-4.36,4.21-1.09,1.54-1.39,3.88-3.18,4.83-1.53.77-3.39.73-4.88,1.55-1.38.66-2.6,2.33-4.15,3.09-1.35.63-2.88.1-4.26-.14Z"/>
      </g>
    </g>
  </g>
</svg>