<?xml version="1.0" encoding="UTF-8"?>
<svg id="_레이어_2" data-name="레이어 2" xmlns="http://www.w3.org/2000/svg" xmlns:xlink="http://www.w3.org/1999/xlink" viewBox="0 0 494.84 344.54">
  <defs>
    <style>
      .cls-1 {
        fill: #4ec7d9;
      }

      .cls-2 {
        fill: #38a7c0;
      }

      .cls-3 {
        fill: #2b8da4;
      }

      .cls-4 {
        fill: none;
      }

      .cls-5 {
        fill: #228098;
      }

      .cls-6 {
        clip-path: url(#clippath-1);
      }

      .cls-7 {
        clip-path: url(#clippath-2);
      }

      .cls-8 {
        clip-path: url(#clippath);
      }
    </style>
    <clipPath id="clippath">
      <path class="cls-4" d="M310.77,64.93c-2.01-11.44-11.95-19.79-23.57-19.79h-10.83l-.82-10.12c-.42-5.18-4.74-9.16-9.93-9.16h-36.41c-5.19,0-9.52,3.99-9.93,9.16l-.82,10.12h-10.83c-11.62,0-21.56,8.34-23.57,19.79l-14.2,279.61h155.1l-14.2-279.61Z"/>
    </clipPath>
    <clipPath id="clippath-1">
      <path class="cls-4" d="M330.44,9.57l92.24,272.51,72.17,7.74L346.65,11.95c-2.63-2.88-6.11-4.86-9.93-5.67l-3.25-.68c-2.28-.48-4.09,1.9-3.04,3.97Z"/>
    </clipPath>
    <clipPath id="clippath-2">
      <path class="cls-4" d="M164.4,9.57l-92.24,272.51L0,289.82,148.19,11.95c2.63-2.88,6.11-4.86,9.93-5.67l3.25-.68c2.28-.48,4.09,1.9,3.04,3.97Z"/>
    </clipPath>
  </defs>
  <g id="_우주선발사대" data-name="우주선발사대">
    <g>
      <path class="cls-2" d="M310.77,64.93c-2.01-11.44-11.95-19.79-23.57-19.79h-10.83l-.82-10.12c-.42-5.18-4.74-9.16-9.93-9.16h-36.41c-5.19,0-9.52,3.99-9.93,9.16l-.82,10.12h-10.83c-11.62,0-21.56,8.34-23.57,19.79l-14.2,279.61h155.1l-14.2-279.61Z"/>
      <path class="cls-3" d="M246.34,25.85c5.19,0,9.52,5.84,9.93,13.41l.82,14.82h10.83c11.62,0,21.56,12.21,23.57,28.96l8.74,261.49h24.75l-14.2-279.61c-2.01-11.44-11.95-19.79-23.57-19.79h-10.83l-.82-10.12c-.42-5.18-4.74-9.16-9.93-9.16h-36.41s0,0,0,0h17.12Z"/>
      <path class="cls-4" d="M310.77,64.93c-2.01-11.44-11.95-19.79-23.57-19.79h-10.83l-.82-10.12c-.42-5.18-4.74-9.16-9.93-9.16h-36.41c-5.19,0-9.52,3.99-9.93,9.16l-.82,10.12h-10.83c-11.62,0-21.56,8.34-23.57,19.79l-14.2,279.61h155.1l-14.2-279.61Z"/>
      <g class="cls-8">
        <g>
          <path class="cls-1" d="M236.83,25.85h-17.68c-5.5,3.92-9.5,10.29-10.7,17.89l-14.2,300.8h17.68l14.2-300.8c1.2-7.6,5.2-13.97,10.7-17.89Z"/>
          <rect class="cls-5" x="217.16" y="12.37" width="60.52" height="16.83" rx="8.41" ry="8.41"/>
        </g>
      </g>
      <g>
        <path class="cls-2" d="M330.44,9.57l92.24,272.51,72.17,7.74L346.65,11.95c-2.63-2.88-6.11-4.86-9.93-5.67l-3.25-.68c-2.28-.48-4.09,1.9-3.04,3.97Z"/>
        <g class="cls-6">
          <path class="cls-3" d="M318.22,0l18.81,10.66c3.32,1.88,6.12,4.55,8.17,7.76l117.01,280.91s-81.54,11.93-82.73,12.33S318.22,0,318.22,0Z"/>
        </g>
      </g>
      <g>
        <path class="cls-2" d="M164.4,9.57l-92.24,272.51L0,289.82,148.19,11.95c2.63-2.88,6.11-4.86,9.93-5.67l3.25-.68c2.28-.48,4.09,1.9,3.04,3.97Z"/>
        <g class="cls-7">
          <path class="cls-3" d="M176.62,0l-18.81,10.66c-3.32,1.88-6.12,4.55-8.17,7.76L32.63,299.34s81.54,11.93,82.73,12.33S176.62,0,176.62,0Z"/>
        </g>
      </g>
    </g>
  </g>
</svg>