<?xml version="1.0" encoding="UTF-8"?>
<svg id="_레이어_2" data-name="레이어 2" xmlns="http://www.w3.org/2000/svg" xmlns:xlink="http://www.w3.org/1999/xlink" viewBox="0 0 57.4 192.94">
  <defs>
    <style>
      .cls-1 {
        fill: url(#radial-gradient);
      }

      .cls-2 {
        fill: #003385;
      }

      .cls-3 {
        fill: #004db9;
      }

      .cls-4 {
        fill: #022254;
      }
    </style>
    <radialGradient id="radial-gradient" cx="-6632.26" cy="-4332.14" fx="-6632.26" fy="-4332.14" r="69.85" gradientTransform="translate(-3556.1 6690.12) rotate(91.12) scale(1 .8)" gradientUnits="userSpaceOnUse">
      <stop offset="0" stop-color="#ecd300"/>
      <stop offset=".19" stop-color="#ecd750"/>
      <stop offset=".3" stop-color="#ecd528"/>
      <stop offset=".4" stop-color="#ecd300"/>
      <stop offset=".95" stop-color="#d96700"/>
    </radialGradient>
  </defs>
  <g id="_우주미사일" data-name="우주미사일">
    <g>
      <path class="cls-1" d="M34.21,173.98c5.82-15.67,3.25-28.69,3.25-28.69l-8.69-.17-8.69-.17s-3.08,12.91,2.12,28.79c5.21,15.88,5.63,19.2,5.63,19.2,0,0,.55-3.29,6.38-18.96Z"/>
      <g>
        <polygon class="cls-3" points="22.3 46.18 25.94 23.26 35.6 23.45 39.21 46.03 22.3 46.18"/>
        <path class="cls-2" d="M31.31,43.26c8.01.16,9.8,3.05,9.8,3.05l-1.92,98.58s-3.35,3.27-10.75,3.36c-7.4.09-10-3.77-10-3.77l.09-5.36.86-49.41.15-8.93.05-2.98.55-31.43s3.15-3.27,11.16-3.12Z"/>
        <polygon class="cls-4" points="8.87 99.28 8.79 103.56 12.07 102.2 12.16 97.67 8.87 99.28"/>
        <polygon class="cls-4" points="50.33 100.08 50.25 104.37 47.02 102.88 47.11 98.35 50.33 100.08"/>
        <g>
          <polygon class="cls-4" points="20.16 119.27 .37 138.3 0 157.23 21.18 136.86 20.16 119.27"/>
          <path class="cls-2" d="M15.69,87.5l4.99,8.67-.79,40.48s-1.06,1.49-4.79,1.34c-3.73-.15-4.57-1.92-4.57-1.92l.78-39.93,4.38-8.65Z"/>
          <rect class="cls-4" x="13.93" y="101.83" width="3.73" height="9.37" transform="translate(-91.01 120.24) rotate(-88.88)"/>
        </g>
        <g>
          <polygon class="cls-4" points="38.37 119.62 57.4 139.41 57.03 158.34 36.66 137.16 38.37 119.62"/>
          <path class="cls-2" d="M44.07,88.05l-5.33,8.47-.79,40.48s1,1.53,4.73,1.52c3.73,0,4.64-1.74,4.64-1.74l.78-39.93-4.04-8.81Z"/>
          <rect class="cls-4" x="41.36" y="102.37" width="3.73" height="9.37" transform="translate(-64.65 148.18) rotate(-88.88)"/>
        </g>
        <polygon class="cls-3" points="19.39 89.71 40.26 90.12 39.29 139.53 18.53 139.13 19.39 89.71"/>
        <rect class="cls-3" x="28.53" y="69.05" width="2.98" height="20.89" transform="translate(-50.05 107.96) rotate(-88.88)"/>
        <polygon class="cls-2" points="25.94 23.26 31.53 0 35.6 23.45 25.94 23.26"/>
      </g>
    </g>
  </g>
</svg>