<?xml version="1.0" encoding="UTF-8"?>
<svg id="_레이어_2" data-name="레이어 2" xmlns="http://www.w3.org/2000/svg" viewBox="0 0 132.08 116.79">
  <defs>
    <style>
      .cls-1 {
        fill: #fff;
      }

      .cls-2 {
        fill: #997500;
      }
    </style>
  </defs>
  <g id="_우주쓰레기2" data-name="우주쓰레기2">
    <g>
      <g>
        <polyline class="cls-2" points="20.36 17.74 10.71 48.68 0 46.15"/>
        <line class="cls-1" x1="10.71" y1="48.68" x2="10.34" y2="49.88"/>
      </g>
      <g>
        <polygon class="cls-2" points="69.66 50.17 94.19 29 132.08 72.9 107.56 94.08 99.79 86.27 74.56 56.46 69.66 50.17"/>
        <polygon class="cls-1" points="68.7 51 69.66 50.17 107.56 94.08 106.61 94.9 68.7 51"/>
      </g>
      <g>
        <polygon class="cls-2" points="44.31 72.06 68.84 50.88 106.74 94.79 82.2 115.96 74.44 108.15 49.2 78.35 44.31 72.06"/>
        <rect class="cls-1" x="62.15" y="65.42" width="1.26" height="58" transform="translate(-46.43 63.94) rotate(-40.79)"/>
      </g>
      <polygon class="cls-2" points="76.85 25.63 58.85 0 51.23 28.8 69.11 49.52 93.64 28.35 81.34 14.1 76.85 25.63"/>
      <path class="cls-2" d="M44.65,53.64l-9.49-22.54s-6.91,3.94-17.58,9.99l26.17,30.32,24.53-21.17-17.4-20.16-6.24,23.56Z"/>
    </g>
  </g>
</svg>