<?xml version="1.0" encoding="UTF-8"?>
<svg id="_레이어_2" data-name="레이어 2" xmlns="http://www.w3.org/2000/svg" viewBox="0 0 204.47 48.72">
  <defs>
    <style>
      .cls-1 {
        fill: #00fbff;
      }
    </style>
  </defs>
  <g id="_월드선택_제목" data-name="월드선택_제목">
    <g>
      <path class="cls-1" d="M0,17.62h32.76v7.3h-11.28v2.26h-10.21v-2.26H0v-7.3ZM15.84,0c9.7,0,14.56,2.78,14.56,8.33s-4.85,8.33-14.56,8.33S1.29,13.88,1.29,8.33,6.14,0,15.84,0ZM4.13,35.29h30.78v-1.67H4.24v-5.26h41.41v12.14H14.88v.38c0,.5.82.88,2.47,1.13,1.65.25,4.57.38,8.76.38,7.66,0,14.27-.18,19.82-.54v6.12c-4.8.5-11.67.75-20.62.75-5.62,0-9.96-.34-13.02-1.02-3.06-.68-5.18-1.67-6.36-2.98-1.18-1.31-1.77-3.02-1.77-5.13v-4.3ZM12.97,9.37c.63.27,1.58.4,2.87.4s2.25-.13,2.87-.4c.63-.27.94-.62.94-1.05s-.31-.78-.94-1.05c-.63-.27-1.58-.4-2.87-.4s-2.25.13-2.87.4c-.63.27-.94.62-.94,1.05s.31.78.94,1.05ZM31.21,5.69h3.71V.54h10.74v26.64h-10.74v-13h-3.71V5.69Z"/>
      <path class="cls-1" d="M53.47,38.78h46.73v9.13h-46.73v-9.13ZM55.52,13.91c.29-1.25.64-2.31,1.07-3.17h-1.5V1.61h42.97v9.13h-31.31c-.25.57-.46,1.27-.64,2.09-.18.82-.27,1.63-.27,2.42,0,1.5.38,2.67,1.13,3.49.75.82,2.1,1.42,4.03,1.77,1.93.36,4.76.54,8.49.54,6.45,0,12.64-.52,18.58-1.56v8.86c-2.72.5-5.8.89-9.24,1.15-3.44.27-6.91.4-10.42.4-8.27,0-14.23-1.03-17.86-3.09-3.63-2.06-5.45-5.16-5.45-9.32,0-1.15.14-2.34.43-3.6Z"/>
      <path class="cls-1" d="M105.71,19.39c3.04-.32,5.41-1.37,7.09-3.14,1.68-1.77,2.53-4.31,2.53-7.6V1.18h10.74v6.12c0,1.25-.07,2.33-.21,3.22.79,2.36,2.32,4.51,4.59,6.45,2.27,1.93,4.66,3.22,7.17,3.87l-5.16,8.49c-2.29-.75-4.31-1.78-6.04-3.09-1.74-1.31-3.29-2.96-4.65-4.97-1.76,2.44-4,4.38-6.74,5.83-2.74,1.45-5.85,2.26-9.32,2.44v-10.15ZM119.17,47.08c-3.06-.73-5.26-1.82-6.61-3.25-1.34-1.43-2.01-3.26-2.01-5.48v-8.38h10.74v6.71c0,.64.25,1.16.75,1.53.5.38,1.48.65,2.93.83,1.45.18,3.61.27,6.47.27,7.8,0,14.59-.61,20.36-1.83v8.86c-2.9.54-6.14.98-9.72,1.32-3.58.34-7.13.51-10.63.51-5.12,0-9.21-.37-12.27-1.1ZM131.71,8.38h9.08V.54h10.74v32.07h-10.74v-15.74h-9.08v-8.49Z"/>
      <path class="cls-1" d="M159.62,1.61h22.02v8.06h-11.87l-.32,2.95h11.65v6.45h-11.6c.32,1.43,1.02,2.39,2.1,2.87,1.07.48,2.79.72,5.16.72,1.68,0,3.33-.18,4.94-.54l.48,7.73c-.79.25-1.83.46-3.12.62-1.29.16-2.52.24-3.71.24-3.62,0-6.54-.38-8.78-1.13-2.24-.75-3.92-2.04-5.05-3.87s-1.69-4.35-1.69-7.57c0-1.25.07-2.68.21-4.27.14-1.59.32-3,.54-4.22h-.97V1.61ZM163.59,32.76h40.88v7.52c0,3.22-.29,5.85-.86,7.9l-10.53-.54c.43-1.93.64-4.03.64-6.28h-30.13v-8.59ZM195.34,16.87h-2.74v13.64h-8.59V.75h8.59v7.63h2.74V.54h9.13v29.97h-9.13v-13.64Z"/>
    </g>
  </g>
</svg>