<?xml version="1.0" encoding="UTF-8"?>
<svg id="_레이어_2" data-name="레이어 2" xmlns="http://www.w3.org/2000/svg" viewBox="0 0 169.29 139.36">
  <defs>
    <style>
      .cls-1 {
        fill: #574943;
      }

      .cls-2 {
        fill: #e09d38;
      }

      .cls-3 {
        fill: #5e4439;
      }

      .cls-4 {
        fill: #ffc654;
      }

      .cls-5 {
        fill: #f6f6f6;
      }

      .cls-6 {
        fill: #362c29;
      }

      .cls-7 {
        fill: #f2b63d;
      }

      .cls-8 {
        fill: #0a0808;
      }

      .cls-9 {
        fill: #fff;
      }

      .cls-10 {
        fill: #9d9d9c;
      }

      .cls-11 {
        fill: #736656;
      }

      .cls-12 {
        fill: #575756;
      }

      .cls-13 {
        fill: #f4efe9;
      }

      .cls-14 {
        fill: #b2b2b2;
      }

      .cls-15 {
        fill: #706f6f;
      }

      .cls-16 {
        fill: #211a1a;
      }

      .cls-17 {
        fill: #de822b;
      }

      .cls-18 {
        fill: #997500;
      }

      .cls-19 {
        fill: #878787;
      }

      .cls-20 {
        fill: #1d1d1b;
      }

      .cls-21 {
        fill: #c6c6c6;
      }

      .cls-22 {
        fill: #3c3c3b;
      }

      .cls-23 {
        fill: #dadada;
      }

      .cls-24 {
        fill: #6e5849;
      }

      .cls-25 {
        fill: #ededed;
      }

      .cls-26 {
        fill: #d1d1d1;
      }
    </style>
  </defs>
  <g id="_인공위성1" data-name="인공위성1">
    <g>
      <g>
        <polygon class="cls-9" points="22.66 42.92 23 42.61 39.75 35.47 45.67 21.46 46 21.15 62.47 32.63 70.49 47.39 47.15 69.16 34.13 64.42 22.66 42.92"/>
        <g>
          <polygon class="cls-18" points="11.81 76.74 0 64.07 22.66 42.92 34.48 55.58 30.47 59.89 15.07 73.99 11.81 76.74"/>
          <polygon class="cls-9" points="12.27 77.23 11.81 76.74 34.48 55.58 34.94 56.08 12.27 77.23"/>
        </g>
        <g>
          <polygon class="cls-18" points="24.03 89.82 12.21 77.16 34.88 56.01 46.69 68.67 42.69 72.98 27.29 87.08 24.03 89.82"/>
          <polygon class="cls-9" points="24.49 90.32 24.03 89.82 46.69 68.67 47.15 69.16 24.49 90.32"/>
        </g>
        <g>
          <polygon class="cls-18" points="57.82 33.81 46 21.15 68.67 0 80.48 12.66 76.47 16.97 61.07 31.07 57.82 33.81"/>
          <polygon class="cls-9" points="58.28 34.31 57.82 33.81 80.48 12.66 80.94 13.16 58.28 34.31"/>
        </g>
        <g>
          <polygon class="cls-18" points="70.03 46.9 58.22 34.24 80.88 13.08 92.69 25.75 88.69 30.06 73.29 44.16 70.03 46.9"/>
          <polygon class="cls-9" points="70.49 47.39 70.03 46.9 92.69 25.75 93.16 26.24 70.49 47.39"/>
        </g>
        <g>
          <polygon class="cls-18" points="34.82 55.27 23 42.61 45.67 21.46 57.48 34.12 53.47 38.43 38.07 52.53 34.82 55.27"/>
          <rect class="cls-9" x="30.88" y="44.61" width="31" height=".68" transform="translate(-18.19 43.5) rotate(-42.82)"/>
        </g>
        <g>
          <polygon class="cls-18" points="47.03 68.36 35.22 55.7 57.88 34.55 69.69 47.21 65.69 51.52 50.29 65.62 47.03 68.36"/>
          <rect class="cls-9" x="43.09" y="57.69" width="31" height=".67" transform="translate(-23.84 55.59) rotate(-43.03)"/>
        </g>
        <g>
          <polygon class="cls-19" points="60.69 62.59 57.21 58.86 59.51 56.71 62.99 60.44 62.14 61.78 60.69 62.59"/>
          <polygon class="cls-12" points="61.15 63.08 60.69 62.59 62.99 60.44 63.45 60.94 61.15 63.08"/>
        </g>
      </g>
      <g>
        <polygon class="cls-17" points="164.23 50.23 162.23 57.55 163.47 59.7 167.02 58.88 169.29 51.44 164.23 50.23"/>
        <polygon class="cls-2" points="165.49 41.02 167.15 42.16 169.29 51.44 165.74 52.26 161.95 42.49 165.49 41.02"/>
        <polygon class="cls-4" points="161.85 36.48 158.29 37.31 158.21 41.24 163.59 42.99 167.15 42.16 161.85 36.48"/>
        <polygon class="cls-7" points="163.59 42.99 158.29 37.31 152.94 38.54 150.67 45.98 152.81 55.25 158.11 60.93 163.47 59.7 165.74 52.26 163.59 42.99"/>
      </g>
      <g>
        <polygon class="cls-10" points="88.33 67.79 86.36 75.04 87.58 77.16 161.97 57.6 163.77 51.73 88.33 67.79"/>
        <polygon class="cls-14" points="145.31 45.87 162.07 44.39 163.77 51.73 89.82 69.8 86.07 60.12 145.31 45.87"/>
        <polygon class="cls-23" points="157.88 39.9 82.45 54.99 82.37 58.89 87.7 60.62 162.07 44.39 157.88 39.9"/>
        <polygon class="cls-21" points="87.7 60.62 82.45 54.99 77.15 56.22 74.91 63.58 77.03 72.76 82.28 78.39 87.58 77.16 89.82 69.8 87.7 60.62"/>
        <g>
          <polygon class="cls-10" points="83.18 70.88 82.33 71.08 80.37 68.97 79.57 65.53 80.41 62.77 81.26 62.57 83.18 70.88"/>
          <polygon class="cls-22" points="85.16 67.86 84.32 70.61 83.18 70.88 83.18 70.88 81.21 68.77 80.42 65.33 81.26 62.57 82.4 62.31 84.37 64.42 85.16 67.86"/>
        </g>
      </g>
      <g>
        <g>
          <polygon class="cls-10" points="65.84 79.92 66.44 79.78 66.78 80.15 66.19 81.12 59.98 101.69 59.45 102.33 59.11 101.96 65.84 79.92"/>
          <polygon class="cls-15" points="66.18 80.29 66.78 80.15 60.05 102.19 59.45 102.33 66.18 80.29"/>
        </g>
        <g>
          <polygon class="cls-21" points="61.41 100.13 60.87 98.78 60.04 97.89 59.15 97.71 58.43 98.27 58.07 99.43 58.18 100.88 58.72 102.23 59.55 103.12 60.44 103.31 61.17 102.75 61.52 101.58 61.41 100.13"/>
          <polygon class="cls-14" points="60.52 99.95 61.41 100.13 61.52 101.58 60.98 103.47 60.35 100.87 60.52 99.95"/>
          <polygon class="cls-23" points="59.55 97.33 60.87 98.78 61.41 100.13 60.74 100.29 59.71 98.2 59.55 97.33"/>
          <polygon class="cls-25" points="57.63 96.02 57.74 95.38 55.77 94.96 55.45 95.04 55.86 95.64 57.63 96.02"/>
          <polygon class="cls-14" points="58.29 107.33 58.62 107.26 60.2 106.02 59.75 105.66 58.29 107.33"/>
          <polygon class="cls-21" points="60.73 103.34 60.98 103.47 60.2 106.02 59.88 106.09 60.48 103.38 60.73 103.34"/>
          <polygon class="cls-23" points="60.27 100.14 60.74 100.29 60.98 103.47 60.66 103.55 60.25 100.31 60.27 100.14"/>
          <polygon class="cls-25" points="59.18 97.2 59.55 97.33 60.74 100.29 60.42 100.36 58.93 97.31 59.18 97.2"/>
          <polygon class="cls-5" points="57.42 95.45 57.74 95.38 59.55 97.33 59.24 97.4 57.56 96.72 57.42 95.45"/>
          <polygon class="cls-9" points="60.42 100.36 59.24 97.4 57.42 95.45 55.45 95.04 53.87 96.27 53.09 98.82 53.32 102.01 54.51 104.97 56.33 106.92 58.29 107.33 59.88 106.09 60.66 103.55 60.42 100.36"/>
          <polygon class="cls-5" points="59.93 100.47 59.06 98.31 57.73 96.88 56.3 96.58 55.14 97.48 54.57 99.35 54.74 101.68 55.61 103.84 56.94 105.27 58.38 105.57 59.53 104.67 60.1 102.8 59.93 100.47"/>
          <polygon class="cls-25" points="59.48 100.58 58.93 99.23 58.1 98.34 57.21 98.15 56.48 98.71 56.12 99.88 56.23 101.33 56.78 102.69 57.61 103.57 58.5 103.76 59.23 103.2 59.58 102.04 59.48 100.58"/>
          <polygon class="cls-21" points="58.26 100.5 57.86 100.07 57.46 100.16 57.29 100.72 57.45 101.42 57.85 101.84 58.25 101.75 58.42 101.19 58.26 100.5"/>
          <g>
            <g>
              <polygon class="cls-15" points="53.82 101.94 53.78 102.09 53.8 102.14 57.96 101.17 58.01 101.03 53.82 101.94"/>
              <polygon class="cls-19" points="53.84 101.76 57.96 100.84 58.01 101.03 53.85 101.99 53.77 101.79 53.84 101.76"/>
              <polygon class="cls-14" points="57.85 100.72 53.7 101.69 53.69 101.77 53.8 101.8 57.96 100.84 57.85 100.72"/>
              <polygon class="cls-10" points="53.8 101.8 53.7 101.69 53.59 101.71 53.54 101.86 53.59 102.05 53.69 102.16 53.8 102.14 53.85 101.99 53.8 101.8"/>
            </g>
            <g>
              <polygon class="cls-15" points="53.53 102.12 53.41 102.58 53.48 102.72 53.79 102.65 53.94 102.17 53.53 102.12"/>
              <polygon class="cls-19" points="53.61 101.53 53.8 101.58 53.94 102.17 53.63 102.25 53.39 101.62 53.61 101.53"/>
              <polygon class="cls-14" points="53.46 101.22 53.16 101.29 53.15 101.55 53.49 101.66 53.8 101.58 53.46 101.22"/>
              <polygon class="cls-10" points="53.49 101.66 53.16 101.29 52.82 101.38 52.67 101.84 52.81 102.44 53.14 102.8 53.48 102.72 53.63 102.25 53.49 101.66"/>
            </g>
          </g>
        </g>
      </g>
      <g>
        <polygon class="cls-26" points="86.59 84.96 60.77 90.93 67.1 70.22 92.91 64.25 86.59 84.96"/>
        <polygon class="cls-9" points="59.46 65.57 67.1 70.22 92.91 64.25 78.14 48.42 52.32 54.4 59.46 65.57"/>
        <polygon class="cls-13" points="60.77 90.93 46 75.1 52.32 54.4 67.1 70.22 60.77 90.93"/>
      </g>
      <g>
        <g>
          <polygon class="cls-25" points="82.39 32.89 82.49 32.28 80.6 31.88 80.3 31.95 80.68 32.53 82.39 32.89"/>
          <polygon class="cls-14" points="83.02 43.71 83.32 43.64 84.84 42.46 84.41 42.11 83.02 43.71"/>
          <polygon class="cls-21" points="85.35 39.9 85.58 40.02 84.84 42.46 84.53 42.53 85.11 39.93 85.35 39.9"/>
          <polygon class="cls-23" points="84.91 36.83 85.36 36.98 85.58 40.02 85.28 40.09 84.89 36.99 84.91 36.83"/>
          <polygon class="cls-25" points="83.87 34.02 84.22 34.14 85.36 36.98 85.05 37.05 83.63 34.12 83.87 34.02"/>
          <polygon class="cls-5" points="82.18 32.35 82.49 32.28 84.22 34.14 83.92 34.21 82.32 33.56 82.18 32.35"/>
          <polygon class="cls-9" points="85.05 37.05 83.92 34.21 82.18 32.35 80.3 31.95 78.78 33.13 78.04 35.57 78.26 38.62 79.4 41.45 81.14 43.32 83.02 43.71 84.53 42.53 85.28 40.09 85.05 37.05"/>
          <polygon class="cls-21" points="83.79 37.34 84.37 36.83 85.05 37.05 85.28 40.09 83.78 40.28 83.79 37.34"/>
          <polygon class="cls-19" points="78.8 41.23 78.22 40.17 79.23 40.91 80.45 42.75 80.33 42.88 78.8 41.23"/>
          <polygon class="cls-19" points="80.33 42.88 81.14 43.32 83.02 43.71 81.88 42.98 80.33 42.88"/>
          <polygon class="cls-10" points="82.1 42.91 81.99 43.23 83.02 43.71 84.54 42.54 83.28 41.98 82.1 42.91"/>
          <polygon class="cls-10" points="79.08 41.09 80.33 42.88 81.99 43.23 80 40.95 79.08 41.09"/>
          <polygon class="cls-14" points="80.01 41.29 81.99 43.23 83.33 42.19 80.67 40.46 80.01 41.29"/>
          <polygon class="cls-14" points="83.22 41.23 83.33 42.19 84.54 42.54 85.28 40.09 83.98 40.03 83.22 41.23"/>
          <polygon class="cls-23" points="83.98 40.03 83.79 37.34 82.33 37.3 81.02 37.98 80.91 39.71 83.98 40.03"/>
          <polygon class="cls-21" points="80.64 39.93 80.76 40.7 83.33 42.19 83.98 40.03 81.14 39.49 80.64 39.93"/>
          <polygon class="cls-23" points="83.79 37.34 85.05 37.05 83.92 34.21 82.49 34.7 83.79 37.34"/>
          <polygon class="cls-21" points="77.59 36.04 77.54 37.25 78.13 36.13 78.42 33.95 78.25 33.88 77.59 36.04"/>
          <polygon class="cls-21" points="78.25 33.88 78.78 33.13 80.3 31.95 79.6 33.11 78.25 33.88"/>
          <polygon class="cls-23" points="79.82 33.08 79.59 32.84 80.3 31.95 82.18 32.35 81.29 33.39 79.82 33.08"/>
          <polygon class="cls-23" points="77.91 36.03 78.25 33.88 79.59 32.84 78.8 35.76 77.91 36.03"/>
          <polygon class="cls-25" points="78.66 35.45 79.59 32.84 81.25 33.19 79.62 35.91 78.66 35.45"/>
          <polygon class="cls-25" points="81.57 34.1 81.25 33.19 82.18 32.35 83.92 34.21 82.78 34.84 81.57 34.1"/>
          <polygon class="cls-25" points="82.78 34.84 83.79 37.34 81.02 37.98 80.17 36.48 82.78 34.84"/>
          <polygon class="cls-5" points="79.81 36.39 79.59 35.64 81.25 33.19 82.78 34.84 80.46 36.57 79.81 36.39"/>
          <polygon class="cls-9" points="79.08 41.09 78.21 40.17 77.65 38.76 77.54 37.25 77.91 36.03 78.66 35.45 79.59 35.64 80.46 36.57 81.02 37.98 81.13 39.49 80.76 40.7 80.01 41.29 79.08 41.09"/>
        </g>
        <g>
          <polygon class="cls-10" points="78.89 37.17 79.49 37.03 79.83 37.39 79.24 38.36 73.04 58.94 72.5 59.58 72.16 59.21 78.89 37.17"/>
          <polygon class="cls-15" points="79.23 37.53 79.83 37.39 73.1 59.44 72.5 59.58 79.23 37.53"/>
        </g>
      </g>
      <g>
        <polygon class="cls-10" points="49.77 76.71 47.79 83.96 49.02 86.08 61.76 83.14 64.01 75.78 49.77 76.71"/>
        <polygon class="cls-14" points="58.41 65.97 61.88 66.59 64.01 75.78 51.26 78.72 47.51 69.04 58.41 65.97"/>
        <polygon class="cls-23" points="56.63 60.97 43.89 63.92 43.81 67.81 49.14 69.54 61.88 66.59 56.63 60.97"/>
        <polygon class="cls-21" points="49.14 69.54 43.89 63.92 38.59 65.14 36.34 72.5 38.46 81.68 43.71 87.31 49.02 86.08 51.26 78.72 49.14 69.54"/>
        <g>
          <polygon class="cls-10" points="45.68 85.29 43.72 85.75 39.18 80.87 37.34 72.91 39.28 66.54 41.24 66.09 45.68 85.29"/>
          <polygon class="cls-11" points="50.27 78.31 48.32 84.69 45.68 85.3 45.68 85.29 41.13 80.42 39.29 72.46 41.24 66.09 43.88 65.48 48.43 70.35 50.27 78.31"/>
          <polygon class="cls-24" points="49.82 76.35 48.86 79.5 47.56 79.8 47.55 79.8 45.31 77.4 44.4 73.47 45.36 70.33 46.67 70.03 48.91 72.43 49.82 76.35"/>
          <polygon class="cls-3" points="49.07 74.15 48.45 73.49 47.82 73.63 47.55 74.51 47.81 75.6 48.43 76.26 49.06 76.12 49.32 75.24 49.07 74.15"/>
          <g>
            <polygon class="cls-8" points="48.66 75.12 48.43 75.99 48.57 76.24 49.06 76.13 49.33 75.25 48.66 75.12"/>
            <polygon class="cls-16" points="48.61 74.08 49.07 74.15 49.33 75.25 48.84 75.36 48.39 74.21 48.61 74.08"/>
            <polygon class="cls-1" points="48.45 73.48 47.96 73.6 47.95 74.06 48.59 74.27 49.07 74.15 48.45 73.48"/>
            <polygon class="cls-18" points="48.59 74.27 47.96 73.6 47.33 73.74 47.06 74.62 47.31 75.72 47.94 76.39 48.57 76.24 48.84 75.36 48.59 74.27"/>
          </g>
        </g>
      </g>
      <g>
        <g>
          <polygon class="cls-20" points="65.35 70.88 65.22 71.36 65.31 71.5 66.15 71.31 66.3 70.82 65.35 70.88"/>
          <polygon class="cls-22" points="65.44 70.27 66.16 70.21 66.3 70.82 65.46 71.01 65.21 70.37 65.44 70.27"/>
          <polygon class="cls-15" points="65.81 69.83 64.96 70.02 64.96 70.28 65.31 70.4 66.16 70.21 65.81 69.83"/>
          <polygon class="cls-12" points="65.31 70.4 64.96 70.02 64.61 70.11 64.46 70.6 64.6 71.21 64.95 71.59 65.31 71.5 65.46 71.01 65.31 70.4"/>
        </g>
        <g>
          <polygon class="cls-20" points="59.8 89.06 59.67 89.55 59.75 89.69 60.6 89.5 60.75 89.01 59.8 89.06"/>
          <polygon class="cls-22" points="59.89 88.46 60.6 88.39 60.75 89.01 59.9 89.2 59.65 88.56 59.89 88.46"/>
          <polygon class="cls-15" points="60.25 88.02 59.41 88.21 59.4 88.47 59.76 88.59 60.6 88.39 60.25 88.02"/>
          <polygon class="cls-12" points="59.76 88.59 59.41 88.21 59.06 88.29 58.91 88.79 59.05 89.4 59.4 89.77 59.75 89.69 59.9 89.2 59.76 88.59"/>
        </g>
      </g>
      <g>
        <polygon class="cls-9" points="68.43 91.97 68.76 91.65 85.51 84.51 91.43 70.5 91.76 70.19 108.24 81.67 116.25 96.43 92.92 118.21 79.89 113.47 68.43 91.97"/>
        <g>
          <polygon class="cls-18" points="57.58 125.78 45.76 113.12 68.43 91.97 80.24 104.63 76.23 108.94 60.83 123.04 57.58 125.78"/>
          <rect class="cls-9" x="53.64" y="115.11" width="31" height=".67" transform="translate(-59.98 77.54) rotate(-42.72)"/>
        </g>
        <g>
          <polygon class="cls-18" points="69.79 138.87 57.98 126.2 80.64 105.05 92.45 117.72 88.45 122.02 73.05 136.12 69.79 138.87"/>
          <rect class="cls-9" x="65.85" y="128.2" width="31" height=".67" transform="translate(-65.85 90.19) rotate(-43.07)"/>
        </g>
        <g>
          <polygon class="cls-18" points="103.58 82.86 91.76 70.19 114.43 49.05 126.24 61.7 122.23 66.02 106.84 80.11 103.58 82.86"/>
          <polygon class="cls-9" points="104.04 83.35 103.58 82.86 126.24 61.7 126.71 62.19 104.04 83.35"/>
        </g>
        <g>
          <polygon class="cls-18" points="115.79 95.94 103.98 83.28 126.64 62.13 138.46 74.79 134.45 79.1 119.05 93.2 115.79 95.94"/>
          <rect class="cls-9" x="111.86" y="85.28" width="31" height=".67" transform="translate(-24.17 109.88) rotate(-43.01)"/>
        </g>
        <g>
          <rect class="cls-21" x="75.27" y="77.26" width="3.15" height=".67" transform="translate(-32.28 73.3) rotate(-43.03)"/>
          <rect class="cls-19" x="77.01" y="76.57" width="3.15" height="5.78" transform="translate(-33.08 75.02) rotate(-43.04)"/>
        </g>
        <g>
          <polygon class="cls-18" points="80.58 104.32 68.76 91.65 91.43 70.5 103.24 83.17 99.23 87.47 83.84 101.57 80.58 104.32"/>
          <rect class="cls-9" x="76.64" y="93.65" width="31" height=".67" transform="translate(-39.35 88.23) rotate(-43.06)"/>
        </g>
        <g>
          <polygon class="cls-18" points="92.79 117.41 80.98 104.74 103.64 83.59 115.46 96.25 111.45 100.56 96.05 114.66 92.79 117.41"/>
          <polygon class="cls-9" points="93.25 117.89 92.79 117.41 115.46 96.25 115.92 96.74 93.25 117.89"/>
        </g>
      </g>
      <g>
        <g>
          <polygon class="cls-10" points="55.29 58.64 53.31 65.89 54.54 68.01 55.98 67.67 58.23 60.32 55.29 58.64"/>
          <polygon class="cls-14" points="52.63 50.51 56.1 51.13 58.23 60.32 56.78 60.65 53.03 50.97 52.63 50.51"/>
          <polygon class="cls-23" points="50.85 45.51 49.41 45.84 49.33 49.74 54.66 51.47 56.1 51.13 50.85 45.51"/>
          <polygon class="cls-21" points="54.66 51.47 49.41 45.84 44.11 47.07 41.86 54.43 43.99 63.61 49.23 69.23 54.54 68.01 56.78 60.65 54.66 51.47"/>
        </g>
        <g>
          <polygon class="cls-8" points="52.84 58.65 51.28 64.37 52.24 66.04 53.39 65.78 55.16 59.98 52.84 58.65"/>
          <polygon class="cls-16" points="50.74 52.25 53.48 52.74 55.16 59.98 54.02 60.24 51.06 52.61 50.74 52.25"/>
          <polygon class="cls-1" points="49.34 48.3 48.2 48.56 48.14 51.63 52.34 53 53.48 52.74 49.34 48.3"/>
          <polygon class="cls-6" points="52.34 53 48.2 48.56 44.02 49.53 42.25 55.34 43.92 62.57 48.06 67.01 52.24 66.04 54.02 60.24 52.34 53"/>
          <polygon class="cls-16" points="49.23 56.54 48.15 55.39 47.06 55.64 46.6 57.15 47.04 59.03 48.11 60.19 49.2 59.94 49.66 58.43 49.23 56.54"/>
        </g>
      </g>
      <g>
        <polygon class="cls-17" points="69.91 87.9 63.35 89.42 66.55 78.94 73.11 77.42 69.91 87.9"/>
        <polygon class="cls-4" points="66.11 79.02 66.55 78.94 73.11 77.42 72.49 76.75 65.92 78.27 66.11 79.02"/>
        <polygon class="cls-2" points="63.35 89.42 62.72 88.74 65.92 78.27 66.55 78.94 63.35 89.42"/>
      </g>
      <g>
        <polygon class="cls-17" points="73.61 75.78 67.05 77.29 68.65 72.03 75.22 70.51 73.61 75.78"/>
        <polygon class="cls-4" points="68.22 72.11 68.65 72.03 75.22 70.51 74.59 69.85 68.03 71.36 68.22 72.11"/>
        <polygon class="cls-2" points="67.05 77.29 66.42 76.62 68.03 71.36 68.65 72.03 67.05 77.29"/>
      </g>
    </g>
  </g>
</svg>