<?xml version="1.0" encoding="UTF-8"?>
<svg id="_레이어_2" data-name="레이어 2" xmlns="http://www.w3.org/2000/svg" viewBox="0 0 178.31 129.09">
  <defs>
    <style>
      .cls-1 {
        fill: #574943;
      }

      .cls-2 {
        fill: #ffc654;
      }

      .cls-3 {
        fill: #f6f6f6;
      }

      .cls-4 {
        fill: #362c29;
      }

      .cls-5 {
        fill: #0a0808;
      }

      .cls-6 {
        fill: #fff;
      }

      .cls-7 {
        fill: #9d9d9c;
      }

      .cls-8 {
        fill: #575756;
      }

      .cls-9 {
        fill: #f4efe9;
      }

      .cls-10 {
        fill: #b2b2b2;
      }

      .cls-11 {
        fill: #706f6f;
      }

      .cls-12 {
        fill: #de822b;
      }

      .cls-13 {
        fill: #997500;
      }

      .cls-14 {
        fill: #878787;
      }

      .cls-15 {
        fill: #ffec7a;
      }

      .cls-16 {
        fill: #c6c6c6;
      }

      .cls-17 {
        fill: #dadada;
      }

      .cls-18 {
        fill: #ededed;
      }

      .cls-19 {
        fill: #d1d1d1;
      }
    </style>
  </defs>
  <g id="_인공위성2" data-name="인공위성2">
    <g>
      <g>
        <g>
          <polygon class="cls-7" points="91.04 66.23 90.99 65.41 91.55 65.05 92.68 66.05 118.24 79 118.95 79.85 118.39 80.21 91.04 66.23"/>
          <polygon class="cls-11" points="91.6 65.87 91.55 65.05 118.91 79.03 118.95 79.85 91.6 65.87"/>
        </g>
        <g>
          <polygon class="cls-16" points="116.53 76.75 114.63 77.15 113.27 78.03 112.81 79.16 113.38 80.24 114.83 80.98 116.76 81.18 118.65 80.78 120.01 79.9 120.47 78.77 119.9 77.69 118.46 76.95 116.53 76.75"/>
          <polygon class="cls-10" points="116.08 77.88 116.53 76.75 118.46 76.95 120.81 78.11 117.25 78.33 116.08 77.88"/>
          <polygon class="cls-17" points="112.41 78.54 114.63 77.15 116.53 76.75 116.58 77.67 113.6 78.54 112.41 78.54"/>
          <polygon class="cls-18" points="110.25 80.75 109.43 80.47 108.43 82.95 108.45 83.39 109.33 83 110.25 80.75"/>
          <polygon class="cls-10" points="125.24 82.53 125.23 82.09 123.97 79.73 123.39 80.23 125.24 82.53"/>
          <polygon class="cls-16" points="120.58 78.4 120.81 78.11 123.97 79.73 123.99 80.16 120.57 78.73 120.58 78.4"/>
          <polygon class="cls-17" points="116.27 78.25 116.58 77.67 120.81 78.11 120.83 78.54 116.49 78.32 116.27 78.25"/>
          <polygon class="cls-18" points="112.15 79 112.41 78.54 116.58 77.67 116.6 78.11 112.24 79.35 112.15 79"/>
          <polygon class="cls-3" points="109.45 80.91 109.43 80.47 112.41 78.54 112.43 78.98 111.14 81.01 109.45 80.91"/>
          <polygon class="cls-6" points="116.6 78.11 112.43 78.98 109.45 80.91 108.45 83.39 109.7 85.76 112.86 87.37 117.1 87.81 121.26 86.94 124.24 85.01 125.24 82.53 123.99 80.16 120.83 78.54 116.6 78.11"/>
          <polygon class="cls-3" points="116.64 78.78 113.59 79.41 111.41 80.83 110.67 82.64 111.58 84.37 113.9 85.55 117 85.87 120.04 85.24 122.23 83.83 122.96 82.01 122.04 80.28 119.73 79.1 116.64 78.78"/>
          <polygon class="cls-18" points="116.66 79.4 114.76 79.8 113.4 80.68 112.95 81.82 113.52 82.89 114.96 83.63 116.89 83.83 118.8 83.44 120.15 82.56 120.61 81.42 120.04 80.34 118.6 79.6 116.66 79.4"/>
          <polygon class="cls-16" points="116.27 80.98 115.62 81.4 115.64 81.95 116.34 82.31 117.29 82.26 117.94 81.84 117.91 81.29 117.22 80.93 116.27 80.98"/>
          <g>
            <g>
              <polygon class="cls-11" points="117.14 87.15 117.32 87.24 117.38 87.21 117.09 81.53 116.9 81.44 117.14 87.15"/>
              <polygon class="cls-14" points="116.9 87.07 116.65 81.45 116.9 81.44 117.19 87.12 116.92 87.17 116.9 87.07"/>
              <polygon class="cls-10" points="116.47 81.56 116.76 87.24 116.87 87.27 116.94 87.13 116.65 81.45 116.47 81.56"/>
              <polygon class="cls-7" points="116.94 87.13 116.76 87.24 116.77 87.39 116.96 87.49 117.21 87.48 117.39 87.36 117.38 87.21 117.19 87.12 116.94 87.13"/>
            </g>
            <g>
              <polygon class="cls-11" points="117.29 87.56 117.87 87.84 118.07 87.77 118.05 87.34 117.46 87.04 117.29 87.56"/>
              <polygon class="cls-14" points="116.54 87.32 116.66 87.08 117.46 87.04 117.48 87.47 116.61 87.64 116.54 87.32"/>
              <polygon class="cls-10" points="116.11 87.44 116.13 87.87 116.45 87.93 116.68 87.51 116.66 87.08 116.11 87.44"/>
              <polygon class="cls-7" points="116.68 87.51 116.13 87.87 116.15 88.33 116.73 88.63 117.54 88.59 118.09 88.23 118.07 87.77 117.48 87.47 116.68 87.51"/>
            </g>
          </g>
        </g>
      </g>
      <g>
        <g>
          <g>
            <polygon class="cls-13" points="28.24 120.62 15.16 129.09 0 105.69 13.07 97.21 16.26 101.45 26.32 117.31 28.24 120.62"/>
            <polygon class="cls-6" points="28.75 120.29 28.24 120.62 13.07 97.21 13.59 96.89 28.75 120.29"/>
          </g>
          <g>
            <polygon class="cls-13" points="41.76 111.86 28.68 120.34 13.52 96.93 26.59 88.46 29.78 92.69 39.84 108.55 41.76 111.86"/>
            <polygon class="cls-6" points="42.27 111.54 41.76 111.86 26.59 88.46 27.1 88.13 42.27 111.54"/>
          </g>
          <g>
            <polygon class="cls-13" points="55.27 103.11 42.19 111.58 27.03 88.17 40.11 79.7 43.3 83.93 53.36 99.79 55.27 103.11"/>
            <polygon class="cls-6" points="55.78 102.78 55.27 103.11 40.11 79.7 40.62 79.37 55.78 102.78"/>
          </g>
          <g>
            <polygon class="cls-13" points="68.79 94.36 55.72 102.82 40.55 79.42 53.63 70.95 56.81 75.18 66.87 91.04 68.79 94.36"/>
            <polygon class="cls-6" points="69.3 94.02 68.79 94.36 53.63 70.95 54.14 70.61 69.3 94.02"/>
          </g>
          <g>
            <polygon class="cls-13" points="82.31 85.6 69.23 94.07 54.06 70.66 67.14 62.19 70.33 66.42 80.39 82.28 82.31 85.6"/>
            <polygon class="cls-6" points="82.82 85.27 82.31 85.6 67.14 62.19 67.65 61.86 82.82 85.27"/>
          </g>
        </g>
        <g>
          <polygon class="cls-16" points="79.35 72.59 75.5 75.08 73.96 72.7 77.81 70.21 78.87 71.17 79.35 72.59"/>
          <rect class="cls-7" x="78.53" y="69.82" width=".61" height="2.83" transform="translate(-26.1 54.55) rotate(-33.07)"/>
        </g>
      </g>
      <g>
        <g>
          <polygon class="cls-12" points="106.11 50.34 107.32 73.83 91.97 65.99 90.76 42.5 106.11 50.34"/>
          <polygon class="cls-2" points="107.32 73.83 87.57 86.62 72.22 78.78 87.29 66.27 91.97 65.99 107.32 73.83"/>
          <polygon class="cls-15" points="91.97 65.99 72.22 78.78 71.02 55.29 90.76 42.5 91.97 65.99"/>
        </g>
        <g>
          <g>
            <polygon class="cls-4" points="78.53 81.09 83.14 78.11 80.46 76.74 75.86 79.73 78.53 81.09"/>
            <polygon class="cls-1" points="80.57 76.72 80.46 76.74 75.86 79.73 75.84 79.39 80.44 76.41 80.57 76.72"/>
            <polygon class="cls-5" points="83.14 78.11 83.12 77.77 80.44 76.41 80.46 76.74 83.14 78.11"/>
          </g>
          <g>
            <polygon class="cls-4" points="82.75 83.25 87.36 80.27 84.68 78.9 80.08 81.88 82.75 83.25"/>
            <polygon class="cls-1" points="84.8 78.88 84.68 78.9 80.08 81.88 80.06 81.55 84.67 78.56 84.8 78.88"/>
            <polygon class="cls-5" points="87.36 80.27 87.34 79.93 84.67 78.56 84.68 78.9 87.36 80.27"/>
          </g>
          <g>
            <polygon class="cls-4" points="86.98 85.41 91.58 82.42 88.91 81.06 84.3 84.04 86.98 85.41"/>
            <polygon class="cls-1" points="89.02 81.04 88.91 81.06 84.3 84.04 84.29 83.7 88.89 80.72 89.02 81.04"/>
            <polygon class="cls-5" points="91.58 82.42 91.57 82.09 88.89 80.72 88.91 81.06 91.58 82.42"/>
          </g>
        </g>
        <g>
          <polygon class="cls-5" points="104.37 51.32 105.33 69.91 94.6 64.43 93.64 45.84 104.37 51.32"/>
          <polygon class="cls-1" points="94.77 64.78 94.6 64.43 93.64 45.84 93.2 46.13 94.15 64.72 94.77 64.78"/>
          <polygon class="cls-4" points="105.33 69.91 104.88 70.2 94.15 64.72 94.6 64.43 105.33 69.91"/>
        </g>
      </g>
      <g>
        <polygon class="cls-8" points="92.24 40.52 93.59 66.82 85.42 63.93 85.18 36.91 92.24 40.52"/>
        <polygon class="cls-14" points="93.59 66.82 71.49 81.14 64.43 77.53 81.29 63.53 86.53 63.22 93.59 66.82"/>
        <polygon class="cls-7" points="86.53 63.22 64.43 77.53 63.08 51.23 85.18 36.91 86.53 63.22"/>
      </g>
      <g>
        <polygon class="cls-19" points="84.45 38.4 85.7 62.79 68.39 57.58 70.28 31.15 84.45 38.4"/>
        <polygon class="cls-9" points="85.7 62.79 65.21 76.07 51.03 68.83 66.66 55.84 71.53 55.55 85.7 62.79"/>
        <polygon class="cls-6" points="71.53 55.55 51.03 68.83 49.78 44.44 70.28 31.15 71.53 55.55"/>
      </g>
      <g>
        <g>
          <rect class="cls-16" x="99.17" y="56.45" width=".61" height="2.83" transform="translate(-15.47 63.42) rotate(-32.95)"/>
          <rect class="cls-16" x="98.8" y="55.2" width="5.2" height="2.83" transform="translate(-14.49 64.2) rotate(-32.92)"/>
        </g>
        <g>
          <g>
            <polygon class="cls-13" points="123.73 58.77 110.65 67.24 95.49 43.83 108.57 35.36 111.75 39.59 121.81 55.45 123.73 58.77"/>
            <rect class="cls-6" x="116.1" y="32.95" width=".61" height="27.89" transform="translate(-6.8 70.74) rotate(-32.9)"/>
          </g>
          <g>
            <polygon class="cls-13" points="137.25 50.01 124.17 58.48 109.01 35.07 122.08 26.6 125.27 30.83 135.33 46.69 137.25 50.01"/>
            <rect class="cls-6" x="129.61" y="24.19" width=".61" height="27.89" transform="translate(.11 76.64) rotate(-32.88)"/>
          </g>
          <g>
            <polygon class="cls-13" points="150.76 41.26 137.69 49.72 122.53 26.31 135.6 17.84 138.78 22.07 148.85 37.94 150.76 41.26"/>
            <polygon class="cls-6" points="151.28 40.92 150.76 41.26 135.6 17.84 136.11 17.51 151.28 40.92"/>
          </g>
          <g>
            <polygon class="cls-13" points="164.28 32.49 151.2 40.96 136.04 17.56 149.12 9.08 152.3 13.32 162.36 29.18 164.28 32.49"/>
            <rect class="cls-6" x="156.65" y="6.68" width=".61" height="27.89" transform="translate(14.04 88.71) rotate(-32.96)"/>
          </g>
          <g>
            <polygon class="cls-13" points="177.8 23.74 164.72 32.21 149.55 8.8 162.63 .33 165.82 4.56 175.88 20.42 177.8 23.74"/>
            <polygon class="cls-6" points="178.31 23.41 177.8 23.74 162.63 .33 163.14 0 178.31 23.41"/>
          </g>
        </g>
      </g>
    </g>
  </g>
</svg>