<?xml version="1.0" encoding="UTF-8"?>
<svg id="_레이어_2" data-name="레이어 2" xmlns="http://www.w3.org/2000/svg" viewBox="0 0 149.2 156.54">
  <defs>
    <style>
      .cls-1 {
        fill: #574943;
      }

      .cls-2 {
        fill: #f6f6f6;
      }

      .cls-3 {
        fill: #362c29;
      }

      .cls-4 {
        fill: #0a0808;
      }

      .cls-5 {
        fill: #fff;
      }

      .cls-6 {
        fill: #9d9d9c;
      }

      .cls-7 {
        fill: #575756;
      }

      .cls-8 {
        fill: #b2b2b2;
      }

      .cls-9 {
        fill: #706f6f;
      }

      .cls-10 {
        fill: #211a1a;
      }

      .cls-11 {
        fill: #997500;
      }

      .cls-12 {
        fill: #878787;
      }

      .cls-13 {
        fill: #1d1d1b;
      }

      .cls-14 {
        fill: #c6c6c6;
      }

      .cls-15 {
        fill: #3c3c3b;
      }

      .cls-16 {
        fill: #dadada;
      }

      .cls-17 {
        fill: #ededed;
      }
    </style>
  </defs>
  <g id="_인공위성3" data-name="인공위성3">
    <g>
      <g>
        <g>
          <polygon class="cls-5" points="138.61 69.59 138.68 70.02 135.53 87.29 143.65 99.49 143.72 99.92 106.87 110.99 92.59 108.56 87.47 78.22 96.35 71.3 138.61 69.59"/>
          <g>
            <polygon class="cls-11" points="122.22 72.8 138.68 70.02 143.65 99.49 127.19 102.27 125.85 96.75 122.69 76.88 122.22 72.8"/>
            <rect class="cls-5" x="124.06" y="72.65" width=".65" height="29.88" transform="translate(-12.82 21.87) rotate(-9.56)"/>
          </g>
          <g>
            <polygon class="cls-11" points="105.2 75.68 121.66 72.9 126.64 102.36 110.17 105.14 108.84 99.63 105.68 79.75 105.2 75.68"/>
            <rect class="cls-5" x="107.04" y="75.52" width=".65" height="29.88" transform="translate(-13.58 19.17) rotate(-9.6)"/>
          </g>
          <g>
            <polygon class="cls-11" points="88.18 78.55 104.64 75.77 109.62 105.23 93.16 108.02 91.82 102.5 88.66 82.63 88.18 78.55"/>
            <rect class="cls-5" x="90.03" y="78.39" width=".65" height="29.89" transform="translate(-14.71 16.94) rotate(-9.91)"/>
          </g>
          <g>
            <polygon class="cls-11" points="119.16 54.73 135.62 51.95 138.61 69.59 122.14 72.37 120.81 66.85 119.63 58.8 119.16 54.73"/>
            <rect class="cls-5" x="120" y="54.65" width=".65" height="17.89" transform="translate(-8.89 20.86) rotate(-9.56)"/>
          </g>
          <g>
            <polygon class="cls-11" points="102.14 57.6 118.6 54.82 121.59 72.46 105.13 75.24 103.8 69.72 102.62 61.68 102.14 57.6"/>
            <polygon class="cls-5" points="101.5 57.71 102.14 57.6 105.13 75.24 104.49 75.35 101.5 57.71"/>
          </g>
          <g>
            <polygon class="cls-11" points="85.12 60.47 101.59 57.69 104.57 75.34 88.12 78.11 86.78 72.6 85.6 64.55 85.12 60.47"/>
            <polygon class="cls-5" points="84.49 60.58 85.12 60.47 88.12 78.11 87.47 78.22 84.49 60.58"/>
          </g>
          <g>
            <polygon class="cls-11" points="127.26 102.7 143.72 99.92 146.71 117.57 130.25 120.34 128.91 114.83 127.74 106.78 127.26 102.7"/>
            <rect class="cls-5" x="128.11" y="102.63" width=".65" height="17.89" transform="translate(-17.08 23.43) rotate(-9.78)"/>
          </g>
          <g>
            <polygon class="cls-11" points="110.25 105.58 126.71 102.8 129.69 120.44 113.23 123.22 111.9 117.71 110.72 109.65 110.25 105.58"/>
            <polygon class="cls-5" points="109.6 105.69 110.25 105.58 113.23 123.22 112.59 123.33 109.6 105.69"/>
          </g>
          <g>
            <polygon class="cls-11" points="93.23 108.45 109.69 105.67 112.68 123.32 96.22 126.09 94.88 120.57 93.71 112.53 93.23 108.45"/>
            <polygon class="cls-5" points="92.59 108.56 93.23 108.45 96.22 126.09 95.58 126.2 92.59 108.56"/>
          </g>
        </g>
        <g>
          <polygon class="cls-14" points="85.57 92.6 90.42 91.78 90.92 94.78 86.07 95.6 85.45 94.19 85.57 92.6"/>
          <rect class="cls-6" x="85.18" y="92.64" width=".65" height="3.03" transform="translate(-14.39 15.43) rotate(-9.52)"/>
        </g>
      </g>
      <g>
        <g>
          <polygon class="cls-6" points="49.24 99.83 57.48 77.69 73.18 96.68 64.94 118.82 49.24 99.83"/>
          <polygon class="cls-16" points="82.38 92.35 73.18 96.68 64.94 118.82 89.23 114.72 97.47 92.58 82.38 92.35"/>
          <polygon class="cls-14" points="57.48 77.69 81.77 73.59 97.47 92.58 73.18 96.68 57.48 77.69"/>
        </g>
        <g>
          <polygon class="cls-1" points="88.25 112.77 94.34 96.42 75.03 99.68 68.94 116.03 88.25 112.77"/>
          <polygon class="cls-4" points="75.37 99.33 75.03 99.68 68.94 116.03 68.5 115.5 74.59 99.16 75.37 99.33"/>
          <polygon class="cls-3" points="94.34 96.42 93.9 95.9 74.59 99.16 75.03 99.68 94.34 96.42"/>
        </g>
      </g>
      <g>
        <g>
          <polygon class="cls-3" points="68.48 116.16 67.94 115.53 67.12 115.66 67.17 116.03 67.57 116.54 68.48 116.16"/>
          <polygon class="cls-10" points="66.52 116.82 66.3 116.34 67.12 115.66 67.63 116.29 67.58 116.57 66.9 117.08 66.52 116.82"/>
          <polygon class="cls-4" points="66.51 117.78 65.98 117.15 66.3 116.34 66.81 116.97 66.94 117.7 66.51 117.78"/>
          <polygon class="cls-1" points="66.81 116.97 66.51 117.78 66.9 118.25 67.75 118.1 68.57 117.42 68.87 116.63 68.48 116.16 67.63 116.29 66.81 116.97"/>
        </g>
        <g>
          <polygon class="cls-3" points="76.43 126.43 68.22 116.5 67.65 116.6 67.69 116.84 75.83 126.69 76.43 126.43"/>
          <polygon class="cls-4" points="75.1 127.53 66.89 117.6 67.1 117.05 71.27 121.57 75.31 126.98 75.36 127.31 75.1 127.53"/>
          <polygon class="cls-10" points="67.1 117.05 67.65 116.6 75.86 126.52 75.84 126.71 75.37 127.05 67.1 117.05"/>
          <polygon class="cls-1" points="75.95 127.75 76.5 127.3 76.69 126.74 76.43 126.43 75.86 126.52 75.31 126.98 75.1 127.53 75.36 127.84 75.95 127.75"/>
        </g>
        <g>
          <polygon class="cls-3" points="97.74 152.57 76.32 126.66 75.9 126.74 75.94 126.92 97.31 152.77 97.74 152.57"/>
          <polygon class="cls-10" points="75.63 127.31 75.51 127.06 75.9 126.74 97.32 152.65 97.31 152.78 96.98 153.02 75.63 127.31"/>
          <polygon class="cls-4" points="96.78 153.36 75.36 127.45 75.51 127.06 96.93 152.96 97.01 153.33 96.78 153.36"/>
          <polygon class="cls-1" points="97.39 153.52 97.78 153.2 97.92 152.79 97.74 152.57 97.32 152.65 96.93 152.96 96.78 153.36 96.97 153.58 97.39 153.52"/>
        </g>
        <g>
          <polygon class="cls-3" points="100.17 155.02 97.1 151.32 96.48 151.43 96.53 151.7 99.51 155.32 100.17 155.02"/>
          <polygon class="cls-10" points="96.07 152.28 95.89 151.92 96.48 151.43 99.54 155.13 99.52 155.34 99.02 155.69 96.07 152.28"/>
          <polygon class="cls-4" points="98.74 156.2 95.68 152.5 95.89 151.92 98.95 155.62 99.04 156.15 98.74 156.2"/>
          <polygon class="cls-1" points="99.63 156.44 100.23 155.96 100.45 155.36 100.17 155.02 99.54 155.13 98.95 155.62 98.74 156.2 99.02 156.54 99.63 156.44"/>
        </g>
      </g>
      <g>
        <g>
          <rect class="cls-14" x="60.88" y="96.74" width=".65" height="3.03" transform="translate(-15.4 11.47) rotate(-9.52)"/>
          <rect class="cls-14" x="56" y="97.15" width="5.57" height="3.03" transform="translate(-15.6 11.16) rotate(-9.58)"/>
        </g>
        <g>
          <polygon class="cls-5" points="54.12 83.85 54.18 84.29 51.04 101.55 59.16 113.75 59.24 114.19 22.39 125.25 8.1 122.82 2.98 92.49 11.86 85.57 54.12 83.85"/>
          <g>
            <polygon class="cls-11" points="37.73 87.07 54.18 84.29 59.16 113.75 42.7 116.54 41.36 111.02 38.21 91.14 37.73 87.07"/>
            <polygon class="cls-5" points="37.08 87.17 37.73 87.07 42.7 116.54 42.06 116.64 37.08 87.17"/>
          </g>
          <g>
            <polygon class="cls-11" points="20.72 89.94 37.17 87.16 42.15 116.63 25.69 119.4 24.35 113.89 21.19 94.02 20.72 89.94"/>
            <polygon class="cls-5" points="20.07 90.04 20.72 89.94 25.69 119.4 25.05 119.51 20.07 90.04"/>
          </g>
          <g>
            <polygon class="cls-11" points="3.7 92.81 20.16 90.03 25.13 119.5 8.67 122.28 7.34 116.76 4.17 96.89 3.7 92.81"/>
            <polygon class="cls-5" points="3.06 92.92 3.7 92.81 8.67 122.28 8.03 122.39 3.06 92.92"/>
          </g>
          <g>
            <polygon class="cls-11" points="34.67 68.99 51.13 66.21 54.12 83.85 37.66 86.63 36.32 81.12 35.15 73.07 34.67 68.99"/>
            <polygon class="cls-5" points="34.03 69.1 34.67 68.99 37.66 86.63 37.01 86.74 34.03 69.1"/>
          </g>
          <g>
            <polygon class="cls-11" points="17.65 71.86 34.11 69.09 37.1 86.72 20.64 89.5 19.3 83.99 18.13 75.94 17.65 71.86"/>
            <polygon class="cls-5" points="17.01 71.97 17.65 71.86 20.64 89.5 20 89.61 17.01 71.97"/>
          </g>
          <g>
            <polygon class="cls-11" points=".64 74.73 17.1 71.96 20.08 89.6 3.62 92.38 2.29 86.86 1.11 78.82 .64 74.73"/>
            <polygon class="cls-5" points="0 74.84 .64 74.73 3.62 92.38 2.98 92.49 0 74.84"/>
          </g>
          <g>
            <polygon class="cls-11" points="42.77 116.97 59.24 114.19 62.22 131.83 45.76 134.61 44.43 129.09 43.25 121.05 42.77 116.97"/>
            <polygon class="cls-5" points="42.13 117.08 42.77 116.97 45.76 134.61 45.12 134.72 42.13 117.08"/>
          </g>
          <g>
            <polygon class="cls-11" points="25.76 119.84 42.22 117.06 45.21 134.7 28.75 137.48 27.41 131.97 26.24 123.91 25.76 119.84"/>
            <rect class="cls-5" x="26.6" y="119.77" width=".65" height="17.89" transform="translate(-21.09 6.29) rotate(-9.6)"/>
          </g>
          <g>
            <polygon class="cls-11" points="8.74 122.72 25.2 119.94 28.2 137.57 11.73 140.35 10.39 134.84 9.22 126.79 8.74 122.72"/>
            <rect class="cls-5" x="9.59" y="122.64" width=".65" height="17.89" transform="translate(-21.81 3.5) rotate(-9.6)"/>
          </g>
        </g>
      </g>
      <g>
        <polygon class="cls-13" points="77.8 77.31 72.82 71.65 70.37 71.51 65.83 83.71 70.74 89.66 77.8 77.31"/>
        <polygon class="cls-15" points="84.74 83.41 79.61 92.96 70.74 89.66 75.28 77.46 85.47 79.66 84.74 83.41"/>
        <polygon class="cls-9" points="87.21 91.68 91.76 79.47 88.55 77.25 84.15 80.75 79.61 92.96 87.21 91.68"/>
        <polygon class="cls-7" points="84.15 80.75 91.76 79.47 93.67 74.35 88.75 68.4 79.89 65.11 72.27 66.39 70.37 71.51 75.28 77.46 84.15 80.75"/>
      </g>
      <g>
        <g>
          <polygon class="cls-14" points="78.76 81.72 92.08 84.46 103.29 82.57 109.37 76.56 108.71 68.03 101.46 59.27 89.59 52.63 76.27 49.89 65.06 51.78 58.98 57.8 59.64 66.33 66.88 75.09 78.76 81.72"/>
          <polygon class="cls-8" points="84.78 75.66 78.76 81.72 66.88 75.09 54.99 61.12 78.51 69.55 84.78 75.66"/>
          <polygon class="cls-16" points="110.22 81.68 92.08 84.46 78.76 81.72 81.01 75.67 102.6 78.36 110.22 81.68"/>
          <polygon class="cls-17" points="130.34 73.43 134.8 77.53 148.13 64.33 149.2 61.47 142.43 61.52 130.34 73.43"/>
          <polygon class="cls-8" points="38.71 20.35 37.64 23.21 39.11 41.92 44.27 40.34 38.71 20.35"/>
          <polygon class="cls-14" points="57.27 59.85 54.99 61.12 39.11 41.92 40.19 39.05 58.28 57.78 57.27 59.85"/>
          <polygon class="cls-16" points="84.61 72.81 81.01 75.67 54.99 61.12 56.05 58.25 83.39 71.72 84.61 72.81"/>
          <polygon class="cls-17" points="113.17 79.44 110.22 81.68 81.01 75.67 82.08 72.81 113.59 76.92 113.17 79.44"/>
          <polygon class="cls-2" points="135.87 74.67 134.8 77.53 110.22 81.68 111.29 78.82 125.24 69.26 135.87 74.67"/>
          <polygon class="cls-5" points="82.08 72.81 111.29 78.82 135.87 74.67 149.2 61.47 147.74 42.77 131.87 23.57 105.83 9.01 76.62 3 52.04 7.15 38.71 20.35 40.19 39.05 56.05 58.25 82.08 72.81"/>
          <polygon class="cls-2" points="83.73 68.39 105.07 72.78 123.01 69.76 132.76 60.11 131.69 46.45 120.09 32.43 101.08 21.79 79.73 17.41 61.79 20.43 52.04 30.07 53.11 43.74 64.71 57.76 83.73 68.39"/>
          <polygon class="cls-17" points="85.25 64.29 98.58 67.03 109.78 65.13 115.87 59.11 115.2 50.59 107.96 41.84 96.09 35.19 82.76 32.45 71.55 34.35 65.47 40.36 66.14 48.89 73.38 57.65 85.25 64.29"/>
          <polygon class="cls-14" points="92.18 55.26 97.54 54.35 98.89 50.75 95.42 46.55 89.17 44.22 83.8 45.13 82.45 48.74 85.92 52.93 92.18 55.26"/>
        </g>
        <g>
          <g>
            <polygon class="cls-9" points="95.67 25.11 97.53 24.79 98.34 25.77 93.66 27.54 79.02 33.97 77.08 34.56 76.27 33.59 95.67 25.11"/>
            <polygon class="cls-8" points="96.47 26.08 98.34 25.77 78.94 34.24 77.08 34.56 96.47 26.08"/>
          </g>
          <g>
            <polygon class="cls-8" points="103.23 27.67 102.03 26.22 100.56 26.58 103.98 33.28 109.39 45.08 110.6 47.12 112.07 46.75 103.23 27.67"/>
            <polygon class="cls-9" points="101.77 28.04 100.56 26.58 109.39 45.66 110.6 47.12 101.77 28.04"/>
          </g>
          <g>
            <polygon class="cls-9" points="99.41 29.63 101.27 29.31 102.07 30.29 101.35 32.27 104.16 63.3 103.29 66.26 102.48 65.29 99.41 29.63"/>
            <polygon class="cls-8" points="100.21 30.6 102.07 30.29 105.15 65.94 103.29 66.26 100.21 30.6"/>
          </g>
          <g>
            <polygon class="cls-8" points="97.22 28.81 96.02 27.35 94.46 27.61 88.26 34.85 70.57 52.09 70.23 53.82 71.78 53.56 97.22 28.81"/>
            <polygon class="cls-9" points="95.67 29.07 94.46 27.61 69.02 52.36 70.23 53.82 95.67 29.07"/>
          </g>
          <g>
            <polygon class="cls-9" points="97.85 27.56 95.78 25.2 94.75 25.15 94.03 27.09 96.08 29.57 97.85 27.56"/>
            <polygon class="cls-12" points="100.74 30.1 99.77 30.94 96.08 29.57 96.8 27.62 101.04 28.54 100.74 30.1"/>
            <polygon class="cls-8" points="102.94 30.41 103.66 28.45 102.32 27.53 100.49 28.99 99.77 30.94 102.94 30.41"/>
            <polygon class="cls-6" points="100.49 28.99 103.66 28.45 104.45 26.33 102.41 23.85 98.72 22.48 95.55 23.01 94.75 25.15 96.8 27.62 100.49 28.99"/>
          </g>
          <g>
            <polygon class="cls-9" points="103.51 13.52 102.28 12.12 101.67 12.09 96.72 25.38 97.94 26.86 103.51 13.52"/>
            <polygon class="cls-12" points="105.23 15.04 100.13 27.67 97.94 26.86 102.89 13.56 105.41 14.1 105.23 15.04"/>
            <polygon class="cls-8" points="102.01 27.35 106.97 14.05 106.17 13.51 105.07 14.38 100.13 27.67 102.01 27.35"/>
            <polygon class="cls-6" points="105.07 14.38 106.97 14.05 107.43 12.8 106.22 11.32 104.03 10.5 102.14 10.83 101.67 12.09 102.89 13.56 105.07 14.38"/>
          </g>
          <g>
            <polygon class="cls-9" points="103.69 9.49 99.83 5.08 97.92 4.97 96.56 8.61 100.39 13.24 103.69 9.49"/>
            <polygon class="cls-12" points="109.08 14.23 107.27 15.8 100.39 13.24 101.74 9.6 109.66 11.31 109.08 14.23"/>
            <polygon class="cls-8" points="113.2 14.8 114.54 11.16 112.04 9.44 108.63 12.16 107.27 15.8 113.2 14.8"/>
            <polygon class="cls-6" points="108.63 12.16 114.54 11.16 116.02 7.18 112.2 2.56 105.31 0 99.4 1 97.92 4.97 101.74 9.6 108.63 12.16"/>
          </g>
        </g>
      </g>
    </g>
  </g>
</svg>