<?xml version="1.0" encoding="UTF-8"?>
<svg xmlns="http://www.w3.org/2000/svg" viewBox="0 0 66.28 239.31">
  <defs>
    <style>
      .cls-1, .cls-2 {
        mix-blend-mode: multiply;
      }

      .cls-1, .cls-3 {
        fill: #e6e6e6;
      }

      .cls-4 {
        fill: #a1e7ff;
      }

      .cls-5 {
        fill: #fff;
      }

      .cls-6 {
        fill: #42a1c7;
      }

      .cls-7 {
        fill: #b3b3b3;
        mix-blend-mode: color-burn;
      }

      .cls-8 {
        isolation: isolate;
      }

      .cls-9 {
        fill: #2e4770;
      }

      .cls-10 {
        fill: #40ff66;
      }
    </style>
  </defs>
  <g class="cls-8">
    <g id="_레이어_2" data-name="레이어 2">
      <g id="_주사기" data-name="주사기">
        <g>
          <g>
            <path class="cls-5" d="M39.72,41.67c-.27.25-.62.39-.99.37l-1.87-.06c-.76-.02-1.36-.66-1.34-1.43l1.23-37.83c.01-.38.18-.72.44-.97.22-.2.5-.34.81-.37.69-.07,1.33.39,1.48,1.06l1.64,7c.03.12.04.24.04.36l-1.01,30.88c-.01.37-.17.71-.44.97Z"/>
            <path class="cls-9" d="M38.14,2.77l1.64,7-1.01,30.88-1.87-.06,1.23-37.83M36.25.75c-.52.49-.85,1.17-.88,1.93l-1.23,37.83c-.02.73.24,1.45.75,1.98s1.2.85,1.93.87l1.87.06c.76.02,1.47-.26,1.98-.75s.85-1.17.87-1.93l1.01-30.88c0-.24-.02-.49-.07-.72l-1.64-7c-.32-1.35-1.59-2.26-2.97-2.12-.63.06-1.19.33-1.62.73h0Z"/>
          </g>
          <g>
            <path class="cls-4" d="M30.88,67l.51-4.55,2.3-20.49c.11-.97.56-1.88,1.28-2.54.44-.41.97-.72,1.54-.91.45-.15.93-.22,1.41-.2.48.02.95.12,1.4.3,1.49.6,2.5,2.02,2.58,3.63l.96,20.59.21,4.57-12.19-.4Z"/>
            <path class="cls-9" d="M35.91,40.43c.29-.27.64-.48,1.02-.6.29-.1.61-.15.94-.13.33.01.64.08.93.2.97.39,1.66,1.31,1.71,2.41l.96,20.59.14,3.07-9.19-.3.34-3.06,2.3-20.49c.08-.67.39-1.26.85-1.69M34.02,38.41h0s0,0,0,0c-.95.89-1.56,2.1-1.7,3.4l-2.3,20.49-.34,3.06-.33,2.98,3,.1,9.19.3,3,.1-.14-3-.14-3.07-.96-20.59c-.1-2.15-1.45-4.05-3.44-4.85-.6-.24-1.23-.37-1.87-.39-.64-.02-1.28.07-1.89.27-.76.25-1.47.67-2.05,1.21h0Z"/>
          </g>
          <g>
            <path class="cls-4" d="M28.72,75.23l.25-7.69c.03-.9.41-1.73,1.06-2.35s1.51-.94,2.41-.91l9.24.3c1.86.06,3.32,1.62,3.26,3.47l-.25,7.69-15.97-.52Z"/>
            <path class="cls-9" d="M30.98,66.2c.37-.35.87-.55,1.42-.53l9.24.3c1.09.04,1.95.95,1.92,2.05l-.21,6.31-13.2-.43.21-6.31c.02-.55.26-1.03.63-1.38M29.09,64.18c-.93.87-1.46,2.04-1.5,3.31l-.21,6.31-.09,2.77,2.77.09,13.2.43,2.77.09.09-2.77.21-6.31c.04-1.27-.41-2.48-1.28-3.4-.87-.93-2.04-1.46-3.31-1.5l-9.24-.3c-1.27-.04-2.48.41-3.4,1.28h0Z"/>
          </g>
          <g>
            <path class="cls-10" d="M11.42,130.64l1.37-42.17c.14-4.41,2-8.5,5.22-11.52s7.42-4.6,11.84-4.46l13.89.45c4.41.14,8.5,2,11.52,5.22s4.6,7.42,4.46,11.84l-1.37,42.17-46.92-1.53Z"/>
            <path class="cls-9" d="M18.96,77.96c2.83-2.65,6.67-4.22,10.84-4.08l13.89.45c8.36.27,14.91,7.27,14.64,15.62l-1.33,40.79-44.15-1.44,1.33-40.79c.14-4.18,1.95-7.91,4.78-10.56M17.07,75.94c-1.7,1.59-3.05,3.46-4.02,5.56-1.01,2.18-1.56,4.51-1.63,6.92l-1.33,40.79-.09,2.77,2.77.09,44.15,1.44,2.77.09.09-2.77,1.33-40.79c.08-2.42-.32-4.77-1.18-7.01-.83-2.16-2.06-4.12-3.65-5.81-1.59-1.7-3.46-3.05-5.56-4.02-2.18-1.01-4.51-1.56-6.92-1.63l-13.89-.45c-2.42-.08-4.78.32-7.01,1.18-2.16.83-4.12,2.06-5.81,3.65h0Z"/>
          </g>
          <g>
            <rect class="cls-6" x="5.9" y="133.31" width="56.32" height="46.94" transform="translate(-123.76 185.72) rotate(-88.13)"/>
            <path class="cls-9" d="M12.85,129.3l44.15,1.44-1.74,53.52-44.15-1.44,1.74-53.52M10.17,126.45l-.09,2.77-1.74,53.52-.09,2.77,2.77.09,44.15,1.44,2.77.09.09-2.77,1.74-53.52.09-2.77-2.77-.09-44.15-1.44-2.77-.09h0Z"/>
          </g>
          <path class="cls-7" d="M26.72,186.11l-2.77-.09.09-2.77,1.65-50.76h0s.09-2.77.09-2.77l1.33-40.79c.08-2.42.63-4.74,1.63-6.92.97-2.1,2.32-3.97,4.02-5.56s3.65-2.82,5.81-3.65c1.96-.75,4.01-1.15,6.11-1.19-.3-.02-.6-.04-.91-.05l-13.89-.45c-2.42-.08-4.78.32-7.01,1.18-2.16.83-4.12,2.06-5.81,3.65-1.7,1.59-3.05,3.46-4.02,5.56-1.01,2.18-1.56,4.51-1.63,6.92l-1.33,40.79-.09,2.77h0s-1.65,50.76-1.65,50.76l-.09,2.77,2.77.09,44.15,1.44,2.77.09h0l-31.22-1.02Z"/>
          <g>
            <rect class="cls-4" x="11.09" y="200.2" width="42.59" height="18.83" transform="translate(-178.17 235.16) rotate(-88.13)"/>
            <path class="cls-9" d="M25.01,189.45l16.05.52-1.3,39.8-16.05-.52,1.3-39.8M22.33,186.59l-.09,2.77-1.3,39.8-.09,2.77,2.77.09,16.05.52,2.77.09.09-2.77,1.3-39.8.09-2.77-2.77-.09-16.05-.52-2.77-.09h0Z"/>
          </g>
          <path class="cls-5" d="M30.09,91.56l-8.26-.27c-.5-.02-.91.37-.93.87h0c-.02.5.37.91.87.93l8.26.27c.5.02.91-.37.93-.87h0c.02-.5-.37-.91-.87-.93Z"/>
          <path class="cls-5" d="M29.87,98.28l-8.26-.27c-.5-.02-.91.37-.93.87h0c-.02.5.37.91.87.93l8.26.27c.5.02.91-.37.93-.87h0c.02-.5-.37-.91-.87-.93Z"/>
          <path class="cls-5" d="M29.66,105l-8.26-.27c-.5-.02-.91.37-.93.87h0c-.02.5.37.91.87.93l8.26.27c.5.02.91-.37.93-.87h0c.02-.5-.37-.91-.87-.93Z"/>
          <g>
            <path class="cls-4" d="M63.47,190.77c-.88.82-2.02,1.25-3.22,1.21l-54.51-1.78c-1.2-.04-2.31-.54-3.13-1.42-.82-.88-1.25-2.02-1.21-3.22.04-1.2.54-2.31,1.42-3.13s2.02-1.25,3.22-1.21l54.51,1.78c1.2.04,2.31.54,3.13,1.42s1.25,2.02,1.21,3.22c-.04,1.2-.54,2.31-1.42,3.13Z"/>
            <path class="cls-9" d="M3.75,183.45c.58-.54,1.37-.87,2.23-.84l54.51,1.78c1.72.06,3.06,1.49,3.01,3.21h0c-.03.86-.4,1.62-.98,2.17s-1.37.87-2.23.84l-54.51-1.78c-1.72-.06-3.06-1.49-3.01-3.21h0c.03-.86.4-1.62.98-2.17M1.86,181.43c-1.15,1.07-1.81,2.53-1.86,4.1-.05,1.57.51,3.07,1.59,4.21s2.53,1.81,4.1,1.86l54.51,1.78c1.57.05,3.07-.51,4.21-1.59,1.15-1.07,1.81-2.53,1.86-4.1.05-1.57-.51-3.07-1.59-4.21-1.07-1.15-2.53-1.81-4.1-1.86l-54.51-1.78c-1.57-.05-3.07.51-4.21,1.59h0Z"/>
          </g>
          <g>
            <path class="cls-6" d="M8.03,236.35l.05-1.38c.07-2.03.92-3.91,2.4-5.3,1.48-1.39,3.42-2.12,5.45-2.05l31.71,1.03c2.03.07,3.91.92,5.3,2.4,1.39,1.48,2.12,3.42,2.05,5.45l-.05,1.38-46.92-1.53Z"/>
            <path class="cls-9" d="M11.43,230.67c1.16-1.09,2.74-1.73,4.46-1.68l31.71,1.03c3.43.11,6.13,2.99,6.02,6.42l-44.15-1.44h0c.06-1.72.8-3.25,1.96-4.34M9.53,228.65c-1.75,1.64-2.76,3.87-2.84,6.27l-.09,2.77,2.77.09,44.15,1.44,2.77.09.09-2.77c.08-2.4-.78-4.69-2.43-6.44-1.64-1.75-3.87-2.76-6.27-2.84l-31.71-1.03c-2.4-.08-4.69.78-6.44,2.43h0Z"/>
          </g>
          <path class="cls-1" d="M15.97,186.05c.05-1.57.71-3.03,1.86-4.1,1.15-1.07,2.64-1.64,4.21-1.59l-15.97-.52c-1.57-.05-3.07.51-4.21,1.59S.05,183.96,0,185.53c-.05,1.57.51,3.07,1.59,4.21,1.07,1.15,2.53,1.81,4.1,1.86l15.97.52c-1.57-.05-3.03-.71-4.1-1.86s-1.64-2.64-1.59-4.21Z"/>
          <g class="cls-2">
            <g>
              <path class="cls-3" d="M22.67,235.44c.08-2.4,1.09-4.63,2.84-6.27,1.75-1.64,4.04-2.5,6.44-2.43l15.74.51s0,0,0,0l-31.71-1.03c-2.4-.08-4.69.78-6.44,2.43-1.75,1.64-2.76,3.87-2.84,6.27l-.09,2.77,2.77.09,13.2.43.09-2.77Z"/>
              <polygon class="cls-3" points="25.34 238.3 23.56 238.24 53.52 239.22 56.29 239.31 56.29 239.31 25.34 238.3"/>
            </g>
            <g>
              <path class="cls-3" d="M22.67,235.44c.08-2.4,1.09-4.63,2.84-6.27,1.75-1.64,4.04-2.5,6.44-2.43l15.74.51s0,0,0,0l-31.71-1.03c-2.4-.08-4.69.78-6.44,2.43-1.75,1.64-2.76,3.87-2.84,6.27l-.09,2.77,2.77.09,13.2.43.09-2.77Z"/>
              <polygon class="cls-3" points="25.34 238.3 23.56 238.24 53.52 239.22 56.29 239.31 56.29 239.31 25.34 238.3"/>
            </g>
          </g>
          <path class="cls-5" d="M39.49,112.06l-18.31-.6c-.5-.02-.91.37-.93.87h0c-.02.5.37.91.87.93l18.31.6c.5.02.91-.37.93-.87h0c.02-.5-.37-.91-.87-.93Z"/>
          <path class="cls-5" d="M40.37,85.16l-18.31-.6c-.5-.02-.91.37-.93.87h0c-.02.5.37.91.87.93l18.31.6c.5.02.91-.37.93-.87h0c.02-.5-.37-.91-.87-.93Z"/>
          <path class="cls-5" d="M29.22,118.45l-8.26-.27c-.5-.02-.91.37-.93.87h0c-.02.5.37.91.87.93l8.26.27c.5.02.91-.37.93-.87h0c.02-.5-.37-.91-.87-.93Z"/>
          <path class="cls-5" d="M29,125.18l-8.26-.27c-.5-.02-.91.37-.93.87h0c-.02.5.37.91.87.93l8.26.27c.5.02.91-.37.93-.87h0c.02-.5-.37-.91-.87-.93Z"/>
          <path class="cls-5" d="M28.78,131.9l-8.26-.27c-.5-.02-.91.37-.93.87h0c-.02.5.37.91.87.93l8.26.27c.5.02.91-.37.93-.87h0c.02-.5-.37-.91-.87-.93Z"/>
          <path class="cls-5" d="M38.61,138.95l-18.31-.6c-.5-.02-.91.37-.93.87h0c-.02.5.37.91.87.93l18.31.6c.5.02.91-.37.93-.87h0c.02-.5-.37-.91-.87-.93Z"/>
          <path class="cls-5" d="M28.34,145.35l-8.26-.27c-.5-.02-.91.37-.93.87h0c-.02.5.37.91.87.93l8.26.27c.5.02.91-.37.93-.87h0c.02-.5-.37-.91-.87-.93Z"/>
          <path class="cls-5" d="M28.12,152.07l-8.26-.27c-.5-.02-.91.37-.93.87h0c-.02.5.37.91.87.93l8.26.27c.5.02.91-.37.93-.87h0c.02-.5-.37-.91-.87-.93Z"/>
          <path class="cls-5" d="M27.9,158.8l-8.26-.27c-.5-.02-.91.37-.93.87h0c-.02.5.37.91.87.93l8.26.27c.5.02.91-.37.93-.87h0c.02-.5-.37-.91-.87-.93Z"/>
          <path class="cls-5" d="M37.74,165.85l-18.31-.6c-.5-.02-.91.37-.93.87h0c-.02.5.37.91.87.93l18.31.6c.5.02.91-.37.93-.87h0c.02-.5-.37-.91-.87-.93Z"/>
        </g>
      </g>
    </g>
  </g>
</svg>