<?xml version="1.0" encoding="UTF-8"?>
<svg id="_레이어_2" data-name="레이어 2" xmlns="http://www.w3.org/2000/svg" viewBox="0 0 622.74 138.51">
  <defs>
    <style>
      .cls-1 {
        fill: #00fbff;
      }

      .cls-2 {
        fill: #231815;
      }

      .cls-3 {
        fill: #221714;
      }
    </style>
  </defs>
  <g id="_키오_우주" data-name="키오_우주">
    <g>
      <g>
        <path class="cls-1" d="M103.59,138.51h0c-22.82,0-38.98,0-42.23,0-2.9,0-5.65-1.27-7.54-3.48h0S2.37,75.69,2.37,75.69c-3.16-3.73-3.16-9.15,0-12.88.03-.04,4.88-5.62,33.49-38.62C45.62,12.94,53.74,3.57,53.84,3.46,55.74,1.26,58.49,0,61.38,0h236.99c1.04,0,10.47,0,25.21,0h196.57c22.24-.01,37.91,0,41.11,0,2.93,0,5.69,1.29,7.59,3.52,1.91,2.21,47.97,55.37,51.01,58.71.75.75,1.41,1.7,1.89,2.75,2.72,5.85-.75,9.85-3.29,12.78l-20.02,23.08c-12.69,14.63-28.49,32.84-29.54,34.07-1.88,2.27-4.68,3.59-7.66,3.59h-236.99c-1.02,0-10.01,0-24.14,0H103.59ZM61.38,3.99c-1.74,0-3.39.75-4.53,2.07-.08.09-8.21,9.47-17.99,20.74C24.11,43.82,5.6,65.17,5.4,65.4c-1.89,2.23-1.89,5.48,0,7.72.18.21,51.14,58.97,51.43,59.3,1.14,1.33,2.79,2.09,4.54,2.1,3.25,0,19.4,0,42.22,0h196.53c14.13-.01,23.13-.01,24.15,0h236.98c1.79,0,3.47-.79,4.61-2.17,1.08-1.26,16.88-19.48,29.58-34.11l.16-.19,19.86-22.89c2.69-3.1,4.21-5.22,2.68-8.49-.29-.63-.69-1.2-1.17-1.69-3.2-3.52-49.18-56.58-51.15-58.86-1.15-1.36-2.81-2.13-4.57-2.13-3.2,0-18.87,0-41.1,0h-196.57c-14.75.01-24.18.01-25.22,0H61.38Z"/>
        <path class="cls-1" d="M612.71,69.19c-.04.15-51.46-59.2-51.47-59.21-13.72-.02-257.49.02-262.87,0,0,0-236.99,0-236.99,0-.06.07-51.51,59.39-51.41,59.28-.1-.11,51.35,59.21,51.41,59.28,13.72.02,257.49-.02,262.87,0,0,0,236.99,0,236.99,0,.09-.15,51.53-59.39,51.47-59.35Z"/>
        <g>
          <path class="cls-3" d="M96.93,67.28H27.72c-.82,0-1.49-.67-1.49-1.49s.67-1.49,1.49-1.49h69.2c.82,0,1.49.67,1.49,1.49s-.67,1.49-1.49,1.49Z"/>
          <path class="cls-3" d="M595.01,67.28h-69.2c-.82,0-1.49-.67-1.49-1.49s.67-1.49,1.49-1.49h69.2c.82,0,1.49.67,1.49,1.49s-.67,1.49-1.49,1.49Z"/>
        </g>
      </g>
      <g>
        <path class="cls-2" d="M301.75,78.48v11.09h-21.86v9.27h-13.05v-9.27h-21.86v-11.09h56.77ZM247.07,57.79c0-4.83,1.51-8.51,4.54-11.06,3.02-2.54,7.38-3.82,13.08-3.82h17.36c5.7,0,10.06,1.27,13.08,3.82s4.54,6.23,4.54,11.06v1.7c0,4.83-1.5,8.52-4.5,11.06-3,2.54-7.37,3.82-13.12,3.82h-17.36c-5.74,0-10.11-1.27-13.12-3.82-3-2.54-4.5-6.23-4.5-11.06v-1.7ZM268.01,63.27h10.7c5.26,0,7.9-1.46,7.9-4.37v-.52c0-2.91-2.63-4.37-7.9-4.37h-10.7c-5.26,0-7.9,1.46-7.9,4.37v.52c0,2.92,2.63,4.37,7.9,4.37Z"/>
        <path class="cls-2" d="M320.98,76.52h56.77v11.09h-21.86v11.22h-13.05v-11.22h-21.86v-11.09ZM322.55,61.18c7.35-.17,12.57-.8,15.66-1.89,3.09-1.09,4.63-2.63,4.63-4.63v-.98h-19.58v-10.77h52.2v10.77h-19.58v.72c0,1.3-.13,2.54-.39,3.72,1.7.7,4.59,1.32,8.68,1.86s8.31.9,12.66,1.08l-1.7,10.96c-6.18-.39-11.28-1-15.3-1.83-4.02-.83-7.56-1.96-10.6-3.39-5.39,3.39-14.29,5.22-26.69,5.48v-11.09Z"/>
      </g>
    </g>
  </g>
</svg>