<?xml version="1.0" encoding="UTF-8"?>
<svg id="_레이어_2" data-name="레이어 2" xmlns="http://www.w3.org/2000/svg" viewBox="0 0 622.74 138.51">
  <defs>
    <style>
      .cls-1 {
        fill: #00fbff;
      }

      .cls-2 {
        fill: #231815;
      }

      .cls-3 {
        fill: #221714;
      }
    </style>
  </defs>
  <g id="_키오_탐험대출발" data-name="키오_탐험대출발">
    <g>
      <g>
        <path class="cls-1" d="M103.59,138.51h0c-22.82,0-38.98,0-42.23,0-2.9,0-5.65-1.27-7.54-3.47h0S2.37,75.69,2.37,75.69c-3.16-3.73-3.16-9.15,0-12.88.03-.04,3.83-4.42,28.94-33.38C42.95,16.02,53.7,3.62,53.84,3.46,55.74,1.26,58.49,0,61.38,0h236.99c1.04,0,10.47,0,25.21,0h196.57c22.23-.01,37.91,0,41.11,0,2.93,0,5.69,1.29,7.59,3.52,2.27,2.63,47.93,55.32,51.01,58.71.75.75,1.41,1.7,1.9,2.75,2.72,5.85-.75,9.85-3.29,12.78l-20.02,23.08c-12.69,14.63-28.49,32.84-29.54,34.07-1.88,2.27-4.68,3.59-7.66,3.59h-236.99c-1.02,0-10.01,0-24.14,0H103.59ZM61.38,3.99c-1.74,0-3.39.76-4.53,2.07-.09.1-10.87,12.53-22.53,25.98-13.75,15.86-28.74,33.14-28.92,33.35-1.89,2.23-1.89,5.48,0,7.72.18.21,51.14,58.97,51.43,59.3,1.14,1.33,2.79,2.09,4.54,2.1,3.25,0,19.41,0,42.22,0h196.52c14.13-.01,23.13-.01,24.14,0h236.98c1.79,0,3.47-.79,4.61-2.17,1.08-1.26,16.88-19.48,29.58-34.11l.16-.19,19.86-22.89c2.69-3.1,4.21-5.22,2.68-8.49-.29-.63-.68-1.2-1.17-1.69-3.26-3.58-50.68-58.33-51.15-58.86-1.15-1.36-2.81-2.13-4.57-2.13-3.19,0-18.87,0-41.1,0h-196.57c-14.75.01-24.18.01-25.22,0H61.38Z"/>
        <path class="cls-1" d="M612.71,69.19c-.04.15-51.46-59.2-51.47-59.21-13.72-.02-257.49.02-262.87,0,0,0-236.99,0-236.99,0-.06.07-51.51,59.39-51.41,59.28-.1-.11,51.35,59.21,51.41,59.28,13.72.02,257.49-.02,262.87,0,0,0,236.99,0,236.99,0,.09-.15,51.53-59.39,51.47-59.35Z"/>
        <g>
          <path class="cls-3" d="M96.93,67.28H27.72c-.82,0-1.49-.67-1.49-1.49s.67-1.49,1.49-1.49h69.2c.82,0,1.49.67,1.49,1.49s-.67,1.49-1.49,1.49Z"/>
          <path class="cls-3" d="M595.01,67.28h-69.2c-.82,0-1.49-.67-1.49-1.49s.67-1.49,1.49-1.49h69.2c.82,0,1.49.67,1.49,1.49s-.67,1.49-1.49,1.49Z"/>
        </g>
      </g>
      <g>
        <path class="cls-2" d="M157.36,42.91h33.93v9.27h-19.05c-.35.83-.65,1.65-.91,2.48h19.31v6.85h-19.64c.35,1.04,1.21,1.77,2.58,2.19,1.37.41,3.56.62,6.56.62,3.87,0,7.83-.26,11.88-.78l1.24,8.87c-1.39.39-3.23.71-5.51.95-2.28.24-4.51.36-6.69.36-5.48,0-9.93-.4-13.34-1.21-3.42-.8-5.95-2.08-7.6-3.82-1.65-1.74-2.48-4.05-2.48-6.92,0-3.7.8-6.89,2.41-9.59h-2.67v-9.27ZM160.3,75.87h50.24v20.62c-2.61.96-6.16,1.7-10.64,2.22-4.48.52-9.4.78-14.75.78s-10.07-.27-14.42-.82c-4.35-.54-7.83-1.27-10.44-2.19v-20.62ZM177.62,89.24c2.37.22,4.88.33,7.54.33s5.29-.11,7.8-.33c2.5-.22,4.01-.43,4.54-.65v-3.13h-24.14v3.13c.48.22,1.9.43,4.27.65ZM197.49,41.61h13.05v9.53h5.87v10.96h-5.87v11.16h-13.05v-31.65Z"/>
        <path class="cls-2" d="M261.77,63.66h-4.83v-9.4h-2.74c1.04,1.83,1.57,3.96,1.57,6.39s-.63,4.7-1.89,6.66c-1.26,1.96-3.13,3.49-5.61,4.6s-5.48,1.66-9,1.66-6.53-.55-9-1.66-4.35-2.64-5.61-4.6c-1.26-1.96-1.89-4.18-1.89-6.66s.52-4.57,1.57-6.39h-3.65v-10.38h12.07v-3.92h13.05v3.92h12.01v9.46h3.98v-11.75h13.05v31.65h-13.05v-9.59ZM224.58,75.87h50.24v20.62c-2.61.96-6.16,1.7-10.64,2.22-4.48.52-9.4.78-14.75.78s-10.07-.27-14.42-.82c-4.35-.54-7.83-1.27-10.44-2.19v-20.62ZM236.74,61.74c.67.76,1.51,1.14,2.51,1.14s1.84-.38,2.51-1.14c.67-.76,1.01-1.82,1.01-3.17s-.34-2.4-1.01-3.17c-.67-.76-1.51-1.14-2.51-1.14s-1.84.38-2.51,1.14c-.67.76-1.01,1.82-1.01,3.17s.34,2.4,1.01,3.17ZM241.9,89.24c2.37.22,4.88.33,7.54.33s5.3-.11,7.8-.33c2.5-.22,4.01-.43,4.53-.65v-3.13h-24.14v3.13c.48.22,1.9.43,4.27.65Z"/>
        <path class="cls-2" d="M283.31,42.91h25.45v11.09h-11.61c-.96,6.48-1.44,13.49-1.44,21.01,0,2.7.27,4.82.82,6.36.54,1.54,1.42,2.65,2.64,3.33,1.22.67,2.87,1.01,4.96,1.01,1.61,0,3.17-.22,4.7-.65l.59,10.7c-.91.3-2.09.55-3.52.75-1.44.2-2.81.29-4.11.29-6.22,0-10.81-1.61-13.77-4.83-2.96-3.22-4.44-8.55-4.44-15.99,0-3.57.16-7.3.49-11.19.33-3.89.75-7.49,1.27-10.8h-2.02v-11.09ZM326.05,72.54h-3.98v26.04h-10.44v-56.7h10.44v19.71h3.98v-19.97h11.75v57.22h-11.75v-26.3Z"/>
        <path class="cls-2" d="M358.35,98.87c-3.83-.85-6.47-2.08-7.93-3.69-1.46-1.61-2.19-3.72-2.19-6.33v-5.35h38.69v-2.09h-38.56v-6.53h19.44v-2.94h-21.86v-8.61h56.77v8.61h-21.86v2.94h19.12v15.07h-38.69v.46c0,.61,1.05,1.08,3.16,1.4,2.11.33,5.82.49,11.12.49,9.92,0,18.16-.24,24.73-.72v7.63c-5.96.61-14.53.91-25.71.91-7,0-12.42-.42-16.25-1.27ZM347.52,53.62c7.61-.04,12.9-.21,15.86-.49,2.96-.28,4.44-.69,4.44-1.21v-.46h-19.58v-7.9h19.58v-3.59h13.05v3.59h19.58v7.9h-19.58v1.3c2.13.35,5.09.64,8.87.88,3.78.24,7.72.4,11.81.49l-.98,7.9c-5.92-.22-10.9-.6-14.94-1.14-4.04-.54-7.76-1.25-11.16-2.12-5.13,1.74-14.12,2.7-26.95,2.87v-8.03Z"/>
        <path class="cls-2" d="M410.24,42.26h13.05v4.44h7.18v-4.44h12.4v26.3c-5.52,1.87-10.96,2.81-16.31,2.81s-10.79-.93-16.31-2.81v-26.3ZM412,83.5h37.39v-2.15h-37.26v-7.18h50.31v16.12h-37.39v.52c0,.43.33.78.98,1.04.65.26,1.97.47,3.95.62s4.88.23,8.71.23c9.83,0,17.86-.44,24.08-1.3v7.44c-5.96.87-14.31,1.3-25.06,1.3-7.83,0-13.5-.3-17-.91-3.5-.61-5.83-1.68-6.98-3.2-1.15-1.52-1.73-3.98-1.73-7.37v-5.15ZM426.88,61.51c1.22,0,2.42-.22,3.59-.65v-4.96h-7.18v4.96c1.17.43,2.37.65,3.59.65ZM449.39,41.61h13.05v9.53h5.87v10.96h-5.87v9.98h-13.05v-30.47Z"/>
      </g>
    </g>
  </g>
</svg>