<?xml version="1.0" encoding="UTF-8"?>
<svg id="_레이어_2" data-name="레이어 2" xmlns="http://www.w3.org/2000/svg" viewBox="0 0 1386.1 401.75">
  <defs>
    <style>
      .cls-1 {
        fill: #00fbff;
      }
    </style>
  </defs>
  <g id="_키오_키보드" data-name="키오_키보드">
    <path class="cls-1" d="M971.57,230.01v-29.01h-13.34v-11.8h13.34v-22.19h14.05v63h-14.05Z"/>
    <g>
      <path class="cls-1" d="M209.8,80.5c-4.73.56-9.79.84-15.17.84s-10.36-.28-14.92-.84c-4.57-.56-8.39-1.29-11.48-2.18v-40.67h14.05v10.18h25.28v-10.18h14.05v40.67c-3.14.89-7.07,1.62-11.8,2.18ZM187.22,69.44c2.32.21,4.79.32,7.41.32s5.19-.11,7.69-.32,4.25-.46,5.23-.74v-9.27h-25.28v9.27c.98.28,2.63.53,4.95.74Z"/>
      <path class="cls-1" d="M236.04,114.75h-86.15c-7.88,0-14.3-6.41-14.3-14.3V14.3c0-7.88,6.41-14.3,14.3-14.3h86.15c7.88,0,14.3,6.41,14.3,14.3v86.15c0,7.88-6.41,14.3-14.3,14.3ZM149.89,4.09c-5.63,0-10.21,4.58-10.21,10.21v86.15c0,5.63,4.58,10.21,10.21,10.21h86.15c5.63,0,10.21-4.58,10.21-10.21V14.3c0-5.63-4.58-10.21-10.21-10.21h-86.15Z"/>
    </g>
    <g>
      <path class="cls-1" d="M308.06,67.43c3.02-1.26,5.22-3.11,6.6-5.55,1.38-2.43,2.07-5.59,2.07-9.48v-2.46h-20.02v-11.59h54.08v11.59h-20.02v1.47c0,4.21-.49,7.98-1.48,11.31,2.11,1.64,5.23,3.08,9.38,4.32,4.14,1.24,8.67,2.07,13.59,2.49l-1.83,12.08c-6.65-.61-12.01-1.58-16.08-2.92-4.07-1.33-7.82-3.22-11.24-5.65-5.62,5.48-14.68,8.43-27.18,8.85v-12.22c5.06-.23,9.1-.98,12.12-2.25Z"/>
      <path class="cls-1" d="M362.24,114.75h-86.15c-7.88,0-14.3-6.41-14.3-14.3V14.3c0-7.88,6.41-14.3,14.3-14.3h86.15c7.88,0,14.3,6.41,14.3,14.3v86.15c0,7.88-6.41,14.3-14.3,14.3ZM276.09,4.09c-5.63,0-10.21,4.58-10.21,10.21v86.15c0,5.63,4.58,10.21,10.21,10.21h86.15c5.63,0,10.21-4.58,10.21-10.21V14.3c0-5.63-4.58-10.21-10.21-10.21h-86.15Z"/>
    </g>
    <g>
      <path class="cls-1" d="M418.66,38.36h53.38v11.94h-37.5c-.98,3.51-1.48,7.09-1.48,10.75,0,2.29.41,4.05,1.23,5.27.82,1.22,2.07,2.06,3.76,2.53s3.98.7,6.88.7c5.06,0,9.68-.2,13.87-.6,4.19-.4,8.6-1.02,13.24-1.86v12.22c-4.59.75-8.98,1.27-13.17,1.58-4.19.3-9.77.46-16.75.46-7.73,0-13.51-1.42-17.35-4.25-3.84-2.83-5.76-7.22-5.76-13.17,0-4.26.58-8.8,1.76-13.62h-2.11v-11.94Z"/>
      <path class="cls-1" d="M488.43,114.75h-86.15c-7.88,0-14.3-6.41-14.3-14.3V14.3c0-7.88,6.41-14.3,14.3-14.3h86.15c7.88,0,14.3,6.41,14.3,14.3v86.15c0,7.88-6.41,14.3-14.3,14.3ZM402.28,4.09c-5.63,0-10.21,4.58-10.21,10.21v86.15c0,5.63,4.58,10.21,10.21,10.21h86.15c5.63,0,10.21-4.58,10.21-10.21V14.3c0-5.63-4.58-10.21-10.21-10.21h-86.15Z"/>
    </g>
    <g>
      <path class="cls-1" d="M582.63,67.89c.56-5.83.84-11.69.84-17.59h-38.7v-11.94h52.75v16.43c0,4.17-.32,9.28-.95,15.35-.63,6.06-1.39,10.62-2.28,13.66l-13.91-.91c.94-4.17,1.69-9.17,2.25-15Z"/>
      <path class="cls-1" d="M614.63,114.75h-86.15c-7.88,0-14.3-6.41-14.3-14.3V14.3c0-7.88,6.41-14.3,14.3-14.3h86.15c7.88,0,14.3,6.41,14.3,14.3v86.15c0,7.88-6.41,14.3-14.3,14.3ZM528.48,4.09c-5.63,0-10.21,4.58-10.21,10.21v86.15c0,5.63,4.58,10.21,10.21,10.21h86.15c5.63,0,10.21-4.58,10.21-10.21V14.3c0-5.63-4.58-10.21-10.21-10.21h-86.15Z"/>
    </g>
    <g>
      <path class="cls-1" d="M686.23,63.22c3.25-3.18,4.88-8.24,4.88-15.17v-11.1h14.75v9.41c0,1.97-.09,3.7-.28,5.2,1.64,4.68,4.5,8.53,8.57,11.55s8.68,4.88,13.84,5.58l-1.83,12.78c-5.9-.75-10.96-2.31-15.17-4.67-4.21-2.36-7.77-5.51-10.68-9.45-2.81,4.35-6.64,7.77-11.48,10.25-4.85,2.48-10.57,3.86-17.17,4.14v-12.92c6.46-.56,11.32-2.43,14.57-5.62Z"/>
      <path class="cls-1" d="M740.82,114.75h-86.15c-7.88,0-14.3-6.41-14.3-14.3V14.3c0-7.88,6.41-14.3,14.3-14.3h86.15c7.88,0,14.3,6.41,14.3,14.3v86.15c0,7.88-6.41,14.3-14.3,14.3ZM654.67,4.09c-5.63,0-10.21,4.58-10.21,10.21v86.15c0,5.63,4.58,10.21,10.21,10.21h86.15c5.63,0,10.21-4.58,10.21-10.21V14.3c0-5.63-4.58-10.21-10.21-10.21h-86.15Z"/>
    </g>
    <g>
      <path class="cls-1" d="M795.09,64.85h10.89v-18.75h13.34v18.75h12.64v-18.75h13.34v18.75h10.89v11.94h-61.1v-11.94Z"/>
      <path class="cls-1" d="M867.02,114.75h-86.15c-7.88,0-14.3-6.41-14.3-14.3V14.3c0-7.88,6.41-14.3,14.3-14.3h86.15c7.88,0,14.3,6.41,14.3,14.3v86.15c0,7.88-6.41,14.3-14.3,14.3ZM780.87,4.09c-5.63,0-10.21,4.58-10.21,10.21v86.15c0,5.63,4.58,10.21,10.21,10.21h86.15c5.63,0,10.21-4.58,10.21-10.21V14.3c0-5.63-4.58-10.21-10.21-10.21h-86.15Z"/>
    </g>
    <g>
      <path class="cls-1" d="M917.03,90.63v-17.07h-13.34v-11.8h13.34v-9.27h-13.34v-11.8h13.34v-13.06h14.05v63h-14.05Z"/>
      <path class="cls-1" d="M961.81,114.75h-86.15c-7.88,0-14.3-6.41-14.3-14.3V14.3c0-7.88,6.41-14.3,14.3-14.3h86.15c7.88,0,14.3,6.41,14.3,14.3v86.15c0,7.88-6.41,14.3-14.3,14.3ZM875.65,4.09c-5.63,0-10.21,4.58-10.21,10.21v86.15c0,5.63,4.58,10.21,10.21,10.21h86.15c5.63,0,10.21-4.58,10.21-10.21V14.3c0-5.63-4.58-10.21-10.21-10.21h-86.15Z"/>
    </g>
    <g>
      <path class="cls-1" d="M1066.89,27.63h14.05v13.06h13.34v11.8h-13.34v9.27h13.34v11.8h-13.34v17.07h-14.05V27.63Z"/>
      <path class="cls-1" d="M1119.41,114.75h-86.15c-7.88,0-14.3-6.41-14.3-14.3V14.3c0-7.88,6.41-14.3,14.3-14.3h86.15c7.88,0,14.3,6.41,14.3,14.3v86.15c0,7.88-6.41,14.3-14.3,14.3ZM1033.26,4.09c-5.63,0-10.21,4.58-10.21,10.21v86.15c0,5.63,4.58,10.21,10.21,10.21h86.15c5.63,0,10.21-4.58,10.21-10.21V14.3c0-5.63-4.58-10.21-10.21-10.21h-86.15Z"/>
    </g>
    <g>
      <path class="cls-1" d="M1204.51,61.62h-3.93v28.73h-11.24V27.91h11.24v21.91h3.93v-22.19h11.94v63h-11.94v-29.01Z"/>
      <path class="cls-1" d="M1245.6,114.75h-86.15c-7.88,0-14.3-6.41-14.3-14.3V14.3c0-7.88,6.41-14.3,14.3-14.3h86.15c7.88,0,14.3,6.41,14.3,14.3v86.15c0,7.88-6.41,14.3-14.3,14.3ZM1159.45,4.09c-5.63,0-10.21,4.58-10.21,10.21v86.15c0,5.63,4.58,10.21,10.21,10.21h86.15c5.63,0,10.21-4.58,10.21-10.21V14.3c0-5.63-4.58-10.21-10.21-10.21h-86.15Z"/>
    </g>
    <g>
      <path class="cls-1" d="M1306.73,49.82h12.57v-21.91h11.24v62.44h-11.24v-28.73h-12.57v-11.8ZM1333.77,27.63h11.94v63h-11.94V27.63Z"/>
      <path class="cls-1" d="M1371.8,114.75h-86.15c-7.88,0-14.3-6.41-14.3-14.3V14.3c0-7.88,6.41-14.3,14.3-14.3h86.15c7.88,0,14.3,6.41,14.3,14.3v86.15c0,7.88-6.41,14.3-14.3,14.3ZM1285.65,4.09c-5.63,0-10.21,4.58-10.21,10.21v86.15c0,5.63,4.58,10.21,10.21,10.21h86.15c5.63,0,10.21-4.58,10.21-10.21V14.3c0-5.63-4.58-10.21-10.21-10.21h-86.15Z"/>
    </g>
    <g>
      <path class="cls-1" d="M193.04,180.27h53.38v39.96c-8.15,2.01-17.09,3.02-26.83,3.02-5.24,0-9.99-.26-14.22-.77-4.24-.52-8.35-1.26-12.33-2.25v-39.96ZM219.94,211.66c4.21,0,8.36-.35,12.43-1.05v-18.75h-25.28v18.75c3.98.7,8.26,1.05,12.85,1.05Z"/>
      <path class="cls-1" d="M262.01,257.87h-86.15c-7.88,0-14.3-6.41-14.3-14.3v-86.15c0-7.88,6.41-14.3,14.3-14.3h86.15c7.88,0,14.3,6.41,14.3,14.3v86.15c0,7.88-6.41,14.3-14.3,14.3ZM175.86,147.21c-5.63,0-10.21,4.58-10.21,10.21v86.15c0,5.63,4.58,10.21,10.21,10.21h86.15c5.63,0,10.21-4.58,10.21-10.21v-86.15c0-5.63-4.58-10.21-10.21-10.21h-86.15Z"/>
    </g>
    <g>
      <path class="cls-1" d="M331.29,221.64c-3.93-1.17-6.81-3.29-8.64-6.36-1.83-3.07-2.74-7.5-2.74-13.31v-22.41h14.05v19.38c0,3.98.46,6.83,1.37,8.53.91,1.71,2.42,2.8,4.53,3.27,2.11.47,5.62.7,10.54.7,6.74,0,14.37-.47,22.9-1.41v12.08c-8.76.84-17.33,1.26-25.71,1.26-6.93,0-12.36-.59-16.29-1.76Z"/>
      <path class="cls-1" d="M388.21,257.87h-86.15c-7.88,0-14.3-6.41-14.3-14.3v-86.15c0-7.88,6.41-14.3,14.3-14.3h86.15c7.88,0,14.3,6.41,14.3,14.3v86.15c0,7.88-6.41,14.3-14.3,14.3ZM302.05,147.21c-5.63,0-10.21,4.58-10.21,10.21v86.15c0,5.63,4.58,10.21,10.21,10.21h86.15c5.63,0,10.21-4.58,10.21-10.21v-86.15c0-5.63-4.58-10.21-10.21-10.21h-86.15Z"/>
    </g>
    <g>
      <path class="cls-1" d="M454.94,219.98c-3.19-1.62-5.62-3.87-7.3-6.78s-2.53-6.23-2.53-9.97v-4.64c0-3.75.85-7.07,2.56-9.97,1.71-2.9,4.15-5.16,7.34-6.78,3.18-1.62,6.91-2.42,11.17-2.42h12.36c4.26,0,7.98.81,11.17,2.42,3.18,1.62,5.63,3.88,7.34,6.78,1.71,2.9,2.56,6.23,2.56,9.97v4.64c0,3.75-.84,7.07-2.53,9.97s-4.12,5.16-7.3,6.78c-3.18,1.62-6.93,2.42-11.24,2.42h-12.36c-4.31,0-8.05-.81-11.24-2.42ZM462.11,208.32c1.97,1.43,4.52,2.14,7.66,2.14h5.2c3.14,0,5.69-.71,7.66-2.14,1.97-1.43,2.95-3.34,2.95-5.72v-3.37c0-2.39-.98-4.3-2.95-5.72-1.97-1.43-4.52-2.14-7.66-2.14h-5.2c-3.14,0-5.69.71-7.66,2.14-1.97,1.43-2.95,3.34-2.95,5.72v3.37c0,2.39.98,4.3,2.95,5.72Z"/>
      <path class="cls-1" d="M514.4,257.87h-86.15c-7.88,0-14.3-6.41-14.3-14.3v-86.15c0-7.88,6.41-14.3,14.3-14.3h86.15c7.88,0,14.3,6.41,14.3,14.3v86.15c0,7.88-6.41,14.3-14.3,14.3ZM428.25,147.21c-5.63,0-10.21,4.58-10.21,10.21v86.15c0,5.63,4.58,10.21,10.21,10.21h86.15c5.63,0,10.21-4.58,10.21-10.21v-86.15c0-5.63-4.58-10.21-10.21-10.21h-86.15Z"/>
    </g>
    <g>
      <path class="cls-1" d="M570.15,195.86h39.33v-6.74h-39.33v-10.89h53.38v27.11h-38.21c-.28,1.17-.42,2.34-.42,3.51,0,1.31.57,2.34,1.72,3.09,1.15.75,3.05,1.12,5.72,1.12,6.32,0,11.88-.14,16.68-.42,4.8-.28,9.75-.72,14.85-1.33v10.89c-5.1.61-10.04,1.05-14.82,1.33-4.78.28-10.7.42-17.77.42-6.42,0-11.42-1.03-15.03-3.09s-5.41-5.17-5.41-9.34c0-1.97.38-4.03,1.12-6.18h-1.83v-9.48Z"/>
      <path class="cls-1" d="M640.6,257.87h-86.15c-7.88,0-14.3-6.41-14.3-14.3v-86.15c0-7.88,6.41-14.3,14.3-14.3h86.15c7.88,0,14.3,6.41,14.3,14.3v86.15c0,7.88-6.41,14.3-14.3,14.3ZM554.44,147.21c-5.63,0-10.21,4.58-10.21,10.21v86.15c0,5.63,4.58,10.21,10.21,10.21h86.15c5.63,0,10.21-4.58,10.21-10.21v-86.15c0-5.63-4.58-10.21-10.21-10.21h-86.15Z"/>
    </g>
    <g>
      <path class="cls-1" d="M696.4,183.71h20.72v-6.11h14.05v6.11h20.72v11.59h-6.18c2.39,3.09,3.58,6.77,3.58,11.03,0,5.76-1.86,10.32-5.58,13.7-3.72,3.37-9.24,5.06-16.54,5.06h-6.04c-7.3,0-12.82-1.69-16.54-5.06s-5.58-7.94-5.58-13.7c0-4.26,1.19-7.94,3.58-11.03h-6.18v-11.59ZM715.44,211.7c1.59,1.62,3.75,2.42,6.46,2.42h4.5c2.71,0,4.87-.81,6.46-2.42,1.59-1.62,2.39-3.71,2.39-6.29s-.8-4.67-2.39-6.29c-1.59-1.62-3.75-2.42-6.46-2.42h-4.5c-2.72,0-4.87.81-6.46,2.42-1.59,1.62-2.39,3.71-2.39,6.29s.8,4.67,2.39,6.29Z"/>
      <path class="cls-1" d="M766.79,257.87h-86.15c-7.88,0-14.3-6.41-14.3-14.3v-86.15c0-7.88,6.41-14.3,14.3-14.3h86.15c7.88,0,14.3,6.41,14.3,14.3v86.15c0,7.88-6.41,14.3-14.3,14.3ZM680.64,147.21c-5.63,0-10.21,4.58-10.21,10.21v86.15c0,5.63,4.58,10.21,10.21,10.21h86.15c5.63,0,10.21-4.58,10.21-10.21v-86.15c0-5.63-4.58-10.21-10.21-10.21h-86.15Z"/>
    </g>
    <g>
      <path class="cls-1" d="M819.06,207.61h23.53v-18.75h14.05v18.75h23.53v11.94h-61.1v-11.94Z"/>
      <path class="cls-1" d="M892.99,257.87h-86.15c-7.88,0-14.3-6.41-14.3-14.3v-86.15c0-7.88,6.41-14.3,14.3-14.3h86.15c7.88,0,14.3,6.41,14.3,14.3v86.15c0,7.88-6.41,14.3-14.3,14.3ZM806.83,147.21c-5.63,0-10.21,4.58-10.21,10.21v86.15c0,5.63,4.58,10.21,10.21,10.21h86.15c5.63,0,10.21-4.58,10.21-10.21v-86.15c0-5.63-4.58-10.21-10.21-10.21h-86.15Z"/>
    </g>
    <path class="cls-1" d="M1019.18,257.87h-86.15c-7.88,0-14.3-6.41-14.3-14.3v-86.15c0-7.88,6.41-14.3,14.3-14.3h86.15c7.88,0,14.3,6.41,14.3,14.3v86.15c0,7.88-6.41,14.3-14.3,14.3ZM933.03,147.21c-5.63,0-10.21,4.58-10.21,10.21v86.15c0,5.63,4.58,10.21,10.21,10.21h86.15c5.63,0,10.21-4.58,10.21-10.21v-86.15c0-5.63-4.58-10.21-10.21-10.21h-86.15Z"/>
    <g>
      <path class="cls-1" d="M1091.71,167h14.05v22.19h13.34v11.8h-13.34v29.01h-14.05v-63Z"/>
      <path class="cls-1" d="M1145.38,257.87h-86.15c-7.88,0-14.3-6.41-14.3-14.3v-86.15c0-7.88,6.41-14.3,14.3-14.3h86.15c7.88,0,14.3,6.41,14.3,14.3v86.15c0,7.88-6.41,14.3-14.3,14.3ZM1059.22,147.21c-5.63,0-10.21,4.58-10.21,10.21v86.15c0,5.63,4.58,10.21,10.21,10.21h86.15c5.63,0,10.21-4.58,10.21-10.21v-86.15c0-5.63-4.58-10.21-10.21-10.21h-86.15Z"/>
    </g>
    <g>
      <path class="cls-1" d="M1221.53,230.01v-63h14.05v63h-14.05Z"/>
      <path class="cls-1" d="M1271.57,257.87h-86.15c-7.88,0-14.3-6.41-14.3-14.3v-86.15c0-7.88,6.41-14.3,14.3-14.3h86.15c7.88,0,14.3,6.41,14.3,14.3v86.15c0,7.88-6.41,14.3-14.3,14.3ZM1185.42,147.21c-5.63,0-10.21,4.58-10.21,10.21v86.15c0,5.63,4.58,10.21,10.21,10.21h86.15c5.63,0,10.21-4.58,10.21-10.21v-86.15c0-5.63-4.58-10.21-10.21-10.21h-86.15Z"/>
    </g>
    <g>
      <path class="cls-1" d="M278.03,355.18h-36.8v-11.94h37.72c.19-3,.28-6.34.28-10.04h-38.7v-11.94h52.75v16.79c0,4.03-.29,9.21-.88,15.56-.59,6.35-1.25,11.06-2,14.15l-13.91-.91c.66-3.7,1.17-7.58,1.54-11.66Z"/>
      <path class="cls-1" d="M309.74,401.06h-86.15c-7.88,0-14.3-6.41-14.3-14.3v-86.15c0-7.88,6.41-14.3,14.3-14.3h86.15c7.88,0,14.3,6.41,14.3,14.3v86.15c0,7.88-6.41,14.3-14.3,14.3ZM223.59,290.39c-5.63,0-10.21,4.58-10.21,10.21v86.15c0,5.63,4.58,10.21,10.21,10.21h86.15c5.63,0,10.21-4.58,10.21-10.21v-86.15c0-5.63-4.58-10.21-10.21-10.21h-86.15Z"/>
    </g>
    <g>
      <path class="cls-1" d="M366.49,321.61h53.38v10.89h-37.29c-.56,2.15-.98,4.38-1.26,6.67h37.86v9.48h-38.21c.33,2.67,1.47,4.6,3.44,5.79,1.97,1.19,4.99,1.79,9.06,1.79,5.81,0,10.52-.11,14.15-.32,3.63-.21,7.83-.62,12.61-1.23v10.96c-5.06.61-9.79,1.04-14.19,1.3-4.4.26-10,.39-16.79.39-7.44,0-13.04-1.73-16.79-5.2-3.75-3.46-5.62-8.29-5.62-14.47,0-4.45.63-9.5,1.9-15.17h-2.25v-10.89Z"/>
      <path class="cls-1" d="M435.93,401.06h-86.15c-7.88,0-14.3-6.41-14.3-14.3v-86.15c0-7.88,6.41-14.3,14.3-14.3h86.15c7.88,0,14.3,6.41,14.3,14.3v86.15c0,7.88-6.41,14.3-14.3,14.3ZM349.78,290.39c-5.63,0-10.21,4.58-10.21,10.21v86.15c0,5.63,4.58,10.21,10.21,10.21h86.15c5.63,0,10.21-4.58,10.21-10.21v-86.15c0-5.63-4.58-10.21-10.21-10.21h-86.15Z"/>
    </g>
    <g>
      <path class="cls-1" d="M506.85,348.51c3.32-2.81,5.17-7.14,5.55-12.99h-19.95v-11.59h20.02v-6.32h14.05v6.32h20.02v11.59h-20.16c-.19,3.79-.87,7.3-2.04,10.54,2.81,1.97,6.33,3.56,10.57,4.78,4.24,1.22,8.6,1.94,13.1,2.18l-1.83,12.08c-6.32-.42-11.61-1.32-15.87-2.7-4.26-1.38-8.36-3.45-12.29-6.22-5.81,5.71-14.58,8.78-26.34,9.2v-12.22c6.79-.28,11.85-1.83,15.17-4.64Z"/>
      <path class="cls-1" d="M562.13,401.06h-86.15c-7.88,0-14.3-6.41-14.3-14.3v-86.15c0-7.88,6.41-14.3,14.3-14.3h86.15c7.88,0,14.3,6.41,14.3,14.3v86.15c0,7.88-6.41,14.3-14.3,14.3ZM475.98,290.39c-5.63,0-10.21,4.58-10.21,10.21v86.15c0,5.63,4.58,10.21,10.21,10.21h86.15c5.63,0,10.21-4.58,10.21-10.21v-86.15c0-5.63-4.58-10.21-10.21-10.21h-86.15Z"/>
    </g>
    <g>
      <path class="cls-1" d="M673.2,322.81v11.59h-54.78v-11.59h54.78ZM619.12,354.2h8.29l-1.41-17.49h14.75l.14,17.49h9.9l.14-17.49h14.75l-1.4,17.49h8.22v11.59h-53.38v-11.59Z"/>
      <path class="cls-1" d="M688.32,401.06h-86.15c-7.88,0-14.3-6.41-14.3-14.3v-86.15c0-7.88,6.41-14.3,14.3-14.3h86.15c7.88,0,14.3,6.41,14.3,14.3v86.15c0,7.88-6.41,14.3-14.3,14.3ZM602.17,290.39c-5.63,0-10.21,4.58-10.21,10.21v86.15c0,5.63,4.58,10.21,10.21,10.21h86.15c5.63,0,10.21-4.58,10.21-10.21v-86.15c0-5.63-4.58-10.21-10.21-10.21h-86.15Z"/>
    </g>
    <g>
      <path class="cls-1" d="M742.42,330.97h61.1v11.94h-11.94v24.02h-12.64v-24.02h-11.94v24.02h-12.64v-24.02h-11.94v-11.94Z"/>
      <path class="cls-1" d="M814.52,401.06h-86.15c-7.88,0-14.3-6.41-14.3-14.3v-86.15c0-7.88,6.41-14.3,14.3-14.3h86.15c7.88,0,14.3,6.41,14.3,14.3v86.15c0,7.88-6.41,14.3-14.3,14.3ZM728.37,290.39c-5.63,0-10.21,4.58-10.21,10.21v86.15c0,5.63,4.58,10.21,10.21,10.21h86.15c5.63,0,10.21-4.58,10.21-10.21v-86.15c0-5.63-4.58-10.21-10.21-10.21h-86.15Z"/>
    </g>
    <g>
      <path class="cls-1" d="M867.89,330.97h61.1v11.94h-23.53v24.02h-14.05v-24.02h-23.53v-11.94Z"/>
      <path class="cls-1" d="M940.71,401.06h-86.15c-7.88,0-14.3-6.41-14.3-14.3v-86.15c0-7.88,6.41-14.3,14.3-14.3h86.15c7.88,0,14.3,6.41,14.3,14.3v86.15c0,7.88-6.41,14.3-14.3,14.3ZM854.56,290.39c-5.63,0-10.21,4.58-10.21,10.21v86.15c0,5.63,4.58,10.21,10.21,10.21h86.15c5.63,0,10.21-4.58,10.21-10.21v-86.15c0-5.63-4.58-10.21-10.21-10.21h-86.15Z"/>
    </g>
    <g>
      <path class="cls-1" d="M993.35,336.71h61.1v11.94h-61.1v-11.94Z"/>
      <path class="cls-1" d="M1066.91,401.06h-86.15c-7.88,0-14.3-6.41-14.3-14.3v-86.15c0-7.88,6.41-14.3,14.3-14.3h86.15c7.88,0,14.3,6.41,14.3,14.3v86.15c0,7.88-6.41,14.3-14.3,14.3ZM980.76,290.39c-5.63,0-10.21,4.58-10.21,10.21v86.15c0,5.63,4.58,10.21,10.21,10.21h86.15c5.63,0,10.21-4.58,10.21-10.21v-86.15c0-5.63-4.58-10.21-10.21-10.21h-86.15Z"/>
    </g>
    <g>
      <path class="cls-1" d="M129.55,345.06l-29.5-37.91c-.6-.78-1.78-.78-2.38,0l-29.5,37.91c-.77.99-.07,2.44,1.19,2.44h13.81c.83,0,1.51.68,1.51,1.51v31.97c0,.83.68,1.51,1.51,1.51h25.31c.83,0,1.51-.68,1.51.18v-31.97c0-2.53.68-3.2,1.51-3.2h13.84c1.26,0,1.96-1.45,1.19-2.44Z"/>
      <path class="cls-1" d="M183.42,401.75H14.3c-7.88,0-14.3-6.41-14.3-14.3v-86.15c0-7.88,6.41-14.3,14.3-14.3h169.12c7.88,0,14.3,6.41,14.3,14.3v86.15c0,7.88-6.41,14.3-14.3,14.3ZM14.3,291.08c-5.63,0-10.21,4.58-10.21,10.21v86.15c0,5.63,4.58,10.21,10.21,10.21h169.12c5.63,0,10.21-4.58,10.21-10.21v-86.15c0-5.63-4.58-10.21-10.21-10.21H14.3Z"/>
    </g>
    <g>
      <path class="cls-1" d="M1370.12,401h-263.35c-7.88,0-14.3-6.41-14.3-14.3v-86.15c0-7.88,6.41-14.3,14.3-14.3h263.35c7.88,0,14.3,6.41,14.3,14.3v86.15c0,7.88-6.41,14.3-14.3,14.3ZM1106.77,290.33c-5.63,0-10.21,4.58-10.21,10.21v86.15c0,5.63,4.58,10.21,10.21,10.21h263.35c5.63,0,10.21-4.58,10.21-10.21v-86.15c0-5.63-4.58-10.21-10.21-10.21h-263.35Z"/>
      <path class="cls-1" d="M1280.9,319.44h-83.42v-.04l-36.15,20.87c-1.91,1.1-1.91,3.86,0,4.97l36.13,20.86v.05h83.43c1.58,0,2.87-1.28,2.87-2.87v-40.97c0-1.58-1.28-2.87-2.87-2.87ZM1239.54,354.9l-4.06-6.71-3.15,6.71h-7.53l6.79-13.12-6.79-11.13h8.03l3.39,5.59,2.98-5.59h7.53l-6.62,11.96,7.45,12.29h-8.03Z"/>
    </g>
  </g>
</svg>