<?xml version="1.0" encoding="UTF-8"?>
<svg id="_레이어_2" data-name="레이어 2" xmlns="http://www.w3.org/2000/svg" viewBox="0 0 982.64 216.76">
  <defs>
    <style>
      .cls-1 {
        fill: #00fbff;
      }

      .cls-2 {
        fill: #231815;
      }

      .cls-3 {
        fill: #221714;
      }
    </style>
  </defs>
  <g id="_키오_다음" data-name="키오_다음">
    <g>
      <g>
        <path class="cls-1" d="M162.69,216.76h0c-36.1,0-61.65,0-66.79-.01-4.26,0-8.28-1.87-11.05-5.09-.61-.69-81.24-93.67-81.38-93.84-4.63-5.46-4.63-13.4,0-18.87.05-.06,12.51-14.43,47.59-54.88C68.78,23.63,84.71,5.27,84.88,5.07,87.66,1.85,91.69.01,95.93.01h374.84c1.61,0,15.84,0,39.88,0l310.91-.02c35.17,0,59.96,0,65.02.01,4.29,0,8.34,1.89,11.12,5.16,3.11,3.59,75.82,87.51,80.71,92.89,1.13,1.14,2.09,2.52,2.8,4.06,3.98,8.57-1.22,14.58-5.02,18.96l-31.41,36.21c-18.02,20.77-45.26,52.16-46.99,54.18-2.76,3.34-6.86,5.27-11.23,5.27h-374.84c-1.46,0-13.59,0-38.18,0l-310.84.02ZM95.93,3.99c-3.08,0-6.01,1.34-8.04,3.68-.14.16-15.75,18.16-33.82,39C31.89,72.25,6.75,101.24,6.5,101.53c-3.36,3.97-3.36,9.74,0,13.72.27.31,80.87,93.25,81.35,93.81,2.02,2.36,4.95,3.71,8.05,3.72,5.14,0,30.69.01,66.78.01l310.84-.02c24.93,0,36.71,0,38.19,0h374.83c3.17,0,6.16-1.4,8.18-3.85,1.62-1.9,24.12-27.83,47.03-54.23l31.41-36.21c3.76-4.34,7.32-8.45,4.42-14.68-.52-1.12-1.22-2.12-2.08-2.99-4.97-5.46-77.72-89.43-80.84-93.04-2.03-2.4-4.98-3.77-8.1-3.77-5.05,0-29.84-.01-65.01-.01l-310.91.02c-24.05,0-38.28,0-39.89,0H95.93Z"/>
        <path class="cls-1" d="M967.97,108.27c-.07.24-81.4-93.64-81.41-93.66-21.7-.04-407.27.03-415.79,0,0,0-374.84,0-374.84,0-.09.11-81.47,93.94-81.31,93.77-.15-.17,81.22,93.66,81.31,93.77,21.7.04,407.27-.03,415.79,0,0,0,374.84,0,374.84,0,.14-.23,81.5-93.94,81.41-93.88Z"/>
        <g>
          <path class="cls-3" d="M152.15,105.26H42.69c-1.3,0-2.35-1.05-2.35-2.35s1.05-2.35,2.35-2.35h109.46c1.3,0,2.35,1.05,2.35,2.35s-1.05,2.35-2.35,2.35Z"/>
          <path class="cls-3" d="M939.97,105.26h-109.46c-1.3,0-2.35-1.05-2.35-2.35s1.05-2.35,2.35-2.35h109.46c1.3,0,2.35,1.05,2.35,2.35s-1.05,2.35-2.35,2.35Z"/>
        </g>
      </g>
      <g>
        <path class="cls-2" d="M387,66.72h53.67v17.54h-26.83c-3.85,10.73-5.78,21.81-5.78,33.23,0,4.27.48,7.62,1.44,10.06.96,2.44,2.53,4.2,4.7,5.26s5.11,1.6,8.82,1.6c3.44,0,6.61-.31,9.5-.93s5.85-1.55,8.88-2.79l3.41,16.72c-2.34,1.31-5.44,2.39-9.29,3.25-3.85.86-7.53,1.29-11.04,1.29-12.66,0-22-2.55-28.02-7.64-6.02-5.09-9.03-13.52-9.03-25.29,0-5.64.58-11.56,1.75-17.75,1.17-6.19,2.68-11.87,4.54-17.03h-6.71v-17.54ZM450.47,64.66h20.64v31.58h9.29v17.34h-9.29v41.59h-20.64v-90.51Z"/>
        <path class="cls-2" d="M506.38,101.92h89.79v16.31h-89.79v-16.31ZM515.67,68.48c3.99-2.54,9.91-3.82,17.75-3.82h35.71c7.84,0,13.76,1.27,17.75,3.82,3.99,2.55,5.99,6.81,5.99,12.8s-1.98,10.25-5.93,12.8c-3.96,2.54-9.89,3.82-17.8,3.82h-35.71c-7.91,0-13.85-1.27-17.8-3.82-3.96-2.54-5.93-6.81-5.93-12.8s2-10.25,5.99-12.8ZM510.51,122.97h81.53v29.31c-4.06,1.24-9.8,2.2-17.24,2.89s-15.41,1.03-23.94,1.03-16.19-.36-23.38-1.08c-7.19-.72-12.85-1.67-16.98-2.84v-29.31ZM538.48,141.29c4.13.17,8.26.26,12.38.26s8.55-.09,12.85-.26c4.3-.17,6.86-.33,7.69-.46v-3.92h-40.25v3.92c.76.14,3.2.29,7.33.46ZM535.07,83.54h32.41c2.48,0,3.72-.72,3.72-2.17s-1.24-2.17-3.72-2.17h-32.41c-2.48,0-3.72.72-3.72,2.17s1.24,2.17,3.72,2.17Z"/>
      </g>
    </g>
  </g>
</svg>