<?xml version="1.0" encoding="UTF-8"?>
<svg id="_레이어_2" data-name="레이어 2" xmlns="http://www.w3.org/2000/svg" viewBox="0 0 622.74 138.51">
  <defs>
    <style>
      .cls-1 {
        fill: #00fbff;
      }

      .cls-2 {
        fill: #231815;
      }

      .cls-3 {
        fill: #221714;
      }
    </style>
  </defs>
  <g id="_키오_인체" data-name="키오_인체">
    <g>
      <g>
        <path class="cls-1" d="M103.59,138.51h0c-22.82,0-38.98,0-42.23,0-2.9,0-5.65-1.27-7.54-3.47h0S2.37,75.69,2.37,75.69c-3.16-3.73-3.16-9.15,0-12.88.03-.04,4.88-5.62,33.49-38.62C45.62,12.94,53.74,3.58,53.84,3.46,55.74,1.26,58.49,0,61.38,0h236.99c1.04,0,10.47,0,25.21,0h196.57c22.23-.01,37.91,0,41.11,0,2.93,0,5.69,1.29,7.59,3.52,1.91,2.21,47.98,55.38,51.01,58.71.75.75,1.41,1.7,1.89,2.75,2.72,5.85-.75,9.85-3.29,12.78l-20.03,23.09c-12.69,14.63-28.49,32.83-29.53,34.06-1.88,2.27-4.68,3.59-7.66,3.59h-236.99c-1.02,0-10.01,0-24.14,0H103.59ZM61.38,3.99c-1.74,0-3.39.76-4.53,2.07-.08.09-8.21,9.47-17.99,20.74C24.11,43.82,5.6,65.17,5.4,65.4c-1.89,2.23-1.89,5.48.01,7.72.18.21,51.14,58.97,51.43,59.3,1.14,1.33,2.79,2.09,4.54,2.1,3.25,0,19.4,0,42.22,0h196.53c14.13-.01,23.13-.01,24.14,0h236.98c1.79,0,3.47-.79,4.61-2.17,1.08-1.26,16.88-19.47,29.57-34.1l20.03-23.09c2.69-3.1,4.21-5.22,2.68-8.49-.29-.63-.68-1.2-1.17-1.68-3.19-3.51-49.17-56.58-51.15-58.86-1.15-1.36-2.81-2.13-4.57-2.13-3.19,0-18.87,0-41.1,0h-196.57c-14.75.01-24.18.01-25.22,0H61.38Z"/>
        <path class="cls-1" d="M612.71,69.19c-.04.15-51.46-59.2-51.47-59.21-13.72-.02-257.49.02-262.87,0,0,0-236.99,0-236.99,0-.06.07-51.51,59.39-51.41,59.28-.1-.11,51.35,59.21,51.41,59.28,13.72.02,257.49-.02,262.87,0,0,0,236.99,0,236.99,0,.09-.15,51.53-59.39,51.47-59.35Z"/>
        <g>
          <path class="cls-3" d="M96.93,67.28H27.72c-.82,0-1.49-.67-1.49-1.49s.67-1.49,1.49-1.49h69.2c.82,0,1.49.67,1.49,1.49s-.67,1.49-1.49,1.49Z"/>
          <path class="cls-3" d="M595.01,67.28h-69.2c-.82,0-1.49-.67-1.49-1.49s.67-1.49,1.49-1.49h69.2c.82,0,1.49.67,1.49,1.49s-.67,1.49-1.49,1.49Z"/>
        </g>
      </g>
      <g>
        <path class="cls-2" d="M246.94,54.86c0-4.18,1.44-7.32,4.31-9.43,2.87-2.11,7-3.16,12.4-3.16s9.53,1.05,12.4,3.16c2.87,2.11,4.31,5.25,4.31,9.43v9.14c0,4.18-1.44,7.32-4.31,9.43-2.87,2.11-7,3.16-12.4,3.16s-9.53-1.05-12.4-3.16c-2.87-2.11-4.31-5.25-4.31-9.43v-9.14ZM260.48,98.15c-3.72-.89-6.39-2.21-8.03-3.95-1.63-1.74-2.45-3.96-2.45-6.66v-8.88h13.05v6.85c0,.78.3,1.4.91,1.86.61.46,1.79.79,3.56,1.01,1.76.22,4.38.33,7.86.33,9.48,0,17.73-.74,24.73-2.22v10.77c-3.52.65-7.46,1.18-11.81,1.6-4.35.41-8.66.62-12.92.62-6.22,0-11.19-.45-14.91-1.34ZM263.9,65.82c1.26,0,2.23-.3,2.9-.91.67-.61,1.01-1.5,1.01-2.67v-5.61c0-1.17-.34-2.07-1.01-2.67-.67-.61-1.64-.91-2.9-.91-2.61,0-3.92,1.2-3.92,3.59v5.61c0,2.39,1.3,3.59,3.92,3.59ZM286.74,41.61h13.05v38.95h-13.05v-38.95Z"/>
        <path class="cls-2" d="M319.48,84.41c2.7-.13,4.83-1.75,6.39-4.86s2.35-8.36,2.35-15.76v-6.46h-7.57v-11.09h7.57v-5.61h11.75v5.61h7.57v11.09h-7.57v4.89c0,1.87-.06,3.7-.2,5.48.65,4.92,1.85,8.83,3.59,11.75,1.74,2.92,3.74,4.63,6,5.16l-2.61,12.2c-2.61-.3-4.88-1.34-6.82-3.1-1.94-1.76-3.6-4.32-4.99-7.67-1.74,3.26-3.93,5.84-6.56,7.73-2.63,1.89-5.6,2.99-8.91,3.29v-12.66ZM344.73,62.88h6.2v-21.01h10.44v56.7h-10.44v-24.73h-6.2v-10.96ZM364.05,41.61h11.75v57.22h-11.75v-57.22Z"/>
      </g>
    </g>
  </g>
</svg>