<?xml version="1.0" encoding="UTF-8"?>
<svg id="_레이어_2" data-name="레이어 2" xmlns="http://www.w3.org/2000/svg" viewBox="0 0 622.74 138.51">
  <defs>
    <style>
      .cls-1 {
        fill: #00fbff;
      }

      .cls-2 {
        fill: #231815;
      }

      .cls-3 {
        fill: #221714;
      }
    </style>
  </defs>
  <g id="_키오_이름수정" data-name="키오_이름수정">
    <g>
      <g>
        <path class="cls-1" d="M103.59,138.51h0c-22.82,0-38.98,0-42.23,0-2.9,0-5.65-1.27-7.54-3.47h0S2.37,75.69,2.37,75.69c-3.16-3.73-3.16-9.15,0-12.88.03-.04,4.88-5.62,33.49-38.62C45.62,12.94,53.74,3.57,53.84,3.46,55.74,1.26,58.49,0,61.38,0h236.99c1.04,0,10.47,0,25.21,0h196.57c22.23-.01,37.91,0,41.11,0,2.93,0,5.69,1.29,7.59,3.52,2.27,2.63,47.92,55.32,51.01,58.71.75.75,1.41,1.7,1.9,2.75,2.72,5.85-.75,9.85-3.29,12.78l-20.02,23.08c-12.69,14.63-28.49,32.84-29.54,34.07-1.88,2.27-4.68,3.59-7.66,3.59h-236.99c-1.02,0-10.01,0-24.14,0H103.59ZM61.38,3.99c-1.74,0-3.39.76-4.53,2.07-.08.09-8.21,9.47-17.99,20.74C24.11,43.82,5.6,65.17,5.4,65.4c-1.89,2.23-1.89,5.48,0,7.72.18.21,51.14,58.97,51.43,59.3,1.14,1.33,2.79,2.09,4.54,2.1,3.25,0,19.41,0,42.22,0h196.53c14.13-.01,23.13-.01,24.14,0h236.98c1.79,0,3.47-.79,4.61-2.17,1.08-1.26,16.88-19.48,29.58-34.11l.16-.19,19.86-22.89c2.69-3.1,4.21-5.22,2.68-8.49-.29-.63-.68-1.2-1.17-1.69-3.27-3.59-50.68-58.33-51.15-58.86-1.15-1.36-2.81-2.13-4.57-2.13-3.19,0-18.87,0-41.1,0h-196.57c-14.75.01-24.18.01-25.22,0H61.38Z"/>
        <path class="cls-1" d="M612.71,69.19c-.04.15-51.46-59.2-51.47-59.21-13.72-.02-257.49.02-262.87,0,0,0-236.99,0-236.99,0-.06.07-51.51,59.39-51.41,59.28-.1-.11,51.35,59.21,51.41,59.28,13.72.02,257.49-.02,262.87,0,0,0,236.99,0,236.99,0,.09-.15,51.53-59.39,51.47-59.35Z"/>
        <g>
          <path class="cls-3" d="M96.93,67.28H27.72c-.82,0-1.49-.67-1.49-1.49s.67-1.49,1.49-1.49h69.2c.82,0,1.49.67,1.49,1.49s-.67,1.49-1.49,1.49Z"/>
          <path class="cls-3" d="M595.01,67.28h-69.2c-.82,0-1.49-.67-1.49-1.49s.67-1.49,1.49-1.49h69.2c.82,0,1.49.67,1.49,1.49s-.67,1.49-1.49,1.49Z"/>
        </g>
      </g>
      <g>
        <path class="cls-2" d="M185.97,56.16c0-4.57,1.44-8.03,4.31-10.38s7-3.52,12.4-3.52,9.53,1.17,12.4,3.52,4.31,5.81,4.31,10.38v27.41c0,4.61-1.44,8.08-4.31,10.41-2.87,2.33-7,3.49-12.4,3.49s-9.53-1.17-12.4-3.49c-2.87-2.33-4.31-5.8-4.31-10.41v-27.41ZM202.93,86.04c1.26,0,2.23-.41,2.9-1.24.67-.83,1.01-2.04,1.01-3.65v-22.58c0-1.61-.34-2.83-1.01-3.65-.67-.83-1.64-1.24-2.9-1.24-2.61,0-3.92,1.63-3.92,4.89v22.58c0,3.26,1.3,4.89,3.92,4.89ZM225.77,41.61h13.05v57.22h-13.05v-57.22Z"/>
        <path class="cls-2" d="M249.99,67.91h56.77v9.66h-56.77v-9.66ZM251.95,50.61h39.15v-1.96h-39.15v-7.05h52.2v15.53h-38.5v.39c0,.44.33.76.98.98.65.22,1.98.38,3.98.49,2,.11,5.05.16,9.13.16,10.22,0,18.47-.06,24.73-.2v6.53c-6.39.13-14.96.2-25.71.2-6.87,0-12.19-.2-15.95-.59s-6.41-1.02-7.93-1.89c-1.52-.87-2.28-2.04-2.28-3.52,0-.78.15-1.63.46-2.54h-1.11v-6.53ZM252.6,79.78h51.55v17.23c-2.57.78-6.2,1.39-10.9,1.83-4.7.43-9.75.65-15.14.65s-10.23-.23-14.78-.69c-4.55-.46-8.12-1.05-10.73-1.79v-17.23ZM270.28,90.58c2.61.11,5.22.16,7.83.16s5.4-.05,8.12-.16,4.34-.21,4.86-.29v-1.89h-25.45v1.89c.48.09,2.02.19,4.63.29Z"/>
        <path class="cls-2" d="M315.97,75.21h56.77v11.09h-21.86v12.53h-13.05v-12.53h-21.86v-11.09ZM317.54,57.79c6.7-.35,11.55-1.38,14.55-3.1,3-1.72,4.5-4.12,4.5-7.21v-5.09h13.7v4.18c0,1.48-.13,2.92-.39,4.31,1.44,1.57,4.3,2.99,8.58,4.27,4.28,1.28,8.73,2.12,13.34,2.51l-1.7,11.75c-6.09-.61-11.14-1.58-15.14-2.9-4-1.33-7.5-3.14-10.5-5.45-2.7,2.61-6.3,4.66-10.8,6.13-4.5,1.48-9.88,2.31-16.15,2.48v-11.88Z"/>
        <path class="cls-2" d="M389.75,60.73c2.2-1.3,3.3-3.11,3.3-5.42v-1.7h-10.77v-10.7h34.58v10.31h6.85v-11.61h13.05v32.3h-13.05v-10.38h-8.74c1.83.74,3.46,1.22,4.89,1.44l-6,10.31c-2.78-.7-5.23-1.7-7.34-3-2.11-1.3-3.99-2.94-5.64-4.89-2.18,2.39-4.94,4.31-8.29,5.74-3.35,1.44-7.18,2.24-11.48,2.41v-12.4c3.57-.3,6.45-1.11,8.65-2.41ZM390.27,78.64c2.54-2.02,6.27-3.03,11.19-3.03h20.62c4.92,0,8.65,1.01,11.19,3.03s3.82,4.99,3.82,8.91-1.27,6.88-3.82,8.91-6.28,3.03-11.19,3.03h-20.62c-4.92,0-8.65-1.01-11.19-3.03s-3.82-4.99-3.82-8.91,1.27-6.88,3.82-8.91ZM402.83,89.31h17.88c2.22,0,3.33-.63,3.33-1.89s-1.11-1.89-3.33-1.89h-17.88c-2.22,0-3.33.63-3.33,1.89s1.11,1.89,3.33,1.89ZM408.87,59.88c1.37,1.17,2.97,2.2,4.8,3.07v-9.33h-7.57v.13c0,.57-.04,1.37-.13,2.41.57,1.3,1.53,2.54,2.9,3.72Z"/>
      </g>
    </g>
  </g>
</svg>