<?xml version="1.0" encoding="UTF-8"?>
<svg id="_레이어_2" data-name="레이어 2" xmlns="http://www.w3.org/2000/svg" viewBox="0 0 622.74 138.51">
  <defs>
    <style>
      .cls-1 {
        fill: #00fbff;
      }

      .cls-2 {
        fill: #231815;
      }

      .cls-3 {
        fill: #221714;
      }
    </style>
  </defs>
  <g id="_키오_해양" data-name="키오_해양">
    <g>
      <g>
        <path class="cls-1" d="M103.59,138.51h0c-22.82,0-38.98,0-42.23,0-2.9,0-5.65-1.27-7.54-3.47h0S2.37,75.69,2.37,75.69c-3.16-3.73-3.16-9.15,0-12.88.03-.04,4.88-5.62,33.49-38.62C45.62,12.94,53.74,3.58,53.84,3.46,55.74,1.26,58.49,0,61.38,0h236.99c1.04,0,10.47,0,25.21,0h196.57c22.23-.01,37.91,0,41.11,0,2.93,0,5.69,1.29,7.59,3.52,2.27,2.63,47.92,55.31,51.01,58.71.75.75,1.41,1.7,1.9,2.75,2.72,5.85-.75,9.85-3.29,12.78l-20.02,23.08c-12.69,14.63-28.49,32.84-29.54,34.07-1.88,2.27-4.68,3.59-7.66,3.59h-236.99c-1.02,0-10.01,0-24.14,0H103.59ZM61.38,3.99c-1.74,0-3.39.76-4.53,2.07-.08.09-8.21,9.47-17.99,20.74C24.11,43.82,5.6,65.17,5.4,65.4c-1.89,2.23-1.89,5.48,0,7.72.18.21,51.14,58.97,51.43,59.3,1.14,1.33,2.79,2.09,4.54,2.1,3.25,0,19.41,0,42.22,0h196.53c14.13-.01,23.13-.01,24.14,0h236.98c1.79,0,3.47-.79,4.61-2.17,1.08-1.26,16.88-19.48,29.58-34.11l.16-.19,19.86-22.89c2.69-3.1,4.21-5.22,2.68-8.49-.29-.63-.68-1.2-1.17-1.69-3.27-3.59-50.68-58.33-51.15-58.86-1.15-1.36-2.81-2.13-4.57-2.13-3.19,0-18.87,0-41.1,0h-196.57c-14.75.01-24.18.01-25.22,0H61.38Z"/>
        <path class="cls-1" d="M612.71,69.19c-.04.15-51.46-59.2-51.47-59.21-13.72-.02-257.49.02-262.87,0,0,0-236.99,0-236.99,0-.06.07-51.51,59.39-51.41,59.28-.1-.11,51.35,59.21,51.41,59.28,13.72.02,257.49-.02,262.87,0,0,0,236.99,0,236.99,0,.09-.15,51.53-59.39,51.47-59.35Z"/>
        <g>
          <path class="cls-3" d="M96.93,67.28H27.72c-.82,0-1.49-.67-1.49-1.49s.67-1.49,1.49-1.49h69.2c.82,0,1.49.67,1.49,1.49s-.67,1.49-1.49,1.49Z"/>
          <path class="cls-3" d="M595.01,67.28h-69.2c-.82,0-1.49-.67-1.49-1.49s.67-1.49,1.49-1.49h69.2c.82,0,1.49.67,1.49,1.49s-.67,1.49-1.49,1.49Z"/>
        </g>
      </g>
      <g>
        <path class="cls-2" d="M244.33,46.24h8.16v-5.61h13.05v5.61h8.16v11.09h-4.63c1.22,1.74,2.06,4.05,2.51,6.92.46,2.87.69,6.57.69,11.09,0,7.35-.97,12.88-2.9,16.57-1.94,3.7-5.38,5.55-10.34,5.55s-8.41-1.85-10.34-5.55c-1.94-3.7-2.9-9.22-2.9-16.57,0-4.52.23-8.22.68-11.09s1.29-5.18,2.51-6.92h-4.63v-11.09ZM257.02,81.18c.15,1.85.41,3.13.78,3.85.37.72.88,1.08,1.53,1.08s1.16-.36,1.53-1.08c.37-.72.63-2,.78-3.85.15-1.85.23-4.51.23-7.99s-.08-6.13-.23-7.96-.41-3.1-.78-3.82c-.37-.72-.88-1.08-1.53-1.08s-1.16.36-1.53,1.08c-.37.72-.63,1.99-.78,3.82s-.23,4.48-.23,7.96.08,6.14.23,7.99ZM288.7,72.54h-3.33v26.04h-10.44v-56.7h10.44v19.71h3.33v-19.97h11.09v57.22h-11.09v-26.3Z"/>
        <path class="cls-2" d="M326.5,70.55c-2.81-2.11-4.21-5.25-4.21-9.43v-6.26c0-4.18,1.41-7.32,4.24-9.43,2.83-2.11,6.87-3.16,12.14-3.16s9.31,1.05,12.14,3.16c2.83,2.11,4.24,5.25,4.24,9.43v6.26c0,4.18-1.4,7.32-4.21,9.43-2.81,2.11-6.86,3.16-12.17,3.16s-9.36-1.05-12.17-3.16ZM328,78.64c2.54-2.02,6.27-3.03,11.19-3.03h20.62c4.92,0,8.65,1.01,11.19,3.03,2.54,2.02,3.82,4.99,3.82,8.91s-1.27,6.88-3.82,8.91c-2.54,2.02-6.28,3.03-11.19,3.03h-20.62c-4.92,0-8.65-1.01-11.19-3.03-2.54-2.02-3.82-4.99-3.82-8.91s1.27-6.88,3.82-8.91ZM338.93,63.21c2.39,0,3.59-1.2,3.59-3.59v-3.26c0-2.39-1.2-3.59-3.59-3.59s-3.59,1.2-3.59,3.59v3.26c0,2.39,1.2,3.59,3.59,3.59ZM340.56,89.31h17.88c2.22,0,3.33-.63,3.33-1.89s-1.11-1.89-3.33-1.89h-17.88c-2.22,0-3.33.63-3.33,1.89s1.11,1.89,3.33,1.89ZM360.79,41.61h13.05v4.31h5.87v9.98h-5.87v3.72h5.87v9.98h-5.87v4.31h-13.05v-32.3Z"/>
      </g>
    </g>
  </g>
</svg>