<?xml version="1.0" encoding="UTF-8"?>
<svg id="_레이어_2" data-name="레이어 2" xmlns="http://www.w3.org/2000/svg" xmlns:xlink="http://www.w3.org/1999/xlink" viewBox="0 0 839.56 471.16">
  <defs>
    <style>
      .cls-1 {
        fill: #5b0014;
      }

      .cls-2 {
        opacity: .17;
      }

      .cls-3 {
        fill: #fff;
        opacity: .5;
      }

      .cls-4 {
        fill: #e14c00;
      }

      .cls-5 {
        fill: none;
      }

      .cls-6 {
        fill: #9c1a20;
      }

      .cls-7 {
        fill: #b0151c;
      }

      .cls-8 {
        clip-path: url(#clippath);
      }
    </style>
    <clipPath id="clippath">
      <rect class="cls-5" x="70.78" y="40.19" width="757.79" height="394.21" rx="38.81" ry="38.81"/>
    </clipPath>
  </defs>
  <g id="_키오_발사" data-name="키오_발사">
    <g>
      <path class="cls-7" d="M70.78,304.05h757.79v136.48c0,16.91-13.73,30.64-30.64,30.64H101.42c-16.91,0-30.64-13.73-30.64-30.64v-136.48h0Z"/>
      <rect class="cls-4" x="70.78" y="40.19" width="757.79" height="394.21" rx="38.81" ry="38.81"/>
      <g class="cls-2">
        <g class="cls-8">
          <path class="cls-3" d="M839.56,32.02L.07,471.16S9.27,10.57.07,1.38s839.49,30.64,839.49,30.64Z"/>
        </g>
      </g>
      <g>
        <path class="cls-1" d="M322.85,180.47h26.1v8.87h14.35v-8.87h24.8v52.59c-11.05,3.74-21.92,5.61-32.63,5.61s-21.58-1.87-32.62-5.61v-52.59ZM326.37,262.95h74.78v-4.31h-74.52v-14.36h100.62v32.23h-74.78v1.04c0,.87.65,1.57,1.96,2.09,1.31.52,3.94.93,7.9,1.24,3.96.3,9.77.46,17.42.46,19.66,0,35.71-.87,48.16-2.61v14.88c-11.92,1.74-28.62,2.61-50.11,2.61-15.66,0-26.99-.61-34-1.83-7-1.22-11.66-3.35-13.96-6.39-2.31-3.05-3.46-7.96-3.46-14.75v-10.31ZM356.13,218.97c2.44,0,4.83-.43,7.18-1.31v-9.92h-14.35v9.92c2.35.87,4.74,1.31,7.18,1.31ZM401.15,179.17h26.1v19.05h11.75v21.92h-11.75v19.97h-26.1v-60.94Z"/>
        <path class="cls-1" d="M462.56,264.78c7.13-1.65,12.92-5.94,17.36-12.85,4.44-6.92,6.66-16.38,6.66-28.38v-42.8h26.1v39.67c0,2.96-.13,5.96-.39,9,1.39,6,3.78,11.7,7.18,17.1,3.39,5.4,7.24,10.01,11.55,13.83,4.31,3.83,8.63,6.53,12.99,8.09l-12.53,21.14c-6.09-2.52-11.42-6-15.99-10.44-4.57-4.44-8.68-10.05-12.33-16.83-4.26,8.18-9.85,14.7-16.77,19.58-6.92,4.87-14.86,7.61-23.82,8.22v-25.32ZM546.48,179.17h26.1v39.93h11.75v21.92h-11.75v52.59h-26.1v-114.45Z"/>
      </g>
      <g>
        <g>
          <path class="cls-6" d="M222.31,242.97c-2.41,0-4.37,1.95-4.37,4.37,0,2.41,1.95,4.37,4.37,4.37s4.37-1.96,4.37-4.37c0-2.41-1.95-4.37-4.37-4.37Z"/>
          <path class="cls-6" d="M222.31,207.9c-3.26,0-5.9,2.64-5.9,5.9,0,3.26,2.64,5.9,5.9,5.9,3.26,0,5.9-2.64,5.9-5.9,0-3.26-2.64-5.9-5.9-5.9Z"/>
          <path class="cls-6" d="M222.31,225.24c-2.94,0-5.32,2.38-5.32,5.32,0,2.94,2.38,5.32,5.32,5.32,2.94,0,5.32-2.38,5.32-5.32s-2.38-5.32-5.32-5.32Z"/>
          <path class="cls-6" d="M222.31,189.85c-3.97,0-7.19,3.22-7.19,7.19s3.22,7.19,7.19,7.19c3.97,0,7.19-3.22,7.19-7.19,0-3.97-3.22-7.19-7.19-7.19Z"/>
          <path class="cls-6" d="M222.31,260.16c-2.18,0-3.94,1.77-3.94,3.94,0,2.18,1.76,3.94,3.94,3.94,2.18,0,3.94-1.76,3.94-3.94s-1.76-3.94-3.94-3.94Z"/>
          <path class="cls-6" d="M222.31,277.31c-1.97,0-3.56,1.59-3.56,3.56s1.59,3.56,3.56,3.56,3.56-1.59,3.56-3.56c0-1.96-1.59-3.56-3.56-3.56Z"/>
          <path class="cls-6" d="M213.92,234.35c-2.54,0-4.59,2.06-4.59,4.6,0,2.54,2.06,4.6,4.59,4.6,2.54,0,4.6-2.06,4.6-4.6,0-2.54-2.06-4.6-4.6-4.6Z"/>
          <path class="cls-6" d="M213.92,199.21c-3.43,0-6.21,2.78-6.21,6.21s2.78,6.21,6.21,6.21c3.43,0,6.21-2.78,6.21-6.21,0-3.43-2.78-6.21-6.21-6.21Z"/>
          <path class="cls-6" d="M213.92,216.58c-1.93,0-3.64.98-4.64,2.47-.6.89-.96,1.97-.96,3.13,0,.39.04.76.11,1.13.52,2.55,2.78,4.47,5.49,4.47,2.71,0,4.97-1.92,5.49-4.47.07-.36.11-.74.11-1.13,0-1.16-.35-2.24-.96-3.13-1.01-1.49-2.71-2.47-4.65-2.47Z"/>
          <path class="cls-6" d="M239.07,260.16c-2.18,0-3.94,1.77-3.94,3.94,0,2.18,1.76,3.94,3.94,3.94,2.18,0,3.94-1.76,3.94-3.94,0-2.18-1.77-3.94-3.94-3.94Z"/>
          <path class="cls-6" d="M239.07,277.31c-1.96,0-3.56,1.59-3.56,3.56s1.59,3.56,3.56,3.56c1.96,0,3.56-1.59,3.56-3.56s-1.59-3.56-3.56-3.56Z"/>
          <path class="cls-6" d="M239.07,225.24c-2.94,0-5.32,2.38-5.32,5.32,0,2.94,2.38,5.32,5.32,5.32,2.94,0,5.32-2.38,5.32-5.32,0-2.94-2.39-5.32-5.32-5.32Z"/>
          <path class="cls-6" d="M239.07,242.97c-2.41,0-4.37,1.95-4.37,4.37,0,2.41,1.95,4.37,4.37,4.37,2.41,0,4.37-1.96,4.37-4.37s-1.96-4.37-4.37-4.37Z"/>
          <path class="cls-6" d="M232.58,286.45c-.18-.12-.37-.23-.57-.31-.4-.17-.85-.27-1.32-.27-.7,0-1.35.21-1.89.58-.9.61-1.49,1.63-1.49,2.8,0,.23.02.46.07.68.13.66.46,1.25.92,1.71.15.15.32.29.5.41.36.24.77.42,1.21.51.22.04.45.07.68.07s.46-.02.68-.07.43-.11.63-.2.39-.19.57-.31.35-.26.5-.41c.46-.46.79-1.05.92-1.71.05-.22.07-.45.07-.68,0-.93-.38-1.78-.99-2.39-.15-.15-.32-.29-.5-.41Z"/>
          <path class="cls-6" d="M232.14,269.03c-.45-.19-.94-.29-1.46-.29-2.07,0-3.74,1.68-3.74,3.74s1.68,3.75,3.74,3.75c.52,0,1.01-.1,1.46-.29.45-.19.85-.46,1.19-.8.68-.68,1.1-1.61,1.1-2.65s-.42-1.97-1.1-2.65c-.34-.34-.74-.61-1.19-.8Z"/>
          <path class="cls-6" d="M234.15,180.44c-1.07-.45-2.24-.7-3.47-.7-4.92,0-8.91,3.99-8.91,8.91,0,4.92,3.99,8.91,8.91,8.91,1.23,0,2.4-.25,3.47-.7,1.07-.45,2.03-1.1,2.83-1.91,1.61-1.61,2.61-3.84,2.61-6.3,0-2.46-1-4.69-2.61-6.3-.81-.81-1.77-1.46-2.83-1.91Z"/>
          <path class="cls-6" d="M233.01,252.28c-.22-.15-.46-.28-.7-.38-.5-.21-1.04-.33-1.61-.33-.86,0-1.66.26-2.32.71-1.1.75-1.83,2.01-1.83,3.44,0,.29.03.57.08.84.17.81.57,1.53,1.13,2.1.19.19.39.36.61.51.44.3.94.51,1.48.62.27.06.55.08.84.08s.57-.03.84-.08c.27-.06.53-.14.78-.24.25-.1.48-.23.7-.38.22-.15.43-.32.61-.51.56-.56.97-1.29,1.13-2.1.06-.27.08-.55.08-.84,0-1.15-.46-2.18-1.22-2.93-.19-.19-.39-.36-.61-.51Z"/>
          <path class="cls-6" d="M233.1,199.7c-.74-.31-1.56-.49-2.42-.49-3.43,0-6.21,2.78-6.21,6.21s2.78,6.21,6.21,6.21c.86,0,1.67-.17,2.42-.49.74-.31,1.41-.77,1.97-1.33,1.12-1.12,1.82-2.68,1.82-4.39,0-1.71-.7-3.27-1.82-4.39-.56-.56-1.23-1.02-1.97-1.33Z"/>
          <path class="cls-6" d="M232.48,234.71c-.55-.23-1.15-.36-1.79-.36-2.54,0-4.59,2.06-4.59,4.6s2.06,4.6,4.59,4.6c.63,0,1.24-.13,1.79-.36.55-.23,1.05-.57,1.46-.99.83-.83,1.35-1.98,1.35-3.25,0-1.27-.52-2.42-1.35-3.25-.42-.42-.91-.75-1.46-.98Z"/>
          <path class="cls-6" d="M239.07,207.9c-3.26,0-5.9,2.64-5.9,5.9,0,3.26,2.64,5.9,5.9,5.9,3.26,0,5.9-2.64,5.9-5.9s-2.64-5.9-5.9-5.9Z"/>
          <path class="cls-6" d="M234.65,218.22c-.51-.51-1.11-.92-1.78-1.2-.67-.28-1.41-.44-2.18-.44-1.93,0-3.64.98-4.64,2.47-.6.89-.96,1.97-.96,3.13,0,.39.04.76.11,1.13.52,2.55,2.78,4.47,5.49,4.47.77,0,1.51-.16,2.18-.44.67-.28,1.27-.69,1.78-1.2.76-.76,1.3-1.74,1.53-2.83.07-.36.11-.74.11-1.13,0-1.16-.35-2.24-.96-3.13-.2-.3-.43-.58-.68-.83Z"/>
          <path class="cls-6" d="M199.48,252.28c-.44-.3-.94-.51-1.48-.62-.27-.06-.55-.08-.84-.08-.86,0-1.66.26-2.32.71-1.1.75-1.83,2.01-1.83,3.44,0,.29.03.57.08.84.17.81.57,1.53,1.13,2.1.19.19.39.36.61.51.44.3.94.51,1.48.62.27.06.55.08.84.08s.57-.03.84-.08c.54-.11,1.04-.33,1.48-.62.22-.15.43-.32.61-.51.56-.56.97-1.29,1.13-2.1.06-.27.08-.55.08-.84,0-1.43-.73-2.7-1.83-3.44Z"/>
          <path class="cls-6" d="M198.02,234.75c-.28-.06-.57-.09-.86-.09-2.36,0-4.28,1.92-4.28,4.28s1.92,4.28,4.28,4.28c.3,0,.58-.03.86-.09,1.95-.4,3.42-2.13,3.42-4.2s-1.47-3.8-3.42-4.2Z"/>
          <path class="cls-6" d="M197.91,268.81c-.24-.05-.5-.08-.75-.08-2.07,0-3.74,1.68-3.74,3.74,0,2.07,1.68,3.75,3.74,3.75.26,0,.51-.03.75-.08,1.71-.35,2.99-1.86,2.99-3.67s-1.29-3.32-2.99-3.67Z"/>
          <path class="cls-6" d="M197.72,219.44c-.18-.04-.37-.06-.56-.06-.97,0-1.82.49-2.32,1.23-.3.45-.48.99-.48,1.57,0,.19.02.38.06.56.26,1.28,1.39,2.24,2.74,2.24.19,0,.38-.02.56-.06,1.09-.22,1.96-1.09,2.18-2.18.04-.18.06-.37.06-.56,0-.58-.18-1.12-.48-1.57-.4-.6-1.03-1.03-1.76-1.18Z"/>
          <path class="cls-6" d="M199.05,286.45c-.36-.24-.77-.42-1.21-.51-.22-.04-.45-.07-.68-.07-.7,0-1.35.21-1.89.58-.9.61-1.49,1.63-1.49,2.8,0,.23.02.46.07.68.14.66.46,1.25.92,1.71.15.15.32.29.5.41.36.24.77.42,1.21.51.22.04.45.07.68.07s.46-.02.68-.07c.44-.09.85-.27,1.21-.51.18-.12.35-.26.5-.41.46-.46.79-1.05.92-1.71.04-.22.07-.45.07-.68,0-1.17-.59-2.2-1.49-2.8Z"/>
          <path class="cls-6" d="M188.77,243.97c-1.86,0-3.36,1.51-3.36,3.36s1.51,3.36,3.36,3.36c1.86,0,3.36-1.51,3.36-3.36,0-1.86-1.51-3.36-3.36-3.36Z"/>
          <path class="cls-6" d="M216.24,252.28c-.66-.45-1.46-.71-2.32-.71s-1.66.26-2.32.71c-1.1.75-1.83,2.01-1.83,3.44,0,.29.03.57.08.84.17.81.57,1.53,1.13,2.1.19.19.39.36.61.51.44.3.94.51,1.48.62.27.06.55.08.84.08s.57-.03.84-.08c.54-.11,1.04-.33,1.48-.62.22-.15.43-.32.61-.51.56-.56.97-1.29,1.13-2.1.06-.27.08-.55.08-.84,0-1.43-.73-2.7-1.83-3.44Z"/>
          <path class="cls-6" d="M215.81,286.45c-.54-.36-1.19-.58-1.89-.58s-1.35.21-1.89.58c-.9.61-1.49,1.63-1.49,2.8,0,.23.02.46.07.68.14.66.46,1.25.92,1.71.15.15.32.29.5.41.36.24.77.42,1.21.51.22.04.45.07.68.07s.46-.02.68-.07c.44-.09.85-.27,1.21-.51.18-.12.35-.26.5-.41.46-.46.79-1.05.92-1.71.04-.22.07-.45.07-.68,0-1.17-.59-2.2-1.49-2.8Z"/>
          <path class="cls-6" d="M213.92,268.74c-2.07,0-3.74,1.68-3.74,3.74s1.68,3.75,3.74,3.75c2.07,0,3.74-1.68,3.74-3.75s-1.68-3.74-3.74-3.74Z"/>
          <path class="cls-6" d="M205.54,209.02c-2.64,0-4.78,2.14-4.78,4.78,0,2.64,2.14,4.78,4.78,4.78s4.78-2.14,4.78-4.78c0-2.64-2.14-4.78-4.78-4.78Z"/>
          <path class="cls-6" d="M205.54,225.24c-2.94,0-5.32,2.38-5.32,5.32,0,2.94,2.38,5.32,5.32,5.32,2.94,0,5.32-2.38,5.32-5.32,0-2.94-2.39-5.32-5.32-5.32Z"/>
          <path class="cls-6" d="M188.77,228.69c-1.04,0-1.87.84-1.87,1.87,0,1.04.84,1.87,1.87,1.87,1.04,0,1.88-.84,1.88-1.87s-.84-1.87-1.88-1.87Z"/>
          <path class="cls-6" d="M272.6,228.69c-1.04,0-1.87.84-1.87,1.87,0,1.04.84,1.87,1.87,1.87s1.88-.84,1.88-1.87-.84-1.87-1.88-1.87Z"/>
          <path class="cls-6" d="M205.54,277.31c-1.96,0-3.56,1.59-3.56,3.56,0,1.96,1.59,3.56,3.56,3.56s3.56-1.59,3.56-3.56c0-1.96-1.59-3.56-3.56-3.56Z"/>
          <path class="cls-6" d="M205.54,242.97c-2.41,0-4.37,1.95-4.37,4.37,0,2.41,1.95,4.37,4.37,4.37,2.41,0,4.37-1.96,4.37-4.37,0-2.41-1.96-4.37-4.37-4.37Z"/>
          <path class="cls-6" d="M205.54,260.16c-2.18,0-3.94,1.77-3.94,3.94,0,2.18,1.76,3.94,3.94,3.94s3.94-1.76,3.94-3.94c0-2.18-1.77-3.94-3.94-3.94Z"/>
          <path class="cls-6" d="M272.6,243.97c-1.86,0-3.36,1.51-3.36,3.36s1.51,3.36,3.36,3.36c1.86,0,3.36-1.51,3.36-3.36,0-1.86-1.51-3.36-3.36-3.36Z"/>
          <path class="cls-6" d="M272.6,260.16c-2.18,0-3.94,1.77-3.94,3.94,0,2.18,1.76,3.94,3.94,3.94,2.18,0,3.94-1.76,3.94-3.94,0-2.18-1.77-3.94-3.94-3.94Z"/>
          <path class="cls-6" d="M272.6,277.31c-1.96,0-3.56,1.59-3.56,3.56s1.59,3.56,3.56,3.56c1.96,0,3.56-1.59,3.56-3.56s-1.59-3.56-3.56-3.56Z"/>
          <path class="cls-6" d="M289.37,278.38c-1.38,0-2.49,1.11-2.49,2.49s1.11,2.49,2.49,2.49c1.37,0,2.49-1.12,2.49-2.49s-1.11-2.49-2.49-2.49Z"/>
          <path class="cls-6" d="M282.12,254.03c-.32-.22-.72-.35-1.14-.35s-.81.13-1.14.35c-.54.36-.9.98-.9,1.69,0,.14.01.28.04.41.08.4.28.75.55,1.03.09.09.19.18.3.25.22.15.46.25.73.31.13.03.27.04.41.04s.28-.01.41-.04c.26-.05.51-.16.73-.31.11-.07.21-.16.3-.25.28-.28.47-.63.55-1.03.03-.13.04-.27.04-.41,0-.7-.36-1.32-.9-1.69Z"/>
          <path class="cls-6" d="M282.31,287.29c-.38-.25-.83-.4-1.32-.4s-.94.15-1.32.4c-.63.42-1.04,1.14-1.04,1.96,0,.16.02.32.05.48.09.46.32.87.64,1.2.11.11.22.2.35.29.25.17.54.29.85.36.15.03.31.05.48.05s.32-.02.48-.05c.31-.06.59-.19.85-.36.13-.08.24-.18.35-.29.32-.32.55-.73.65-1.2.03-.15.05-.31.05-.48,0-.82-.41-1.54-1.04-1.96Z"/>
          <path class="cls-6" d="M280.98,268.74c-2.07,0-3.74,1.68-3.74,3.74s1.68,3.75,3.74,3.75c2.07,0,3.74-1.68,3.74-3.75s-1.68-3.74-3.74-3.74Z"/>
          <path class="cls-6" d="M239.07,189.85c-3.97,0-7.19,3.22-7.19,7.19,0,3.97,3.22,7.19,7.19,7.19,3.97,0,7.19-3.22,7.19-7.19,0-3.97-3.22-7.19-7.19-7.19Z"/>
          <path class="cls-6" d="M247.45,199.21c-3.43,0-6.21,2.78-6.21,6.21s2.78,6.21,6.21,6.21c3.43,0,6.21-2.78,6.21-6.21,0-3.43-2.78-6.21-6.21-6.21Z"/>
          <path class="cls-6" d="M247.45,268.74c-2.07,0-3.74,1.68-3.74,3.74s1.68,3.75,3.74,3.75c2.07,0,3.74-1.68,3.74-3.75s-1.68-3.74-3.74-3.74Z"/>
          <path class="cls-6" d="M249.77,252.28c-.66-.45-1.46-.71-2.32-.71-.86,0-1.66.26-2.32.71-1.1.75-1.83,2.01-1.83,3.44,0,.29.03.57.08.84.17.81.57,1.53,1.13,2.1.19.19.39.36.61.51.44.3.94.51,1.48.62.27.06.55.08.84.08s.57-.03.84-.08c.54-.11,1.04-.33,1.48-.62.22-.15.43-.32.61-.51.56-.56.97-1.29,1.13-2.1.06-.27.08-.55.08-.84,0-1.43-.73-2.7-1.83-3.44Z"/>
          <path class="cls-6" d="M247.45,216.58c-1.93,0-3.64.98-4.64,2.47-.6.89-.96,1.97-.96,3.13,0,.39.04.76.11,1.13.52,2.55,2.78,4.47,5.49,4.47s4.97-1.92,5.49-4.47c.07-.36.11-.74.11-1.13,0-1.16-.35-2.24-.96-3.13-1.01-1.49-2.71-2.47-4.65-2.47Z"/>
          <path class="cls-6" d="M249.34,286.45c-.54-.36-1.19-.58-1.89-.58s-1.35.21-1.89.58c-.9.61-1.49,1.63-1.49,2.8,0,.23.02.46.07.68.13.66.46,1.25.92,1.71.15.15.32.29.5.41.36.24.77.42,1.21.51.22.04.45.07.68.07s.46-.02.68-.07c.44-.09.85-.27,1.21-.51.18-.12.35-.26.5-.41.46-.46.79-1.05.92-1.71.04-.22.07-.45.07-.68,0-1.17-.59-2.2-1.49-2.8Z"/>
          <path class="cls-6" d="M247.45,234.35c-2.54,0-4.59,2.06-4.59,4.6,0,2.54,2.06,4.6,4.59,4.6s4.6-2.06,4.6-4.6-2.06-4.6-4.6-4.6Z"/>
          <path class="cls-6" d="M265.88,235c-.51-.22-1.08-.34-1.67-.34-2.36,0-4.28,1.92-4.28,4.28s1.92,4.28,4.28,4.28c.59,0,1.15-.12,1.67-.34.51-.22.97-.53,1.36-.92.78-.78,1.26-1.85,1.26-3.03s-.48-2.25-1.26-3.03c-.39-.39-.85-.7-1.36-.92Z"/>
          <path class="cls-6" d="M266.54,252.28c-.22-.15-.46-.28-.7-.38-.5-.21-1.04-.33-1.61-.33-.86,0-1.66.26-2.32.71-1.1.75-1.83,2.01-1.83,3.44,0,.29.03.57.08.84.17.81.57,1.53,1.13,2.1.19.19.39.36.61.51.44.3.94.51,1.48.62.27.06.55.08.84.08s.57-.03.84-.08c.27-.06.53-.14.78-.24.25-.1.48-.23.7-.38.22-.15.43-.32.61-.51.56-.56.97-1.29,1.13-2.1.06-.27.08-.55.08-.84,0-1.15-.46-2.18-1.22-2.93-.19-.19-.39-.36-.61-.51Z"/>
          <path class="cls-6" d="M266.2,220.2c-.25-.25-.56-.46-.89-.6-.34-.14-.7-.22-1.09-.22-.97,0-1.82.49-2.32,1.23-.3.45-.48.99-.48,1.57,0,.19.02.38.06.56.26,1.28,1.39,2.24,2.74,2.24.39,0,.76-.08,1.09-.22.34-.14.64-.35.89-.6.38-.38.65-.87.76-1.42.04-.18.06-.37.06-.56,0-.58-.18-1.12-.48-1.57-.1-.15-.22-.29-.34-.41Z"/>
          <path class="cls-6" d="M265.68,269.03c-.45-.19-.94-.29-1.46-.29-2.07,0-3.74,1.68-3.74,3.74s1.68,3.75,3.74,3.75c.52,0,1.01-.1,1.46-.29.45-.19.85-.46,1.19-.8.68-.68,1.1-1.61,1.1-2.65s-.42-1.97-1.1-2.65c-.34-.34-.74-.61-1.19-.8Z"/>
          <path class="cls-6" d="M266.11,286.45c-.18-.12-.37-.23-.57-.31-.4-.17-.85-.27-1.32-.27-.7,0-1.35.21-1.89.58-.9.61-1.49,1.63-1.49,2.8,0,.23.02.46.07.68.13.66.46,1.25.92,1.71.15.15.32.29.5.41.36.24.77.42,1.21.51.22.04.45.07.68.07s.46-.02.68-.07c.22-.04.43-.11.63-.2.2-.09.39-.19.57-.31.18-.12.35-.26.5-.41.46-.46.79-1.05.92-1.71.04-.22.07-.45.07-.68,0-.93-.38-1.78-.99-2.39-.15-.15-.32-.29-.5-.41Z"/>
          <path class="cls-6" d="M255.84,277.31c-1.97,0-3.56,1.59-3.56,3.56s1.59,3.56,3.56,3.56c1.96,0,3.56-1.59,3.56-3.56,0-1.96-1.59-3.56-3.56-3.56Z"/>
          <path class="cls-6" d="M255.84,242.97c-2.41,0-4.37,1.95-4.37,4.37,0,2.41,1.95,4.37,4.37,4.37,2.41,0,4.37-1.96,4.37-4.37,0-2.41-1.95-4.37-4.37-4.37Z"/>
          <path class="cls-6" d="M188.77,260.16c-2.18,0-3.94,1.77-3.94,3.94,0,2.18,1.76,3.94,3.94,3.94,2.18,0,3.94-1.76,3.94-3.94,0-2.18-1.76-3.94-3.94-3.94Z"/>
          <path class="cls-6" d="M255.84,260.16c-2.18,0-3.94,1.77-3.94,3.94,0,2.18,1.76,3.94,3.94,3.94s3.94-1.76,3.94-3.94c0-2.18-1.76-3.94-3.94-3.94Z"/>
          <path class="cls-6" d="M255.84,209.02c-2.64,0-4.78,2.14-4.78,4.78,0,2.64,2.14,4.78,4.78,4.78,2.64,0,4.77-2.14,4.77-4.78s-2.14-4.78-4.77-4.78Z"/>
          <path class="cls-6" d="M255.84,225.24c-2.94,0-5.32,2.38-5.32,5.32,0,2.94,2.38,5.32,5.32,5.32s5.32-2.38,5.32-5.32c0-2.94-2.38-5.32-5.32-5.32Z"/>
          <path class="cls-6" d="M188.77,277.31c-1.97,0-3.56,1.59-3.56,3.56,0,1.96,1.59,3.56,3.56,3.56,1.96,0,3.56-1.59,3.56-3.56,0-1.96-1.59-3.56-3.56-3.56Z"/>
          <path class="cls-6" d="M172.01,278.38c-1.38,0-2.49,1.11-2.49,2.49s1.11,2.49,2.49,2.49,2.49-1.12,2.49-2.49-1.12-2.49-2.49-2.49Z"/>
          <path class="cls-6" d="M181.53,254.03c-.32-.22-.72-.35-1.14-.35s-.81.13-1.14.35c-.54.36-.9.98-.9,1.69,0,.14.01.28.04.41.08.4.28.75.55,1.03.09.09.19.18.3.25.22.15.46.25.73.31.13.03.27.04.41.04s.28-.01.41-.04c.26-.05.51-.16.73-.31.11-.07.21-.16.3-.25.28-.28.47-.63.55-1.03.03-.13.04-.27.04-.41,0-.7-.36-1.32-.9-1.69Z"/>
          <path class="cls-6" d="M180.39,268.74c-2.07,0-3.74,1.68-3.74,3.74s1.68,3.75,3.74,3.75c2.07,0,3.74-1.68,3.74-3.75,0-2.07-1.68-3.74-3.74-3.74Z"/>
          <path class="cls-6" d="M181.71,287.29c-.38-.25-.83-.4-1.32-.4s-.94.15-1.32.4c-.63.42-1.04,1.14-1.04,1.96,0,.16.02.32.05.48.09.46.32.87.64,1.2.11.11.22.2.35.29.25.17.54.29.85.36.15.03.31.05.48.05s.32-.02.48-.05c.31-.06.59-.19.85-.36.13-.08.24-.18.35-.29.32-.32.55-.73.65-1.2.03-.15.05-.31.05-.48,0-.82-.41-1.54-1.04-1.96Z"/>
        </g>
        <g>
          <path class="cls-6" d="M660.27,242.97c-2.41,0-4.37,1.95-4.37,4.37,0,2.41,1.95,4.37,4.37,4.37s4.37-1.96,4.37-4.37-1.95-4.37-4.37-4.37Z"/>
          <path class="cls-6" d="M660.27,207.9c-3.26,0-5.9,2.64-5.9,5.9,0,3.26,2.64,5.9,5.9,5.9,3.26,0,5.9-2.64,5.9-5.9,0-3.26-2.64-5.9-5.9-5.9Z"/>
          <path class="cls-6" d="M660.27,225.24c-2.94,0-5.32,2.38-5.32,5.32,0,2.94,2.38,5.32,5.32,5.32,2.94,0,5.32-2.38,5.32-5.32,0-2.94-2.38-5.32-5.32-5.32Z"/>
          <path class="cls-6" d="M660.27,189.85c-3.97,0-7.19,3.22-7.19,7.19s3.22,7.19,7.19,7.19c3.97,0,7.19-3.22,7.19-7.19s-3.22-7.19-7.19-7.19Z"/>
          <path class="cls-6" d="M660.27,260.16c-2.18,0-3.94,1.77-3.94,3.94,0,2.18,1.76,3.94,3.94,3.94,2.18,0,3.94-1.76,3.94-3.94,0-2.18-1.76-3.94-3.94-3.94Z"/>
          <path class="cls-6" d="M660.27,277.31c-1.97,0-3.56,1.59-3.56,3.56s1.59,3.56,3.56,3.56,3.56-1.59,3.56-3.56c0-1.96-1.59-3.56-3.56-3.56Z"/>
          <path class="cls-6" d="M651.89,234.35c-2.54,0-4.59,2.06-4.59,4.6s2.06,4.6,4.59,4.6c2.54,0,4.6-2.06,4.6-4.6,0-2.54-2.06-4.6-4.6-4.6Z"/>
          <path class="cls-6" d="M651.89,199.21c-3.43,0-6.21,2.78-6.21,6.21s2.78,6.21,6.21,6.21c3.43,0,6.21-2.78,6.21-6.21,0-3.43-2.78-6.21-6.21-6.21Z"/>
          <path class="cls-6" d="M651.89,216.58c-1.93,0-3.64.98-4.64,2.47-.6.89-.96,1.97-.96,3.13,0,.39.04.76.11,1.13.52,2.55,2.78,4.47,5.49,4.47,2.71,0,4.97-1.92,5.49-4.47.07-.36.11-.74.11-1.13,0-1.16-.35-2.24-.96-3.13-1.01-1.49-2.71-2.47-4.65-2.47Z"/>
          <path class="cls-6" d="M677.04,260.16c-2.18,0-3.94,1.77-3.94,3.94,0,2.18,1.76,3.94,3.94,3.94,2.18,0,3.94-1.76,3.94-3.94,0-2.18-1.77-3.94-3.94-3.94Z"/>
          <path class="cls-6" d="M677.04,277.31c-1.96,0-3.56,1.59-3.56,3.56s1.59,3.56,3.56,3.56c1.96,0,3.56-1.59,3.56-3.56s-1.59-3.56-3.56-3.56Z"/>
          <path class="cls-6" d="M677.04,225.24c-2.94,0-5.32,2.38-5.32,5.32,0,2.94,2.38,5.32,5.32,5.32,2.94,0,5.32-2.38,5.32-5.32s-2.39-5.32-5.32-5.32Z"/>
          <path class="cls-6" d="M677.04,242.97c-2.41,0-4.37,1.95-4.37,4.37s1.95,4.37,4.37,4.37c2.41,0,4.37-1.96,4.37-4.37,0-2.41-1.96-4.37-4.37-4.37Z"/>
          <path class="cls-6" d="M670.54,286.45c-.18-.12-.37-.23-.57-.31-.4-.17-.85-.27-1.32-.27-.7,0-1.35.21-1.89.58-.9.61-1.49,1.63-1.49,2.8,0,.23.02.46.07.68.13.66.46,1.25.92,1.71.15.15.32.29.5.41.36.24.77.42,1.21.51.22.04.45.07.68.07s.46-.02.68-.07.43-.11.63-.2.39-.19.57-.31.35-.26.5-.41c.46-.46.79-1.05.92-1.71.05-.22.07-.45.07-.68,0-.93-.38-1.78-.99-2.39-.15-.15-.32-.29-.5-.41Z"/>
          <path class="cls-6" d="M670.11,269.03c-.45-.19-.94-.29-1.46-.29-2.07,0-3.74,1.68-3.74,3.74s1.68,3.75,3.74,3.75c.52,0,1.01-.1,1.46-.29.45-.19.85-.46,1.19-.8.68-.68,1.1-1.61,1.1-2.65s-.42-1.97-1.1-2.65c-.34-.34-.74-.61-1.19-.8Z"/>
          <path class="cls-6" d="M672.12,180.44c-1.07-.45-2.24-.7-3.47-.7-4.92,0-8.91,3.99-8.91,8.91,0,4.92,3.99,8.91,8.91,8.91,1.23,0,2.4-.25,3.47-.7,1.07-.45,2.03-1.1,2.83-1.91,1.61-1.61,2.61-3.84,2.61-6.3,0-2.46-1-4.69-2.61-6.3-.81-.81-1.77-1.46-2.83-1.91Z"/>
          <path class="cls-6" d="M670.97,252.28c-.22-.15-.46-.28-.7-.38-.5-.21-1.04-.33-1.61-.33-.86,0-1.66.26-2.32.71-1.1.75-1.83,2.01-1.83,3.44,0,.29.03.57.08.84.17.81.57,1.53,1.13,2.1.19.19.39.36.61.51.44.3.94.51,1.48.62.27.06.55.08.84.08s.57-.03.84-.08c.27-.06.53-.14.78-.24.25-.1.48-.23.7-.38.22-.15.43-.32.61-.51.56-.56.97-1.29,1.13-2.1.06-.27.08-.55.08-.84,0-1.15-.46-2.18-1.22-2.93-.19-.19-.39-.36-.61-.51Z"/>
          <path class="cls-6" d="M671.07,199.7c-.74-.31-1.56-.49-2.42-.49-3.43,0-6.21,2.78-6.21,6.21s2.78,6.21,6.21,6.21c.86,0,1.67-.17,2.42-.49.74-.31,1.41-.77,1.97-1.33,1.12-1.12,1.82-2.68,1.82-4.39,0-1.71-.7-3.27-1.82-4.39-.56-.56-1.23-1.02-1.97-1.33Z"/>
          <path class="cls-6" d="M670.44,234.71c-.55-.23-1.15-.36-1.79-.36-2.54,0-4.59,2.06-4.59,4.6s2.06,4.6,4.59,4.6c.63,0,1.24-.13,1.79-.36.55-.23,1.05-.57,1.46-.99.83-.83,1.35-1.98,1.35-3.25,0-1.27-.52-2.42-1.35-3.25-.42-.42-.91-.75-1.46-.98Z"/>
          <path class="cls-6" d="M677.04,207.9c-3.26,0-5.9,2.64-5.9,5.9,0,3.26,2.64,5.9,5.9,5.9,3.26,0,5.9-2.64,5.9-5.9,0-3.26-2.64-5.9-5.9-5.9Z"/>
          <path class="cls-6" d="M672.62,218.22c-.51-.51-1.11-.92-1.78-1.2-.67-.28-1.41-.44-2.18-.44-1.93,0-3.64.98-4.64,2.47-.6.89-.96,1.97-.96,3.13,0,.39.04.76.11,1.13.52,2.55,2.78,4.47,5.49,4.47.77,0,1.51-.16,2.18-.44.67-.28,1.27-.69,1.78-1.2.76-.76,1.3-1.74,1.53-2.83.07-.36.11-.74.11-1.13,0-1.16-.35-2.24-.96-3.13-.2-.3-.43-.58-.68-.83Z"/>
          <path class="cls-6" d="M637.44,252.28c-.44-.3-.94-.51-1.48-.62-.27-.06-.55-.08-.84-.08-.86,0-1.66.26-2.32.71-1.1.75-1.83,2.01-1.83,3.44,0,.29.03.57.08.84.17.81.57,1.53,1.13,2.1.19.19.39.36.61.51.44.3.94.51,1.48.62.27.06.55.08.84.08s.57-.03.84-.08c.54-.11,1.04-.33,1.48-.62.22-.15.43-.32.61-.51.56-.56.97-1.29,1.13-2.1.06-.27.08-.55.08-.84,0-1.43-.73-2.7-1.83-3.44Z"/>
          <path class="cls-6" d="M635.99,234.75c-.28-.06-.57-.09-.86-.09-2.36,0-4.28,1.92-4.28,4.28,0,2.37,1.92,4.28,4.28,4.28.3,0,.58-.03.86-.09,1.95-.4,3.42-2.13,3.42-4.2,0-2.07-1.47-3.8-3.42-4.2Z"/>
          <path class="cls-6" d="M635.88,268.81c-.24-.05-.5-.08-.75-.08-2.07,0-3.74,1.68-3.74,3.74,0,2.07,1.68,3.75,3.74,3.75.26,0,.51-.03.75-.08,1.71-.35,2.99-1.86,2.99-3.67s-1.29-3.32-2.99-3.67Z"/>
          <path class="cls-6" d="M635.69,219.44c-.18-.04-.37-.06-.56-.06-.97,0-1.82.49-2.32,1.23-.3.45-.48.99-.48,1.57,0,.19.02.38.06.56.26,1.28,1.39,2.24,2.74,2.24.19,0,.38-.02.56-.06,1.09-.22,1.96-1.09,2.18-2.18.04-.18.06-.37.06-.56,0-.58-.18-1.12-.48-1.57-.4-.6-1.03-1.03-1.76-1.18Z"/>
          <path class="cls-6" d="M637.01,286.45c-.36-.24-.77-.42-1.21-.51-.22-.04-.45-.07-.68-.07-.7,0-1.35.21-1.89.58-.9.61-1.49,1.63-1.49,2.8,0,.23.02.46.07.68.14.66.46,1.25.92,1.71.15.15.32.29.5.41.36.24.77.42,1.21.51.22.04.45.07.68.07s.46-.02.68-.07c.44-.09.85-.27,1.21-.51.18-.12.35-.26.5-.41.46-.46.79-1.05.92-1.71.04-.22.07-.45.07-.68,0-1.17-.59-2.2-1.49-2.8Z"/>
          <path class="cls-6" d="M626.74,243.97c-1.86,0-3.36,1.51-3.36,3.36,0,1.86,1.51,3.36,3.36,3.36,1.86,0,3.36-1.51,3.36-3.36,0-1.86-1.51-3.36-3.36-3.36Z"/>
          <path class="cls-6" d="M654.21,252.28c-.66-.45-1.46-.71-2.32-.71s-1.66.26-2.32.71c-1.1.75-1.83,2.01-1.83,3.44,0,.29.03.57.08.84.17.81.57,1.53,1.13,2.1.19.19.39.36.61.51.44.3.94.51,1.48.62.27.06.55.08.84.08s.57-.03.84-.08c.54-.11,1.04-.33,1.48-.62.22-.15.43-.32.61-.51.56-.56.97-1.29,1.13-2.1.06-.27.08-.55.08-.84,0-1.43-.73-2.7-1.83-3.44Z"/>
          <path class="cls-6" d="M653.78,286.45c-.54-.36-1.19-.58-1.89-.58s-1.35.21-1.89.58c-.9.61-1.49,1.63-1.49,2.8,0,.23.02.46.07.68.14.66.46,1.25.92,1.71.15.15.32.29.5.41.36.24.77.42,1.21.51.22.04.45.07.68.07s.46-.02.68-.07c.44-.09.85-.27,1.21-.51.18-.12.35-.26.5-.41.46-.46.79-1.05.92-1.71.04-.22.07-.45.07-.68,0-1.17-.59-2.2-1.49-2.8Z"/>
          <path class="cls-6" d="M651.89,268.74c-2.07,0-3.74,1.68-3.74,3.74s1.68,3.75,3.74,3.75c2.07,0,3.74-1.68,3.74-3.75s-1.68-3.74-3.74-3.74Z"/>
          <path class="cls-6" d="M643.51,209.02c-2.64,0-4.78,2.14-4.78,4.78,0,2.64,2.14,4.78,4.78,4.78s4.78-2.14,4.78-4.78c0-2.64-2.14-4.78-4.78-4.78Z"/>
          <path class="cls-6" d="M643.51,225.24c-2.94,0-5.32,2.38-5.32,5.32,0,2.94,2.38,5.32,5.32,5.32,2.94,0,5.32-2.38,5.32-5.32,0-2.94-2.39-5.32-5.32-5.32Z"/>
          <path class="cls-6" d="M626.74,228.69c-1.04,0-1.87.84-1.87,1.87,0,1.04.84,1.87,1.87,1.87,1.04,0,1.88-.84,1.88-1.87s-.84-1.87-1.88-1.87Z"/>
          <path class="cls-6" d="M710.57,228.69c-1.04,0-1.87.84-1.87,1.87s.84,1.87,1.87,1.87,1.88-.84,1.88-1.87-.84-1.87-1.88-1.87Z"/>
          <path class="cls-6" d="M643.51,277.31c-1.96,0-3.56,1.59-3.56,3.56,0,1.96,1.59,3.56,3.56,3.56s3.56-1.59,3.56-3.56c0-1.96-1.59-3.56-3.56-3.56Z"/>
          <path class="cls-6" d="M643.51,242.97c-2.41,0-4.37,1.95-4.37,4.37,0,2.41,1.95,4.37,4.37,4.37,2.41,0,4.37-1.96,4.37-4.37,0-2.41-1.96-4.37-4.37-4.37Z"/>
          <path class="cls-6" d="M643.51,260.16c-2.18,0-3.94,1.77-3.94,3.94,0,2.18,1.76,3.94,3.94,3.94s3.94-1.76,3.94-3.94c0-2.18-1.77-3.94-3.94-3.94Z"/>
          <path class="cls-6" d="M710.57,243.97c-1.86,0-3.36,1.51-3.36,3.36s1.51,3.36,3.36,3.36c1.86,0,3.36-1.51,3.36-3.36,0-1.86-1.51-3.36-3.36-3.36Z"/>
          <path class="cls-6" d="M710.57,260.16c-2.18,0-3.94,1.77-3.94,3.94,0,2.18,1.76,3.94,3.94,3.94,2.18,0,3.94-1.76,3.94-3.94,0-2.18-1.77-3.94-3.94-3.94Z"/>
          <path class="cls-6" d="M710.57,277.31c-1.96,0-3.56,1.59-3.56,3.56s1.59,3.56,3.56,3.56c1.96,0,3.56-1.59,3.56-3.56s-1.59-3.56-3.56-3.56Z"/>
          <path class="cls-6" d="M727.34,278.38c-1.38,0-2.49,1.11-2.49,2.49s1.11,2.49,2.49,2.49c1.37,0,2.49-1.12,2.49-2.49s-1.11-2.49-2.49-2.49Z"/>
          <path class="cls-6" d="M720.09,254.03c-.32-.22-.72-.35-1.14-.35s-.81.13-1.14.35c-.54.36-.9.98-.9,1.69,0,.14.01.28.04.41.08.4.28.75.55,1.03.09.09.19.18.3.25.22.15.46.25.73.31.13.03.27.04.41.04s.28-.01.41-.04c.26-.05.51-.16.73-.31.11-.07.21-.16.3-.25.28-.28.47-.63.55-1.03.03-.13.04-.27.04-.41,0-.7-.36-1.32-.9-1.69Z"/>
          <path class="cls-6" d="M720.28,287.29c-.38-.25-.83-.4-1.32-.4s-.94.15-1.32.4c-.63.42-1.04,1.14-1.04,1.96,0,.16.02.32.05.48.09.46.32.87.64,1.2.11.11.22.2.35.29.25.17.54.29.85.36.15.03.31.05.48.05s.32-.02.48-.05c.31-.06.59-.19.85-.36.13-.08.24-.18.35-.29.32-.32.55-.73.65-1.2.03-.15.05-.31.05-.48,0-.82-.41-1.54-1.04-1.96Z"/>
          <path class="cls-6" d="M718.95,268.74c-2.07,0-3.74,1.68-3.74,3.74s1.68,3.75,3.74,3.75c2.07,0,3.74-1.68,3.74-3.75s-1.68-3.74-3.74-3.74Z"/>
          <path class="cls-6" d="M677.04,189.85c-3.97,0-7.19,3.22-7.19,7.19s3.22,7.19,7.19,7.19c3.97,0,7.19-3.22,7.19-7.19s-3.22-7.19-7.19-7.19Z"/>
          <path class="cls-6" d="M685.42,199.21c-3.43,0-6.21,2.78-6.21,6.21s2.78,6.21,6.21,6.21c3.43,0,6.21-2.78,6.21-6.21s-2.78-6.21-6.21-6.21Z"/>
          <path class="cls-6" d="M685.42,268.74c-2.07,0-3.74,1.68-3.74,3.74,0,2.07,1.68,3.75,3.74,3.75,2.07,0,3.74-1.68,3.74-3.75,0-2.07-1.68-3.74-3.74-3.74Z"/>
          <path class="cls-6" d="M687.74,252.28c-.66-.45-1.46-.71-2.32-.71-.86,0-1.66.26-2.32.71-1.1.75-1.83,2.01-1.83,3.44,0,.29.03.57.08.84.17.81.57,1.53,1.13,2.1.19.19.39.36.61.51.44.3.94.51,1.48.62.27.06.55.08.84.08s.57-.03.84-.08c.54-.11,1.04-.33,1.48-.62.22-.15.43-.32.61-.51.56-.56.97-1.29,1.13-2.1.06-.27.08-.55.08-.84,0-1.43-.73-2.7-1.83-3.44Z"/>
          <path class="cls-6" d="M685.42,216.58c-1.93,0-3.64.98-4.64,2.47-.6.89-.96,1.97-.96,3.13,0,.39.04.76.11,1.13.52,2.55,2.78,4.47,5.49,4.47s4.97-1.92,5.49-4.47c.07-.36.11-.74.11-1.13,0-1.16-.35-2.24-.96-3.13-1.01-1.49-2.71-2.47-4.65-2.47Z"/>
          <path class="cls-6" d="M687.31,286.45c-.54-.36-1.19-.58-1.89-.58s-1.35.21-1.89.58c-.9.61-1.49,1.63-1.49,2.8,0,.23.02.46.07.68.13.66.46,1.25.92,1.71.15.15.32.29.5.41.36.24.77.42,1.21.51.22.04.45.07.68.07s.46-.02.68-.07c.44-.09.85-.27,1.21-.51.18-.12.35-.26.5-.41.46-.46.79-1.05.92-1.71.04-.22.07-.45.07-.68,0-1.17-.59-2.2-1.49-2.8Z"/>
          <path class="cls-6" d="M685.42,234.35c-2.54,0-4.59,2.06-4.59,4.6,0,2.54,2.06,4.6,4.59,4.6s4.6-2.06,4.6-4.6-2.06-4.6-4.6-4.6Z"/>
          <path class="cls-6" d="M703.85,235c-.51-.22-1.08-.34-1.67-.34-2.36,0-4.28,1.92-4.28,4.28s1.92,4.28,4.28,4.28c.59,0,1.15-.12,1.67-.34.51-.22.97-.53,1.36-.92.78-.78,1.26-1.85,1.26-3.03s-.48-2.25-1.26-3.03c-.39-.39-.85-.7-1.36-.92Z"/>
          <path class="cls-6" d="M704.51,252.28c-.22-.15-.46-.28-.7-.38-.5-.21-1.04-.33-1.61-.33-.86,0-1.66.26-2.32.71-1.1.75-1.83,2.01-1.83,3.44,0,.29.03.57.08.84.17.81.57,1.53,1.13,2.1.19.19.39.36.61.51.44.3.94.51,1.48.62.27.06.55.08.84.08s.57-.03.84-.08c.27-.06.53-.14.78-.24.25-.1.48-.23.7-.38.22-.15.43-.32.61-.51.56-.56.97-1.29,1.13-2.1.06-.27.08-.55.08-.84,0-1.15-.46-2.18-1.22-2.93-.19-.19-.39-.36-.61-.51Z"/>
          <path class="cls-6" d="M704.17,220.2c-.25-.25-.56-.46-.89-.6-.34-.14-.7-.22-1.09-.22-.97,0-1.82.49-2.32,1.23-.3.45-.48.99-.48,1.57,0,.19.02.38.06.56.26,1.28,1.39,2.24,2.74,2.24.39,0,.76-.08,1.09-.22.34-.14.64-.35.89-.6.38-.38.65-.87.76-1.42.04-.18.06-.37.06-.56,0-.58-.18-1.12-.48-1.57-.1-.15-.22-.29-.34-.41Z"/>
          <path class="cls-6" d="M703.64,269.03c-.45-.19-.94-.29-1.46-.29-2.07,0-3.74,1.68-3.74,3.74,0,2.07,1.68,3.75,3.74,3.75.52,0,1.01-.1,1.46-.29.45-.19.85-.46,1.19-.8.68-.68,1.1-1.61,1.1-2.65s-.42-1.97-1.1-2.65c-.34-.34-.74-.61-1.19-.8Z"/>
          <path class="cls-6" d="M704.08,286.45c-.18-.12-.37-.23-.57-.31-.4-.17-.85-.27-1.32-.27-.7,0-1.35.21-1.89.58-.9.61-1.49,1.63-1.49,2.8,0,.23.02.46.07.68.13.66.46,1.25.92,1.71.15.15.32.29.5.41.36.24.77.42,1.21.51.22.04.45.07.68.07s.46-.02.68-.07c.22-.04.43-.11.63-.2.2-.09.39-.19.57-.31.18-.12.35-.26.5-.41.46-.46.79-1.05.92-1.71.04-.22.07-.45.07-.68,0-.93-.38-1.78-.99-2.39-.15-.15-.32-.29-.5-.41Z"/>
          <path class="cls-6" d="M693.8,277.31c-1.97,0-3.56,1.59-3.56,3.56s1.59,3.56,3.56,3.56c1.96,0,3.56-1.59,3.56-3.56,0-1.96-1.59-3.56-3.56-3.56Z"/>
          <path class="cls-6" d="M693.8,242.97c-2.41,0-4.37,1.95-4.37,4.37,0,2.41,1.95,4.37,4.37,4.37,2.41,0,4.37-1.96,4.37-4.37,0-2.41-1.95-4.37-4.37-4.37Z"/>
          <path class="cls-6" d="M626.74,260.16c-2.18,0-3.94,1.77-3.94,3.94,0,2.18,1.76,3.94,3.94,3.94,2.18,0,3.94-1.76,3.94-3.94,0-2.18-1.76-3.94-3.94-3.94Z"/>
          <path class="cls-6" d="M693.8,260.16c-2.18,0-3.94,1.77-3.94,3.94,0,2.18,1.76,3.94,3.94,3.94s3.94-1.76,3.94-3.94c0-2.18-1.76-3.94-3.94-3.94Z"/>
          <path class="cls-6" d="M693.81,209.02c-2.64,0-4.78,2.14-4.78,4.78,0,2.64,2.14,4.78,4.78,4.78,2.64,0,4.77-2.14,4.77-4.78,0-2.64-2.14-4.78-4.77-4.78Z"/>
          <path class="cls-6" d="M693.81,225.24c-2.94,0-5.32,2.38-5.32,5.32,0,2.94,2.38,5.32,5.32,5.32s5.32-2.38,5.32-5.32-2.38-5.32-5.32-5.32Z"/>
          <path class="cls-6" d="M626.74,277.31c-1.97,0-3.56,1.59-3.56,3.56,0,1.96,1.59,3.56,3.56,3.56,1.96,0,3.56-1.59,3.56-3.56s-1.59-3.56-3.56-3.56Z"/>
          <path class="cls-6" d="M609.98,278.38c-1.38,0-2.49,1.11-2.49,2.49s1.11,2.49,2.49,2.49,2.49-1.12,2.49-2.49-1.12-2.49-2.49-2.49Z"/>
          <path class="cls-6" d="M619.5,254.03c-.32-.22-.72-.35-1.14-.35s-.81.13-1.14.35c-.54.36-.9.98-.9,1.69,0,.14.01.28.04.41.08.4.28.75.55,1.03.09.09.19.18.3.25.22.15.46.25.73.31.13.03.27.04.41.04s.28-.01.41-.04c.26-.05.51-.16.73-.31.11-.07.21-.16.3-.25.28-.28.47-.63.55-1.03.03-.13.04-.27.04-.41,0-.7-.36-1.32-.9-1.69Z"/>
          <path class="cls-6" d="M618.36,268.74c-2.07,0-3.74,1.68-3.74,3.74s1.68,3.75,3.74,3.75c2.07,0,3.74-1.68,3.74-3.75s-1.68-3.74-3.74-3.74Z"/>
          <path class="cls-6" d="M619.68,287.29c-.38-.25-.83-.4-1.32-.4s-.94.15-1.32.4c-.63.42-1.04,1.14-1.04,1.96,0,.16.02.32.05.48.09.46.32.87.64,1.2.11.11.22.2.35.29.25.17.54.29.85.36.15.03.31.05.48.05s.32-.02.48-.05c.31-.06.59-.19.85-.36.13-.08.24-.18.35-.29.32-.32.55-.73.65-1.2.03-.15.05-.31.05-.48,0-.82-.41-1.54-1.04-1.96Z"/>
        </g>
      </g>
    </g>
  </g>
</svg>