<?xml version="1.0" encoding="UTF-8"?>
<svg id="_레이어_2" data-name="레이어 2" xmlns="http://www.w3.org/2000/svg" viewBox="0 0 519.72 116.11">
  <defs>
    <style>
      .cls-1 {
        fill: #00fbff;
      }

      .cls-2 {
        fill: #231815;
      }

      .cls-3 {
        fill: #221714;
      }
    </style>
  </defs>
  <g id="_키오_확인" data-name="키오_확인">
    <g>
      <g>
        <path class="cls-1" d="M86.68,116.11h0c-19.02,0-32.49,0-35.2,0-2.52,0-4.9-1.1-6.54-3.01-.08-.1-7.49-8.64-16.12-18.59C7.34,69.73,2.08,63.67,2.06,63.64c-2.74-3.24-2.74-7.93,0-11.17l2.63-3.04C13.96,38.74,44.74,3.25,44.96,3,46.6,1.09,48.99,0,51.49,0h197.54c.87,0,8.73,0,21.02,0h163.85c18.53,0,31.6,0,34.26,0,2.54,0,4.93,1.12,6.57,3.05,1.59,1.84,39.95,46.11,42.51,48.93.64.65,1.21,1.47,1.63,2.38,2.35,5.07-.74,8.64-2.79,11l-19.84,22.87c-9.7,11.18-20.69,23.84-21.47,24.77-1.62,1.96-4.05,3.11-6.63,3.11h-197.54c-.85,0-8.35,0-20.12,0H86.68ZM51.49,3.99c-1.35,0-2.64.59-3.52,1.61-.09.11-13.27,15.3-40.28,46.45l-2.62,3.02c-1.46,1.73-1.46,4.26.02,6,.14.16,14.64,16.88,26.74,30.83,8.66,9.99,16.09,18.56,16.13,18.6.89,1.03,2.17,1.62,3.53,1.63,2.71,0,16.18,0,35.19,0h163.81c11.78,0,19.28,0,20.13,0h197.53c1.39,0,2.7-.62,3.58-1.69.82-.96,11.34-13.08,21.51-24.81l19.84-22.86c2.14-2.47,3.4-4.12,2.19-6.72-.23-.49-.53-.93-.91-1.31-2.64-2.91-41.05-47.23-42.65-49.08-.9-1.06-2.19-1.66-3.56-1.66-2.66,0-15.73,0-34.26,0h-163.85c-12.3,0-20.16,0-21.02,0H51.49Z"/>
        <path class="cls-1" d="M511.05,58c-.03.13-42.89-49.35-42.9-49.36-11.43-.02-214.63.01-219.11,0,0,0-197.54,0-197.54,0-.05.06-42.93,49.51-42.85,49.41-.08-.09,42.8,49.36,42.85,49.42,11.43.02,214.63-.01,219.11,0,0,0,197.54,0,197.54,0,.08-.12,42.95-49.51,42.9-49.47Z"/>
        <g>
          <path class="cls-3" d="M81.12,56.41H23.44c-.68,0-1.24-.55-1.24-1.24s.55-1.24,1.24-1.24h57.68c.68,0,1.24.55,1.24,1.24s-.55,1.24-1.24,1.24Z"/>
          <path class="cls-3" d="M496.29,56.41h-57.68c-.68,0-1.24-.55-1.24-1.24s.55-1.24,1.24-1.24h57.68c.68,0,1.24.55,1.24,1.24s-.55,1.24-1.24,1.24Z"/>
        </g>
      </g>
      <g>
        <path class="cls-2" d="M203.8,37.08h10.33v-3.43h10.88v3.43h10.12v8.21h-2.94c.69,1.3,1.03,2.76,1.03,4.35,0,2.21-.73,4.03-2.2,5.47-1.47,1.43-3.65,2.4-6.55,2.91v1.9h11.69v8.16h-32.09v-8.16h10.06v-2.01c-2.72-.54-4.77-1.52-6.15-2.94-1.38-1.41-2.07-3.19-2.07-5.33,0-1.59.34-3.05,1.03-4.35h-3.15v-8.21ZM238.33,78.53h-32.14v-8.16h43.02v6.53c0,2.61-.29,4.73-.87,6.36l-10.66-.54c.44-1.31.65-2.7.65-4.19ZM217.5,50.13c.47.44,1.16.65,2.07.65s1.59-.22,2.07-.65c.47-.43.71-1.05.71-1.85,0-.73-.24-1.32-.71-1.79-.47-.47-1.16-.71-2.07-.71s-1.6.24-2.07.71c-.47.47-.71,1.07-.71,1.79,0,.8.23,1.41.71,1.85ZM238.33,35.01h10.88v11.2h4.9v9.14h-4.9v13.27h-10.88v-33.61Z"/>
        <path class="cls-2" d="M269.43,46.05c0-3.48,1.2-6.1,3.59-7.86,2.39-1.76,5.84-2.64,10.33-2.64s7.94.88,10.33,2.64c2.39,1.76,3.59,4.38,3.59,7.86v7.61c0,3.48-1.2,6.1-3.59,7.86-2.39,1.76-5.84,2.64-10.33,2.64s-7.94-.88-10.33-2.64c-2.39-1.76-3.59-4.38-3.59-7.86v-7.61ZM280.71,82.14c-3.1-.74-5.33-1.84-6.69-3.29-1.36-1.45-2.04-3.3-2.04-5.55v-7.4h10.88v5.71c0,.65.25,1.17.76,1.55s1.5.66,2.96.84c1.47.18,3.65.27,6.55.27,7.9,0,14.78-.62,20.61-1.85v8.97c-2.94.54-6.22.99-9.84,1.33-3.63.34-7.22.52-10.77.52-5.19,0-9.33-.37-12.43-1.12ZM283.57,55.19c1.05,0,1.86-.25,2.42-.76.56-.51.84-1.25.84-2.23v-4.68c0-.98-.28-1.72-.84-2.23s-1.37-.76-2.42-.76c-2.18,0-3.26,1-3.26,2.99v4.68c0,1.99,1.09,2.99,3.26,2.99ZM302.61,35.01h10.88v32.47h-10.88v-32.47Z"/>
      </g>
    </g>
  </g>
</svg>