<?xml version="1.0" encoding="UTF-8"?>
<svg id="_레이어_2" data-name="레이어 2" xmlns="http://www.w3.org/2000/svg" viewBox="0 0 982.64 216.76">
  <defs>
    <style>
      .cls-1 {
        fill: #00fbff;
      }

      .cls-2 {
        fill: #231815;
      }

      .cls-3 {
        fill: #221714;
      }
    </style>
  </defs>
  <g id="_키오_시작" data-name="키오_시작">
    <g>
      <g>
        <path class="cls-1" d="M162.69,216.76h0c-36.1,0-61.65,0-66.79-.01-4.26,0-8.28-1.87-11.05-5.09-.61-.69-81.24-93.67-81.38-93.84-4.63-5.46-4.63-13.4,0-18.87.05-.06,12.51-14.43,47.59-54.88C68.78,23.63,84.71,5.27,84.88,5.07,87.66,1.85,91.69.01,95.93.01h374.84c1.61,0,15.84,0,39.88,0l310.91-.02c35.17,0,59.96,0,65.02.01,4.29,0,8.34,1.89,11.12,5.16,3.11,3.59,75.82,87.51,80.71,92.89,1.13,1.14,2.09,2.52,2.8,4.06,3.98,8.57-1.22,14.58-5.02,18.96l-31.41,36.21c-18.02,20.77-45.26,52.16-46.99,54.18-2.76,3.34-6.86,5.27-11.23,5.27h-374.84c-1.46,0-13.59,0-38.18,0l-310.84.02ZM95.93,3.99c-3.08,0-6.01,1.34-8.04,3.68-.14.16-15.75,18.16-33.82,39C31.89,72.25,6.75,101.24,6.5,101.53c-3.36,3.97-3.36,9.74,0,13.72.27.31,80.87,93.25,81.35,93.81,2.02,2.36,4.95,3.71,8.05,3.72,5.14,0,30.69.01,66.78.01l310.84-.02c24.93,0,36.71,0,38.19,0h374.83c3.17,0,6.16-1.4,8.18-3.85,1.62-1.9,24.12-27.83,47.03-54.23l31.41-36.21c3.76-4.34,7.32-8.45,4.42-14.68-.52-1.12-1.22-2.12-2.08-2.99-4.97-5.46-77.72-89.43-80.84-93.04-2.03-2.4-4.98-3.77-8.1-3.77-5.05,0-29.84-.01-65.01-.01l-310.91.02c-24.05,0-38.28,0-39.89,0H95.93Z"/>
        <path class="cls-1" d="M967.97,108.27c-.07.24-81.4-93.64-81.41-93.66-21.7-.04-407.27.03-415.79,0,0,0-374.84,0-374.84,0-.09.11-81.47,93.94-81.31,93.77-.15-.17,81.22,93.66,81.31,93.77,21.7.04,407.27-.03,415.79,0,0,0,374.84,0,374.84,0,.14-.23,81.5-93.94,81.41-93.88Z"/>
        <g>
          <path class="cls-3" d="M152.15,105.26H42.69c-1.3,0-2.35-1.05-2.35-2.35s1.05-2.35,2.35-2.35h109.46c1.3,0,2.35,1.05,2.35,2.35s-1.05,2.35-2.35,2.35Z"/>
          <path class="cls-3" d="M939.97,105.26h-109.46c-1.3,0-2.35-1.05-2.35-2.35s1.05-2.35,2.35-2.35h109.46c1.3,0,2.35,1.05,2.35,2.35s-1.05,2.35-2.35,2.35Z"/>
        </g>
      </g>
      <g>
        <path class="cls-2" d="M399.23,122.2c3.61-5.47,5.42-12.95,5.42-22.45v-33.85h20.64v31.38c0,2.41-.1,4.75-.31,7.02,1.1,4.82,2.99,9.36,5.68,13.62,2.68,4.27,5.73,7.91,9.13,10.94,3.41,3.03,6.83,5.16,10.27,6.4l-9.91,16.72c-4.82-2-9.03-4.77-12.64-8.31s-6.86-8-9.75-13.37c-3.51,6.47-8.03,11.65-13.57,15.53-5.54,3.89-11.89,6.07-19.04,6.55v-20.02c5.78-1.31,10.48-4.7,14.09-10.17ZM452.54,64.66h20.64v90.51h-20.64v-90.51Z"/>
        <path class="cls-2" d="M504.01,100.78c5.64-.55,10.2-1.94,13.67-4.18,3.47-2.23,5.21-5.31,5.21-9.24v-3.1h-17.03v-17.54h54.7v17.54h-17.03v.62c0,1.45-.1,2.96-.31,4.54,1.65,3.3,4.82,6.28,9.5,8.93,4.68,2.65,9.56,4.42,14.66,5.32l-9.5,16.31c-4.82-1.17-9.03-2.82-12.64-4.95-3.61-2.13-6.86-4.82-9.75-8.05-3.44,3.92-7.84,7.07-13.21,9.44-5.37,2.37-11.46,3.7-18.27,3.97v-19.61ZM512.47,123.49h78.54v14.45c0,7.43-.55,13.52-1.65,18.27l-20.23-1.03c.83-4.33,1.24-9.05,1.24-14.14h-57.9v-17.54ZM570.37,64.66h20.64v15.07h9.29v17.34h-9.29v21.16h-20.64v-53.56Z"/>
      </g>
    </g>
  </g>
</svg>