<?xml version="1.0" encoding="UTF-8"?>
<svg id="_레이어_2" data-name="레이어 2" xmlns="http://www.w3.org/2000/svg" viewBox="0 0 275.64 101.9">
  <defs>
    <style>
      .cls-1 {
        fill: #fff;
      }
    </style>
  </defs>
  <g id="_키오_오른쪽_누른거" data-name="키오_오른쪽_누른거">
    <g>
      <path class="cls-1" d="M196.16,39.89c0-3.18-2.58-5.76-5.76-5.76s-5.76,2.58-5.76,5.76,2.58,5.76,5.76,5.76,5.76-2.58,5.76-5.76Z"/>
      <path class="cls-1" d="M241.7,39.89c0-3.91-3.17-7.07-7.07-7.07s-7.07,3.17-7.07,7.07,3.17,7.07,7.07,7.07,7.07-3.17,7.07-7.07Z"/>
      <path class="cls-1" d="M264.59,39.89c0-4.33-3.51-7.84-7.84-7.84s-7.84,3.51-7.84,7.84,3.51,7.83,7.84,7.83,7.84-3.51,7.84-7.83Z"/>
      <path class="cls-1" d="M128.28,39.89c0-2.34-1.9-4.24-4.23-4.24s-4.23,1.9-4.23,4.24,1.9,4.23,4.23,4.23,4.23-1.9,4.23-4.23Z"/>
      <path class="cls-1" d="M173.48,39.89c0-2.87-2.33-5.2-5.2-5.2s-5.2,2.33-5.2,5.2,2.33,5.2,5.2,5.2,5.2-2.33,5.2-5.2Z"/>
      <path class="cls-1" d="M105.75,39.89c0-2.11-1.71-3.82-3.82-3.82s-3.82,1.71-3.82,3.82,1.71,3.82,3.82,3.82,3.82-1.71,3.82-3.82Z"/>
      <path class="cls-1" d="M253.14,28.83c0-4.11-3.33-7.44-7.44-7.44s-7.45,3.33-7.45,7.44,3.33,7.45,7.45,7.45,7.44-3.34,7.44-7.45Z"/>
      <path class="cls-1" d="M230.29,28.83c0-2.32-1.17-4.36-2.96-5.57-1.07-.72-2.36-1.15-3.76-1.15-.46,0-.92.05-1.35.14-3.06.63-5.36,3.33-5.36,6.58s2.3,5.96,5.36,6.58c.44.09.89.14,1.35.14,1.39,0,2.69-.42,3.76-1.15,1.79-1.21,2.96-3.25,2.96-5.57Z"/>
      <path class="cls-1" d="M38.39,39.89c0-1.55-1.26-2.81-2.81-2.81s-2.81,1.26-2.81,2.81,1.26,2.81,2.81,2.81,2.81-1.26,2.81-2.81Z"/>
      <path class="cls-1" d="M60.81,39.89c0-1.72-1.39-3.11-3.11-3.11s-3.11,1.39-3.11,3.11,1.39,3.11,3.11,3.11,3.11-1.39,3.11-3.11Z"/>
      <path class="cls-1" d="M38.39,62.01c0-1.55-1.26-2.81-2.81-2.81s-2.81,1.26-2.81,2.81,1.26,2.81,2.81,2.81,2.81-1.26,2.81-2.81Z"/>
      <path class="cls-1" d="M173.48,62.01c0-2.87-2.33-5.2-5.2-5.2s-5.2,2.33-5.2,5.2,2.33,5.2,5.2,5.2,5.2-2.33,5.2-5.2Z"/>
      <path class="cls-1" d="M60.81,62.01c0-1.72-1.39-3.11-3.11-3.11s-3.11,1.39-3.11,3.11,1.39,3.11,3.11,3.11,3.11-1.4,3.11-3.11Z"/>
      <path class="cls-1" d="M196.16,62.01c0-3.18-2.58-5.76-5.76-5.76s-5.76,2.58-5.76,5.76,2.58,5.76,5.76,5.76,5.76-2.58,5.76-5.76Z"/>
      <path class="cls-1" d="M128.28,62.01c0-2.34-1.9-4.23-4.23-4.23s-4.23,1.9-4.23,4.23,1.9,4.24,4.23,4.24,4.23-1.9,4.23-4.24Z"/>
      <path class="cls-1" d="M105.75,62.01c0-2.11-1.71-3.82-3.82-3.82s-3.82,1.71-3.82,3.82,1.71,3.82,3.82,3.82,3.82-1.71,3.82-3.82Z"/>
      <path class="cls-1" d="M116.7,52.51c.2-.48.32-1.01.32-1.57,0-2.22-1.8-4.02-4.02-4.02s-4.02,1.8-4.02,4.02c0,.56.11,1.08.32,1.57s.5.91.86,1.28c.73.73,1.73,1.18,2.85,1.18s2.12-.45,2.84-1.18c.36-.36.66-.8.86-1.28Z"/>
      <path class="cls-1" d="M71.78,52.22c.17-.39.26-.82.26-1.28,0-1.81-1.47-3.28-3.28-3.28s-3.28,1.47-3.28,3.28c0,.45.09.88.26,1.28.17.39.41.75.7,1.04.59.59,1.41.96,2.32.96s1.72-.37,2.32-.96c.3-.3.54-.65.7-1.04Z"/>
      <path class="cls-1" d="M138.8,53.44c.16-.24.3-.49.41-.76.23-.53.35-1.12.35-1.73,0-.92-.28-1.78-.76-2.49-.8-1.19-2.16-1.96-3.7-1.96-.31,0-.61.03-.9.09-.87.18-1.65.61-2.25,1.21-.2.2-.38.42-.54.66-.32.47-.55,1.01-.67,1.59-.06.29-.09.59-.09.9s.03.61.09.9c.06.29.15.57.26.84.11.27.25.52.41.76.16.24.34.46.54.66.61.61,1.38,1.04,2.25,1.22.29.06.59.09.9.09,1.23,0,2.35-.5,3.15-1.31.2-.2.38-.42.54-.66Z"/>
      <path class="cls-1" d="M49.09,52.6c.11-.16.2-.33.27-.5.15-.35.23-.74.23-1.15,0-.61-.19-1.18-.5-1.65-.53-.79-1.43-1.3-2.45-1.3-.2,0-.4.02-.6.06-.58.12-1.09.4-1.49.81-.13.13-.25.28-.36.44-.21.31-.37.67-.44,1.06-.04.19-.06.39-.06.6s.02.4.06.6c.04.19.1.38.17.56s.17.35.27.5c.11.16.23.3.36.44.4.4.92.69,1.49.81.19.04.39.06.6.06.82,0,1.56-.33,2.09-.87.13-.13.25-.28.36-.44Z"/>
      <path class="cls-1" d="M275.03,54c.4-.94.62-1.97.62-3.05,0-4.33-3.5-7.83-7.84-7.83s-7.84,3.51-7.84,7.83c0,1.08.22,2.11.62,3.05.4.94.97,1.78,1.68,2.49,1.42,1.42,3.38,2.3,5.54,2.3s4.12-.88,5.54-2.3c.71-.71,1.28-1.55,1.68-2.49Z"/>
      <path class="cls-1" d="M183.88,54.01c.2-.29.37-.6.5-.93.28-.65.43-1.37.43-2.13,0-1.13-.34-2.19-.93-3.06-.98-1.45-2.65-2.41-4.54-2.41-.38,0-.75.04-1.1.11-1.07.22-2.02.75-2.77,1.49-.25.25-.47.52-.67.81-.39.58-.68,1.24-.82,1.96-.07.36-.11.72-.11,1.1s.04.75.11,1.1c.07.36.18.7.32,1.03.14.33.31.64.5.93.2.29.42.56.67.81.74.74,1.7,1.27,2.77,1.49.36.07.72.11,1.1.11,1.51,0,2.88-.61,3.87-1.6.25-.25.47-.52.67-.81Z"/>
      <path class="cls-1" d="M252.55,53.84c.38-.89.58-1.87.58-2.9,0-4.11-3.33-7.44-7.44-7.44s-7.45,3.33-7.45,7.44c0,1.03.21,2.01.59,2.9.38.89.92,1.69,1.6,2.37,1.35,1.35,3.21,2.18,5.27,2.18s3.92-.83,5.26-2.18c.67-.67,1.22-1.48,1.6-2.37Z"/>
      <path class="cls-1" d="M207.05,53.31c.31-.73.48-1.52.48-2.36,0-3.35-2.71-6.06-6.06-6.06s-6.07,2.71-6.07,6.06c0,.84.17,1.63.48,2.36.31.73.75,1.38,1.3,1.93,1.1,1.1,2.61,1.78,4.29,1.78s3.19-.68,4.29-1.78c.55-.55.99-1.2,1.3-1.93Z"/>
      <path class="cls-1" d="M241.7,62.01c0-3.91-3.17-7.07-7.07-7.07s-7.07,3.17-7.07,7.07,3.17,7.08,7.07,7.08,7.07-3.17,7.07-7.08Z"/>
      <path class="cls-1" d="M207.4,7.94c.08-.39.12-.8.12-1.22,0-3.35-2.71-6.06-6.06-6.06s-6.07,2.71-6.07,6.06c0,.42.04.83.12,1.22.57,2.76,3.01,4.84,5.94,4.84s5.37-2.08,5.94-4.84Z"/>
      <path class="cls-1" d="M162.06,7.71c.07-.32.1-.65.1-1,0-2.73-2.21-4.94-4.94-4.94s-4.94,2.21-4.94,4.94c0,.34.03.67.1,1,.46,2.25,2.45,3.95,4.84,3.95s4.38-1.7,4.84-3.95Z"/>
      <path class="cls-1" d="M230.16,8.07c.09-.44.14-.89.14-1.35,0-2.32-1.17-4.36-2.96-5.57-1.07-.72-2.36-1.15-3.76-1.15-.46,0-.92.05-1.35.14-3.06.63-5.36,3.33-5.36,6.58,0,.46.05.92.14,1.35.54,2.62,2.6,4.69,5.23,5.23.44.09.89.14,1.35.14,1.39,0,2.69-.42,3.76-1.15,1.43-.97,2.47-2.47,2.82-4.22Z"/>
      <path class="cls-1" d="M138.8,9.21c.32-.47.55-1.01.67-1.59.06-.29.09-.59.09-.9,0-.92-.28-1.78-.76-2.49-.8-1.19-2.16-1.96-3.7-1.96-.31,0-.61.03-.9.09-.87.18-1.65.61-2.25,1.21-.2.2-.38.42-.54.66-.32.47-.55,1.01-.67,1.59-.06.29-.09.59-.09.9s.03.61.09.9c.12.58.35,1.12.67,1.59.16.24.34.46.54.66.61.61,1.38,1.04,2.25,1.22.29.06.59.09.9.09,1.54,0,2.9-.78,3.7-1.97Z"/>
      <path class="cls-1" d="M71.97,7.38c.04-.21.07-.43.07-.66,0-1.81-1.47-3.28-3.28-3.28s-3.28,1.47-3.28,3.28c0,.23.02.45.07.66.31,1.49,1.63,2.62,3.21,2.62s2.9-1.12,3.21-2.62Z"/>
      <path class="cls-1" d="M94.43,7.45c.05-.24.07-.48.07-.73,0-1.25-.63-2.36-1.6-3.01-.58-.39-1.28-.62-2.03-.62-.25,0-.5.03-.73.07-1.65.34-2.9,1.8-2.9,3.56,0,.25.03.5.07.73.29,1.42,1.41,2.54,2.83,2.83.24.05.48.07.73.07.75,0,1.45-.23,2.03-.62.77-.52,1.33-1.33,1.53-2.28Z"/>
      <path class="cls-1" d="M4.41,8.06c.17-.26.3-.55.36-.86.03-.16.05-.32.05-.49,0-.5-.15-.96-.41-1.35-.43-.64-1.17-1.06-2-1.06-.17,0-.33.02-.49.05-.47.1-.89.33-1.22.66-.11.11-.21.23-.29.36-.17.26-.3.55-.36.86-.03.16-.05.32-.05.49s.02.33.05.49c.06.31.19.6.36.86.09.13.19.25.29.36.33.33.75.56,1.22.66.16.03.32.05.49.05.83,0,1.56-.42,2-1.06Z"/>
      <path class="cls-1" d="M27.14,7.25c.04-.17.05-.35.05-.54,0-1.47-1.19-2.67-2.67-2.67s-2.67,1.19-2.67,2.67c0,.18.02.36.05.54.25,1.22,1.33,2.13,2.62,2.13s2.37-.92,2.61-2.13Z"/>
      <path class="cls-1" d="M183.88,31.89c.59-.87.93-1.93.93-3.06s-.34-2.19-.93-3.06c-.98-1.45-2.65-2.41-4.54-2.41-.38,0-.75.04-1.1.11-1.07.22-2.02.75-2.77,1.49-.25.25-.47.52-.67.81-.39.58-.68,1.24-.82,1.96-.07.36-.11.72-.11,1.1s.04.75.11,1.1c.15.71.43,1.37.82,1.96.2.29.42.56.67.81.74.74,1.7,1.27,2.77,1.49.36.07.72.11,1.1.11,1.89,0,3.56-.96,4.54-2.41Z"/>
      <path class="cls-1" d="M94.51,28.83c0-1.25-.63-2.36-1.6-3.01-.58-.39-1.28-.62-2.03-.62-.25,0-.5.03-.73.07-1.65.34-2.9,1.8-2.9,3.56s1.25,3.22,2.9,3.56c.24.05.48.07.73.07.75,0,1.45-.23,2.03-.62.97-.65,1.6-1.76,1.6-3.01Z"/>
      <path class="cls-1" d="M117.01,28.83c0-2.22-1.8-4.02-4.02-4.02s-4.02,1.8-4.02,4.02,1.8,4.02,4.02,4.02,4.02-1.8,4.02-4.02Z"/>
      <path class="cls-1" d="M162.16,28.83c0-2.73-2.21-4.94-4.94-4.94s-4.94,2.21-4.94,4.94,2.21,4.94,4.94,4.94,4.94-2.21,4.94-4.94Z"/>
      <path class="cls-1" d="M49.09,30.49c.32-.47.5-1.04.5-1.65s-.19-1.18-.5-1.65c-.53-.79-1.43-1.3-2.45-1.3-.2,0-.4.02-.6.06-.58.12-1.09.4-1.49.81-.13.13-.25.28-.36.44-.21.31-.37.67-.44,1.06-.04.19-.06.39-.06.6s.02.4.06.6c.08.38.23.74.44,1.06.11.16.23.3.36.44.4.4.92.69,1.49.81.19.04.39.06.6.06,1.02,0,1.92-.52,2.45-1.3Z"/>
      <path class="cls-1" d="M27.19,28.83c0-1.47-1.19-2.67-2.67-2.67s-2.67,1.19-2.67,2.67,1.2,2.67,2.67,2.67,2.67-1.2,2.67-2.67Z"/>
      <path class="cls-1" d="M105.75,17.78c0-2.11-1.71-3.82-3.82-3.82s-3.82,1.71-3.82,3.82,1.71,3.82,3.82,3.82,3.82-1.71,3.82-3.82Z"/>
      <path class="cls-1" d="M16,17.78c0-1.4-1.13-2.54-2.54-2.54s-2.54,1.13-2.54,2.54,1.14,2.54,2.54,2.54,2.54-1.14,2.54-2.54Z"/>
      <path class="cls-1" d="M83.27,17.78c0-1.9-1.54-3.45-3.45-3.45s-3.45,1.54-3.45,3.45,1.54,3.45,3.45,3.45,3.45-1.55,3.45-3.45Z"/>
      <path class="cls-1" d="M38.39,17.78c0-1.55-1.26-2.81-2.81-2.81s-2.81,1.26-2.81,2.81,1.26,2.81,2.81,2.81,2.81-1.26,2.81-2.81Z"/>
      <path class="cls-1" d="M241.7,17.78c0-3.91-3.17-7.07-7.07-7.07s-7.07,3.17-7.07,7.07,3.17,7.08,7.07,7.08,7.07-3.17,7.07-7.08Z"/>
      <path class="cls-1" d="M218.9,17.78c0-3.53-2.86-6.38-6.38-6.38s-6.38,2.86-6.38,6.38,2.86,6.39,6.38,6.39,6.38-2.86,6.38-6.39Z"/>
      <path class="cls-1" d="M150.86,17.78c0-2.59-2.1-4.69-4.69-4.69s-4.69,2.1-4.69,4.69,2.1,4.69,4.69,4.69,4.69-2.1,4.69-4.69Z"/>
      <path class="cls-1" d="M173.48,17.78c0-2.87-2.33-5.2-5.2-5.2s-5.2,2.33-5.2,5.2,2.33,5.2,5.2,5.2,5.2-2.33,5.2-5.2Z"/>
      <path class="cls-1" d="M83.27,84.12c0-1.91-1.54-3.45-3.45-3.45s-3.45,1.54-3.45,3.45,1.54,3.45,3.45,3.45,3.45-1.54,3.45-3.45Z"/>
      <path class="cls-1" d="M264.59,62.01c0-4.33-3.51-7.84-7.84-7.84s-7.84,3.51-7.84,7.84,3.51,7.84,7.84,7.84,7.84-3.51,7.84-7.84Z"/>
      <path class="cls-1" d="M253.14,73.06c0-4.11-3.33-7.44-7.44-7.44s-7.45,3.33-7.45,7.44,3.33,7.45,7.45,7.45,7.44-3.34,7.44-7.45Z"/>
      <path class="cls-1" d="M162.16,73.06c0-2.73-2.21-4.94-4.94-4.94s-4.94,2.21-4.94,4.94,2.21,4.94,4.94,4.94,4.94-2.21,4.94-4.94Z"/>
      <path class="cls-1" d="M183.88,76.12c.59-.87.93-1.93.93-3.06s-.34-2.19-.93-3.06c-.98-1.45-2.65-2.41-4.54-2.41-.38,0-.75.04-1.1.11-1.07.22-2.02.75-2.77,1.49-.25.25-.47.52-.67.81-.39.58-.68,1.24-.82,1.96-.07.36-.11.72-.11,1.1s.04.75.11,1.1c.15.71.43,1.37.82,1.96.2.29.42.56.67.81.74.74,1.7,1.27,2.77,1.49.36.07.72.11,1.1.11,1.89,0,3.56-.96,4.54-2.41Z"/>
      <path class="cls-1" d="M230.29,73.06c0-2.32-1.17-4.36-2.96-5.57-1.07-.72-2.36-1.15-3.76-1.15-.46,0-.92.05-1.35.14-3.06.63-5.36,3.33-5.36,6.58s2.3,5.96,5.36,6.58c.44.09.89.14,1.35.14,1.39,0,2.69-.42,3.76-1.15,1.79-1.21,2.96-3.25,2.96-5.57Z"/>
      <path class="cls-1" d="M27.19,73.06c0-1.47-1.19-2.67-2.67-2.67s-2.67,1.19-2.67,2.67,1.2,2.67,2.67,2.67,2.67-1.2,2.67-2.67Z"/>
      <path class="cls-1" d="M49.09,74.72c.32-.47.5-1.04.5-1.65s-.19-1.18-.5-1.65c-.53-.79-1.43-1.3-2.45-1.3-.2,0-.4.02-.6.06-.58.12-1.09.4-1.49.81-.13.13-.25.28-.36.44-.21.31-.37.67-.44,1.06-.04.19-.06.39-.06.6s.02.4.06.6c.08.38.23.74.44,1.06.11.16.23.3.36.44.4.4.92.69,1.49.81.19.04.39.06.6.06,1.02,0,1.92-.52,2.45-1.3Z"/>
      <path class="cls-1" d="M94.51,73.06c0-1.25-.63-2.36-1.6-3.01-.58-.39-1.28-.62-2.03-.62-.25,0-.5.03-.73.07-1.65.34-2.9,1.8-2.9,3.56s1.25,3.22,2.9,3.56c.24.05.48.07.73.07.75,0,1.45-.23,2.03-.62.97-.65,1.6-1.76,1.6-3.01Z"/>
      <path class="cls-1" d="M117.01,73.06c0-2.22-1.8-4.02-4.02-4.02s-4.02,1.8-4.02,4.02,1.8,4.02,4.02,4.02,4.02-1.8,4.02-4.02Z"/>
      <path class="cls-1" d="M16,84.12c0-1.4-1.13-2.54-2.54-2.54s-2.54,1.13-2.54,2.54,1.14,2.53,2.54,2.53,2.54-1.13,2.54-2.53Z"/>
      <path class="cls-1" d="M26.98,96.22c.14-.32.21-.67.21-1.04,0-1.47-1.19-2.67-2.67-2.67s-2.67,1.19-2.67,2.67c0,.37.07.72.21,1.04.14.32.33.61.57.85.48.48,1.15.78,1.89.78s1.4-.3,1.89-.78c.24-.24.44-.53.57-.85Z"/>
      <path class="cls-1" d="M71.78,96.45c.17-.39.26-.82.26-1.28,0-1.81-1.47-3.28-3.28-3.28s-3.28,1.47-3.28,3.28c0,.45.09.88.26,1.28s.41.75.7,1.04c.59.59,1.41.96,2.32.96s1.72-.37,2.32-.96c.3-.3.54-.65.7-1.04Z"/>
      <path class="cls-1" d="M207.05,97.54c.31-.73.48-1.52.48-2.36,0-3.35-2.71-6.06-6.06-6.06s-6.07,2.71-6.07,6.06c0,.84.17,1.63.48,2.36.31.73.75,1.38,1.3,1.93,1.1,1.1,2.61,1.78,4.29,1.78s3.19-.68,4.29-1.78c.55-.55.99-1.2,1.3-1.93Z"/>
      <path class="cls-1" d="M228.33,99.93c.61-.61,1.1-1.33,1.44-2.14s.53-1.69.53-2.61c0-2.32-1.17-4.36-2.96-5.57-1.07-.72-2.36-1.15-3.76-1.15-.46,0-.92.05-1.35.14-3.06.63-5.36,3.33-5.36,6.58,0,.93.19,1.81.53,2.61.34.8.83,1.53,1.44,2.14.91.91,2.08,1.56,3.4,1.83.44.09.89.14,1.35.14,1.39,0,2.69-.42,3.76-1.15.36-.24.69-.52.99-.82Z"/>
      <path class="cls-1" d="M93.44,97.75c.33-.33.59-.72.78-1.15.18-.43.29-.91.29-1.41,0-1.25-.63-2.36-1.6-3.01-.58-.39-1.28-.62-2.03-.62-.25,0-.5.03-.73.07-1.65.34-2.9,1.8-2.9,3.56,0,.5.1.98.29,1.41.18.43.45.83.78,1.15.49.49,1.13.85,1.84.99.24.05.48.07.73.07.75,0,1.45-.23,2.03-.62.19-.13.37-.28.54-.44Z"/>
      <path class="cls-1" d="M161.78,97.1c.25-.59.39-1.24.39-1.92,0-2.73-2.21-4.94-4.94-4.94s-4.94,2.21-4.94,4.94c0,.68.14,1.33.39,1.92.25.59.61,1.12,1.06,1.57.89.89,2.13,1.45,3.49,1.45s2.6-.55,3.49-1.45c.45-.45.81-.98,1.06-1.57Z"/>
      <path class="cls-1" d="M138.8,97.67c.16-.24.3-.49.41-.76.23-.53.35-1.12.35-1.73,0-.92-.28-1.78-.76-2.49-.8-1.19-2.16-1.96-3.7-1.96-.31,0-.61.03-.9.09-.87.18-1.65.61-2.25,1.21-.2.2-.38.42-.54.66-.32.47-.55,1.01-.67,1.59-.06.29-.09.59-.09.9s.03.61.09.9c.06.29.15.57.26.84.11.27.25.52.41.76.16.24.34.46.54.66.61.61,1.38,1.04,2.25,1.22.29.06.59.09.9.09,1.23,0,2.35-.5,3.15-1.31.2-.2.38-.42.54-.66Z"/>
      <path class="cls-1" d="M4.41,96.53c.09-.13.16-.27.22-.41.12-.29.19-.6.19-.94,0-.5-.15-.96-.41-1.35-.43-.64-1.17-1.06-2-1.06-.17,0-.33.02-.49.05-.47.1-.89.33-1.22.66-.11.11-.21.23-.29.36-.17.26-.3.55-.36.86-.03.16-.05.32-.05.48s.02.33.05.49c.03.16.08.31.14.45s.14.28.22.41c.09.13.19.25.29.36.33.33.75.56,1.22.66.16.03.32.05.49.05.67,0,1.27-.27,1.7-.71.11-.11.21-.23.29-.36Z"/>
      <path class="cls-1" d="M150.86,84.12c0-2.59-2.1-4.69-4.69-4.69s-4.69,2.1-4.69,4.69,2.1,4.69,4.69,4.69,4.69-2.1,4.69-4.69Z"/>
      <path class="cls-1" d="M105.75,84.12c0-2.11-1.71-3.82-3.82-3.82s-3.82,1.71-3.82,3.82,1.71,3.82,3.82,3.82,3.82-1.71,3.82-3.82Z"/>
      <path class="cls-1" d="M38.39,84.12c0-1.55-1.26-2.81-2.81-2.81s-2.81,1.26-2.81,2.81,1.26,2.81,2.81,2.81,2.81-1.26,2.81-2.81Z"/>
      <path class="cls-1" d="M173.48,84.12c0-2.87-2.33-5.2-5.2-5.2s-5.2,2.33-5.2,5.2,2.33,5.2,5.2,5.2,5.2-2.33,5.2-5.2Z"/>
      <path class="cls-1" d="M241.7,84.12c0-3.91-3.17-7.07-7.07-7.07s-7.07,3.17-7.07,7.07,3.17,7.07,7.07,7.07,7.07-3.17,7.07-7.07Z"/>
      <path class="cls-1" d="M218.9,84.12c0-3.53-2.86-6.38-6.38-6.38s-6.38,2.86-6.38,6.38,2.86,6.38,6.38,6.38,6.38-2.86,6.38-6.38Z"/>
    </g>
  </g>
</svg>