<?xml version="1.0" encoding="UTF-8"?>
<svg id="_레이어_2" data-name="레이어 2" xmlns="http://www.w3.org/2000/svg" viewBox="0 0 396.2 95.7">
  <defs>
    <style>
      .cls-1 {
        fill: #00fbff;
      }
    </style>
  </defs>
  <g id="_탐험종료" data-name="탐험종료">
    <g>
      <path class="cls-1" d="M0,4.72h54.56v14.9h-30.64c-.56,1.33-1.05,2.66-1.47,3.99h31.06v11.02h-31.58c.56,1.68,1.94,2.85,4.14,3.52,2.2.67,5.72,1,10.54,1,6.23,0,12.59-.42,19.1-1.26l1.99,14.27c-2.24.63-5.19,1.14-8.87,1.52-3.67.38-7.26.58-10.75.58-8.81,0-15.97-.65-21.46-1.94-5.49-1.29-9.57-3.34-12.22-6.14-2.66-2.8-3.99-6.51-3.99-11.12,0-5.95,1.29-11.09,3.88-15.42H0V4.72ZM4.72,57.71h80.8v33.16c-4.2,1.54-9.9,2.73-17.1,3.57-7.21.84-15.11,1.26-23.71,1.26s-16.2-.44-23.19-1.31c-7-.88-12.59-2.05-16.79-3.52v-33.16ZM32.58,79.22c3.81.35,7.85.52,12.12.52s8.52-.17,12.54-.52c4.02-.35,6.45-.7,7.29-1.05v-5.04H25.71v5.04c.77.35,3.06.7,6.87,1.05ZM64.53,2.62h20.99v15.32h9.44v17.63h-9.44v17.94h-20.99V2.62Z"/>
      <path class="cls-1" d="M168.44,38.09h-7.76v-15.11h-4.41c1.68,2.94,2.52,6.37,2.52,10.28s-1.02,7.56-3.04,10.7c-2.03,3.15-5.04,5.61-9.03,7.4-3.99,1.78-8.81,2.68-14.48,2.68s-10.49-.89-14.48-2.68c-3.99-1.78-7-4.25-9.02-7.4-2.03-3.15-3.04-6.71-3.04-10.7s.84-7.34,2.52-10.28h-5.88V6.3h19.41V0h20.99v6.3h19.31v15.22h6.4V2.62h20.99v50.89h-20.99v-15.42ZM108.63,57.71h80.8v33.16c-4.2,1.54-9.9,2.73-17.1,3.57-7.21.84-15.11,1.26-23.71,1.26s-16.2-.44-23.19-1.31c-7-.88-12.59-2.05-16.79-3.52v-33.16ZM128.2,35c1.08,1.22,2.43,1.84,4.04,1.84s2.96-.61,4.04-1.84c1.08-1.22,1.63-2.92,1.63-5.09s-.54-3.86-1.63-5.09c-1.09-1.22-2.43-1.84-4.04-1.84s-2.96.61-4.04,1.84c-1.09,1.22-1.63,2.92-1.63,5.09s.54,3.87,1.63,5.09ZM136.49,79.22c3.81.35,7.85.52,12.12.52s8.52-.17,12.54-.52c4.02-.35,6.45-.7,7.29-1.05v-5.04h-38.83v5.04c.77.35,3.06.7,6.87,1.05Z"/>
      <path class="cls-1" d="M203.1,41.34h35.15v-6.82h20.99v6.82h35.15v16.58h-91.29v-16.58ZM205.61,22.46c11.82-.07,20.22-.49,25.18-1.26,4.97-.77,7.45-1.85,7.45-3.25v-.52h-31.48V2.62h83.95v14.79h-31.48v.11c0,.91-.04,1.57-.1,1.99,2.8.63,7.29,1.19,13.48,1.68,6.19.49,12.85.84,19.99,1.05l-1.68,13.85c-10.14-.42-18.49-1.01-25.03-1.78-6.54-.77-12.26-1.85-17.16-3.25-8.05,3.36-22.42,5.18-43.13,5.46v-14.06ZM212.49,91.82c-4.02-2.59-6.03-6.93-6.03-13.01s2.03-10.42,6.09-13.01c4.06-2.59,10.07-3.88,18.05-3.88h36.31c7.97,0,13.99,1.29,18.05,3.88,4.06,2.59,6.09,6.93,6.09,13.01s-2.01,10.42-6.03,13.01c-4.02,2.59-10.06,3.88-18.1,3.88h-36.31c-8.04,0-14.08-1.29-18.1-3.88ZM232.27,80.9h32.95c2.52,0,3.78-.73,3.78-2.2s-1.26-2.2-3.78-2.2h-32.95c-2.52,0-3.78.73-3.78,2.2s1.26,2.2,3.78,2.2Z"/>
      <path class="cls-1" d="M304.91,77.34h16.26v-15.32c-4.2-1.4-7.26-3.29-9.18-5.67-1.92-2.38-2.88-5.35-2.88-8.92,0-2.24.49-4.27,1.47-6.09h-2.52v-14.17h62.96v-6.19h-62.96V4.72h83.95v36.62h-61.39c-.35.84-.52,1.71-.52,2.62,0,1.33.52,2.34,1.57,3.04,1.05.7,3.16,1.21,6.35,1.52,3.18.31,8.1.47,14.74.47,16.02,0,29.28-.87,39.77-2.62v16.26c-3.78.63-7.97,1.15-12.59,1.57v13.12h16.26v17.84h-91.29v-17.84ZM360,77.34v-12.17c-1.89.07-4.83.1-8.81.1-2.52,0-5.88-.07-10.07-.21v12.28h18.89Z"/>
    </g>
  </g>
</svg>