<?xml version="1.0" encoding="UTF-8"?>
<svg id="_레이어_2" data-name="레이어 2" xmlns="http://www.w3.org/2000/svg" viewBox="0 0 400.39 95.7">
  <defs>
    <style>
      .cls-1 {
        fill: #00fbff;
      }
    </style>
  </defs>
  <g id="_텀험시작" data-name="텀험시작">
    <g>
      <path class="cls-1" d="M0,4.72h54.56v14.9h-30.64c-.56,1.33-1.05,2.66-1.47,3.99h31.06v11.02h-31.58c.56,1.68,1.94,2.85,4.14,3.52,2.2.67,5.72,1,10.55,1,6.23,0,12.59-.42,19.1-1.26l1.99,14.27c-2.24.63-5.19,1.14-8.87,1.52-3.67.39-7.26.58-10.76.58-8.81,0-15.97-.65-21.46-1.94-5.49-1.29-9.57-3.34-12.22-6.14-2.66-2.8-3.99-6.51-3.99-11.12,0-5.95,1.29-11.09,3.88-15.43H0V4.72ZM4.72,57.71h80.8v33.16c-4.2,1.54-9.9,2.73-17.1,3.57-7.21.84-15.11,1.26-23.71,1.26s-16.2-.44-23.19-1.31c-7-.88-12.59-2.05-16.79-3.52v-33.16ZM32.58,79.22c3.81.35,7.85.52,12.12.52s8.52-.17,12.54-.52c4.02-.35,6.45-.7,7.29-1.05v-5.04H25.71v5.04c.77.35,3.06.7,6.87,1.05ZM64.53,2.62h20.99v15.32h9.44v17.63h-9.44v17.94h-20.99V2.62Z"/>
      <path class="cls-1" d="M168.44,38.09h-7.77v-15.11h-4.41c1.68,2.94,2.52,6.37,2.52,10.28s-1.01,7.56-3.04,10.7c-2.03,3.15-5.04,5.61-9.02,7.4-3.99,1.78-8.81,2.68-14.48,2.68s-10.49-.89-14.48-2.68c-3.99-1.78-7-4.25-9.02-7.4-2.03-3.15-3.04-6.72-3.04-10.7s.84-7.35,2.52-10.28h-5.88V6.3h19.41V0h20.99v6.3h19.31v15.22h6.4V2.62h20.99v50.89h-20.99v-15.42ZM108.63,57.71h80.8v33.16c-4.2,1.54-9.9,2.73-17.1,3.57-7.21.84-15.11,1.26-23.71,1.26s-16.2-.44-23.19-1.31c-7-.88-12.59-2.05-16.79-3.52v-33.16ZM128.2,35c1.08,1.22,2.43,1.84,4.04,1.84s2.95-.61,4.04-1.84c1.08-1.22,1.63-2.92,1.63-5.09s-.54-3.86-1.63-5.09c-1.09-1.22-2.43-1.84-4.04-1.84s-2.96.61-4.04,1.84c-1.09,1.22-1.63,2.92-1.63,5.09s.54,3.87,1.63,5.09ZM136.49,79.22c3.81.35,7.85.52,12.12.52s8.52-.17,12.54-.52c4.02-.35,6.45-.7,7.29-1.05v-5.04h-38.83v5.04c.77.35,3.06.7,6.87,1.05Z"/>
      <path class="cls-1" d="M216.05,61.12c3.67-5.56,5.51-13.17,5.51-22.82V3.88h20.99v31.9c0,2.45-.1,4.83-.31,7.14,1.12,4.9,3.04,9.51,5.77,13.85,2.73,4.34,5.82,8.05,9.29,11.12,3.46,3.08,6.94,5.25,10.44,6.51l-10.07,17c-4.9-2.03-9.18-4.84-12.85-8.45-3.67-3.6-6.98-8.13-9.92-13.59-3.57,6.58-8.17,11.84-13.8,15.79-5.63,3.95-12.08,6.17-19.36,6.66v-20.36c5.88-1.33,10.65-4.77,14.32-10.34ZM270.25,2.62h20.99v92.03h-20.99V2.62Z"/>
      <path class="cls-1" d="M302.49,39.35c5.74-.56,10.37-1.98,13.9-4.25,3.53-2.27,5.3-5.4,5.3-9.39v-3.15h-17.31V4.72h55.61v17.84h-17.31v.63c0,1.47-.1,3.01-.31,4.62,1.68,3.36,4.9,6.38,9.65,9.08,4.76,2.69,9.72,4.5,14.9,5.4l-9.65,16.58c-4.9-1.19-9.18-2.87-12.85-5.04-3.67-2.17-6.98-4.9-9.92-8.18-3.5,3.99-7.97,7.19-13.43,9.6-5.46,2.41-11.65,3.76-18.57,4.04v-19.94ZM311.1,62.44h79.85v14.69c0,7.56-.56,13.75-1.68,18.57l-20.57-1.05c.84-4.41,1.26-9.2,1.26-14.38h-58.87v-17.84ZM369.96,2.62h20.99v15.32h9.44v17.63h-9.44v21.51h-20.99V2.62Z"/>
    </g>
  </g>
</svg>