<?xml version="1.0" encoding="UTF-8"?>
<svg id="_레이어_2" data-name="레이어 2" xmlns="http://www.w3.org/2000/svg" viewBox="0 0 107.99 187.58">
  <defs>
    <style>
      .cls-1 {
        fill: #ad5e00;
      }
    </style>
  </defs>
  <g id="_해양그물_잡은거" data-name="해양그물 잡은거">
    <path class="cls-1" d="M103.55,143.44c-.18-.48-.3-.97-.36-1.43-.08-.55-.1-1.15-.01-1.73.29-1.1.9-2.12,1.49-3.12.81-1.36,1.64-2.77,1.67-4.35.37.92.85,1.81,1.36,2.72-.06-.4-.13-.81-.2-1.21-.36-.69-.69-1.37-.94-2.07-.09-.27-.17-.54-.24-.79-.06-.21-.11-.42-.16-.64-.18-.95-.22-1.95-.22-2.98-.13-.43-.26-.86-.4-1.28,0,.08,0,.15,0,.23-.01,1.18-.02,2.32.11,3.42-.87-1.64-2.38-2.84-3.86-4-1.22-.96-2.48-1.95-3.37-3.2-.22-.4-.4-.8-.54-1.18-.06,0-.09.01-.14.02.04,0,.08-.01.14-.02-.2-.55-.35-1.16-.39-1.78.03-1.17.37-2.34.71-3.49.44-1.49.89-3.01.66-4.55.54.93,1.2,1.83,1.91,2.73-.32-.67-.65-1.35-.98-2.03-.32-.47-.61-.95-.87-1.44-.02-.05-.05-.09-.07-.14-.06-.11-.11-.22-.16-.34-.02-.05-.05-.1-.07-.15-.03-.07-.06-.14-.09-.21-.1-.24-.19-.49-.27-.74-.26-.51-.52-1.01-.79-1.52.08.4.16.79.27,1.17-1.02-1.46-2.48-2.57-3.9-3.64-1.36-1.03-2.76-2.09-3.78-3.47-.2-.33-.37-.66-.52-.98-.11-.23-.2-.45-.27-.67-.25-1.35,0-2.72.26-4.06.15-.78.3-1.58.35-2.38-.13-.24-.26-.48-.39-.72.02.99-.16,1.99-.36,3.02-.2,1.06-.41,2.14-.37,3.24,0,.15-.01.31-.01.44,0,.09-.09.12-.18.08-.89-1.15-2.08-2.07-3.23-2.96-1.35-1.04-2.63-2.03-3.45-3.34-.2-.39-.37-.79-.5-1.18-.17-.51-.31-1.08-.37-1.65-.06-1.2.17-2.44.41-3.73.28-1.52.58-3.08.37-4.63.89,1.58,2.22,2.85,3.52,4.07.46.44.93.88,1.38,1.35-.2-.38-.39-.76-.59-1.14-.17-.17-.35-.33-.52-.49-1.53-1.45-3.11-2.94-3.91-4.94-.49-1.46-.45-3-.34-4.51-.12-.26-.23-.52-.34-.78-.11,1.37-.22,2.78,0,4.16-.74-1.35-1.73-2.55-2.7-3.72-1.45-1.75-2.82-3.41-3.42-5.53-.5-1.78-.35-3.6-.2-5.54.12-1.41.23-2.86.07-4.3.36.74.78,1.45,1.24,2.13-.2-.57-.39-1.15-.58-1.74-.34-.62-.63-1.27-.85-1.94-.19-.62-.3-1.25-.38-1.89-.18-.55-.35-1.1-.52-1.65.02.65.07,1.3.15,1.94-.57-1.22-1.26-2.39-1.95-3.52-1.1-1.84-2.25-3.74-2.78-5.84-.42-1.62-.41-3.35-.4-5.02,0-1.13.01-2.28-.11-3.43.26.58.54,1.16.83,1.72-.24-.83-.48-1.66-.71-2.47-.15-.37-.28-.74-.4-1.13-.13-.47-.23-.94-.32-1.41-.28-.99-.55-1.97-.82-2.93.08.71.16,1.43.28,2.14-.37-.9-.77-1.78-1.17-2.65-.97-2.13-1.98-4.33-2.42-6.69-.41-2.21-.64-4.52-.86-6.76-.05-.52-.1-1.04-.16-1.56-.23-.79-.45-1.57-.67-2.32.17,1.31.3,2.63.43,3.92.09.95.19,1.92.3,2.88-.3-1.08-.61-2.15-.93-3.21-.75-2.53-1.53-5.15-1.98-7.77-.18-1.21-.25-2.44-.3-3.67-.15-.42-.3-.82-.44-1.22.02.64.04,1.29.07,1.94-.13-.52-.26-1.04-.39-1.55-.25-.97-.5-1.96-.72-2.95-.28-.61-.55-1.17-.82-1.67.08,1.18.1,2.37.12,3.54,0,.5.02,1.01.03,1.52-.08-.37-.16-.74-.23-1.11-.36-1.7-.74-3.46-.88-5.19,0-.1-.01-.21-.02-.31-.16-.21-.32-.4-.49-.57.03.3.06.6.08.91.09,1.61.02,3.27-.06,4.88-.02.51-.05,1.02-.06,1.54-.08-.49-.16-.98-.24-1.46-.27-1.61-.55-3.27-.61-4.89-.02-.56,0-1.11.05-1.64-.2-.11-.41-.19-.62-.24.08.61.14,1.24.14,1.89.01,1.62-.17,3.29-.34,4.91-.05.5-.11,1-.16,1.51-.06-.56-.12-1.11-.18-1.66-.18-1.55-.36-3.16-.35-4.72,0-.68.06-1.32.15-1.95-.21.04-.42.11-.63.22.05.56.07,1.14.05,1.73-.06,1.67-.33,3.39-.6,5.04-.07.4-.13.81-.19,1.23-.02-.56-.05-1.11-.08-1.66-.08-1.51-.17-3.07-.09-4.58.02-.4.06-.78.11-1.16-.17.16-.33.35-.5.55,0,.19-.02.38-.03.58-.14,1.73-.51,3.49-.87,5.19-.05.26-.11.52-.16.78.01-.57.02-1.13.02-1.69,0-1.13.02-2.28.09-3.42-.26.45-.52.96-.78,1.52-.22.98-.48,1.97-.73,2.93-.1.38-.2.77-.3,1.15.03-.59.04-1.18.05-1.77-.14.37-.29.74-.43,1.14-.04,1.15-.11,2.3-.3,3.43-.41,2.36-1.15,4.7-1.86,6.96-.26.82-.52,1.66-.77,2.5.12-1.03.2-2.06.29-3.08.07-.78.14-1.58.22-2.38-.19.65-.39,1.32-.59,2.01,0,.11-.02.22-.03.34-.18,2.16-.38,4.39-.82,6.54-.6,2.87-1.71,5.64-2.77,8.31-.48,1.19-.96,2.41-1.41,3.64.09-.57.17-1.14.24-1.71-.3,1.08-.61,2.18-.93,3.29-.04.21-.08.41-.12.62-.09.3-.2.59-.31.88-.24.84-.48,1.69-.73,2.54.29-.55.56-1.1.81-1.67-.12,1.2-.12,2.4-.12,3.58,0,1.7.01,3.45-.38,5.09-.47,1.99-1.58,3.8-2.64,5.55-.67,1.1-1.36,2.24-1.9,3.43.1-.8.15-1.6.17-2.4-.16.51-.32,1.03-.48,1.55-.07.79-.18,1.59-.38,2.36-.31.96-.75,1.87-1.26,2.75-.18.55-.36,1.09-.55,1.63.59-.88,1.14-1.78,1.59-2.75-.18,1.53-.07,3.08.03,4.59.14,2.01.26,3.91-.21,5.75-.52,2.03-1.83,3.61-3.22,5.29-.95,1.15-1.92,2.32-2.62,3.66.19-1.39.1-2.79.01-4.16-.02-.28-.04-.56-.05-.84-.12.27-.23.54-.35.81,0,.02,0,.03,0,.05.12,1.72.23,3.5-.24,5.21-.72,1.95-2.23,3.51-3.69,5.02-.75.77-1.5,1.56-2.16,2.4-.89,1.72-1.78,3.4-2.67,5.06.31-.41.6-.83.86-1.27-.19,1.34.04,2.7.26,4.03.23,1.34.46,2.72.25,4.08-.08.28-.17.55-.28.81-.11.28-.25.56-.42.85-.98,1.43-2.36,2.59-3.7,3.71-1.39,1.17-2.82,2.37-3.81,3.87.27-1.19.36-2.45.44-3.68.02-.24.03-.48.05-.72-.15.29-.31.58-.46.86-.11,1.67-.23,3.26-.79,4.69-.03.07-.05.13-.08.2-.72,1.69-1.96,3.13-3.28,4.64-.49.57-.99,1.14-1.46,1.73-.25.57-.5,1.14-.74,1.71.73-1.13,1.63-2.16,2.51-3.17,1-1.15,2.03-2.34,2.78-3.64-.17,1.41.23,2.8.62,4.15.34,1.19.69,2.4.65,3.63-.08.46-.22.94-.38,1.4.05,0,.09.01.13.02-.04,0-.08-.01-.13-.02-.15.42-.34.85-.56,1.26-.89,1.32-2.14,2.41-3.35,3.47-1.41,1.23-2.86,2.5-3.73,4.12.13-1.16.05-2.38-.02-3.57-.08-1.34-.17-2.71.03-4.02-.18.47-.35.94-.52,1.41-.02.88.03,1.77.09,2.64.1,1.57.19,3.06-.14,4.44-.04.15-.08.3-.13.45,0,.02-.01.03-.02.05-.45,1.41-1.29,2.72-2.17,4.1-.27.43-.55.85-.81,1.29-.04.33-.08.66-.11.99.39-.71.83-1.39,1.27-2.07.68-1.06,1.33-2.08,1.81-3.14-.02,1.51.69,2.86,1.37,4.18.51.97,1.02,1.96,1.25,3.01.05.47.02.95-.05,1.42-.08.5-.2,1.02-.42,1.54-.57,1.14-1.38,2.15-2.17,3.14-1.12,1.4-2.27,2.84-2.73,4.63.07.39.14.78.22,1.16,0-.12.02-.25.03-.38.28-2.01,1.5-3.54,2.79-5.16.89-1.11,1.8-2.25,2.39-3.58.01-.02.02-.03.03-.05.08-.12.25-.12.3,0,.02.04.03.08.05.12.35,1.73,1.42,3.33,2.47,4.89.86,1.27,1.68,2.5,2.13,3.77.12.69.17,1.41.18,1.9,0,.53-.04,1.06-.17,1.57-.4.94-1.11,1.82-1.84,2.72-.83,1.01-1.67,2.05-2.09,3.24-.1.18-.23.52-.31.76-.04.1-.21.09-.3-.03,0,0-.01-.02-.02-.03-.66-1.18-1.59-2.22-2.49-3.22-.79-.88-1.56-1.74-2.14-2.68.14.44.29.88.45,1.32.44.56.92,1.1,1.39,1.63.87.97,1.76,1.96,2.4,3.08.17.38.29.76.39,1.12.14.53.22,1.06.19,1.57-.04.3-.11.59-.19.89.1.15.19.29.29.44.15-.48.27-.96.33-1.46.02-.06.03-.12.05-.17.03-.1.19-.08.28.02,1,1.69,2.63,3,4.22,4.27,1.01.81,1.98,1.59,2.76,2.43.51.6.86,1.2,1.11,1.76.15.32.27.65.35.97.03.52-.07,1.06-.22,1.62.11.09.23.18.35.27.11-.4.2-.8.25-1.19.03-.16.06-.39.08-.57,0-.03.02-.04.05-.05.96,1.43,2.58,2.49,4.28,3.6,1.5.98,3.04,1.99,4.13,3.28.06.09.12.18.17.27.07.11.13.21.18.32.56.27,1.12.54,1.69.79-.36-.3-.69-.62-1-.96-.02-.03-.05-.07-.07-.1-.09-.15-.17-.31-.24-.47-.32-1.22.29-2.35.88-3.43.29-.53.57-1.05.75-1.57.07-.13.15-.4.21-.58.01-.04.05-.05.11-.05.74,1.14,2.1,2.03,3.52,2.97,1.4.92,2.84,1.87,3.77,3.11.06.11.11.22.16.32.06.14.11.28.15.43.04.88-.32,1.74-.67,2.57-.07.17-.14.34-.21.51.13.04.26.08.39.12.06-.16.13-.31.2-.47.27-.63.54-1.28.65-1.95.05-.12.11-.26.14-.38.02-.07.16-.07.24,0,.02.02.05.05.08.07.83.89,1.86,1.61,2.87,2.31.94.66,1.85,1.29,2.56,2.03.21.04.43.08.64.11-.77-.95-1.85-1.69-2.97-2.47-1.15-.8-2.32-1.62-3.17-2.68-.03-.06-.06-.12-.09-.19-.06-.14-.1-.28-.14-.42,0-1.21.81-2.21,1.61-3.18.46-.56.9-1.1,1.17-1.66.07-.12.14-.26.2-.38.02-.04.09-.06.15-.05.53.98,1.6,1.84,2.73,2.73,1.21.96,2.46,1.96,3.16,3.19.02.07.04.14.05.21.06.28.08.56.05.84-.19.67-.72,1.37-1.23,2.04-.52.68-1.05,1.38-1.21,2.06.13.02.27.04.4.07.15-.58.63-1.22,1.13-1.88.58-.76,1.18-1.55,1.34-2.35.06-.02.14,0,.18.05.03.04.07.08.1.12.6.86,1.43,1.57,2.24,2.26.98.83,1.91,1.62,2.34,2.61.24.01.48.03.72.04,0-.05,0-.11,0-.16.17-.75.89-1.49,1.64-2.26.58-.6,1.22-1.25,1.67-1.99.09-.1.18-.2.24-.29.05-.07.18-.06.23,0,.07.11.17.24.26.36.45.76,1.08,1.44,1.65,2.07.72.78,1.41,1.52,1.6,2.26.29-.01.57-.03.85-.05.47-.88,1.37-1.59,2.31-2.33.71-.56,1.44-1.14,2.02-1.82.11-.11.23-.24.33-.35.06-.07.21-.07.24,0,.06.13.15.31.24.43.28.7.72,1.34,1.13,1.94.33.47.63.91.83,1.34.14-.02.27-.04.41-.07-.22-.49-.56-.99-.91-1.5-.57-.82-1.15-1.67-1.3-2.6.01-.12.03-.23.06-.34.02-.1.05-.2.08-.3.72-1.24,2.03-2.18,3.3-3.1,1.21-.87,2.36-1.71,2.91-2.74.06,0,.11.02.12.06.08.18.19.42.28.57.26.54.67,1.08,1.08,1.62.78,1.03,1.58,2.08,1.52,3.32-.04.14-.1.29-.16.43-.04.1-.1.2-.15.3-.86,1.1-2.12,1.88-3.34,2.64-.73.45-1.44.89-2.05,1.39.31-.06.62-.12.93-.18.42-.29.88-.57,1.34-.86,1.17-.73,2.37-1.47,3.26-2.5.05-.02.1-.02.13,0-.03.71.24,1.4.54,2.05.13-.04.26-.08.39-.12-.26-.57-.5-1.14-.52-1.71.03-.34.15-.7.31-1.04.03-.07.07-.15.11-.22.98-1.24,2.44-2.21,3.85-3.16,1.55-1.04,3.03-2.04,3.83-3.32.04,0,.07.02.07.05.05.19.12.46.18.6.17.52.43,1.05.68,1.56.54,1.11,1.1,2.26.71,3.46-.04.08-.08.16-.13.24.5-.24,1-.5,1.49-.75,1.05-.98,2.33-1.81,3.58-2.62,1.76-1.14,3.44-2.22,4.46-3.68.02,0,.04.02.04.05.01.2.04.48.07.63.02.09.03.19.05.28.12-.1.24-.2.37-.3-.03-.27-.04-.54-.01-.8.09-.31.22-.62.37-.92.26-.53.63-1.13,1.14-1.72.79-.84,1.77-1.61,2.79-2.41,1.64-1.29,3.33-2.63,4.35-4.36.1-.09.25-.1.27-.01.02.07.04.15.07.23.15-.24.3-.48.45-.73.04-.26.09-.52.16-.77.08-.31.19-.65.34-.99.43-.76.99-1.46,1.59-2.15.18-.39.35-.78.52-1.17-.89.96-1.77,1.94-2.41,3.04-.02.03-.04.05-.05.08-.09.12-.26.14-.3.04-.04-.11-.09-.24-.14-.37-.34-1.35-1.31-2.5-2.26-3.62-.78-.93-1.54-1.82-1.94-2.79-.1-.48-.13-1-.13-1.48,0-.47.02-1.13.12-1.75.42-1.33,1.26-2.58,2.12-3.88,1.01-1.51,2.04-3.07,2.39-4.78.02-.06.04-.11.06-.16.04-.12.22-.13.3-.02.04.06.09.13.13.2.65,1.3,1.66,2.4,2.65,3.47.77.84,1.52,1.66,2.09,2.55.03-.2.05-.4.08-.6-.55-.78-1.22-1.51-1.88-2.23-.96-1.04-1.94-2.11-2.57-3.35ZM89.65,103.03c0-.13,0-.25,0-.36,0-.1.1-.14.19-.09,1.04,1.36,2.42,2.41,3.77,3.44,1.66,1.26,3.23,2.45,4.2,4.15.09.17.17.35.25.52.12.27.22.53.32.8.44,1.63-.03,3.25-.54,4.95-.39,1.33-.8,2.7-.72,4.09-.01.13-.18.15-.28.04-.01-.01-.02-.02-.03-.04-1.03-1.47-2.52-2.62-3.97-3.74-1.29-1-2.53-1.95-3.42-3.09-.37-.6-.66-1.18-.87-1.76-.17-.47-.31-.99-.37-1.47,0-1.08.36-2.2.72-3.36.41-1.33.84-2.69.77-4.08ZM11.89,153.66c0-.66.09-1.75.36-2.59.58-1.28,1.55-2.43,2.56-3.64,1.06-1.26,2.15-2.55,2.79-4.04.03-.05.06-.1.09-.14.07-.11.23-.1.29,0,.34,1.98,1.51,3.81,2.66,5.6.81,1.26,1.63,2.54,2.15,3.87.23.91.33,1.98.35,2.58.01.54-.03,1.08-.16,1.6-.43.99-1.2,1.86-2.01,2.77-.85.96-1.71,1.94-2.17,3.09-.11.17-.24.47-.33.68-.04.1-.22.07-.3-.05-.01-.02-.03-.04-.05-.07-.73-1.4-1.87-2.63-2.98-3.84-1.11-1.21-2.18-2.37-2.83-3.65-.3-.74-.43-1.51-.44-2.19ZM12.18,121.62s.08.01.13.02c.17-.47.39-.96.65-1.41.93-1.25,2.31-2.23,3.65-3.18,1.45-1.03,2.83-2.01,3.67-3.29.05,0,.09.02.12.06-.05,1.32.45,2.75.98,4.24.52,1.47,1.05,2.99,1.05,4.46-.05.41-.15.81-.28,1.19.05.01.09.02.13.03-.04,0-.08-.02-.13-.03-.12.37-.28.75-.48,1.1-.9,1.25-2.3,2.2-3.65,3.12-1.47.99-2.87,1.94-3.62,3.23-.05,0-.09-.01-.12-.04-.04-1.21-.58-2.45-1.15-3.74-.6-1.35-1.2-2.73-1.22-4.13.07-.54.21-1.09.4-1.6-.05,0-.09-.02-.13-.02ZM34.46,90.4c.35,1.53.69,3,.7,4.44-.02.53-.09,1.04-.19,1.51-.09.43-.21.86-.36,1.26-.61,1.24-1.69,2.21-2.83,3.23-.85.76-1.72,1.54-2.4,2.46-.09.1-.18.21-.25.29-.07.09-.2.04-.22-.08.02-1.46-.36-2.92-.73-4.34-.41-1.56-.8-3.06-.69-4.54.07-.45.17-.89.3-1.29.14-.45.32-.92.54-1.38.63-1.11,1.53-2.07,2.47-3.07,1.11-1.18,2.25-2.39,2.94-3.9-.1,1.82.31,3.64.72,5.4ZM43.69,49.48c.28-1.76.96-3.47,1.62-5.13.48-1.2.97-2.42,1.32-3.69.05,1.28.23,2.54.4,3.78.25,1.75.51,3.56.36,5.32-.18,2.14-.98,4.21-1.75,6.22-.49,1.28-1,2.6-1.36,3.95-.03-1.37-.2-2.74-.37-4.08-.27-2.1-.55-4.27-.23-6.37ZM43.71,38.61c.46-1.85,1.06-3.68,1.64-5.46.55-1.68,1.11-3.41,1.57-5.17-.09,1.63-.11,3.26-.12,4.86-.01,1.96-.03,4-.2,5.99-.27,1.86-.98,3.64-1.67,5.36-.41,1.03-.83,2.08-1.16,3.15.02-1.09-.05-2.18-.12-3.25-.12-1.81-.24-3.68.06-5.49ZM49.86,18.55c.01,2.16.03,4.39-.17,6.56-.23,2.57-.92,5.08-1.59,7.5-.33,1.21-.67,2.44-.95,3.68.04-1.16.05-2.31.05-3.44.02-2.68.04-5.46.45-8.17.32-2.12.85-4.25,1.35-6.31.3-1.23.61-2.48.88-3.74-.04,1.32-.03,2.63-.02,3.92ZM48.5,32.71c.41-1.5.83-3.03,1.15-4.6.02,1.54.14,3.06.25,4.56.15,1.99.31,4.06.24,6.09-.16,1.88-.75,3.71-1.33,5.48-.36,1.11-.73,2.25-1,3.41-.07-1.1-.22-2.2-.38-3.28-.26-1.8-.53-3.66-.36-5.49.31-2.09.87-4.17,1.43-6.17ZM61.32,29.08c.38,1.39.87,2.73,1.34,4.04.6,1.65,1.22,3.36,1.62,5.12.33,1.76.18,3.57.03,5.31-.08,1.01-.17,2.03-.16,3.06-.33-1.11-.76-2.21-1.17-3.28-.69-1.78-1.4-3.62-1.7-5.53-.15-1.72-.08-3.47-.02-5.15.04-1.17.08-2.37.06-3.57ZM54.48,143.78c0-.47.04-.96.15-1.43.48-1.22,1.45-2.28,2.4-3.32,1.01-1.11,1.98-2.17,2.31-3.36.04-.02.09-.02.14,0,.45,1.17,1.5,2.2,2.6,3.28,1.16,1.14,2.34,2.3,2.94,3.71.1.38.15.77.17,1.15.02.5.02,1.08-.07,1.62-.45,1.69-1.46,3.25-2.45,4.77-.94,1.44-1.89,2.91-2.4,4.51-.05.13-.1.26-.14.38-.06.17-.23.18-.29,0-.03-.07-.05-.15-.08-.23-.52-1.71-1.55-3.26-2.56-4.78-.87-1.3-1.75-2.63-2.31-4.06-.27-.77-.38-1.55-.39-2.23ZM53.24,145.98c-.51,1.42-1.37,2.75-2.2,4.05-.76,1.19-1.53,2.4-2.06,3.68-.13.29-.32.86-.45,1.27-.06.18-.23.17-.29,0-.02-.05-.03-.1-.05-.16-.5-1.73-1.52-3.34-2.51-4.92-1.05-1.66-2.12-3.37-2.58-5.21-.07-.5-.07-1.01-.06-1.44,0-.32.04-.64.11-.96.56-1.37,1.72-2.48,2.85-3.57,1.07-1.03,2.1-2.02,2.49-3.14.03,0,.06,0,.09.01.33,1.15,1.29,2.22,2.29,3.34,1.05,1.17,2.12,2.37,2.61,3.76.06.35.09.71.1,1.06,0,.69-.08,1.45-.35,2.21,0,0,.02,0,.02.01ZM22.88,123.88s.08.02.13.03c.14-.43.34-.89.6-1.32.88-1.19,2.18-2.18,3.46-3.15,1.42-1.07,2.77-2.1,3.49-3.34.04,0,.07.01.1.03.05,1.27.64,2.71,1.27,4.21.64,1.53,1.29,3.1,1.41,4.58-.02.39-.08.76-.18,1.1.06.01.1.02.15.03-.05,0-.09-.02-.15-.03-.08.29-.19.58-.34.86-.87,1.2-2.29,2.06-3.67,2.9-1.33.81-2.6,1.59-3.27,2.61-.05.01-.11,0-.16-.02-.09-1.1-.71-2.21-1.37-3.37-.75-1.33-1.52-2.69-1.56-4.17.04-.32.12-.63.22-.94-.06-.01-.09-.02-.13-.03ZM74.59,123.59s-.02.08-.03.11c-.03.11-.19.13-.28.04-.82-1.41-2.02-2.54-3.2-3.63-1.36-1.27-2.77-2.58-3.54-4.33-.1-.32-.18-.63-.25-.94-.1-.5-.17-1.05-.18-1.51.17-1.11.81-2.16,1.48-3.26.62-1.02,1.25-2.06,1.51-3.18.04-.11.07-.22.1-.32.03-.11.18-.14.25-.05.11.14.26.32.39.47.77,1.01,1.82,1.79,2.85,2.55,1.08.8,2.12,1.57,2.81,2.57.22.44.41.97.54,1.48.15.54.25,1.08.28,1.63-.09,1.41-.71,2.76-1.36,4.15-.63,1.36-1.27,2.75-1.38,4.22ZM68.24,109.85c-.68,1.11-1.36,2.25-1.54,3.47-.03.1-.13.11-.2.02-.54-1.01-1.37-1.83-2.19-2.63-1.05-1.03-2.13-2.1-2.56-3.55-.02-.14-.04-.28-.05-.42-.01-.13-.02-.26-.02-.39.13-1.56.77-3.05,1.39-4.5.6-1.41,1.22-2.86,1.37-4.36.52,1.51,1.61,2.74,2.68,3.93.88.98,1.78,1.99,2.34,3.15.1.29.18.59.23.88.05.28.09.56.1.85-.15,1.24-.86,2.41-1.55,3.54ZM63.84,124.47c-.04.11-.07.21-.1.31-.03.09-.14.11-.21.06-.58-1.41-1.54-2.66-2.49-3.88-1.02-1.32-2-2.58-2.5-4.01-.1-.38-.17-.74-.21-1.11-.04-.37-.07-.76-.06-1.13.18-1.12.83-2.18,1.51-3.28.68-1.11,1.37-2.24,1.63-3.51.05-.07.14-.08.19,0,.04.07.08.15.12.22.55,1.11,1.45,1.99,2.32,2.86.84.83,1.65,1.63,2.15,2.59.14.41.26.88.35,1.34.08.4.14.8.17,1.21-.06,1.66-.76,3.15-1.49,4.71-.54,1.16-1.1,2.34-1.37,3.61ZM63.88,125.97c-.06,0-.12,0-.19.01.06,0,.12,0,.19-.01h0ZM63.42,126.9c-.27,1.4-1.25,2.62-2.2,3.81-.8.99-1.56,1.95-1.85,2.94-.04.02-.09.02-.14.01-.41-1.07-1.33-1.99-2.29-2.95-1.07-1.07-2.18-2.18-2.62-3.57-.04-.22-.05-.44-.06-.66-.04,0-.07,0-.1,0,.03,0,.06,0,.1,0,0-.2,0-.41.03-.63.34-1.41,1.09-2.71,1.82-3.98.86-1.49,1.74-3.03,1.96-4.74.03-.02.07-.03.1-.01.54,1.49,1.55,2.8,2.55,4.08.89,1.14,1.79,2.31,2.36,3.6.14.41.24.81.29,1.2.05,0,.08,0,.11,0-.04,0-.07,0-.11,0,.04.3.06.6.05.9ZM53.75,125.35c-.4-1.41-1.2-2.79-1.97-4.13-.74-1.28-1.45-2.5-1.78-3.68-.07-.41-.12-.76-.13-1.13,0-.28,0-.59.04-.88.25-1,.95-2,1.67-3.04.81-1.16,1.64-2.34,1.98-3.68.05-.03.11-.02.13.05.04.1.1.21.15.32.43,1.04,1.14,1.94,1.83,2.81.69.87,1.35,1.72,1.72,2.66.1.38.18.82.23,1.24.04.32.06.63.06.95-.15,1.71-1.02,3.23-1.93,4.82-.64,1.1-1.29,2.23-1.68,3.45-.03.07-.06.14-.09.2-.05.1-.18.11-.23.01ZM53.96,126.5c-.06,0-.12,0-.18,0,.06,0,.12,0,.18,0h0ZM53.58,126.51s-.03,0-.05,0c.02,0,.03,0,.05,0ZM44.4,126.59s.06,0,.1,0c.02-.19.06-.38.11-.59.54-1.35,1.47-2.6,2.37-3.82,1.15-1.56,2.25-3.05,2.58-4.7.33,1.28,1.08,2.58,1.87,3.94.8,1.38,1.62,2.81,1.99,4.25.04.29.06.57.06.84,0,.25-.02.5-.05.75-.41,1.39-1.53,2.53-2.62,3.64-.9.92-1.76,1.8-2.15,2.76-.06.02-.14,0-.18-.04-.32-.92-1.04-1.8-1.8-2.7-.96-1.15-1.95-2.34-2.21-3.74,0-.2.01-.4.04-.6-.04,0-.07,0-.1,0ZM59.4,102.29c-.88-1.36-1.72-2.66-1.99-4.15-.04-.31-.07-.63-.08-.93,0-.15,0-.31,0-.47.08-1.76.67-3.43,1.31-5.19.56-1.55,1.13-3.15,1.31-4.82.4,1.59,1.22,3.03,2.03,4.44.73,1.28,1.43,2.5,1.81,3.8.1.43.18.87.22,1.29.03.32.05.64.06.96-.09,1.51-.71,2.95-1.36,4.47-.54,1.26-1.09,2.55-1.33,3.9-.03.08-.1.11-.15.07-.42-1.21-1.13-2.31-1.82-3.38ZM61.08,107.35c-.14,1.4-.91,2.66-1.66,3.88-.65,1.06-1.32,2.15-1.54,3.32-.02.03-.06.04-.09.03-.39-1.03-1.1-1.94-1.8-2.82-.89-1.13-1.81-2.3-2.08-3.74,0-.11-.01-.22-.01-.32,0-.1,0-.2,0-.3.23-1.56.93-3.05,1.61-4.49.66-1.39,1.33-2.81,1.57-4.3.36,1.42,1.17,2.67,1.97,3.9.77,1.19,1.57,2.42,1.93,3.78.03.19.05.37.07.55.01.17.02.34.02.51ZM58.25,91.42c-.52,1.43-1.04,2.9-1.25,4.42-.29-1.34-.88-2.64-1.45-3.91-.83-1.85-1.68-3.75-1.68-5.79.07-2.04.71-4.04,1.33-5.97.5-1.56,1.01-3.16,1.23-4.8.31,1.55.91,3.03,1.5,4.48.73,1.79,1.49,3.63,1.66,5.58.07,2.09-.65,4.08-1.34,6.01ZM55.19,92.09c.68,1.52,1.33,2.97,1.54,4.47.02.24.04.48.05.72,0,.24,0,.48,0,.72-.13,1.62-.85,3.14-1.6,4.74-.58,1.23-1.18,2.49-1.5,3.83-.03.04-.07.05-.11.03-.3-1.25-.91-2.41-1.5-3.55-.75-1.43-1.46-2.79-1.6-4.29-.01-.29-.02-.58,0-.85,0-.12.01-.25.02-.38.18-1.78.87-3.45,1.59-5.2.62-1.51,1.26-3.05,1.55-4.69.28,1.56.94,3.03,1.58,4.46ZM53.3,107.75c0,.15,0,.3-.01.45-.22,1.48-1.14,2.79-2.03,4.07-.72,1.03-1.41,2.02-1.7,3.04-.02.01-.05.02-.08,0-.28-.95-.86-1.84-1.47-2.77-.8-1.22-1.62-2.48-1.77-3.94,0-.12,0-.23.02-.35,0-.09.02-.18.03-.27.36-1.55,1.15-2.99,1.93-4.38.77-1.38,1.55-2.79,1.91-4.32.24,1.4.92,2.68,1.58,3.94.68,1.3,1.39,2.65,1.59,4.09,0,.14.01.28.01.42ZM51.69,92.16c-.57,1.39-1.16,2.81-1.46,4.29-.2-1.39-.7-2.76-1.19-4.09-.68-1.85-1.38-3.76-1.3-5.77.2-2.04.95-4.01,1.67-5.91.59-1.55,1.2-3.14,1.51-4.79.21,1.54.69,3.05,1.17,4.51.6,1.85,1.22,3.77,1.27,5.73-.06,2.12-.88,4.1-1.68,6.02ZM48.65,92.5c.59,1.59,1.14,3.11,1.24,4.68,0,.26,0,.52,0,.77,0,.16-.02.31-.03.47-.2,1.76-1.08,3.34-2,5-.66,1.18-1.33,2.4-1.75,3.7-.04.05-.09.06-.13.03-.21-1.29-.76-2.5-1.3-3.68-.63-1.39-1.24-2.73-1.32-4.14,0-.35.02-.71.06-1.05.02-.2.05-.4.08-.61.34-1.69,1.12-3.24,1.94-4.88.77-1.53,1.55-3.1,1.95-4.79.18,1.56.73,3.05,1.27,4.5ZM44.31,103.63c.61,1.34,1.24,2.73,1.34,4.18,0,.16-.01.32-.02.48-.01.13-.03.26-.04.4-.38,1.54-1.49,2.83-2.58,4.08-.85.98-1.67,1.92-2.04,2.92-.18-.98-.76-1.97-1.36-2.99-.72-1.23-1.46-2.49-1.61-3.88.01-.19.03-.37.06-.55.04-.25.11-.51.18-.78.55-1.28,1.39-2.43,2.22-3.55.99-1.35,2.01-2.73,2.51-4.33.15,1.41.75,2.74,1.34,4.03ZM41.23,116.6c.06-.46.19-.98.44-1.46.41-.7,1.01-1.39,1.64-2.11.97-1.12,1.97-2.28,2.48-3.64.06-.05.13-.04.16.04.03.09.07.2.12.3.34,1.09.98,2.07,1.6,3.03.61.94,1.2,1.85,1.45,2.78.04.29.06.6.07.89,0,.47-.02.88-.15,1.44-.41,1.39-1.38,2.7-2.39,4.06-.78,1.06-1.58,2.14-2.15,3.3-.05.07-.09.14-.13.2-.06.1-.21.1-.25,0,0-.02-.01-.04-.02-.06-.24-1.39-.91-2.82-1.55-4.21-.56-1.21-1.1-2.37-1.31-3.41-.05-.49-.06-.8-.01-1.17ZM64.18,94.9c-.4-1.37-1.14-2.66-1.85-3.92-1-1.75-2.03-3.55-2.2-5.61-.06-2.04.51-4.06,1.06-6.01.45-1.59.91-3.23,1.03-4.88.44,1.6,1.25,3.09,2.03,4.53.92,1.69,1.87,3.44,2.22,5.35.21,2.06-.47,4.06-1.14,6-.51,1.48-1.03,2.99-1.15,4.54ZM61.91,71.04c-.33-1.39-.88-2.74-1.4-4.06-.78-1.95-1.59-3.96-1.73-6.09-.06-1.95.36-3.91.76-5.8.31-1.45.62-2.93.72-4.42.35,1.45.91,2.84,1.46,4.21.7,1.74,1.43,3.55,1.7,5.43.21,2.14-.28,4.28-.75,6.36-.33,1.44-.66,2.91-.76,4.38ZM60.13,67.13c.77,1.93,1.5,3.75,1.67,5.7.19,2.16-.39,4.23-1.01,6.42-.43,1.52-.87,3.09-1.02,4.68-.33-1.47-.9-2.88-1.46-4.25-.8-1.96-1.63-3.98-1.67-6.11-.04-2.06.49-4.14,1.01-6.14.4-1.56.81-3.16.97-4.8.34,1.56.93,3.05,1.51,4.5ZM57.25,67.32c-.37,1.42-.74,2.88-.92,4.34-.24-1.38-.66-2.73-1.07-4.06-.62-2-1.26-4.06-1.29-6.18.05-1.96.54-3.91,1.02-5.8.36-1.42.73-2.87.91-4.34.25,1.39.68,2.75,1.09,4.08.56,1.79,1.14,3.64,1.28,5.54.06,2.17-.49,4.33-1.02,6.41ZM54.88,67.73c.59,1.91,1.21,3.88,1.25,5.86.05,2.19-.64,4.35-1.31,6.44-.47,1.48-.96,3-1.2,4.55-.23-1.48-.69-2.91-1.15-4.31-.65-2.01-1.33-4.08-1.25-6.2.07-2.07.7-4.13,1.31-6.12.47-1.54.95-3.11,1.19-4.73.23,1.54.7,3.03,1.15,4.49ZM52.15,67.85c-.43,1.4-.86,2.83-1.11,4.28-.16-1.39-.51-2.78-.84-4.13-.5-2.03-1.03-4.13-.94-6.25.16-1.96.75-3.89,1.32-5.76.43-1.41.87-2.85,1.13-4.32.17,1.39.5,2.77.83,4.11.45,1.84.92,3.74.94,5.65-.05,2.2-.71,4.34-1.34,6.42ZM49.8,68.1c.49,1.96.99,3.98.92,5.98-.07,2.23-.89,4.38-1.69,6.46-.56,1.46-1.13,2.96-1.46,4.51-.15-1.51-.55-2.99-.94-4.43-.58-2.13-1.12-4.15-.92-6.26.2-2.07.95-4.1,1.69-6.06.57-1.54,1.16-3.12,1.51-4.76.15,1.55.52,3.08.89,4.56ZM48.76,61.73c-.18,2.23-.97,4.36-1.74,6.43-.52,1.39-1.05,2.82-1.39,4.28-.09-1.45-.38-2.89-.67-4.3-.42-2.08-.86-4.23-.64-6.38.28-1.94,1-3.82,1.7-5.63.54-1.41,1.1-2.85,1.45-4.32.09,1.42.37,2.83.63,4.21.36,1.87.74,3.8.66,5.72ZM46.24,80.72c.51,1.9,1.05,3.87.97,5.85-.2,2.17-1.19,4.13-2.14,6.03-.69,1.37-1.39,2.77-1.8,4.24-.11-1.48-.58-2.94-1.03-4.37-.61-1.92-1.25-3.91-1.05-5.95.34-2,1.26-3.87,2.15-5.68.75-1.53,1.52-3.1,1.95-4.76.12,1.57.54,3.12.94,4.63ZM41.86,92.6c.51,1.58.99,3.1,1.04,4.62,0,.36-.03.72-.07,1.07-.03.25-.07.51-.11.76-.41,1.71-1.46,3.14-2.57,4.64-.75,1.01-1.51,2.05-2.07,3.2-.02.03-.04.06-.06.09-.05.07-.14.06-.2-.01-.11-1.55-.66-3.04-1.19-4.5-.6-1.62-1.16-3.17-1.17-4.75.03-.38.09-.76.15-1.11.11-.58.29-1.19.53-1.76.52-1.05,1.27-2.01,2.05-3.01,1-1.28,2.03-2.6,2.57-4.17.06,1.7.59,3.34,1.1,4.93ZM36.24,102.61c.53,1.45,1.08,2.93,1.17,4.45,0,.33-.04.65-.1.95-.05.28-.12.56-.21.83-.67,1.31-2.02,2.24-3.33,3.16-1.04.73-2.05,1.42-2.61,2.26-.02,0-.04,0-.07,0,.02-1.23-.49-2.57-1.03-3.98-.6-1.56-1.22-3.17-1.17-4.78.04-.21.08-.42.14-.62.06-.22.15-.45.24-.68.69-1.18,1.75-2.14,2.78-3.06,1.13-1.01,2.29-2.06,2.94-3.4.02,0,.05,0,.07.02.02,1.66.61,3.27,1.19,4.84ZM31.26,115.3c.08-.3.19-.65.35-.96.55-.71,1.45-1.34,2.39-2,1.16-.81,2.44-1.7,3.21-2.88.05-.07.11-.13.15-.19.07-.09.21-.04.24.08.05.21.16.49.25.69.33,1.03.89,1.98,1.4,2.86.54.92,1.05,1.81,1.26,2.66.04.35.04.71,0,1.04-.06.44-.15.77-.4,1.43-.63,1.19-1.76,2.29-2.94,3.43-1.15,1.11-2.32,2.25-3.11,3.55-.09.07-.24.04-.26-.07-.02-.08-.04-.17-.07-.26-.16-1.48-.8-3.01-1.42-4.5-.55-1.33-1.08-2.6-1.21-3.71,0-.47.07-.82.17-1.18ZM33.72,126.13c-.07-.01-.14-.02-.21-.03.07.01.14.02.21.03ZM26.02,133.4c.08-.31.19-.67.35-.99.66-.85,1.8-1.55,2.99-2.27,1.33-.81,2.7-1.64,3.62-2.79.07-.06.13-.13.19-.18.08-.08.26-.06.29.04.06.2.2.47.3.65.38,1.09,1.13,2.06,1.82,2.96.63.82,1.24,1.6,1.48,2.37.02.31,0,.62-.05.92-.07.38-.17.81-.36,1.19-.56.75-1.49,1.43-2.45,2.14-1.32.97-2.77,2.03-3.52,3.46-.04.06-.09.13-.12.18-.07.11-.27.11-.32,0-.12-.25-.29-.58-.42-.77-.51-1.03-1.3-1.97-2.02-2.84-.82-.98-1.61-1.92-1.89-2.85-.04-.41.02-.83.12-1.21ZM35.9,130.57c-.88-1.13-1.77-2.3-1.95-3.64.02-.25.06-.5.13-.74-.06,0-.1-.02-.15-.02.05,0,.09.01.15.02.11-.4.29-.83.52-1.25.76-1.14,1.82-2.17,2.86-3.17,1.44-1.39,2.81-2.72,3.34-4.27.17,1.19.77,2.49,1.41,3.86.67,1.45,1.37,2.94,1.56,4.36,0,.3-.01.59-.05.87.04,0,.07,0,.1,0-.03,0-.06,0-.1,0-.03.23-.08.47-.15.7-.63,1.38-1.97,2.42-3.27,3.42-1.07.82-2.08,1.61-2.59,2.54-.08.02-.17,0-.19-.06-.01-.02-.02-.05-.03-.07-.26-.85-.9-1.68-1.56-2.54ZM37.94,134.16c.06-.36.17-.76.37-1.12.52-.7,1.36-1.35,2.23-2.02,1.18-.91,2.47-1.92,3.21-3.22.03-.04.06-.09.09-.13.06-.09.22-.09.25,0,.06.14.15.32.24.47.44,1.12,1.25,2.09,2.04,3.05.69.83,1.35,1.62,1.67,2.43.07.33.09.67.08,1-.02.41-.07.88-.22,1.29-.46.86-1.31,1.68-2.19,2.53-.87.84-1.81,1.75-2.47,2.8-.16.2-.37.47-.5.69-.06.11-.24.1-.29-.02-.06-.14-.15-.29-.25-.45-.54-1.23-1.48-2.33-2.34-3.34-.84-.98-1.64-1.92-1.95-2.84-.06-.38-.02-.77.04-1.12ZM53.5,141.75c-.59-1.15-1.5-2.16-2.33-3.09-.89-1-1.75-1.96-2.12-2.94-.07-.37-.07-.75-.06-1.09.02-.4.1-.84.27-1.26.42-.73,1.12-1.44,1.84-2.18.98-1,2.06-2.1,2.58-3.42.03-.05.05-.1.08-.15.05-.1.2-.1.25,0,.05.1.12.2.19.3.56,1.17,1.52,2.14,2.46,3.08.8.8,1.57,1.57,2.01,2.4.15.41.22.85.24,1.26.02.43,0,.9-.11,1.34-.4.94-1.21,1.83-2.06,2.75-1.02,1.11-2.06,2.25-2.54,3.61-.01.03-.03.05-.04.08-.06.11-.23.11-.28,0-.11-.21-.25-.48-.37-.68ZM65.11,141.92c-.67-1.22-1.72-2.26-2.76-3.27-.93-.92-1.83-1.8-2.33-2.73-.15-.42-.22-.87-.25-1.27-.02-.36-.02-.75.05-1.13.32-.84.99-1.68,1.7-2.55.86-1.07,1.79-2.24,2.18-3.57.04-.09.07-.18.1-.26.04-.1.19-.11.26-.02.08.12.19.26.3.38.75,1.15,1.88,2.07,2.98,2.97.95.78,1.87,1.52,2.46,2.37.23.44.36.93.43,1.39.07.45.11.95.02,1.42-.35.99-1.17,1.95-2.02,2.95-.97,1.15-1.97,2.33-2.42,3.67-.03.07-.06.13-.09.19-.05.12-.23.12-.3,0-.09-.16-.22-.36-.33-.53ZM67.61,130.16c-1.28-1.04-2.6-2.12-3.27-3.53-.07-.23-.12-.45-.15-.68-.05,0-.08,0-.11,0,.03,0,.07,0,.11,0-.04-.25-.06-.51-.06-.78.19-1.46.82-2.81,1.44-4.13.67-1.43,1.36-2.9,1.5-4.52,0-.03.01-.07.02-.1.02-.13.16-.15.24-.03.06.1.14.22.23.34.83,1.44,2.05,2.58,3.24,3.69,1.11,1.03,2.18,2.03,2.95,3.24.24.44.4.91.51,1.34.07,0,.11-.01.16-.02-.05,0-.1.01-.16.02.1.38.16.77.16,1.16-.21,1.36-1.1,2.59-1.97,3.8-.75,1.04-1.46,2.04-1.73,3.07-.01.02-.02.05-.03.07-.03.07-.13.09-.21.07-.57-1.13-1.69-2.05-2.87-3.01ZM71.13,133.06c.26-.95.94-1.89,1.65-2.88.82-1.14,1.65-2.3,1.97-3.59.06-.16.11-.32.15-.46.03-.11.21-.13.3-.03.03.04.07.08.11.12.9,1.28,2.28,2.23,3.63,3.16,1.15.79,2.26,1.55,2.99,2.46.31.48.49,1.04.6,1.55.11.47.17.98.12,1.47-.3,1.08-1.11,2.13-1.96,3.22-.89,1.14-1.79,2.31-2.2,3.62-.04.09-.08.19-.12.27-.05.12-.24.12-.32.01-.06-.09-.14-.2-.22-.31-.79-1.4-2.16-2.47-3.49-3.51-1.06-.83-2.08-1.63-2.7-2.53-.23-.48-.35-1.01-.43-1.46-.06-.35-.1-.73-.08-1.1ZM79.16,129.05c-1.31-.9-2.66-1.82-3.51-3.04-.2-.37-.34-.76-.44-1.13-.04,0-.08,0-.11.01.03,0,.06,0,.11-.01-.11-.43-.2-.91-.21-1.39.13-1.34.72-2.61,1.34-3.94.64-1.39,1.3-2.8,1.39-4.31,0-.07.02-.13.03-.19.02-.14.18-.16.27-.04.03.03.05.07.08.11.94,1.52,2.35,2.67,3.72,3.78,1.23,1,2.49,2.02,3.39,3.32.25.43.44.88.57,1.31.06,0,.1-.01.14-.02-.05,0-.08.01-.14.02.12.38.21.78.24,1.17-.09,1.45-.88,2.81-1.65,4.14-.65,1.12-1.27,2.19-1.47,3.28-.01.04-.02.07-.03.1-.02.07-.11.1-.19.08-.71-1.29-2.09-2.24-3.54-3.23ZM86.01,122.03s-.01.09-.02.13c-.02.12-.19.14-.28.04-.93-1.44-2.29-2.55-3.62-3.62-1.36-1.11-2.76-2.25-3.67-3.75-.21-.45-.38-.91-.5-1.36-.17-.61-.29-1.3-.3-1.83.15-1.02.63-2.02,1.13-3.05.57-1.17,1.15-2.38,1.24-3.66.02-.09.04-.19.05-.27.01-.11.14-.14.22-.06.91,1.34,2.27,2.31,3.59,3.26,1.15.82,2.25,1.61,3.05,2.6.33.49.59,1.07.79,1.62.19.55.34,1.09.39,1.67-.01,1.34-.5,2.68-1.01,4.07-.51,1.37-1.02,2.78-1.05,4.23ZM78.38,108.41c-.57,1.17-1.14,2.37-1.2,3.63-.05.08-.17.08-.25-.03-.03-.04-.06-.08-.09-.11-.74-1.07-1.84-1.88-2.91-2.68-1.26-.93-2.55-1.88-3.26-3.24-.07-.22-.13-.44-.17-.66-.04-.22-.08-.44-.09-.67.1-1.47.69-2.89,1.26-4.27.6-1.45,1.22-2.94,1.25-4.47.02-.01.03-.02.05-.02.68,1.47,1.96,2.61,3.21,3.72,1.07.96,2.18,1.94,2.9,3.13.11.24.2.48.29.74.11.33.19.67.24,1.01.02,1.37-.61,2.66-1.22,3.92ZM71.29,100.21c-.48,1.17-.98,2.37-1.2,3.61-.04.13-.07.26-.1.36-.03.11-.18.14-.24.05,0-.01-.02-.02-.03-.04-.59-1.12-1.45-2.09-2.3-3.04-1.07-1.2-2.09-2.35-2.57-3.74-.11-.42-.18-.84-.23-1.25-.03-.29-.05-.6-.06-.91.06-1.6.59-3.15,1.15-4.78.55-1.61,1.12-3.27,1.19-4.99.57,1.67,1.68,3.08,2.76,4.45.85,1.07,1.66,2.11,2.2,3.22.21.51.36,1.03.47,1.54.09.41.15.83.17,1.25-.05,1.41-.62,2.8-1.22,4.25ZM66.67,84.33l.11-.02h.03s-.12.02-.12.02h-.02ZM72.43,93.37s-.02.01-.03.01c-.56-1.33-1.5-2.52-2.42-3.69-1.29-1.63-2.62-3.32-2.98-5.42-.19-1.96.31-3.93.79-5.83.4-1.6.82-3.24.83-4.88.58,1.6,1.57,3.03,2.53,4.43,1.08,1.58,2.21,3.21,2.74,5.07.42,1.99-.13,3.98-.66,5.9-.4,1.45-.8,2.93-.79,4.41ZM67.4,78.35c-.39,1.54-.79,3.11-.84,4.72-.46-1.5-1.22-2.9-1.96-4.26-1.08-1.98-2.1-3.86-2.29-6.03-.17-2,.3-4.05.75-6.04.36-1.58.73-3.21.8-4.86.47,1.63,1.26,3.16,2.02,4.65.95,1.85,1.86,3.6,2.2,5.53.37,2.09-.14,4.13-.69,6.29ZM68.07,70.36c-.46-1.39-1.15-2.72-1.82-4.02-.99-1.93-2.02-3.92-2.33-6.1-.2-1.84.1-3.73.39-5.54.22-1.36.44-2.75.46-4.14.48,1.49,1.17,2.9,1.85,4.29.83,1.69,1.69,3.43,2.13,5.28.39,2.02.06,4.08-.26,6.07-.22,1.37-.44,2.77-.43,4.16ZM61.26,39.6c.36,1.33.86,2.62,1.34,3.88.66,1.7,1.34,3.46,1.63,5.24.32,1.94,0,3.97-.32,5.92-.21,1.28-.41,2.6-.45,3.91-.36-1.32-.87-2.59-1.37-3.83-.78-1.93-1.59-3.93-1.76-6.02-.15-1.75.15-3.54.45-5.27.21-1.25.42-2.53.48-3.82ZM58.33,15.05c.28,1.4.61,2.8.93,4.16.57,2.45,1.16,4.98,1.49,7.46.26,1.98.19,4.01.12,5.97-.03.95-.07,1.91-.07,2.89-.25-1.09-.56-2.16-.87-3.21-.56-1.95-1.14-3.96-1.35-6.02-.23-2.34-.22-4.78-.21-7.14,0-1.35.01-2.72-.03-4.1ZM58.53,28.62c.27,1.3.64,2.56,1,3.81.51,1.75,1.03,3.56,1.28,5.41.18,1.85-.13,3.71-.43,5.52-.18,1.1-.37,2.22-.45,3.34-.26-1.11-.62-2.21-.97-3.28-.56-1.7-1.15-3.47-1.3-5.27-.06-1.87.2-3.74.45-5.55.18-1.3.36-2.63.43-3.98ZM58.58,43.55c.56,1.69,1.13,3.43,1.28,5.19.17,2.08-.28,4.2-.72,6.26-.28,1.34-.57,2.72-.7,4.11-.26-1.32-.66-2.6-1.05-3.86-.61-1.94-1.24-3.95-1.29-6.01-.04-1.83.35-3.68.74-5.46.28-1.27.55-2.57.68-3.89.26,1.25.66,2.47,1.06,3.66ZM56.44,43.7c-.24,1.13-.49,2.28-.64,3.45-.19-1.1-.46-2.2-.74-3.27-.44-1.73-.9-3.52-.95-5.33.05-1.93.42-3.84.78-5.68.26-1.34.53-2.71.68-4.12.19,1.28.45,2.53.7,3.76.39,1.84.78,3.75.91,5.67.04,1.86-.36,3.72-.75,5.52ZM54.67,43.98c.44,1.73.9,3.52.94,5.29.05,2.1-.49,4.22-1.01,6.27-.33,1.32-.67,2.66-.87,4.03-.18-1.32-.49-2.61-.8-3.88-.49-1.98-.99-4.03-.93-6.08.05-1.84.54-3.68,1.01-5.46.33-1.25.66-2.52.86-3.82.19,1.24.49,2.46.8,3.65ZM52.62,44.05c-.3,1.12-.6,2.26-.8,3.41-.13-1.11-.34-2.21-.56-3.29-.35-1.76-.71-3.57-.67-5.38.16-2.04.64-4.04,1.1-5.98.34-1.41.68-2.85.91-4.33.11,1.37.29,2.72.47,4.04.27,1.97.54,4.01.56,6.03-.06,1.87-.55,3.71-1.02,5.5ZM50.88,44.25c.35,1.75.71,3.57.65,5.35-.06,2.12-.71,4.23-1.34,6.27-.4,1.31-.81,2.64-1.08,4.01-.11-1.34-.36-2.66-.61-3.95-.39-2.01-.79-4.09-.62-6.14.15-1.84.74-3.66,1.31-5.41.4-1.24.81-2.51,1.08-3.81.12,1.25.36,2.48.6,3.69ZM44.56,68.22c.41,2.01.83,4.08.64,6.1-.21,2.25-1.23,4.33-2.22,6.35-.7,1.43-1.42,2.89-1.87,4.44-.04-1.69-.39-3.37-.73-5.01-.49-2.34-.96-4.56-.58-6.81.32-1.91,1.21-3.64,2.14-5.46.73-1.42,1.47-2.88,1.93-4.44.05,1.64.38,3.25.7,4.83ZM39.98,80.17c.43,2.05.88,4.16.68,6.25-.34,2.01-1.59,3.62-2.8,5.16-.88,1.12-1.78,2.28-2.31,3.58.05-1.61-.33-3.26-.7-4.86-.48-2.1-.98-4.27-.57-6.4.48-1.82,1.57-3.41,2.62-4.94.89-1.3,1.81-2.64,2.36-4.13-.02,1.79.35,3.59.72,5.34ZM29.68,110.43c.48,1.24.93,2.42,1,3.49-.04.41-.15.82-.25,1.18-.13.44-.29.84-.63,1.39-.73.93-1.83,1.76-2.98,2.63-1.35,1.02-2.73,2.08-3.65,3.37-.01.01-.03.03-.04.04-.09.1-.25.06-.27-.07-.01-.11-.03-.24-.05-.35-.08-1.4-.58-2.81-1.06-4.19-.47-1.32-.91-2.58-.95-3.74.04-.52.16-.97.31-1.4.13-.36.29-.76.5-1.13.71-.92,1.8-1.7,2.94-2.51,1.32-.94,2.66-1.9,3.56-3.17.03-.04.06-.07.09-.11.08-.09.22-.04.22.09.01.16.05.36.09.54.15,1.34.66,2.65,1.15,3.94ZM14.52,132.28c.14-.5.36-1.07.69-1.56.76-.91,1.88-1.67,3.04-2.46,1.36-.92,2.75-1.87,3.7-3.13.03-.03.06-.07.09-.1.09-.1.25-.06.27.06.03.2.12.46.19.65.25,1.25.9,2.41,1.51,3.47.55.98,1.08,1.92,1.26,2.83.01.42-.08.87-.19,1.27-.11.42-.27.87-.52,1.29-.63.8-1.58,1.52-2.57,2.26-1.44,1.09-2.91,2.2-3.66,3.72-.01.02-.02.04-.04.05-.07.11-.25.1-.3-.02-.07-.19-.17-.43-.26-.62-.39-1.08-1.06-2.08-1.72-3.06-.78-1.17-1.54-2.29-1.71-3.43.01-.42.1-.85.21-1.24ZM20.98,148.64c-1.02-1.58-2.06-3.2-2.48-4.91-.1-.63-.09-1.24-.03-1.78.05-.48.17-.99.38-1.47.75-1.3,2.09-2.31,3.39-3.29,1.22-.92,2.38-1.8,3.01-2.87.07-.02.15,0,.19.05.2,1.13,1.11,2.22,2.05,3.35.9,1.08,1.83,2.19,2.25,3.42.06.4.07.82.04,1.23-.04.52-.11,1.11-.29,1.67-.62,1.52-1.68,2.88-2.71,4.21-1.22,1.57-2.46,3.18-2.98,5.03,0,.02-.01.04-.02.06-.06.17-.25.15-.31-.04-.06-.16-.13-.34-.21-.52-.52-1.44-1.4-2.81-2.27-4.16ZM24.45,152.61c.58-1.44,1.6-2.75,2.65-4.11,1.13-1.47,2.3-2.97,2.91-4.7,0-.02.02-.03.03-.05.07-.12.26-.12.32,0,.42,2.04,1.66,3.92,2.87,5.75.93,1.42,1.88,2.86,2.44,4.37.22.96.31,2.07.32,2.66,0,.57-.04,1.14-.19,1.69-.48,1.08-1.34,2.04-2.24,3.03-.91,1-1.83,2.01-2.36,3.21-.12.18-.25.43-.35.61-.05.1-.24.08-.32-.03-.02-.03-.04-.06-.07-.09-.72-1.47-1.91-2.7-3.08-3.91-1.2-1.24-2.35-2.43-2.97-3.82-.17-.6-.25-1.21-.26-1.77-.02-.64.06-1.89.3-2.84ZM33.56,149.29c-1.12-1.71-2.27-3.46-2.74-5.31-.07-.56-.05-1.12-.02-1.6.03-.49.13-.99.33-1.47.72-1.25,2.03-2.21,3.31-3.14,1.19-.87,2.33-1.71,2.85-2.72.05,0,.1,0,.13.02.25,1.11,1.17,2.19,2.13,3.32.98,1.15,1.99,2.33,2.45,3.67.07.38.09.76.08,1.15-.01.46-.04.98-.14,1.48-.52,1.67-1.57,3.19-2.59,4.66-.98,1.41-1.98,2.86-2.53,4.46-.08.2-.16.4-.21.58-.06.18-.25.17-.31-.02-.07-.2-.16-.43-.25-.65-.58-1.54-1.54-3-2.48-4.43ZM37.24,153.8c.53-1.47,1.47-2.83,2.44-4.23,1.08-1.56,2.19-3.16,2.7-4.97.06-.09.19-.08.26,0,.45,1.97,1.58,3.77,2.68,5.52.95,1.51,1.87,2.97,2.37,4.51.16.9.23,1.91.24,2.46,0,.55-.04,1.1-.17,1.64-.46,1.17-1.33,2.2-2.23,3.27-.85,1.01-1.73,2.04-2.26,3.24-.1.17-.22.38-.3.54-.05.1-.23.09-.29-.01,0-.01-.02-.03-.03-.04-.59-1.49-1.73-2.73-2.84-3.93-1-1.08-1.95-2.12-2.52-3.3-.22-.63-.31-1.29-.32-1.9,0-.61.05-1.82.25-2.8ZM43.39,166.08c.44-1.43,1.46-2.65,2.45-3.82.96-1.13,1.94-2.3,2.39-3.66.01-.03.03-.06.04-.09.06-.12.23-.12.29,0,.48,1.45,1.55,2.66,2.58,3.85.96,1.09,1.94,2.21,2.45,3.5.14.46.19.91.19,1.34,0,.32-.03.65-.1.98-.48,1.23-1.53,2.28-2.55,3.31-.94.94-1.83,1.84-2.17,2.8-.03.02-.06.02-.1.02-.39-1.12-1.44-2.12-2.55-3.17-1.13-1.08-2.3-2.18-2.87-3.51-.05-.23-.08-.46-.09-.69-.02-.28,0-.57.03-.87ZM51.46,162.1c-.94-1.08-1.85-2.12-2.35-3.29-.16-.56-.23-1.14-.23-1.69,0-.53.03-1.51.16-2.39.47-1.55,1.39-2.99,2.34-4.48,1.03-1.61,2.1-3.27,2.54-5.11.06-.08.18-.08.24,0,.49,1.86,1.6,3.53,2.68,5.15.98,1.47,1.92,2.88,2.43,4.4.17.87.23,1.86.24,2.43.01.58-.05,1.17-.21,1.75-.48,1.18-1.39,2.22-2.32,3.29-1.02,1.17-2.07,2.38-2.57,3.83,0,.02-.02.03-.03.05-.06.1-.23.1-.28,0,0-.01-.01-.03-.02-.04-.5-1.48-1.58-2.71-2.63-3.91ZM54.89,165.88c.51-1.27,1.46-2.37,2.4-3.44,1.04-1.19,2.11-2.42,2.56-3.88.06-.14.21-.14.28-.05.46,1.41,1.52,2.59,2.55,3.75,1.01,1.13,2.04,2.28,2.51,3.65.08.39.1.79.08,1.17-.02.31-.07.62-.15.93-.61,1.32-1.8,2.41-2.97,3.47-1.09.99-2.12,1.93-2.57,3-.03,0-.06,0-.09,0-.28-1.08-1.24-2.08-2.23-3.13-1.01-1.06-2.05-2.15-2.51-3.41-.04-.24-.05-.48-.05-.72,0-.42.05-.88.19-1.33ZM62.99,161.98c-.88-.98-1.72-1.93-2.23-2.99-.21-.62-.29-1.27-.3-1.89-.01-.6.07-1.7.29-2.6.51-1.43,1.39-2.78,2.24-4.09,1.07-1.65,2.18-3.34,2.59-5.22.06-.12.23-.12.3,0,0,0,0,.02.01.02.59,1.76,1.78,3.29,2.94,4.77,1.01,1.29,1.98,2.54,2.57,3.89.25.9.34,2.03.35,2.7,0,.61-.07,1.25-.24,1.85-.56,1.24-1.57,2.32-2.62,3.44-1.12,1.19-2.26,2.42-2.87,3.9-.02.03-.04.06-.05.09-.07.11-.24.11-.3.01-.04-.08-.09-.18-.15-.27-.51-1.36-1.53-2.5-2.53-3.62ZM69.16,149.74c-1.1-1.41-2.23-2.86-2.82-4.48-.11-.5-.16-1.02-.19-1.47-.03-.49,0-1.01.1-1.51.45-1.23,1.39-2.34,2.31-3.42,1.02-1.2,1.98-2.35,2.23-3.59.04-.03.09-.04.15-.03.58,1.23,1.83,2.22,3.15,3.24,1.31,1.02,2.65,2.07,3.4,3.42.18.47.29.96.33,1.44.05.49.07,1.06,0,1.59-.44,1.74-1.57,3.34-2.68,4.9-.81,1.14-1.63,2.3-2.2,3.53-.15.28-.37.83-.52,1.23-.06.17-.26.18-.33.02-.02-.05-.04-.1-.06-.15-.55-1.72-1.73-3.24-2.89-4.71ZM73.01,154.25c.54-1.47,1.51-2.85,2.47-4.19,1.18-1.66,2.39-3.37,2.8-5.28,0-.02.02-.04.03-.06.05-.13.25-.13.32-.01.02.04.05.08.07.12.66,1.6,1.85,2.98,3.02,4.32,1.04,1.2,2.03,2.35,2.65,3.62.31.86.43,1.99.43,2.7,0,.65-.09,1.32-.31,2-.62,1.31-1.72,2.47-2.88,3.68-1.13,1.19-2.3,2.4-3.01,3.83-.03.05-.07.1-.1.14-.08.11-.27.13-.32.03-.06-.11-.13-.25-.2-.38-.49-1.35-1.58-2.47-2.64-3.56-.87-.89-1.7-1.76-2.22-2.72-.23-.63-.32-1.32-.33-1.96,0-.54.05-1.44.21-2.26ZM82.02,148.88c-1.14-1.31-2.3-2.66-2.94-4.2-.12-.47-.18-.96-.22-1.38-.05-.54-.04-1.11.07-1.66.42-1.17,1.25-2.25,2.07-3.3.99-1.28,1.94-2.5,2.13-3.83.04-.04.1-.06.16-.05.64,1.24,1.87,2.25,3.16,3.3,1.34,1.09,2.71,2.21,3.47,3.64.17.45.27.9.33,1.35.06.51.09,1.07.02,1.62-.38,1.67-1.41,3.21-2.41,4.72-.83,1.25-1.68,2.52-2.19,3.89-.09.21-.17.44-.24.63-.05.14-.21.17-.29.07-.53-1.78-1.84-3.3-3.12-4.78ZM85.99,153.31c.48-1.4,1.35-2.72,2.21-4.01,1.09-1.64,2.21-3.32,2.54-5.18.05-.14.24-.16.31-.04.05.07.09.16.14.24.68,1.43,1.78,2.67,2.86,3.88,1.05,1.18,2.06,2.32,2.65,3.57.26.74.36,1.67.36,2.32,0,.55-.03,1.17-.19,1.73-.58,1.45-1.78,2.74-3.03,4.09-1.08,1.16-2.19,2.36-2.92,3.7-.02.04-.05.07-.07.1-.08.12-.26.14-.3.04-.04-.11-.09-.23-.15-.35-.39-1.35-1.39-2.48-2.37-3.58-.78-.88-1.53-1.73-1.98-2.66-.18-.58-.25-1.21-.25-1.8,0-.52.04-1.31.18-2.05ZM90.79,141.18c-.02.06-.05.12-.07.18-.04.12-.23.13-.3.02-.04-.07-.09-.14-.15-.21-.8-1.48-2.19-2.62-3.56-3.73-1.02-.83-1.99-1.63-2.65-2.52-.28-.51-.46-1.09-.57-1.6-.09-.38-.16-.8-.16-1.21.19-1,.79-2.03,1.41-3.1.71-1.22,1.44-2.48,1.65-3.82.04-.16.08-.34.11-.49.02-.12.19-.14.28-.04.03.03.06.06.09.1.93,1.31,2.31,2.31,3.65,3.28,1.23.89,2.42,1.75,3.19,2.79.29.49.48,1.06.61,1.57.12.47.21.98.19,1.46-.22,1.17-.98,2.32-1.78,3.52-.8,1.21-1.62,2.44-1.95,3.79ZM94.44,131.22c-.76-1.39-2.19-2.42-3.68-3.5-1.33-.96-2.69-1.95-3.59-3.23-.2-.37-.35-.75-.47-1.11-.06,0-.1.01-.14.02.05,0,.08-.01.14-.02-.15-.46-.25-.97-.28-1.49.06-1.33.55-2.66,1.02-3.95.55-1.49,1.11-3.02,1.03-4.57.01-.07.07-.1.14-.1.92,1.49,2.41,2.64,3.97,3.84,1.42,1.09,2.87,2.22,3.87,3.63.23.4.41.8.55,1.19.06,0,.09-.01.14-.02-.04,0-.08.01-.14.02.14.4.25.81.31,1.23,0,1.5-.71,2.95-1.39,4.36-.58,1.19-1.13,2.34-1.27,3.48,0,.04-.02.08-.03.12-.02.07-.1.1-.17.09ZM81.43,94.03s.04-.02.06-.02c.86,1.45,2.26,2.52,3.61,3.57,1.18.91,2.4,1.85,3.27,3.04.15.25.28.52.41.81.15.33.29.68.39,1.02.25,1.53-.22,3.06-.69,4.55-.36,1.15-.73,2.34-.73,3.49,0,.04,0,.08-.01.11,0,.09-.09.13-.17.1-.85-1.29-2.19-2.25-3.5-3.19-1.33-.95-2.7-1.93-3.57-3.27-.16-.31-.29-.63-.39-.94-.08-.22-.13-.45-.18-.67-.09-1.45.34-2.9.75-4.31.42-1.41.85-2.86.74-4.29ZM81.03,94.07c.1,1.34-.3,2.71-.73,4.14-.35,1.17-.7,2.37-.77,3.59-.02.13-.04.27-.05.39-.01.11-.15.14-.23.05-.01-.01-.02-.03-.03-.04-.74-1.09-1.77-2.01-2.77-2.9-1.16-1.03-2.26-2.02-2.93-3.23-.22-.49-.38-1.01-.49-1.5-.09-.43-.16-.9-.19-1.38.02-1.35.39-2.7.78-4.12.44-1.6.89-3.24.81-4.92.74,1.63,1.98,2.95,3.19,4.24.97,1.03,1.89,2.02,2.55,3.12.24.46.43.92.58,1.38.12.38.23.78.3,1.18ZM75.05,72.71c.74,1.57,1.86,2.93,2.96,4.26,1.21,1.46,2.47,2.98,3.18,4.76.56,1.82.2,3.72-.14,5.56-.27,1.43-.54,2.9-.37,4.32-.7-1.28-1.75-2.4-2.77-3.49-1.44-1.53-2.92-3.11-3.5-5.17-.37-1.85-.06-3.76.25-5.61.25-1.52.51-3.08.39-4.62ZM74.26,77.26c-.25,1.48-.5,3.01-.41,4.53-.61-1.44-1.5-2.75-2.38-4.02-1.29-1.87-2.5-3.64-2.87-5.79-.32-1.87-.03-3.74.29-5.72.24-1.51.49-3.07.43-4.63.61,1.58,1.53,3.03,2.42,4.44,1.1,1.73,2.13,3.37,2.65,5.22.54,1.93.21,3.89-.13,5.96ZM69.18,54.65c.11-1.3.21-2.63.12-3.94.61,1.47,1.43,2.84,2.23,4.18.96,1.6,1.95,3.25,2.55,5.04.52,1.86.36,3.8.21,5.69-.11,1.32-.22,2.67-.09,4-.58-1.31-1.36-2.54-2.12-3.74-1.15-1.82-2.34-3.7-2.84-5.83-.36-1.76-.21-3.61-.06-5.39ZM68.63,48.93c.46,1.83.31,3.7.15,5.68-.1,1.24-.2,2.51-.14,3.77-.46-1.28-1.07-2.52-1.66-3.72-.94-1.91-1.92-3.89-2.27-6.01-.28-1.66-.14-3.39,0-5.06.1-1.15.19-2.33.16-3.5.47,1.34,1.1,2.62,1.72,3.88.79,1.6,1.61,3.26,2.04,4.96ZM65.92,33.83c.7,1.54,1.43,3.13,1.95,4.79.45,1.69.44,3.48.43,5.2,0,1.01,0,2.05.08,3.07-.42-1.06-.93-2.09-1.43-3.1-.88-1.8-1.8-3.65-2.21-5.62-.31-1.8-.38-3.67-.44-5.47-.03-1.03-.07-2.07-.15-3.11.5,1.46,1.14,2.87,1.77,4.24ZM61.58,20.05c.68,2.29,1.39,4.66,1.83,7,.35,1.85.42,3.79.48,5.67.04,1.06.07,2.14.16,3.21-.32-1-.67-1.98-1.02-2.95-.74-2.04-1.5-4.15-1.85-6.36-.37-2.33-.49-4.78-.61-7.15-.06-1.24-.12-2.49-.22-3.75.38,1.46.81,2.91,1.23,4.33ZM58.53,7.77c.38,1.45.76,2.95,1.02,4.44.38,2.4.5,4.88.62,7.28.04.85.09,1.71.14,2.57-.21-.99-.44-1.97-.67-2.94-.59-2.54-1.21-5.18-1.54-7.79-.17-1.57-.19-3.19-.21-4.75,0-.49-.02-.99-.03-1.49.21.9.44,1.8.66,2.68ZM56.32,6.74c.03-.68.06-1.36.08-2.05.15.8.32,1.6.49,2.39.3,1.4.61,2.85.79,4.28.3,2.57.29,5.22.27,7.78,0,.94,0,1.88,0,2.83-.18-1.02-.37-2.04-.56-3.04-.48-2.52-.98-5.12-1.15-7.69-.06-1.5.01-3.02.08-4.5ZM55.98,19.05c.1-1.44.2-2.9.25-4.37.22,1.46.5,2.91.77,4.33.46,2.4.94,4.89,1.12,7.31.16,2.1-.13,4.19-.41,6.22-.15,1.07-.3,2.17-.38,3.27-.18-1.15-.42-2.28-.65-3.39-.43-2.07-.88-4.21-.95-6.4-.07-2.32.09-4.69.25-6.98ZM54.64,6.86c.08-.74.16-1.5.22-2.25.11.76.23,1.51.36,2.25.24,1.44.49,2.93.59,4.4.14,2.58-.05,5.21-.22,7.76-.08,1.09-.15,2.2-.2,3.31-.11-1.02-.24-2.04-.37-3.05-.34-2.63-.69-5.34-.71-8.02.03-1.47.19-2.96.34-4.4ZM54.07,14.7c.14,1.56.34,3.12.53,4.64.28,2.2.57,4.47.67,6.7.1,2.32-.34,4.57-.77,6.75-.21,1.08-.43,2.18-.58,3.3-.11-1.22-.27-2.43-.43-3.62-.3-2.23-.61-4.53-.56-6.83.06-2.27.36-4.59.66-6.84.18-1.35.36-2.72.49-4.1ZM52.36,11.22c.11-1.39.33-2.8.55-4.16.13-.79.26-1.59.36-2.4.06.69.14,1.38.22,2.06.17,1.49.35,3.03.36,4.55-.01,2.5-.35,5.03-.67,7.48-.14,1.04-.27,2.09-.39,3.15-.05-1-.12-1.99-.19-2.97-.18-2.53-.37-5.15-.24-7.72ZM52.2,18.97c.16,2.18.32,4.44.28,6.66-.05,2.44-.61,4.8-1.16,7.09-.28,1.17-.57,2.37-.78,3.58-.05-1.23-.14-2.45-.23-3.65-.19-2.45-.38-4.98-.16-7.5.2-2.18.63-4.39,1.05-6.53.26-1.33.53-2.7.74-4.07.05,1.48.15,2.96.26,4.41ZM51.25,7.21c.17-.81.34-1.63.49-2.45.02.61.06,1.21.09,1.81.08,1.52.17,3.08.09,4.62-.16,2.47-.65,4.95-1.12,7.35-.18.93-.37,1.88-.54,2.83.01-.95,0-1.89,0-2.83-.01-2.43-.03-4.95.26-7.4.18-1.31.46-2.64.73-3.93ZM48.18,18.01c.11-2.22.23-4.52.58-6.75.24-1.31.6-2.64.93-3.92.22-.83.44-1.67.64-2.52,0,.47-.01.93-.02,1.39-.01,1.61-.02,3.27-.22,4.88-.31,2.42-.9,4.84-1.47,7.18-.2.82-.4,1.65-.6,2.49.06-.92.11-1.84.15-2.74ZM45.2,24.18c.42-1.99,1.04-3.98,1.65-5.9.39-1.24.79-2.51,1.14-3.8-.09,1.18-.15,2.36-.21,3.52-.11,2.18-.22,4.44-.56,6.61-.44,2.91-1.36,5.71-2.25,8.42-.36,1.11-.73,2.24-1.07,3.39.13-1.27.22-2.55.31-3.8.2-2.79.4-5.68.99-8.45ZM39.83,43.59c0-1.73-.01-3.53.4-5.23.6-1.97,1.38-3.92,2.13-5.8.66-1.66,1.34-3.36,1.9-5.1-.21,1.72-.33,3.45-.45,5.15-.14,1.95-.28,3.97-.55,5.93-.41,1.82-1.26,3.51-2.08,5.16-.5.99-1.01,2.01-1.42,3.06.09-1.05.08-2.12.08-3.16ZM39.52,48.78c.41-1.71,1.22-3.34,2.01-4.92.58-1.15,1.16-2.33,1.61-3.56-.05,1.28.03,2.57.11,3.82.11,1.75.23,3.56-.04,5.28-.32,2.04-1.27,3.94-2.19,5.79-.58,1.16-1.17,2.35-1.62,3.59.07-1.33-.01-2.66-.09-3.96-.13-2-.26-4.08.2-6.04ZM39.31,60.51c.41-1.8,1.26-3.5,2.08-5.14.64-1.29,1.29-2.6,1.75-3.98-.01,1.51.18,3.03.38,4.51.25,1.9.5,3.86.31,5.79-.3,2.13-1.29,4.08-2.25,5.95-.64,1.25-1.29,2.52-1.73,3.85.03-1.5-.17-3.01-.36-4.49-.28-2.14-.56-4.35-.17-6.49ZM34.29,59.3c.56-1.73,1.53-3.32,2.46-4.86.75-1.24,1.52-2.5,2.09-3.85-.11,1.42-.02,2.86.07,4.26.12,1.83.24,3.73-.09,5.56-.46,2.05-1.6,3.84-2.71,5.58-.73,1.15-1.48,2.33-2.03,3.58.13-1.4.04-2.82-.06-4.22-.14-2.01-.28-4.09.26-6.05ZM33.92,71.27c.48-1.81,1.48-3.39,2.54-5.06.84-1.32,1.69-2.66,2.27-4.14-.08,1.68.14,3.36.35,5,.28,2.12.54,4.13.21,6.12-.34,2.07-1.5,3.77-2.73,5.56-.83,1.21-1.68,2.45-2.25,3.83.11-1.63-.12-3.27-.34-4.87-.31-2.24-.6-4.36-.06-6.43ZM27.46,81.32c.65-1.74,1.87-3.22,3.05-4.64,1.02-1.23,2.06-2.5,2.75-3.95-.15,1.67.08,3.37.31,5.02.27,1.98.56,4.04.18,6.01-.53,1.96-1.91,3.44-3.25,4.86-.98,1.04-1.98,2.1-2.64,3.36.17-1.51-.08-3.09-.33-4.62-.32-2.01-.65-4.08-.08-6.04ZM27.19,81.23l.07.03-.06-.02-.07-.02h.05ZM20.03,91.13c.72-1.77,2.08-3.18,3.52-4.67,1.21-1.25,2.44-2.53,3.27-4.05-.22,1.67.05,3.37.31,5.02.24,1.48.46,2.9.35,4.25-.07.49-.18.97-.32,1.42-.13.41-.29.82-.49,1.22-.75,1.25-1.97,2.22-3.24,3.23-.95.75-1.92,1.53-2.71,2.44-.09.09-.19.19-.27.27-.09.09-.22.04-.22-.07.14-1.3-.08-2.59-.3-3.86-.31-1.81-.6-3.52.09-5.2ZM19.89,102.57c.09-.38.21-.73.34-1.05.08-.19.17-.39.27-.59.83-1.2,2.02-2.15,3.19-3.07,1.27-1.01,2.58-2.05,3.38-3.41.01,0,.03,0,.04.01-.15,1.61.27,3.24.69,4.82.39,1.5.79,3.03.7,4.55-.05.26-.1.52-.18.76-.08.26-.17.52-.29.77-.85,1.4-2.3,2.44-3.71,3.44-1.24.88-2.42,1.73-3.16,2.77-.04,0-.07,0-.1-.02.13-1.31-.22-2.72-.59-4.18-.4-1.59-.8-3.23-.59-4.81ZM11.56,116.37c-.47-1.63-.92-3.18-.44-4.76.06-.17.13-.33.19-.49.07-.16.14-.33.22-.49.91-1.77,2.48-3.08,4.12-4.46,1.33-1.11,2.69-2.25,3.69-3.67.06-.03.12,0,.14.04-.22,1.64.2,3.32.6,4.95.32,1.28.62,2.51.6,3.65-.06.5-.22,1.01-.38,1.47-.19.52-.45,1.02-.84,1.57-.81.94-1.93,1.73-3.1,2.56-1.41,1-2.85,2.02-3.82,3.37,0,0-.02.02-.02.02-.1.12-.26.09-.27-.05,0-.15-.02-.31-.04-.45-.05-1.11-.36-2.19-.67-3.25ZM6.19,140.26c-.03-.09-.07-.18-.11-.28-.25-1.08-.77-2.07-1.28-3.05-.8-1.54-1.56-2.99-1.26-4.68.04-.18.09-.35.14-.52.08-.26.18-.53.29-.8.78-1.72,2.27-3.02,3.83-4.38,1.22-1.07,2.48-2.16,3.39-3.5.01-.01.03-.03.04-.04.1-.12.26-.09.27.04,0,.02,0,.05,0,.07-.02,1.53.63,3,1.26,4.44.5,1.14.99,2.23,1.1,3.28-.02.46-.13.94-.26,1.38-.15.52-.36,1.08-.69,1.58-.7.9-1.68,1.7-2.7,2.52-1.4,1.13-2.83,2.29-3.65,3.83-.03.04-.06.08-.08.12-.08.11-.26.11-.3,0ZM10.79,150.66c-.5-1.04-1.17-2.04-1.84-3.03-.89-1.32-1.8-2.67-2.24-4.08-.19-.68-.2-1.39-.1-2.02.06-.4.16-.82.33-1.23.79-1.46,2.18-2.58,3.53-3.68,1.3-1.05,2.53-2.05,3.24-3.3.07-.01.15.02.17.08,0,0,0,.02,0,.03.15,1.27.95,2.47,1.8,3.73.76,1.13,1.54,2.29,1.85,3.55.03.39.02.79-.03,1.18-.06.5-.17,1.03-.37,1.56-.64,1.35-1.65,2.55-2.63,3.73-1.23,1.46-2.48,2.95-2.98,4.7-.08.1-.22.07-.28-.08-.14-.37-.34-.88-.47-1.14ZM15.48,171.07c-.06.16-.12.44-.15.64,0,.04-.04.05-.08.06-.86-1.31-2.22-2.39-3.64-3.53-1.54-1.23-3.11-2.49-4.08-4.08-.17-.36-.3-.72-.39-1.06-.09-.34-.14-.69-.15-1.05.21-1.5,1.23-2.76,2.23-3.98.72-.89,1.46-1.8,1.89-2.81.06-.11.12-.23.17-.33.04-.08.15-.09.24-.03.52,1.82,1.95,3.36,3.33,4.87,1.09,1.18,2.21,2.4,2.92,3.75.14.36.24.71.31,1.04.09.43.14.86.11,1.28-.22.98-.82,1.88-1.41,2.77-.53.8-1.07,1.61-1.29,2.45ZM25.75,176.89c-.46.84-.95,1.75-1.01,2.74-.04.13-.08.3-.09.43,0,.04-.05.06-.12.05-1.1-1.19-2.54-2.13-3.94-3.05-1.25-.81-2.45-1.6-3.36-2.51,0,0,.01,0,.02,0-.52-.56-.89-1.16-1.14-1.69-.15-.34-.27-.7-.33-1.05.02-.98.66-1.94,1.33-2.95.56-.84,1.14-1.71,1.41-2.65.05-.13.11-.27.15-.38.04-.09.21-.07.3.04.9,1.62,2.45,2.87,3.95,4.08.97.78,1.91,1.54,2.6,2.34-.02,0-.04.01-.06.02.45.56.73,1.11.91,1.62.11.29.18.59.22.88-.08.68-.46,1.37-.85,2.1ZM26.74,172.69c-.04.1-.07.19-.1.28-.01.03-.04.05-.08.05-.7-1.25-2.01-2.3-3.37-3.4-1.46-1.17-2.96-2.38-3.82-3.91-.14-.34-.25-.68-.31-1-.07-.35-.11-.71-.09-1.08.29-1.39,1.28-2.51,2.32-3.68.75-.85,1.51-1.71,1.98-2.69.09-.17.19-.35.27-.5.05-.1.19-.09.27,0,.56,1.75,1.94,3.18,3.29,4.57,1.07,1.1,2.17,2.24,2.87,3.54.19.46.31.9.37,1.32.06.4.07.81,0,1.2-.35,1.01-1.13,1.91-1.9,2.79-.74.84-1.45,1.66-1.7,2.51ZM37.82,175.51c-.2.63-.71,1.26-1.25,1.91-.64.77-1.33,1.62-1.59,2.6-.07.12-.15.28-.19.42-.02.06-.11.07-.19.04-.97-1.18-2.35-2.09-3.69-2.98-1.13-.74-2.21-1.45-2.95-2.27-.31-.42-.53-.84-.66-1.23-.12-.35-.2-.72-.2-1.08.19-.8.88-1.6,1.65-2.47.69-.79,1.44-1.66,1.86-2.63.09-.15.18-.32.25-.46.05-.09.24-.08.31.03.18.24.45.58.62.76.81,1.03,1.88,1.91,2.93,2.77.93.76,1.82,1.49,2.42,2.26-.02,0-.03.01-.05.02.37.52.56,1.03.66,1.51.06.27.08.54.07.81ZM38.16,173.77c-.03.06-.07.07-.13.07-.54-1.18-1.77-2.19-3.06-3.24-1.33-1.09-2.7-2.22-3.47-3.62-.07-.24-.12-.48-.16-.7-.05-.34-.05-.69,0-1.05.42-1.4,1.48-2.57,2.51-3.7.92-1.01,1.86-2.05,2.36-3.25.05-.1.1-.2.15-.29.06-.12.25-.11.31.02.53,1.56,1.71,2.83,2.86,4.07,1.02,1.1,2.06,2.23,2.65,3.55.15.44.23.88.25,1.29.02.35,0,.7-.05,1.05-.41,1.15-1.35,2.15-2.28,3.13-.85.9-1.67,1.77-1.95,2.68ZM44.88,180.58c-.07.12-.14.25-.2.36-.03.07-.18.06-.24-.01-.08-.09-.17-.2-.26-.3-.75-.98-1.79-1.81-2.8-2.62-.89-.71-1.75-1.4-2.31-2.12-.23-.38-.36-.77-.43-1.14-.07-.34-.08-.7-.02-1.06.3-.76,1.03-1.53,1.78-2.32.84-.89,1.76-1.86,2.25-2.98.06-.11.13-.23.18-.33.05-.09.22-.09.29.01.15.23.37.56.51.73.65.96,1.55,1.82,2.43,2.65.8.76,1.57,1.49,2.06,2.24,0,0-.02,0-.03,0,.28.51.4,1.02.43,1.5.02.26,0,.53-.04.79-.3.68-.94,1.34-1.61,2.03-.78.79-1.57,1.61-1.97,2.57ZM53.7,182.35c-.38.94-1.16,1.75-1.93,2.53-.77.79-1.5,1.54-1.72,2.36-.02,0-.03,0-.05,0-.49-1-1.42-1.79-2.39-2.62-.93-.79-1.89-1.61-2.46-2.64-.02-.07-.04-.15-.05-.22-.02-.12-.04-.25-.05-.38.22-1.18,1.17-2.15,2.09-3.09.69-.7,1.35-1.38,1.68-2.11.01-.02.02-.04.03-.06.03-.05.12-.07.18-.04.38.88,1.23,1.68,2.11,2.51,1.04.98,2.1,1.99,2.55,3.22,0,.09.01.18.01.27,0,.09,0,.18-.02.27ZM54.39,181.04c-.06.08-.13.17-.18.24-.05.07-.19.07-.24,0-.08-.12-.19-.29-.28-.41-.56-.96-1.43-1.77-2.27-2.57-.75-.71-1.47-1.39-1.87-2.09-.12-.33-.18-.67-.2-.99-.02-.34.01-.72.13-1.09.38-.78,1.15-1.55,1.95-2.35.94-.94,1.97-1.97,2.52-3.18.05-.09.11-.18.15-.25.06-.1.23-.1.28,0,.13.23.32.55.45.71.57.91,1.36,1.74,2.14,2.56.73.76,1.43,1.5,1.84,2.24.21.51.26,1.03.23,1.51-.02.28-.07.56-.17.84-.42.75-1.2,1.44-2.03,2.16-.93.81-1.88,1.65-2.45,2.67ZM63.14,182.22c-.02.07-.04.15-.06.22-.59.96-1.54,1.71-2.46,2.44-1.02.81-2,1.58-2.48,2.59-.01,0-.03,0-.04,0-.22-.83-.94-1.61-1.69-2.43-.77-.83-1.56-1.69-1.93-2.68,0-.09,0-.17,0-.26,0-.1,0-.21.02-.31.47-1.22,1.56-2.18,2.62-3.12.89-.78,1.75-1.53,2.18-2.4.07-.04.16-.04.21.01.29.8.96,1.54,1.66,2.32.9,1,1.83,2.03,2.04,3.26-.01.12-.03.24-.06.36ZM69.97,175.2c-.11.5-.33,1.01-.71,1.5-.58.62-1.37,1.2-2.2,1.79-1.17.84-2.37,1.71-3.15,2.82-.03.03-.05.06-.08.08-.07.07-.21.07-.25,0-.06-.14-.16-.31-.24-.44-.41-.98-1.18-1.84-1.89-2.62-.63-.7-1.24-1.37-1.52-2.05-.06-.31-.07-.62-.04-.92.04-.42.15-.89.39-1.35.5-.76,1.31-1.49,2.14-2.25,1.04-.94,2.17-1.98,2.86-3.21.08-.12.17-.25.24-.35.07-.1.24-.11.29,0,.12.23.29.55.41.71.02,0,.04-.02.05-.02.51.93,1.23,1.77,1.91,2.55.79.92,1.55,1.8,1.84,2.69.05.37.02.73-.06,1.08ZM70.5,174.2s-.04-.09-.06-.13c-.29-.98-1.1-1.92-1.95-2.9-.92-1.06-1.85-2.15-2.26-3.39-.02-.25-.02-.5,0-.75.03-.42.11-.88.27-1.35.61-1.31,1.66-2.43,2.69-3.53,1.19-1.27,2.4-2.57,2.91-4.15.08-.15.27-.16.34-.04.02.04.04.08.06.12.5,1.28,1.54,2.35,2.55,3.39,1.08,1.11,2.11,2.18,2.56,3.46.11.48.11.98.04,1.45-.05.36-.15.73-.3,1.1-.8,1.39-2.19,2.48-3.56,3.54-1.34,1.04-2.61,2.03-3.19,3.23-.05,0-.1-.02-.12-.06ZM81.54,174.43c-.19.52-.5,1.07-.97,1.6,0,0,.02,0,.02,0-.79.81-1.87,1.54-2.98,2.28-1.3.87-2.63,1.77-3.63,2.88-.09.08-.24.08-.26.01-.03-.13-.12-.31-.2-.44-.24-1-.9-1.88-1.51-2.68-.53-.7-1.04-1.38-1.23-2.06,0-.29.03-.58.1-.86.12-.49.33-1.03.72-1.57-.02,0-.04-.02-.06-.02.64-.77,1.56-1.49,2.51-2.23,1.4-1.09,2.84-2.21,3.67-3.67.04-.05.08-.1.11-.15.08-.11.27-.13.32-.03.11.22.26.54.37.7.03-.01.05-.02.07-.03.4.83.99,1.6,1.56,2.35.75.98,1.47,1.92,1.62,2.85-.01.36-.1.72-.23,1.07ZM80.48,170.27c-.76-.99-1.54-2.01-1.85-3.13,0-.29.01-.58.06-.86.06-.4.17-.84.36-1.3.7-1.3,1.79-2.45,2.86-3.57,1.35-1.41,2.74-2.87,3.27-4.62.08-.09.23-.09.28,0,.03.06.06.12.09.18.46,1.14,1.34,2.14,2.2,3.11,1.02,1.15,1.99,2.25,2.32,3.55.06.46.02.93-.07,1.39-.07.34-.18.68-.33,1.03-.89,1.54-2.41,2.76-3.89,3.94-1.38,1.11-2.71,2.16-3.45,3.43-.04,0-.08-.02-.09-.05-.03-.11-.08-.24-.12-.37-.25-.92-.93-1.81-1.63-2.73ZM92.72,173.26c-.27.55-.65,1.13-1.2,1.69.01,0,.02,0,.03.01-.96.94-2.21,1.75-3.51,2.59-1.43.92-2.89,1.87-4.04,3.05-.05,0-.1,0-.1-.05,0-.12-.03-.28-.06-.41-.02-.98-.47-1.91-.89-2.76-.36-.74-.71-1.45-.76-2.13.05-.3.14-.6.25-.9.2-.51.5-1.09.96-1.67-.02,0-.03,0-.04-.01.72-.81,1.66-1.57,2.64-2.35,1.53-1.22,3.11-2.48,4.02-4.12.09-.12.27-.14.3-.04.08.23.2.54.29.71.03-.01.05-.02.07-.03.29.77.72,1.51,1.15,2.23.65,1.1,1.27,2.16,1.24,3.19-.07.34-.2.69-.36,1.02ZM99.82,158.51c1,1.18,1.96,2.31,2.22,3.64.03.45-.03.92-.15,1.37-.08.32-.2.65-.36.98-.99,1.65-2.64,2.95-4.24,4.21-1.43,1.13-2.79,2.2-3.68,3.49-.04,0-.06-.02-.07-.06-.02-.14-.05-.32-.09-.48-.15-.93-.7-1.86-1.26-2.82-.58-.99-1.19-2.01-1.36-3.08.02-.29.06-.58.12-.86.07-.33.17-.69.32-1.06.7-1.32,1.81-2.5,2.88-3.66,1.39-1.5,2.83-3.04,3.32-4.84.08-.05.19-.04.23.04.02.04.04.08.07.13.43,1.08,1.25,2.05,2.05,2.99ZM102.23,143.71c-.38,1.56-1.34,3-2.28,4.41-.85,1.27-1.71,2.57-2.16,3.96-.04.11-.08.21-.12.3-.05.12-.18.16-.26.08-.52-1.69-1.8-3.13-3.05-4.53-1.1-1.24-2.23-2.51-2.88-3.96-.13-.44-.21-.89-.25-1.29-.06-.51-.08-1.06,0-1.6.34-1.21,1.1-2.36,1.84-3.47.9-1.36,1.77-2.65,1.9-4.04.03-.05.09-.06.16-.05.68,1.29,1.93,2.34,3.25,3.45,1.34,1.13,2.71,2.28,3.5,3.74.18.45.29.9.35,1.34.08.53.09,1.09,0,1.65ZM102.68,140.58s-.02.07-.04.1c-.04.12-.22.13-.3.02-.04-.06-.08-.12-.13-.18-.82-1.52-2.22-2.7-3.59-3.86-1.11-.93-2.18-1.83-2.87-2.85-.22-.48-.38-1.01-.51-1.48-.1-.38-.19-.8-.22-1.22.12-1.1.67-2.23,1.24-3.41.62-1.28,1.25-2.59,1.4-3.97.03-.18.06-.37.09-.53.02-.12.19-.14.28-.04.02.02.03.04.05.06.92,1.3,2.21,2.31,3.46,3.29,1.58,1.24,3.08,2.43,3.88,4.12.11.29.21.58.29.87.08.28.15.57.2.86.14,1.65-.71,3.08-1.6,4.59-.68,1.15-1.38,2.33-1.63,3.63Z"/>
  </g>
</svg>