<?xml version="1.0" encoding="UTF-8"?>
<svg id="_레이어_2" data-name="레이어 2" xmlns="http://www.w3.org/2000/svg" viewBox="0 0 109.41 94.17">
  <defs>
    <style>
      .cls-1 {
        fill: #add4e7;
      }

      .cls-2 {
        fill: #fff;
      }

      .cls-3 {
        fill: #e0f3f5;
      }

      .cls-4 {
        fill: #c4e6ef;
      }
    </style>
  </defs>
  <g id="_해양쓰레기2" data-name="해양쓰레기2">
    <g>
      <polygon class="cls-3" points="6.76 24.18 10.48 39.01 35.27 57.48 44.64 58.9 45.68 67.55 61.65 72.67 74.31 94.17 96.2 80.61 109.41 60.79 84.94 42.28 84.6 34.86 66.77 32.4 69.71 24.19 29.86 0 13.33 9.89 6.76 24.18"/>
      <path class="cls-4" d="M58.07,33.75l-11.28,5.58-8.39-6.87-8.05-18.38.32,13.05-7.46-1.2-4.72-15.39-9.16,12.14s5.36,17.98,5.85,18.36c.5.38,26.29,14.66,26.29,14.66l15.64-11.69.96-10.25Z"/>
      <polygon class="cls-1" points="96.2 80.61 109.41 60.79 102.9 55.86 99.57 59.6 76.58 52.94 82.42 34.56 66.77 32.4 69.71 24.19 61.32 19.09 53.51 40.86 42.48 51.9 30.84 36.53 33.62 32.07 30.48 9.42 28.25 31.29 17.35 32.29 15.19 15.44 10.21 16.67 6.76 24.18 10.48 39.01 35.27 57.48 44.64 58.9 45.68 67.55 61.65 72.67 74.31 94.17 96.2 80.61"/>
      <g>
        <rect class="cls-3" x="1.96" y="7.09" width="15.15" height="14.38" rx="1.13" ry="1.13" transform="translate(-7.57 15.81) rotate(-61.38)"/>
        <path class="cls-1" d="M.14,16.5l1.79-3.28c.07.07.16.13.25.18l12.1,6.6c.09.05.19.09.28.11l-1.79,3.28c-.3.55-.99.75-1.54.45L.59,18.03c-.55-.3-.75-.99-.45-1.54Z"/>
        <path class="cls-3" d="M8.29,23.66l.12.07c-.46-.25-.64-.84-.38-1.3l7.53-13.8c.25-.46.84-.64,1.3-.38l-.12-.07c.46.25.64.84.38,1.3l-7.53,13.8c-.25.46-.84.64-1.3.38ZM7.29,22.01l7.53-13.8c.25-.46.08-1.05-.38-1.3l.12.07c-.46-.25-1.05-.08-1.3.38l-7.53,13.8c-.25.46-.08,1.05.38,1.3l-.12-.07c.46.25,1.05.08,1.3-.38Z"/>
        <g>
          <path class="cls-1" d="M7.92,22.96s.1.09.16.13c-.02,0-.04-.02-.06-.03l.12.07s-.04-.02-.06-.04c.45.21,1,.03,1.24-.41l7.53-13.8c.09-.17.13-.36.11-.54.29.29.37.75.16,1.13l-7.53,13.8c-.24.44-.79.62-1.24.41-.26-.17-.41-.44-.44-.73Z"/>
          <path class="cls-1" d="M8.41,23.72l-.12-.07s.04.02.06.03c.02.01.04.03.06.04Z"/>
          <path class="cls-1" d="M6.05,22.43s.04.03.06.04l-.12-.07s.04.02.06.03Z"/>
          <path class="cls-1" d="M5.61,21.7s.1.09.16.13c-.02,0-.04-.02-.06-.03l.12.07s-.04-.02-.06-.04c.45.21,1,.03,1.24-.41l7.53-13.8c.09-.17.13-.36.11-.54.29.29.37.75.16,1.13l-7.53,13.8c-.24.44-.79.62-1.24.41-.26-.17-.41-.44-.44-.73Z"/>
        </g>
      </g>
      <polygon class="cls-4" points="64.51 38.36 60.09 48.35 50.14 54.94 50.82 60.95 66.89 58.72 69.99 43.56 64.51 38.36"/>
      <polygon class="cls-4" points="76.35 58.3 95.59 63.97 89.85 70.87 74.49 65.26 76.35 58.3"/>
      <polygon class="cls-2" points="34.81 10.92 40.32 21.62 50.28 21.58 52.97 25.97 55.28 22.23 34.81 10.92"/>
      <polygon class="cls-2" points="22.52 9.21 24.97 12.88 26.24 7.05 22.52 9.21"/>
      <polygon class="cls-2" points="81.83 46.23 80.8 51.73 94.3 54.62 81.83 46.23"/>
    </g>
  </g>
</svg>