<?xml version="1.0" encoding="UTF-8"?>
<svg id="_레이어_2" data-name="레이어 2" xmlns="http://www.w3.org/2000/svg" viewBox="0 0 112.3 135.44">
  <defs>
    <style>
      .cls-1 {
        fill: #bdbdbd;
      }

      .cls-1, .cls-2, .cls-3, .cls-4, .cls-5, .cls-6 {
        fill-rule: evenodd;
      }

      .cls-2 {
        fill: #fff;
      }

      .cls-3 {
        fill: #efefef;
      }

      .cls-4 {
        fill: #e0e0e0;
      }

      .cls-5 {
        fill: #d1d1d1;
      }

      .cls-6 {
        fill: #f9f9f9;
      }
    </style>
  </defs>
  <g id="_해양쓰레기1" data-name="해양쓰레기1">
    <g>
      <path class="cls-5" d="M89.62,1.24s-2.36-.09-3.4-.37c-1.04-.29-2.39-1.09-3.02-.81-.63.29-2.39,9.04-3.31,10.48-.92,1.44-4.09,7.54-3.91,9.38.17,1.84,1.78,3.51,2.76,4.89.98,1.38,4.03-.4,4.03-.4l.63-4.66s-1.78-5.7-1.44-8.81c.35-3.11,1.96-8.35,2.7-8.81.75-.46,4.66-.29,4.66-.29,0,0,2.76.11.29-.61Z"/>
      <path class="cls-1" d="M86.34,38.45s-.69-3.97-2.99-6.96c-2.3-2.99-4.43-5.75-4.6-6.68-.17-.92,1.04-3.28,1.15-5.3.12-2.01.23-3.4.92-3.22.69.17,1.79,2.07,2.59,3.45.81,1.38,3.11,6.39,3.86,8.86.75,2.47,1.21,10.42-.92,9.84Z"/>
      <path class="cls-5" d="M87.26,28.61s1.9,5.06,2.42,6.33c.52,1.27,2.36,2.88,2.99,5.12.63,2.24-5.01,3.86-5.01,3.86,0,0-1.61-3.74-1.32-5.47.29-1.73,1.55-4.57.92-9.84Z"/>
      <path class="cls-1" d="M24.06,74.88s1.61,8.52.92,12.32c-.69,3.8-.69,5.41.58,8.63s3.34,9.04,3.22,10.7c-.12,1.67-.46,4.03-.35,4.78.12.75,6.1-1.67,6.1-1.67,0,0-1.67-32.29-10.47-34.76Z"/>
      <path class="cls-4" d="M25.27,77.35s.23,4.14,1.27,7.65c1.04,3.51,2.71,6.79,2.47,9.61-.23,2.82-1.15,5.7-.17,8.98.98,3.28,1.5,4.66,1.84,5.01s3.97-2.47,4.43-4.6c.46-2.13-2.24-23.77-9.84-26.65Z"/>
      <path class="cls-1" d="M104.58,110.85s-2.65,5.3-1.27,10.13c1.38,4.83,2.53,9.84,2.47,11.28-.06,1.44-2.47,2.82-6.45,3.17-3.97.35-11.68-4.09-11.68-4.09,0,0,7.77-21.87,10.76-25.32,2.99-3.45,5.87.12,6.16,4.84Z"/>
      <path class="cls-5" d="M102.79,106.76s-.92,3.34-.58,4.83c.35,1.5-.35,1.67-.81,3.4-.46,1.73-.17,5.53,1.21,8.46,1.38,2.94,1.55,4.49,1.04,5.93-.52,1.44-2.01,4.6-3.86,5.06-1.84.46-5.76-3.34-7.77-3.74-2.01-.4-3.05.63-4.37.63-1.32,0-3.57-2.53-6.79-3.74-3.22-1.21-10.53-3.97-12.72-4.2-2.19-.23-9.15-2.59-10.88-3.11-1.73-.52-7.88-4.37-11.86-4.89-3.97-.52-6.73-.06-9.78.23-3.05.29-6.1.69-7.71,1.67-1.61.98-2.53,1.04-2.53,1.04,0,0,3.4-7.71,7.88-9.84,4.49-2.13,51.85-20.72,69.52-1.73Z"/>
      <path class="cls-5" d="M31.54,104.86s2.48-3.97-.86-13.06c-3.34-9.09-5.29-12.32-8.75-21.98-3.45-9.67-6.79-17.84-8.63-20.37-1.84-2.53-1.38-4.37-1.27-6.91.12-2.53-1.15-9.9-2.36-13.29-1.21-3.4-3.68-9.44-5.58-11.63C2.19,15.43.03,11.99.03,11.99c0,0,2.51-.47,3.37.1.86.58.23,2.53,1.04,4.03.81,1.5,3.63,5.58,6.1,10.36,2.47,4.78,3.11,9.9,3.86,12.72.75,2.82,1.38,6.1,3.11,7.6,1.73,1.5,28.08,19.34,33.61,31.08,5.53,11.74-.46,31.77-19.57,26.99Z"/>
      <path class="cls-3" d="M31.54,104.86c-.37.83-1.19,3.2-2.07,4-.88.8-1.67,1.01-1.84,1.93-.17.92-.69,3.45-1.9,4.6-1.21,1.15-1.5,2.47-.34,2.93,1.15.46,5.15-6.3,7.11-7.11,1.96-.81,5.75-.12,7.19.55,1.44.66,6.07,2.94,7.8,3.34,1.73.4,3.97.17,5.58.46,1.61.29,2.19,1.38,4.26,1.5,2.07.11,4.37-1.38,6.22-1.27,1.84.11,13.29,6.56,16.46,5.93,3.17-.63,4.66-1.9,6.62-2.7,1.96-.81,3.97-1.55,5.01-2.24,1.04-.69,3.34-2.53,5.18-3.57,1.84-1.04,7.89-3.51,6.16-10.65-1.73-7.14-30.16-37.18-40.52-42.47-10.36-5.29-24.29-13.87-24.29-13.87,0,0-7.77-7.42-10.82-11.16-3.05-3.74-7.77-8.17-12.03-14.62-4.26-6.45-4.72-8.29-5.41-9.67-.69-1.38-.86-1.27-2.13-.86-1.27.4-1.78,1.09-3.34,1.27-1.55.17-3.28-.12-4.26.52-.98.63,2.25.63,4.66,3.51,2.42,2.88,8.75,9.21,10.36,12.89,1.61,3.68,2.88,8.29,3.68,10.47.81,2.19,1.96,4.95,1.27,6.33-.69,1.38-2.65,1.9-2.65,1.9,0,0,1.04,1.9,1.27,3.22.23,1.32.52,2.01,1.38,3.11.86,1.09,3.05,3.63,3.8,4.49.75.86,1.09,2.42.4,3.4-.69.98-.81,1.55-.69,2.47.12.92.63,2.76,1.84,4.32,1.21,1.55,2.3,2.88,3.22,3.28.92.4.63,0,2.01,1.55,1.38,1.55,3.11,2.76,5.01,3.63,1.9.86,3.34.86,4.83,2.19,1.5,1.32,1.9,2.07,1.84,2.82-.06.75-1.5.81-2.19.52-.69-.29-1.73-.58-1.73,0s.58.86,1.78,1.38c1.21.52,1.55.06,1.55.58s-.52.63.46,1.21c.98.58,1.61.75,2.7,1.55,1.09.81,2.53,1.5,2.94,2.94.4,1.44-.81,1.32-1.9,1.38-1.09.06-4.72-.69-5.24-.58-.52.12,4.32,3.57,3.51,4.26-.81.69-2.47.86-3.8,1.15-1.32.29-2.01-.06-2.94,1.61-.92,1.67-.81,6.62-6.04,7.6Z"/>
      <path class="cls-4" d="M52.9,62.27s3.86,3.05,5.64,4.55c1.78,1.5,2.59,1.38,2.36,2.19-.23.81-3.8-.81-5.35-1.44-1.55-.63-5.01-2.88-5.93-2.76-.92.11-1.09,2.13.75,3.97,1.84,1.84,2.42,1.84,4.78,3.05,2.36,1.21,8.98,5.93,12.66,8.92,3.68,2.99,8.69,6.56,10.01,8.17,1.32,1.61.52,3.51.75,5.58.23,2.07,2.07,4.55,5.12,5.76,3.05,1.21,7.9,1.89,10.47,1.9s4.14.79,5.36,1.73c1.22.94,1.71,3.52,2.86,4.69,1.16,1.18,2.19,2.27,2.19,2.27,0,0,.11-4.89,1.04-6.16.92-1.27,1.84-5.18,2.59-7.83.75-2.65,2.13-8.75,3.57-11.45,1.44-2.7-.4-6.22-1.67-9.21-1.27-2.99-1.9-6.73-2.13-7.88-.23-1.15-3.86-8.29-10.42-9.78-6.56-1.5-40.78-1.46-44.66,3.74Z"/>
      <path class="cls-3" d="M107.31,100.13c.32-1.13.62-2.29.9-3.27.75-2.65,2.13-8.75,3.57-11.45,1.44-2.7-.4-6.22-1.67-9.21-1.27-2.99-1.9-6.73-2.13-7.88-.03-.14-.1-.36-.23-.64-3.06.69-6.42,1.57-11.24,1.57,0,9.68-17.41,6.95-23.66,5.56-13.95-3.12,7.78,3.81,10.27,5.48,4.26,2.85,19.44,7.22,5.56,7.22-6.91,0,6.75,7.05,18.63,12.63Z"/>
      <path class="cls-6" d="M26.89,34.51s5.17,7.11,7.59,9.87c2.42,2.76,1.15,3.74.12,4.2-1.04.46.4,1.55,1.73,2.94,1.32,1.38,4.37,3.63,6.85,4.6,2.47.98,4.2,1.84,5.58,3.34,1.38,1.5,1.78,3.11,2.65,3.8.86.69,3.1,1.13,4.94,1.78,1.85.64,3.63.93,5.88,1.27,2.24.35,4.03-.35,7.14-.06,3.11.29,4.95,1.5,7.14,1.32,2.19-.17,6.45-.98,10.19-.92,3.74.06,4.95.58,6.39.52,1.44-.06,2.53-.92,3.28-1.44.75-.52,1.04-1.67,4.26-1.96,3.22-.29,7.37,4.55,7.37,4.55,0,0-2.19-4.95-2.65-7.71-.46-2.76-1.04-5.99-1.04-5.99l-31.83-3.28-22.79-6.56s-12.26-2.13-14.79-3.45c-2.53-1.32-7.99-6.82-7.99-6.82Z"/>
      <path class="cls-6" d="M61.01,99.51c.4-.81-2.24-2.59-1.78-3.22.46-.63,3.63-.11,4.66.52,1.04.63,2.42,2.01,3.74,2.53,1.32.52,3.34.75,4.32.92.98.17.06-.92,2.88.23,2.82,1.15,5.93,2.47,6.45,3.57.52,1.09-2.53.17-3.4,0-.86-.17-7.83-2.53-8.98-2.42-1.15.12-4.83,2.24-7.19,2.88-2.36.63-7.02,1.04-9.9.98-2.88-.06-4.4-.6-4.6-1.27-.2-.66,5.99-.29,6.27-.75.29-.46-2.42-2.93-1.44-3.51.98-.58,8.29,1.9,8.98-.46Z"/>
      <path class="cls-3" d="M50.28,44.95s4.8,4.26,10.21,7.13c5.41,2.88,13.24,5.4,16.52,5.69,3.28.29,5.87,1.04,9.15,2.13,3.28,1.09,4.83,1.73,6.62,1.73s7.76-.32,9.78-2.82c2.03-2.5,1.73-4.2,1.73-4.2,0,0-1.67-8.81-.81-13.18.86-4.37,2.42-10.65,1.67-15.94-.75-5.29-3.34-14.04-5.29-17.09-1.96-3.05-2.65-5.41-3.74-5.93-1.09-.52-6.5-1.24-6.5-1.24l-.29.61s2.07.17,3.34,1.49c1.27,1.32,1.78,3.8,3.57,5.81,1.78,2.01,2.07,5.64,2.53,7.42.46,1.78.23,6.22-.11,8.86-.35,2.65-3.41,11.02-5.06,11.97-1.66.95-2.82,1.38-4.55,2.7-1.73,1.32-4.14,2.99-5.64,4.49-1.5,1.5-4.32,1.38-5.81,2.07-1.5.69-2.3,1.09-3.68,1.09s-2.3-.63-3.45-.63-3.05.17-4.6-.06c-1.55-.23-2.3-1.09-4.2-.92-1.9.17-2.82-.29-3.97-.35-1.15-.06-5.64-.81-7.39-.86Z"/>
      <path class="cls-2" d="M64.91,49.16s8.48,1.83,12.28.91c3.8-.91,8.82-2.59,10.95-3.65,2.13-1.07,1.87-2.3,4.13-4.95,2.26-2.65,7.13-7.52,7.74-10.11.61-2.59-.76-19.93-.76-19.93,0,0,2.74,9.89,3.35,15.06.61,5.17-.76,9.28-2.59,13.08-1.83,3.8-5.48,4.87-6.54,10.19-1.06,5.33,6.13,2.36,3.35,5.33-2.78,2.96-13.54-.76-17.19-.76s-14.71-5.17-14.71-5.17Z"/>
    </g>
  </g>
</svg>