<?xml version="1.0" encoding="UTF-8"?>
<svg id="_레이어_2" data-name="레이어 2" xmlns="http://www.w3.org/2000/svg" viewBox="0 0 209.05 168.97">
  <defs>
    <style>
      .cls-1 {
        fill: #ad5e00;
      }
    </style>
  </defs>
  <g id="_헤양그물" data-name="헤양그물">
    <g>
      <path class="cls-1" d="M3.83,8.89c.13-.22.39-.18.51.03.36,4.32,2.49,8.42,4.57,12.41,1.58,3.03,3.09,5.94,3.86,8.88.18,1.02.3,2.02.36,2.95.07,1.07.08,2.2,0,3.3-.33,2.46-1.14,4.89-1.97,7.43-1.05,3.17-2.12,6.42-2.24,9.82-.43-1.24-.97-2.44-1.58-3.62.2,1.14.42,2.3.64,3.46.35.96.64,1.94.84,2.96.05.43.04.86.02,1.3.17.8.34,1.61.53,2.43.07-.37.15-.9.2-1.32,0-.05.02-.09.04-.12.61,2.12,1.45,4.2,2.26,6.24,1.19,2.97,2.31,5.77,2.8,8.65.49,2.9.66,5.89.79,8.81.31.94.63,1.89.96,2.84-.03-.63-.06-1.25-.09-1.87-.07-1.53-.14-3.08-.25-4.64.96,3.25,2.2,6.43,3.42,9.53,1.79,4.58,3.65,9.31,4.57,14.2.13.83.24,1.67.33,2.51,1.2,2.56,2.47,5.11,3.81,7.65-1.29-3.3-2.49-6.7-3.17-10.21-.88-4.91.64-9.13,2.11-13.21.8-2.24,1.63-4.53,2.06-6.94.02,0,.05.01.07.03.6,3.73,2.19,7.36,3.74,10.89,1.7,3.87,3.44,7.85,3.9,11.97.04.82.03,1.6-.01,2.33-.04.68-.11,1.38-.22,2.07-.47,1.93-1.28,3.8-2.06,5.62-.8,1.86-1.61,3.76-2.07,5.73.2.38.4.76.6,1.14.36-2.2,1.27-4.33,2.22-6.54.72-1.66,1.44-3.36,1.94-5.13.11-.06.26.03.32.22.02.08.04.16.06.25.63,2.77,2.03,5.28,3.4,7.73,1.02,1.82,2,3.58,2.56,5.33.34,1.02.43,2.07.45,3.01.03,2-.69,3.82-1.38,5.67-.51,1.37-1.03,2.76-1.36,4.18.21.35.42.69.63,1.04.29-1.67.9-3.31,1.51-4.92.55-1.47,1.07-2.87,1.34-4.25.78,2.26,2.85,4.21,5.02,6.25,1.68,1.58,3.4,3.17,4.66,5.11.37.57.73,1.17.94,1.82.22.69.28,1.45.28,2.18,0,.57-.03,1.15-.19,1.7-.16.54-.47,1.03-.76,1.5-.62.98-1.36,1.88-2.1,2.77-.41.49-.82.98-1.2,1.49.18.22.36.44.54.65.41-.54.85-1.08,1.3-1.61,1.06-1.28,2.09-2.6,3.08-3.93.12-.16.49-.04.61.21.05.1.1.21.16.33.96,2.78,2.79,5.38,4.57,7.92,1.69,2.4,3.63,4.95,4.31,7.86.05.2.09.41.12.62.06.34.1.69.1,1.04.64.35,1.28.68,1.94.99-.06-.03.61-1.04.67-1.12.66-.98,1.45-1.68,2.4-2.36.87-.63,1.79-1.2,2.7-1.77,1.95-1.22,3.93-2.48,5.54-4.11.06-.07.13-.15.21-.24.41-.44.78-.91,1.12-1.41.17-.2.45-.22.48-.01.02.15.04.31.07.48.17,1.91.88,3.77,1.58,5.58.84,2.18,1.63,4.26,1.33,6.16-.09.35-.21.69-.34,1.02.47-.07.94-.16,1.42-.25.02-.04.04-.08.06-.13,1.74-3.23,4.39-5.97,7.19-8.86,2.38-2.46,4.83-4.99,6.71-7.89-.43,2.05-.48,4.17-.53,6.24-.05,2.07-.1,4.19-.54,6.2.31-.15.62-.29.93-.45.34-1.89.39-3.83.44-5.74.07-2.89.14-5.89,1.28-8.56,1.87-3.7,5.5-6.2,8.71-8.4,1.95-1.34,3.69-2.54,4.87-3.86-.38,1.43-.57,3.06-.76,4.78-.36,3.16-.77,6.75-2.52,9.54-1.61,2.11-3.7,4.01-5.71,5.85-2.14,1.95-4.32,3.95-6.03,6.26.6-.3,1.19-.6,1.79-.92,1.46-1.68,3.14-3.22,4.8-4.73,1.29-1.18,2.61-2.38,3.83-3.66-.63,1.4-1.14,2.85-1.63,4.28.38-.24.75-.49,1.13-.74.71-2.02,1.5-4.04,2.66-5.83,1.75-2.45,4.3-4.21,6.76-5.9,1.38-.95,2.77-1.92,4.04-3.01-.43.74-.86,1.49-1.28,2.23-1.08,1.91-2.2,3.89-3.47,5.7-.3.39-.61.78-.93,1.17,1.13-.89,2.25-1.8,3.36-2.73,1.08-1.24,2.21-2.44,3.32-3.62,1.05-1.11,2.12-2.24,3.14-3.4-.26.63-.49,1.24-.71,1.83,0,.02-.02.05-.03.07.47-.45.93-.89,1.39-1.34.5-1.24,1.16-2.6,2.31-4.27,1.4-2.04,2.88-4.1,4.32-6.09,2.09-2.91,4.23-5.9,6.24-8.96-.67,1.78-1.25,3.58-1.83,5.36-.31.95-.61,1.88-.92,2.8.52-.66,1.03-1.32,1.52-1.97.06-.19.12-.38.18-.57,1.13-3.51,2.31-7.15,4.09-10.37,2.29-4,5.39-7.41,8.44-10.69.68-1.16,1.37-2.31,2.06-3.44-.7.77-1.42,1.54-2.15,2.33-2.12,2.28-4.29,4.61-6.22,7.15.87-2.1,1.62-4.25,2.35-6.36,1.1-3.17,2.23-6.45,3.76-9.44,2.67-5.23,6.54-8.9,10.64-12.79.62-.59,1.25-1.19,1.88-1.79-1.2,2.24-1.79,4.67-2.36,7.04-.22.9-.43,1.78-.68,2.63.46-.68.92-1.35,1.37-2.01.03-.14.07-.29.1-.43.8-3.3,1.63-6.72,4.13-9.49,1.85-1.95,4.04-3.38,6.39-4.54.38-.48.76-.96,1.13-1.43-2.1.92-4.11,2.01-5.92,3.42,1.77-2.89,2.76-6.13,3.71-9.29.7-2.3,1.37-4.53,2.31-6.56.67-1.32,1.57-2.61,2.56-3.81.67-.81,1.43-1.64,2.28-2.43,3.3-2.68,7.46-4.28,11.8-5.96,3.47-1.34,7.02-2.72,10.15-4.71,1.33-1.22,2.07-1.86,2.07-1.86-.57.19-1.14.37-1.71.54-.28.23-.57.46-.88.68-3.05,1.92-6.53,3.27-9.93,4.58-4.46,1.72-9.03,3.49-12.57,6.55-.09,0-.16-.04-.19-.12,1.28-3.1.71-6.31,0-9.46-.29-.03-.58-.07-.87-.11.69,3.02,1.25,5.91.31,8.7-.53,1.11-1.27,2.2-2.04,3.19-.52.66-1.11,1.35-1.76,2.02-2.03,1.87-4.39,3.49-6.86,5.16-3.91,2.66-7.93,5.41-10.6,9.37.64-3.24-.02-6.52-.67-9.72-.47-2.33-1.09-4.72-.72-7.11.15-.93.42-1.85.75-2.73.29-.75.64-1.47,1.05-2.16.69-1.17,1.54-2.29,2.57-3.2.46-.4.93-.79,1.42-1.16.98-.74,2.01-1.42,3.05-2.07.71-.45,1.43-.89,2.15-1.33.57-.35,1.15-.7,1.72-1.06-.35-.11-.69-.22-1.03-.33-.37.23-.75.46-1.12.69-3.9,2.39-7.62,4.66-9.76,8.03-.15.01-.28-.05-.32-.18.03-3.27-1.84-6.41-3.67-9.46-1.43-2.39-2.9-4.84-3.51-7.4-.04-.5-.04-.99,0-1.49-.78-.63-1.18-1-1.18-1-.43.2-.85.39-1.27.57-.18.53-.39,1.06-.65,1.57-1.89,2.78-4.86,4.85-7.76,6.86-2.97,2.06-5.8,4.03-7.36,6.64-.16.05-.34,0-.45-.1-.17-2.75-1.62-5.5-3.14-8.37-.35-.66-.7-1.32-1.03-1.98-.31,0-.62,0-.93-.02.4.8.82,1.6,1.23,2.39.52.99,1.02,1.99,1.48,3.01.35.77.73,1.56.97,2.38.26.87.28,1.76.26,2.66-.02.74-.12,1.49-.31,2.21-.33,1.26-.91,2.45-1.68,3.51-.78,1.07-1.75,1.86-2.78,2.67-.95.75-1.94,1.46-2.94,2.15-2.94,2.02-5.96,4.1-7.9,7-.11.14-.21.28-.31.41-.17.23-.47.16-.51-.12-.02-.16-.04-.33-.07-.51-.21-3.01-1.35-5.89-2.47-8.7-.87-2.19-1.71-4.3-2.06-6.38-.19-1.35-.08-2.69.18-3.93.26-1.24.71-2.52,1.46-3.72,1.42-1.99,3.5-3.71,5.65-5.49.35-.29.7-.58,1.04-.87-.32-.09-.63-.19-.95-.28-.21.17-.41.34-.62.51-2.81,2.32-5.48,4.53-6.86,7.42-.04,0-.08,0-.12-.02-.17-2.87-1.75-5.63-3.41-8.52-1.48-2.59-3-5.24-3.49-8.03,0-.12,0-.24,0-.37-.75-.8-1.12-1.31-1.12-1.31,0,0-.39.25-1.12.65-.04.12-.08.24-.12.36-1.47,2.63-3.98,4.84-6.42,6.99-2.76,2.44-5.4,4.76-6.41,7.56-.1.03-.21.03-.31-.02-.74-2.7-3.02-5.08-5.4-7.58-.54-.56-1.07-1.12-1.6-1.7-.36.01-.73.02-1.09.02.68.76,1.39,1.5,2.1,2.24.82.86,1.63,1.74,2.39,2.66.73.88,1.44,1.8,1.93,2.84.54,1.14.76,2.37.73,3.63-.02.97-.19,2-.6,2.98-1.03,1.73-2.75,3.31-4.54,4.94-1.99,1.82-4.01,3.67-5.33,5.9-.28.37-.61.89-.85,1.29-.13.22-.53.15-.66-.11-.09-.19-.2-.39-.31-.61-1.34-3.37-4.17-6.07-6.94-8.69-1.01-.96-2.06-1.91-2.99-2.95-.89-1-1.92-2.26-2.29-3.58-.22-.8-.44-1.65-.46-2.48-.03-1.23.29-2.65.94-3.71.37-.6.87-1.09,1.41-1.54.52-.44,1-.88,1.51-1.33,1.12-.98,2.28-1.9,3.5-2.75-.3-.24-.73-.32-1.09-.19-.26.09-.48.27-.69.45-1.29,1.08-2.6,2.14-3.88,3.23-.54.46-1.04,1.09-1.48,1.65-.45.58-.84,1.21-1.11,1.9-.1.05-.25.05-.38,0-.68-2.29-2.44-4.52-4.28-6.86-2.45-3.1-4.96-6.29-5.43-10.01,0-.32.02-.64.05-.96-.46-.44-.91-.89-1.37-1.36,0,0-.18.12-.52.32-.13.39-.28.78-.44,1.15-1.41,2.28-3.6,4.19-5.73,6.06-2.63,2.3-5.32,4.66-6.41,7.66-.08.03-.18.01-.26-.04-.5-2.79-1.86-5.5-3.29-8.34-.68-1.35-1.36-2.71-1.95-4.09-.33-.07-.65-.14-.99-.22.64,1.59,1.43,3.15,2.2,4.69,1.1,2.17,2.15,4.27,2.79,6.37.33,1.38.41,2.74.36,3.96-.07,1.57-.4,3.16-1.06,4.6-.67,1.48-1.68,2.77-2.63,4.06-.22.3-.44.59-.66.89-1.79,2.41-3.63,4.88-4.57,7.72-.06.13-.18.17-.28.12-.65-3.49-2.52-6.71-4.34-9.84-1.65-2.83-3.23-5.54-3.96-8.41-.12-.76-.21-1.51-.25-2.25-.06-1.13-.04-2.29.13-3.42.83-3.42,3.23-6.27,5.75-9.24.32-.37.64-.75.95-1.13-.26-.11-.52-.23-.78-.35-.27.32-.53.64-.8.95-2.6,3.07-5.26,6.22-6.03,10.09-.06.02-.11.01-.17-.02-.79-3.18-2.41-6.3-3.99-9.34-1.83-3.51-3.7-7.12-4.31-10.83-.09-.78-.1-1.54-.05-2.28-.55-.57-1.11-1.17-1.67-1.78-.05.23-.1.46-.15.7-.01.66-.02,1.68-.01,3.05.13-.3.26-.6.38-.91ZM38.02,105c-.09.08-.2.08-.29,0-.51-4.17-2.25-8.14-3.95-12.01-1.49-3.39-2.91-6.64-3.56-9.97-.15-1.19-.21-2.34-.19-3.43.02-1.17.13-2.34.37-3.46,1.08-3.1,3.6-5.47,6.24-7.95,2.31-2.17,4.68-4.4,6.1-7.21.09-.14.18-.27.27-.39.16-.23.54-.2.64.06.06.16.13.34.21.53.84,3.67,2.86,7.11,4.84,10.47,1.17,1.98,2.38,3.95,3.29,6.06.45,1.05.85,2.12,1.01,3.25.17,1.22.17,2.46.03,3.69-.05.47-.13.95-.22,1.41-.37,1.86-1.01,3.73-2.17,5.25-1.28,1.69-3.1,3.04-4.71,4.39-3.21,2.7-6.5,5.48-7.9,9.3ZM44.83,125.03c-.48-2.25-1.71-4.44-2.99-6.73-1.48-2.64-3.18-5.5-3.51-8.57-.17-1.59.05-3.22.59-4.72.49-1.38,1.37-2.63,2.31-3.75,1.55-1.84,3.4-3.39,5.23-4.93,2.4-2.02,4.71-3.97,6.2-6.29.09-.1.17-.2.24-.29.22-.26.69-.15.77.19.8,3.12,2.29,5.96,3.86,8.75.79,1.4,1.58,2.8,2.25,4.26,1.06,2.31,1.68,4.98.87,7.47-.22.67-.53,1.37-.96,2.05-1.73,1.92-4.29,3.52-6.79,5.08-3.62,2.26-7.07,4.43-8.08,7.47ZM57.51,141.6c-.09.12-.17.24-.26.37-.08.11-.18.23-.31.25-.12.03-.25-.02-.35-.1-.15-.12-.26-.35-.33-.52-1.17-2.84-3.61-5.14-5.81-7.21-1.93-1.81-4.36-3.71-4.84-6.48-.06-.35-.08-.71-.08-1.07.03-1.47.6-2.92,1.61-4,1.05-1.12,2.28-2.03,3.55-2.88.87-.59,1.77-1.14,2.66-1.7,2.33-1.45,4.71-2.95,6.48-4.72.31-.26.64-.54.9-.78.21-.18.65-.15.73.05.15.35.35.81.55,1.17.96,2.76,3.38,5.16,5.6,7.35.95.93,1.9,1.87,2.76,2.88.5.59,1.04,1.19,1.33,1.92.33.81.27,1.79.14,2.64-.2,1.26-.69,2.57-1.63,3.47-1.09,1.04-2.57,1.79-3.86,2.53-.29.16-.57.33-.86.49-1.93,1.1-3.9,2.21-5.6,3.66-.93.79-1.68,1.7-2.38,2.68ZM65.02,107.02c1.63-1.91,3.83-3.39,5.85-4.83,3.23-2.31,6.54-4.69,8.29-8.21.14-.1.32-.06.4.09.27,3.53,2.13,6.6,3.96,9.59,1.47,2.41,2.97,4.88,3.66,7.6.1.69.13,1.36.11,1.96-.03.61-.09,1.23-.32,1.8-.19.49-.5.95-.8,1.37-.64.89-1.42,1.67-2.25,2.39-1.31,1.12-2.76,2.08-4.2,3.03-2.28,1.52-4.46,2.98-5.72,4.76-.05.04-.09.09-.14.13-.19.18-.65.12-.78-.1-.29-.5-.72-1.2-1.02-1.57-.96-1.44-2.39-2.86-3.87-4.31-2.33-2.3-4.73-4.66-5.51-7.34-.13-.93.01-1.87.3-2.78.43-1.37,1.15-2.55,2.05-3.6ZM92.43,104.59c-1.52,2.08-3.08,4.21-3.96,6.66-.11.17-.34.13-.46-.02-.69-2.9-2.26-5.48-3.8-8-1.69-2.77-3.31-5.44-3.75-8.41-.03-1.24.11-2.51.36-3.76.28-1.43.71-2.96,1.35-4.49,1.32-2.66,3.19-5.18,5.12-7.78,2.48-3.34,5.02-6.76,6.39-10.62.06-.03.11-.02.17.01.03,4.14.84,8.33,1.63,12.4.79,4.1,1.61,8.32,1.62,12.46-.02.49-.05.97-.09,1.43-.06.74-.14,1.48-.25,2.21-.72,3-2.54,5.49-4.32,7.92ZM97.34,97.66s.05-.02.08-.01c.51,3.85,2.48,7.16,4.41,10.37,1.49,2.49,3.02,5.05,3.88,7.87.09.43.17.85.21,1.24.04.33.06.67.06,1-.48,2.56-2.42,4.6-4.31,6.58-1.51,1.58-2.95,3.09-3.67,4.83-.06,0-.12,0-.17-.02-.55-2.41-2.34-4.63-4.21-6.96-1.45-1.8-2.94-3.63-3.93-5.74-.36-.77-.66-1.58-.72-2.44-.07-.94.05-1.93.29-2.84.82-2.31,2.3-4.33,3.85-6.44,1.68-2.28,3.39-4.63,4.25-7.42ZM81.07,152.12c-.22.73-.47,1.45-.91,2.09-.42.6-.9,1.16-1.42,1.68-1.06,1.05-2.27,1.92-3.51,2.74-.55.36-1.11.71-1.67,1.07-2.39,1.5-4.66,2.93-5.95,4.97-.1.02-.22-.01-.33-.09-.28-3.42-2.51-6.59-4.85-9.91-1.77-2.51-3.58-5.09-4.5-7.8-.14-.73-.19-1.44-.17-2.1.02-1.15.24-2.29.83-3.3,1.59-2.23,4.47-3.88,7.29-5.49,2.53-1.45,4.97-2.84,6.3-4.6.05-.05.1-.09.14-.14.16-.16.51-.13.69.03.48,2.43,2.14,4.92,3.87,7.51,2.23,3.35,4.52,6.79,4.7,10.49-.05.98-.25,1.95-.52,2.85ZM82.97,149.45c-.18.24-.5.25-.53.02,0-.04-.01-.08-.02-.12-.16-4-2.61-7.7-4.83-11.03-.43-.65-.83-1.34-1.3-1.96-.42-.56-.78-1.16-1.07-1.8-.77-1.67-1.15-3.62-.87-5.45.18-1.17.62-2.32,1.47-3.38,1.18-1.13,2.74-2.16,4.34-3.23,2.72-1.81,5.51-3.67,7.07-6.23.19-.24.39-.51.55-.72.11-.16.43-.09.53.13.04.08.08.17.13.27.9,2.6,2.73,4.88,4.52,7.11,1.65,2.05,3.23,4.02,3.88,6.05.17.81.18,1.62.09,2.4-.32,2.78-1.92,5.11-3.78,7.09-1.09,1.16-2.25,2.25-3.4,3.34-2.47,2.33-5,4.73-6.72,7.44-.02.03-.04.06-.07.09ZM99.91,148.15c-1.89,3.76-4.92,6.88-7.84,9.91-2.48,2.57-5.04,5.21-6.84,8.2.08-1.88-.67-3.83-1.45-5.86-.43-1.12-.86-2.24-1.17-3.39-.21-.81-.41-1.64-.4-2.48.01-.84.27-1.69.53-2.48.15-.48.33-.98.54-1.48,1.64-2.93,4.38-5.52,7.04-8.03,3.12-2.95,6.09-5.76,7.21-8.98.04,0,.08.03.11.06.24,1.49.76,3,1.32,4.56,1.13,3.19,2.29,6.5.96,9.98ZM114.67,134.23c-.45,1.16-1.41,2.08-2.35,2.86-1,.82-2.08,1.53-3.14,2.26-2.68,1.84-5.64,3.88-7.71,6.68-.09.03-.17,0-.16-.11.22-2.77-.67-5.45-1.58-8.02-.5-1.42-.98-2.78-1.23-4.11-.07-.77-.05-1.54.04-2.28.14-1.22.45-2.36,1.2-3.36.77-1.03,1.64-1.96,2.52-2.88,1.48-1.55,3-3.15,3.88-5.02.17-.26.37-.65.51-.94.07-.14.3-.09.42.07.94,2.18,2.53,4.4,4.09,6.56.87,1.21,1.76,2.42,2.53,3.7.87,1.45,1.63,2.89.97,4.59ZM111.84,125.45c-1.72-2.38-3.49-4.83-4.3-7.16-.05-.26-.08-.52-.11-.77-.06-.56-.08-1.14-.03-1.71.49-2.42,2.14-4.4,3.8-6.14.48-.5.97-.99,1.45-1.49,1.15-1.16,2.32-2.33,3.28-3.59.34-.38.89-1.15,1.29-1.71.17-.24.61-.13.73.19.09.24.19.51.3.78.76,2.38,2.26,4.68,3.74,6.93,2.17,3.31,4.41,6.73,4.4,10.45-.04.55-.13,1.09-.23,1.6-.04.18-.09.37-.14.56-1.23,2.91-3.75,4.73-6.19,6.5-1.5,1.08-2.93,2.12-3.91,3.34-.08-2.24-2.03-4.94-4.08-7.78ZM121.06,94.45s.05-.08.07-.12c.55-.89,1.34-1.71,2.04-2.5,3.2-3.6,7.2-6.37,10.34-10.04.75-.88,1.46-1.81,2.07-2.79.26-.36.52-.74.73-1.05.17-.25.52-.19.58.1.02.1.05.21.07.33.24,2.93,1.2,5.7,2.13,8.4,1.44,4.18,2.8,8.14,1.66,12.49-.15.5-.31,1-.48,1.48-.02.06-.04.11-.06.17-1.42,3.57-3.98,6.83-6.47,9.97-2.43,3.07-4.92,6.23-6.43,9.77-.05,0-.09,0-.13-.03-.21-3.71-2.39-7.05-4.52-10.3-1.29-1.96-2.53-3.87-3.31-5.78-.36-1.5-.4-3.06-.19-4.57.14-1,.43-1.93.77-2.88.31-.88.65-1.84,1.12-2.65ZM127.34,128.91c-.12-1.72-.25-3.5-.08-5.28.05-.24.1-.48.15-.72.07-.28.14-.57.23-.86,1.39-3.87,4.11-7.32,6.75-10.66,1.92-2.44,3.89-4.94,5.37-7.62-.38,2-.53,4.04-.68,6.04-.27,3.61-.55,7.35-2.15,10.85-2.28,4.86-5.52,9.25-8.64,13.5-.39.53-.78,1.07-1.18,1.6.55-2.21.4-4.49.23-6.86ZM118.37,144.41c-1.82,1.26-3.69,2.55-5.28,4.14.91-2.42,1.21-5.09,1.49-7.52.23-2.03.52-4.12,1.38-6.01.92-2.01,2.61-3.22,4.35-4.47.9-.65,1.81-1.31,2.66-2.03,1.18-.99,2.27-2.11,3.11-3.4.08-.12.2-.15.28-.1-.03,1.34.07,2.65.16,3.94.25,3.46.48,6.72-1.65,9.76-1.62,2.32-3.99,3.95-6.51,5.69ZM129.23,137.3c-1.69,2.47-3.86,4.75-5.96,6.97-.6.63-1.2,1.27-1.8,1.92.28-.49.56-.98.83-1.47,1.05-1.86,2.13-3.78,3.35-5.51,1.07-1.52,2.2-3.06,3.3-4.55,1.9-2.58,3.84-5.22,5.59-7.98-1.5,3.68-3.1,7.4-5.31,10.63ZM147.28,106.65c-1.27,3.67-2.58,7.47-4.53,10.9-2.72,4.71-5.98,9.24-9.13,13.62-.09.13-.18.26-.28.39.89-1.92,1.69-3.89,2.47-5.83.64-1.58,1.3-3.2,1.99-4.77,2.1-4.4,4.8-8.59,7.41-12.65,1.12-1.74,2.26-3.51,3.36-5.31-.45,1.22-.88,2.45-1.29,3.66ZM155.68,77.33c2.4-5.11,7.12-8.33,11.69-11.44,2.4-1.64,4.86-3.31,6.98-5.27.03,0,.05.01.07.02-1.34,2.46-2.17,5.22-2.99,7.92-1.21,4-2.46,8.13-5.31,11.41-1.39,1.44-2.83,2.8-4.22,4.12-3.21,3.05-6.29,5.98-8.78,9.63.61-2.38.79-4.79.96-7.15.22-3.05.46-6.21,1.62-9.24ZM150.94,97.16c-1.89,3.65-4.19,7.23-6.42,10.69-1.85,2.88-3.74,5.83-5.44,8.88.49-2.28.66-4.59.83-6.84.24-3.19.46-6.21,1.51-9.11,1.62-4.5,4.57-8.72,7.42-12.8,1.8-2.58,3.65-5.23,5.21-8-.48,2.19-.65,4.39-.81,6.54-.27,3.72-.53,7.24-2.3,10.65ZM153.98,57.54c-.18,2.39.32,4.88.84,7.48.73,3.61,1.48,7.34.27,10.89-.14.36-.28.72-.42,1.07-1.72,3.66-4.15,7.14-6.5,10.51-2.25,3.22-4.55,6.52-6.25,10,.41-3.85-.83-7.46-2.04-10.98-.89-2.57-1.8-5.2-2.07-7.95-.02-1.2.12-2.38.36-3.47.24-1.13.6-2.26,1.12-3.32,1.78-2.91,4.61-5.2,7.38-7.44,2.6-2.1,5.26-4.26,6.99-6.91.14-.04.27,0,.33.12ZM130.29,51.11c.24-.94.66-1.82,1.14-2.67.51-.9,1.06-1.67,1.82-2.38.46-.44.94-.86,1.45-1.25,1.02-.78,2.07-1.52,3.13-2.25,2.9-2.01,5.87-4.08,7.83-6.86.26-.3.52-.63.74-.9.19-.24.61-.19.7.08.18.56.44,1.32.66,1.81.74,2.25,2.02,4.39,3.28,6.49,1.5,2.5,2.94,4.92,3.4,7.36.13,1.44-.19,2.92-.67,4.25-.43,1.21-1.07,2.5-1.94,3.71-1.56,1.84-3.58,3.48-5.67,5.17-3,2.43-6.07,4.92-7.89,8.21-.03.04-.06.08-.09.12-.17.24-.53.17-.59-.11-.08-.37-.19-.82-.3-1.23-.65-3.08-2.35-5.95-4.01-8.76-.62-1.05-1.23-2.1-1.79-3.19-.28-.54-.52-1.09-.76-1.65-.81-1.91-.95-3.95-.44-5.98ZM112.27,69.51c.22-.83.49-1.66.84-2.45,1.83-3.08,4.98-5.25,8.04-7.36,2.88-1.98,5.63-3.88,7.18-6.43.17-.05.39,0,.49.13.22,2.96,1.94,5.89,3.75,8.95,1.79,3.03,3.62,6.13,4.06,9.44,0,1.02-.14,2.03-.34,2.98-.19.92-.47,1.9-.87,2.88-1.94,3.55-5.2,6.48-8.39,9.33-3.31,2.96-6.48,5.8-8.13,9.21-.03.03-.05.07-.08.1-.21.28-.67.18-.77-.17-.02-.07-.04-.14-.07-.22-.43-3.31-1.68-6.64-2.98-10.1-1.64-4.36-3.32-8.84-3.27-13.38.1-1.01.29-1.98.53-2.89ZM110.9,72.46c0,.05.01.11.02.17,0,4.6,1.68,9.08,3.32,13.44.45,1.2.9,2.4,1.31,3.61.74,2.17,1.24,4.36,1.34,6.66.04,1.02,0,2.05-.12,3.06-.16,1.36-.46,2.73-.96,3.95-.98,1.46-2.34,2.83-3.74,4.25-2.29,2.3-4.64,4.67-5.39,7.63-.05.1-.18.1-.3.03-.9-2.76-2.38-5.25-3.84-7.68-2.08-3.47-4.05-6.78-4.37-10.72-.01-.7,0-1.4.05-2.1.06-.77.15-1.57.29-2.38,1-4.51,3.74-8.15,6.63-11.96,1.96-2.58,3.96-5.24,5.39-8.21.16-.08.35,0,.37.24ZM106.34,48.95c.08,2.79,1.17,5.56,2.33,8.45,1.2,3.02,2.43,6.12,2.44,9.31-.1.82-.26,1.63-.46,2.41-.3,1.15-.73,2.39-1.3,3.62-1.36,2.56-3.13,4.91-4.87,7.2-2.66,3.51-5.38,7.11-6.57,11.46-.21-3.69-.92-7.38-1.62-10.97-.72-3.75-1.47-7.59-1.59-11.39-.02-1.26.08-2.47.24-3.59.09-.61.2-1.22.35-1.82,1.15-3.17,3.55-5.73,5.89-8.23,1.98-2.11,3.88-4.14,5.01-6.46.06-.02.12-.01.17.01ZM86.82,40.33c.6-1.08,1.41-2,2.32-2.92.93-.93,1.91-1.81,2.89-2.67,1.92-1.69,3.88-3.42,5.4-5.36.35-.4.9-1.17,1.28-1.73.17-.24.53-.21.6.06.08.28.18.6.28.92.61,2.67,2.05,5.17,3.45,7.62,1.26,2.2,2.48,4.32,3.03,6.44.23,1.32.13,2.65-.11,3.84-.16.82-.41,1.69-.77,2.53-1.1,2.03-2.83,3.87-4.62,5.79-2.12,2.26-4.29,4.58-5.6,7.38-.05.09-.1.17-.14.25-.12.23-.39.18-.46-.07-.55-3.56-2.68-6.54-4.77-9.45-.57-.8-1.14-1.6-1.67-2.42-.5-.77-1.03-1.49-1.35-2.36-.49-1.34-.77-2.75-.75-4.17,0-.6.09-1.21.24-1.8.17-.68.43-1.29.74-1.86ZM73.58,58.97c.43-1.22,1.38-2.34,2.19-3.27,1.07-1.21,2.27-2.31,3.46-3.39,2.15-1.96,4.2-3.84,5.19-6.06.01-.02.03-.04.04-.06.09-.13.28-.15.43-.09.61,2.54,2.28,4.88,4.04,7.32,2.13,2.96,4.31,6.01,4.69,9.63,0,.72-.06,1.44-.16,2.13-.12.89-.31,1.85-.6,2.81-1.35,3.71-3.82,7.05-6.24,10.31-2.21,2.98-4.48,6.04-5.86,9.37-.1.05-.21.03-.28-.06-.04-4.75-1.98-9.13-3.86-13.39-1.75-3.96-3.59-7.96-3.46-12.41.02-.73.1-1.45.24-2.17.04-.23.1-.45.18-.67ZM71.29,65.18c.14-.23.28-.46.39-.66.14-.24.5-.18.63.09.68,3.47,2.13,6.74,3.54,9.94,1.74,3.93,3.41,7.7,3.74,11.73-.01,1.59-.21,3.13-.49,4.47-.27,1.31-.67,2.65-1.25,3.88-1.73,2.77-4.54,4.79-7.47,6.88-2.71,1.94-5.49,3.93-7.4,6.61-.02.02-.05.05-.07.07-.21.2-.63.16-.71-.07-.05-.14-.1-.3-.16-.46-.34-3.23-2.09-6.35-3.8-9.39-1.38-2.45-2.7-4.81-3.33-7.18-.1-1.49.07-3.02.4-4.51.4-1.81,1.07-3.74,2.21-5.56,1.53-1.97,3.48-3.82,5.5-5.73,3.25-3.08,6.58-6.25,8.26-10.13ZM57.28,42.62c.04-.05.08-.1.12-.15.1-.13.35-.14.54-.06.93,2.78,3.44,5.17,6.08,7.67,2.68,2.54,5.42,5.15,6.71,8.35.26,1.02.36,2.04.33,3.01-.03,1.3-.27,2.75-.87,4.13-1.7,3.41-4.75,6.31-7.73,9.13-2.36,2.23-4.76,4.51-6.45,7.04-.29.36-.58.74-.82,1.05-.23.29-.71.18-.81-.18-.07-.27-.16-.57-.25-.88-.69-3.62-2.73-7.11-4.73-10.51-1.81-3.07-3.66-6.22-4.56-9.5-.28-1.32-.3-2.59-.18-3.77.08-.81.23-1.63.48-2.42,1.4-2.74,4-4.89,6.54-6.98,2.34-1.92,4.57-3.76,5.6-5.93ZM34.92,32.99c1.24-2.12,3.32-3.94,5.48-5.84,1.74-1.52,3.51-3.07,4.9-4.84.33-.38.76-.92,1.07-1.33.17-.22.51-.14.57.14.04.19.09.41.15.63.61,3.84,3.19,7.12,5.55,10.09.41.52.82,1.06,1.2,1.6.67.94,1.36,1.8,1.83,2.86.53,1.19.89,2.54.9,3.85.01,1.11-.2,2.29-.86,3.38-1.09,1.52-2.79,2.92-4.56,4.38-2.07,1.7-4.31,3.55-5.87,5.79-.32.37-.78,1.05-1.1,1.53-.14.22-.52.19-.63-.05-.05-.11-.11-.24-.17-.37-.86-2.94-2.85-5.52-4.8-8.02-1.75-2.25-3.43-4.42-4.26-6.76-.26-1.09-.33-2.19-.28-3.23.06-1.28.31-2.6.89-3.81ZM28.63,46.56c1.83-2.46,3.59-4.82,4.35-7.45.07-.01.15,0,.22.05.7,2.95,2.73,5.58,4.72,8.14,1.82,2.35,3.68,4.76,4.55,7.43.21,1.03.24,2.07.14,3.05-.1.99-.34,2.06-.77,3.11-1.37,2.56-3.59,4.65-5.76,6.69-2.71,2.54-5.48,5.15-6.56,8.66-.07.08-.17.08-.26.02-.49-2.82-1.58-5.62-2.66-8.34-1.27-3.23-2.58-6.55-2.88-9.92,0-.54,0-1.07.04-1.6.03-.43.07-.88.13-1.32.75-3.15,2.78-5.87,4.75-8.52ZM21.88,60.46c.3-.51.57-1.03.82-1.56.06-.14.18-.17.28-.13.42,3.24,1.65,6.38,2.86,9.44,1.01,2.55,1.97,5.01,2.48,7.48.16,1.15.22,2.31.22,3.37,0,1.72-.18,3.45-.58,5.13-.39,1.65-1,3.26-1.58,4.85-1.09,3.04-2.21,6.16-2.39,9.61-1-3.62-2.38-7.14-3.73-10.57-1.83-4.66-3.72-9.48-4.6-14.43-.67-3.74,1.41-6.5,3.61-9.42.9-1.2,1.82-2.45,2.6-3.77ZM13.99,36.24s.09,0,.14.03c.81,2.86,2.39,5.57,3.93,8.21,1.91,3.28,3.88,6.67,4.36,10.3.03.53.04,1.06.01,1.56-.01.24-.04.49-.06.74-.62,2.5-2.2,4.62-3.74,6.66-1.64,2.18-3.32,4.42-3.78,7.1-.59-2.05-1.4-4.09-2.2-6.09-1.09-2.72-2.22-5.53-2.78-8.37-.56-4.23.79-8.29,2.08-12.22.85-2.59,1.73-5.24,2.05-7.93Z"/>
      <path class="cls-1" d="M203.53,42.75c.21.04.39.16.5.36.17.3.1.69-.16.92-.34.29-34.11,29.54-58.18,76.2-11.18,21.68-48.14,52.61-70.83,48.34-20.2-3.79-33.82-29.8-44.77-50.69-.84-1.61-1.67-3.18-2.47-4.7-7.69-14.51-17.84-38.9-22.55-72.72C2.25,20.24,2.74,6.03,2.74,5.89c.01-.3.2-.56.48-.66.28-.1.59-.02.79.2,12.07,13.41,22.91,16.2,29.88,16.18,7.49-.02,12.19-3.17,12.23-3.21.29-.2.69-.16.94.1,9.93,10.29,21.64,14.59,34.81,12.8,9.83-1.34,16.8-5.75,16.87-5.8.32-.21.75-.13.98.18.04.05,4.03,5.33,11.79,8.75,12.94,5.71,26.29,1.95,35.22-2.2.27-.13.59-.07.81.13.06.05,5.85,5.38,15.57,9.3,8.95,3.61,23.16,6.73,40.06,1.12.12-.04.25-.05.37-.02ZM173.83,46.31c-4.34-.82-8.15-2.04-11.32-3.32-8.66-3.51-14.16-7.99-15.6-9.24-9.21,4.21-22.8,7.86-36.06,1.98-6.71-2.98-10.65-7.19-11.88-8.66-1.88,1.1-8.25,4.5-16.89,5.67-9.29,1.27-22.96.05-35.65-12.81-1.48.86-5.97,3.12-12.53,3.14-7.02.02-17.79-2.67-29.73-15.31-.05,10.04.95,59.86,24.73,104.74.81,1.52,1.63,3.09,2.47,4.7,10.8,20.61,24.25,46.27,43.75,49.93,9.85,1.85,24-3.4,38.84-14.4,13.1-9.71,25.04-22.74,30.43-33.18,20.44-39.63,47.86-66.77,56.09-74.43-10.1,2.79-19.17,2.59-26.66,1.19Z"/>
      <path class="cls-1" d="M95.08,22.68c.21,2.69,1.82,3.55,3.62,3.92,1.8.37,3.68-.61,4.18-3.28.5-2.67-1.58-4.39-3.74-4.76-2.16-.38-4.27,1.43-4.06,4.12Z"/>
      <path class="cls-1" d="M8.05,4.08C7.84,1.33,6.19.45,4.35.08,2.51-.3.59.7.08,3.42s1.62,4.48,3.82,4.87c2.2.39,4.36-1.46,4.15-4.21Z"/>
      <path class="cls-1" d="M147.91,33.94c2.65-.13,3.32-1.8,3.48-3.69.16-1.89-1.02-3.91-3.72-4.53-2.7-.62-4.17,1.52-4.31,3.79-.13,2.27,1.9,4.56,4.54,4.43Z"/>
      <path class="cls-1" d="M203.12,44.64c-2.35-1.19-2.36-2.97-1.84-4.74.52-1.77,2.3-3.12,4.96-2.58,2.66.54,3.23,3.07,2.55,5.17-.68,2.1-3.32,3.34-5.67,2.15Z"/>
      <path class="cls-1" d="M44.71,19.68c-2.35-1.19-2.36-2.97-1.84-4.74.53-1.77,2.3-3.11,4.96-2.58s3.23,3.07,2.55,5.17c-.68,2.1-3.32,3.34-5.67,2.15Z"/>
    </g>
  </g>
</svg>